<svg width="39" height="39" viewBox="0 0 39 39" fill="none" xmlns="http://www.w3.org/2000/svg">
<path d="M19.0271 38.7299C13.9805 38.7292 9.14092 36.7239 5.57275 33.1551C2.00459 29.5864 -6.27083e-08 24.7465 0 19.6999C-6.96764e-09 14.6528 2.00494 9.81233 5.57373 6.24335C9.14252 2.67437 13.9829 0.669211 19.03 0.668945C24.0768 0.670006 28.9163 2.67549 32.4846 6.24435C36.0529 9.81321 38.0578 14.6532 38.0581 19.6999C38.0578 24.7471 36.0526 29.5875 32.4836 33.1562C28.9147 36.725 24.0743 38.7299 19.0271 38.7299Z" fill="#E4E4E5"/>
<path d="M19.0271 11.146C21.8131 11.146 22.1429 11.1559 23.2429 11.2059C23.9048 11.2141 24.5603 11.3359 25.1809 11.5659C25.6311 11.7391 26.04 12.0048 26.3811 12.3458C26.7222 12.6869 26.9878 13.0957 27.1609 13.5459C27.391 14.1666 27.5129 14.8221 27.521 15.4839C27.571 16.5839 27.582 16.9139 27.582 19.6999C27.582 22.4859 27.571 22.8159 27.521 23.9159C27.5129 24.5778 27.391 25.2333 27.1609 25.8539C26.9878 26.3041 26.7222 26.713 26.3811 27.0541C26.04 27.3951 25.6311 27.6608 25.1809 27.8339C24.5603 28.064 23.9048 28.1858 23.2429 28.1939C22.1429 28.2439 21.8131 28.2539 19.0271 28.2539C16.2411 28.2539 15.911 28.2439 14.811 28.1939C14.1492 28.1858 13.4937 28.064 12.873 27.8339C12.4229 27.6607 12.0141 27.395 11.6731 27.0539C11.332 26.7129 11.0663 26.3041 10.8931 25.8539C10.663 25.2333 10.5412 24.5778 10.533 23.9159C10.483 22.8159 10.4729 22.4859 10.4729 19.6999C10.4729 16.9139 10.483 16.5839 10.533 15.4839C10.5412 14.8221 10.663 14.1666 10.8931 13.5459C11.0663 13.0958 11.332 12.687 11.6731 12.346C12.0141 12.0049 12.4229 11.7392 12.873 11.5659C13.4937 11.3359 14.1492 11.2141 14.811 11.2059C15.911 11.1559 16.2411 11.146 19.0271 11.146ZM19.0271 9.26495C16.1931 9.26495 15.8381 9.27795 14.7271 9.32795C13.8614 9.34592 13.0051 9.5099 12.1941 9.81295C11.5011 10.0812 10.8716 10.4912 10.3462 11.0168C9.8208 11.5423 9.41106 12.1718 9.14307 12.8649C8.83903 13.6757 8.67492 14.5322 8.65796 15.3979C8.60696 16.5109 8.59497 16.8659 8.59497 19.6979C8.59497 22.5299 8.60696 22.8869 8.65796 23.9979C8.67492 24.8637 8.83903 25.7202 9.14307 26.5309C9.41101 27.2241 9.8208 27.8536 10.3462 28.3792C10.8716 28.9048 11.501 29.3148 12.1941 29.5829C13.0051 29.886 13.8614 30.05 14.7271 30.0679C15.8401 30.1179 16.1951 30.1299 19.0271 30.1299C21.8591 30.1299 22.2159 30.1179 23.3269 30.0679C24.1925 30.05 25.0491 29.886 25.8601 29.5829C26.5531 29.3145 27.1825 28.9044 27.708 28.3789C28.2335 27.8534 28.6437 27.224 28.9121 26.5309C29.2165 25.7209 29.3813 24.8651 29.3999 23.9999C29.4499 22.8869 29.4619 22.5319 29.4619 19.6999C29.4619 16.8679 29.4499 16.5109 29.3999 15.3999C29.3824 14.5343 29.2186 13.6778 28.915 12.8669C28.6466 12.1739 28.2365 11.5445 27.7109 11.019C27.1854 10.4935 26.5561 10.0834 25.863 9.81495C25.052 9.51189 24.1957 9.34793 23.3301 9.32995C22.2171 9.27995 21.862 9.26694 19.03 9.26694" fill="black"/>
<path d="M19.027 14.3419C17.9673 14.3419 16.9313 14.6562 16.0502 15.2449C15.1691 15.8337 14.4824 16.6705 14.0768 17.6495C13.6713 18.6286 13.5652 19.7059 13.7719 20.7452C13.9786 21.7846 14.4889 22.7393 15.2382 23.4886C15.9875 24.238 16.9423 24.7483 17.9816 24.955C19.021 25.1617 20.0983 25.0556 21.0773 24.6501C22.0564 24.2446 22.8931 23.5578 23.4819 22.6767C24.0706 21.7956 24.3849 20.7597 24.3849 19.6999C24.3849 18.2789 23.8204 16.9161 22.8156 15.9113C21.8108 14.9065 20.448 14.3419 19.027 14.3419ZM19.027 23.1779C18.3389 23.1789 17.6658 22.9758 17.0932 22.5942C16.5206 22.2127 16.0742 21.6698 15.8102 21.0344C15.5462 20.399 15.4764 19.6995 15.61 19.0245C15.7437 18.3495 16.0747 17.7293 16.561 17.2424C17.0472 16.7555 17.6667 16.4238 18.3415 16.2891C19.0163 16.1545 19.7159 16.2231 20.3517 16.4862C20.9875 16.7493 21.5311 17.1951 21.9135 17.7672C22.2959 18.3392 22.4999 19.0118 22.4999 19.6999C22.4999 20.6224 22.1334 21.507 21.4811 22.1593C20.8289 22.8115 19.9443 23.1779 19.0219 23.1779" fill="black"/>
<path d="M25.8491 14.1299C25.8491 14.3776 25.7755 14.6196 25.6379 14.8255C25.5003 15.0314 25.3049 15.1919 25.0761 15.2866C24.8473 15.3814 24.5956 15.4062 24.3527 15.3579C24.1099 15.3096 23.8867 15.1903 23.7116 15.0152C23.5365 14.8401 23.4174 14.6171 23.3691 14.3742C23.3208 14.1313 23.3454 13.8796 23.4401 13.6508C23.5349 13.4221 23.6954 13.2265 23.9013 13.0889C24.1072 12.9514 24.3492 12.8779 24.5969 12.8779C24.9289 12.8779 25.2473 13.0099 25.4821 13.2447C25.7169 13.4794 25.8491 13.7979 25.8491 14.1299Z" fill="black"/>
</svg>
