<svg width="39" height="39" viewBox="0 0 39 39" fill="none" xmlns="http://www.w3.org/2000/svg">
<path d="M19.031 0.667969H19.03C8.52002 0.667969 0 9.18799 0 19.698V19.702C0 30.2119 8.52002 38.732 19.03 38.732H19.031C29.541 38.732 38.061 30.2119 38.061 19.702V19.698C38.061 9.18799 29.541 0.667969 19.031 0.667969Z" fill="#E4E4E5"/>
<path fill-rule="evenodd" clip-rule="evenodd" d="M17.6379 17.989C17.6379 18.051 17.5839 18.102 17.6059 18.167C17.5944 18.1711 17.5844 18.1785 17.5771 18.1883C17.5698 18.1981 17.5656 18.2098 17.5649 18.222C17.4557 18.812 17.2231 19.3723 16.8821 19.866L16.853 19.913L16.373 20.439C16.298 20.4708 16.2337 20.5235 16.188 20.591C15.9253 20.7729 15.6465 20.9302 15.355 21.061C15.24 21.105 15.323 21.154 15.355 21.194C15.655 21.594 15.9551 21.994 16.2671 22.385C16.4199 22.6165 16.5957 22.8319 16.792 23.028C16.7921 23.0325 16.7937 23.0368 16.7966 23.0403C16.7995 23.0437 16.8037 23.0461 16.8081 23.047C16.9241 23.215 17.033 23.389 17.157 23.552C17.649 24.201 18.1461 24.852 18.6411 25.495C18.9361 25.88 18.8939 26.137 18.4929 26.395C18.4059 26.395 18.3199 26.395 18.2329 26.395H10.0471C9.3401 26.395 8.633 26.395 7.926 26.395H7.93186C7.90186 26.352 7.85594 26.362 7.81394 26.361C7.79194 26.298 7.72901 26.276 7.68601 26.235V26.229L7.63401 26.17C7.58631 26.0419 7.5613 25.9066 7.56004 25.77C7.56004 21.8086 7.56004 17.8473 7.56004 13.886C7.55503 13.6897 7.56972 13.4933 7.60398 13.3C7.63998 13.286 7.64304 13.255 7.64304 13.222L7.76389 13.09V13.085C7.89644 13.0188 8.04397 12.9885 8.19187 12.997C9.8032 12.997 11.4142 12.997 13.0249 12.997C13.5015 13.001 13.9764 13.057 14.4409 13.164C15.0553 13.3082 15.637 13.5674 16.155 13.928C16.2149 14.0059 16.2913 14.0694 16.3789 14.114C16.4329 14.1922 16.5009 14.26 16.5791 14.314L16.591 14.327C16.9873 14.7859 17.2851 15.3212 17.466 15.8998C17.647 16.4785 17.7072 17.0881 17.643 17.691C17.634 17.79 17.5499 17.891 17.6379 17.989Z" fill="black"/>
<path fill-rule="evenodd" clip-rule="evenodd" d="M30.4881 23.014L30.44 23.263C30.3516 23.6325 30.2208 23.9905 30.0501 24.33C29.8031 24.7499 29.483 25.1225 29.1051 25.43C28.8731 25.558 28.6581 25.714 28.4161 25.83C27.5917 26.2073 26.6948 26.3997 25.7882 26.394C24.2002 26.41 22.612 26.394 21.024 26.394C20.7739 26.4182 20.5215 26.3948 20.2801 26.325L20.191 26.242C20.1973 26.2211 20.1956 26.1987 20.1861 26.179C20.1767 26.1594 20.1602 26.144 20.14 26.136C20.1117 26.0348 20.0981 25.93 20.0992 25.825C20.0992 21.737 20.0992 17.6493 20.0992 13.562C20.0868 13.4861 20.0924 13.4083 20.1158 13.335C20.1392 13.2617 20.1796 13.1951 20.2337 13.1404C20.2879 13.0858 20.3543 13.0448 20.4273 13.0207C20.5004 12.9966 20.5781 12.9902 20.6541 13.002C22.1991 13.002 23.7432 12.996 25.2882 13.002C26.4195 12.9364 27.5325 13.3084 28.3971 14.041L28.4351 14.081C28.4349 14.0862 28.4357 14.0914 28.4376 14.0962C28.4394 14.1011 28.4422 14.1055 28.4459 14.1092C28.4496 14.1129 28.454 14.1157 28.4588 14.1176C28.4637 14.1194 28.469 14.1203 28.4742 14.12C29.1094 14.9062 29.4175 15.9066 29.335 16.914C29.328 17.174 29.267 17.426 29.262 17.685L29.254 17.727C29.1465 18.0601 29.0104 18.3834 28.847 18.693C28.7795 18.7541 28.7279 18.8306 28.6961 18.916C28.5481 19.005 28.5561 19.069 28.7181 19.139C28.8538 19.1986 28.9836 19.2705 29.106 19.354C29.4836 19.6205 29.7991 19.9654 30.0311 20.3651C30.2631 20.7648 30.406 21.2099 30.45 21.67C30.4975 22.1163 30.5103 22.5657 30.4881 23.014Z" fill="black"/>
</svg>
