<svg width="47" height="47" viewBox="0 0 47 47" fill="none" xmlns="http://www.w3.org/2000/svg">
<path d="M41.302 17.3791C40.269 17.2134 39.2103 17.3365 38.2429 17.7348C37.2754 18.1331 36.4369 18.7911 35.82 19.6361C35.3328 20.3462 34.6842 20.9306 33.9273 21.3414C33.1704 21.7522 32.3269 21.9776 31.466 21.9991H29.405C27.9889 21.9983 26.6311 21.4352 25.6299 20.4337C24.6288 19.4322 24.0663 18.0742 24.066 16.6581V14.5971C24.0875 13.7359 24.3129 12.8921 24.7239 12.1351C25.1349 11.378 25.7196 10.7292 26.43 10.2421C27.2749 9.6253 27.9328 8.78698 28.3311 7.81972C28.7294 6.85246 28.8526 5.79393 28.687 4.76106C28.452 3.35373 27.6977 2.08572 26.5731 1.20754C25.4486 0.329358 24.0355 -0.0951291 22.6132 0.0179343C21.1909 0.130998 19.8627 0.773389 18.891 1.8182C17.9193 2.86302 17.3748 4.23427 17.365 5.66106C17.3644 6.54628 17.5712 7.41932 17.9689 8.21018C18.3666 9.00103 18.944 9.68769 19.655 10.2151C20.3766 10.7181 20.9698 11.3838 21.3867 12.1584C21.8036 12.9329 22.0326 13.7947 22.055 14.6741V16.6581C22.055 17.3595 21.9168 18.0541 21.6484 18.7022C21.3799 19.3503 20.9864 19.9391 20.4903 20.4351C19.9942 20.931 19.4053 21.3244 18.7572 21.5928C18.1091 21.8611 17.4145 21.9992 16.713 21.9991H14.653C13.792 21.9776 12.9483 21.7522 12.1913 21.3414C11.4342 20.9306 10.7854 20.3462 10.298 19.6361C9.5889 18.6682 8.59244 17.9488 7.45059 17.5803C6.30874 17.2118 5.07972 17.213 3.93861 17.5838C2.79749 17.9545 1.80247 18.6759 1.09529 19.6452C0.388109 20.6145 0.00482762 21.7822 4.53026e-05 22.9821C-0.00473702 24.1819 0.369224 25.3527 1.06866 26.3275C1.76809 27.3024 2.75732 28.0317 3.89545 28.4116C5.03357 28.7915 6.26254 28.8025 7.40729 28.4431C8.55205 28.0837 9.55421 27.3723 10.271 26.4101C10.7741 25.6885 11.4398 25.0953 12.2144 24.6784C12.9889 24.2615 13.8507 24.0326 14.73 24.0101H16.713C18.1298 24.0101 19.4886 24.5729 20.4904 25.5747C21.4922 26.5765 22.055 27.9353 22.055 29.3521V31.4131C22.0335 32.2741 21.8081 33.1178 21.3973 33.8748C20.9866 34.6318 20.4021 35.2807 19.692 35.7681C18.8469 36.3847 18.1888 37.223 17.7903 38.1902C17.3918 39.1575 17.2685 40.2161 17.434 41.2491C17.669 42.6564 18.4233 43.9244 19.5479 44.8026C20.6725 45.6808 22.0855 46.1053 23.5078 45.9922C24.9302 45.8791 26.2584 45.2367 27.2301 44.1919C28.2018 43.1471 28.7463 41.7759 28.756 40.3491C28.7569 39.4638 28.5502 38.5907 28.1525 37.7998C27.7548 37.0089 27.1772 36.3223 26.466 35.7951C25.7444 35.292 25.1512 34.6263 24.7343 33.8518C24.3174 33.0772 24.0885 32.2154 24.066 31.3361V29.3521C24.066 27.9353 24.6288 26.5765 25.6306 25.5747C26.6325 24.5729 27.9912 24.0101 29.408 24.0101H31.392C32.2712 24.0327 33.1328 24.2617 33.9072 24.6786C34.6815 25.0955 35.3471 25.6886 35.85 26.4101C36.6012 27.4155 37.6638 28.1443 38.8722 28.483C40.0807 28.8218 41.3672 28.7515 42.5316 28.2832C43.696 27.8148 44.6728 26.9746 45.3101 25.8934C45.9473 24.8122 46.2092 23.5506 46.055 22.3051C45.8982 21.0819 45.351 19.9419 44.4947 19.0545C43.6385 18.1671 42.5188 17.5795 41.302 17.3791Z" fill="white"/>
</svg>
