<svg width="39" height="39" viewBox="0 0 39 39" fill="none" xmlns="http://www.w3.org/2000/svg">
<path d="M19.03 0.5H19.031C29.2648 0.5 37.561 8.79616 37.561 19.03V19.034C37.561 29.2678 29.2648 37.564 19.031 37.564H19.03C8.79616 37.564 0.5 29.2678 0.5 19.034V19.03C0.5 8.79616 8.79616 0.5 19.03 0.5Z" stroke="#E4E4E5"/>
<path fill-rule="evenodd" clip-rule="evenodd" d="M17.6379 17.321C17.6379 17.383 17.5839 17.434 17.6059 17.499C17.5944 17.5031 17.5844 17.5105 17.5771 17.5203C17.5698 17.5301 17.5656 17.5418 17.5649 17.554C17.4557 18.144 17.2231 18.7043 16.8821 19.198L16.853 19.245L16.373 19.771C16.298 19.8028 16.2337 19.8556 16.188 19.923C15.9253 20.1049 15.6465 20.2622 15.355 20.393C15.24 20.437 15.323 20.486 15.355 20.526C15.655 20.926 15.9551 21.326 16.2671 21.717C16.4199 21.9485 16.5957 22.164 16.792 22.36C16.7921 22.3645 16.7937 22.3688 16.7966 22.3723C16.7995 22.3757 16.8037 22.3781 16.8081 22.379C16.9241 22.547 17.033 22.721 17.157 22.884C17.649 23.533 18.1461 24.184 18.6411 24.827C18.9361 25.212 18.8939 25.469 18.4929 25.727C18.4059 25.727 18.3199 25.727 18.2329 25.727H10.0471C9.3401 25.727 8.633 25.727 7.926 25.727H7.93186C7.90186 25.684 7.85594 25.694 7.81394 25.693C7.79194 25.63 7.72901 25.608 7.68601 25.567V25.561L7.63401 25.502C7.58631 25.374 7.5613 25.2386 7.56004 25.102C7.56004 21.1407 7.56004 17.1793 7.56004 13.218C7.55503 13.0217 7.56972 12.8254 7.60398 12.632C7.63998 12.618 7.64304 12.587 7.64304 12.554L7.76389 12.422V12.417C7.89644 12.3508 8.04397 12.3205 8.19187 12.329C9.8032 12.329 11.4142 12.329 13.0249 12.329C13.5015 12.3331 13.9764 12.3891 14.4409 12.496C15.0553 12.6402 15.637 12.8994 16.155 13.26C16.2149 13.3379 16.2913 13.4014 16.3789 13.446C16.4329 13.5242 16.5009 13.592 16.5791 13.646L16.591 13.659C16.9873 14.1179 17.2851 14.6532 17.466 15.2319C17.647 15.8105 17.7072 16.4201 17.643 17.023C17.634 17.122 17.5499 17.223 17.6379 17.321Z" fill="#E4E4E5"/>
<path fill-rule="evenodd" clip-rule="evenodd" d="M30.4881 22.346L30.44 22.595C30.3516 22.9645 30.2208 23.3226 30.0501 23.662C29.8031 24.082 29.483 24.4545 29.1051 24.762C28.8731 24.89 28.6581 25.046 28.4161 25.162C27.5917 25.5393 26.6948 25.7318 25.7882 25.726C24.2002 25.742 22.612 25.726 21.024 25.726C20.7739 25.7502 20.5215 25.7268 20.2801 25.657L20.191 25.574C20.1973 25.5531 20.1956 25.5307 20.1861 25.5111C20.1767 25.4914 20.1602 25.4761 20.14 25.468C20.1117 25.3668 20.0981 25.2621 20.0992 25.157C20.0992 21.069 20.0992 16.9813 20.0992 12.894C20.0868 12.8181 20.0924 12.7403 20.1158 12.667C20.1392 12.5938 20.1796 12.5271 20.2337 12.4725C20.2879 12.4178 20.3543 12.3768 20.4273 12.3527C20.5004 12.3287 20.5781 12.3222 20.6541 12.334C22.1991 12.334 23.7432 12.328 25.2882 12.334C26.4195 12.2684 27.5325 12.6404 28.3971 13.373L28.4351 13.413C28.4349 13.4182 28.4357 13.4234 28.4376 13.4283C28.4394 13.4331 28.4422 13.4375 28.4459 13.4412C28.4496 13.4449 28.454 13.4478 28.4588 13.4496C28.4637 13.4515 28.469 13.4523 28.4742 13.452C29.1094 14.2382 29.4175 15.2387 29.335 16.246C29.328 16.506 29.267 16.758 29.262 17.017L29.254 17.059C29.1465 17.3922 29.0104 17.7154 28.847 18.025C28.7795 18.0862 28.7279 18.1626 28.6961 18.248C28.5481 18.337 28.5561 18.401 28.7181 18.471C28.8538 18.5306 28.9836 18.6026 29.106 18.686C29.4836 18.9525 29.7991 19.2974 30.0311 19.6971C30.2631 20.0968 30.406 20.5419 30.45 21.002C30.4975 21.4483 30.5103 21.8977 30.4881 22.346Z" fill="#E4E4E5"/>
</svg>
