<svg width="55" height="54" viewBox="0 0 55 54" fill="none" xmlns="http://www.w3.org/2000/svg">
<path d="M54.3291 25.6648C54.0572 24.4411 53.3839 23.3433 52.4163 22.5464C51.4487 21.7494 50.2424 21.299 48.9893 21.2666C47.7361 21.2342 46.5082 21.6218 45.5007 22.3677C44.4932 23.1135 43.7641 24.1748 43.4292 25.3828H40.9231C40.1263 25.3829 39.3473 25.1465 38.6848 24.7039C38.0223 24.2612 37.5058 23.6322 37.2009 22.896C36.8961 22.1598 36.8166 21.3496 36.9722 20.5681C37.1278 19.7866 37.5116 19.0689 38.0752 18.5056L39.8601 16.7207C41.0428 17.3921 42.4287 17.612 43.761 17.3394C45.0933 17.0668 46.2818 16.3202 47.1057 15.2383C47.9296 14.1564 48.3331 12.8124 48.2417 11.4556C48.1503 10.0987 47.57 8.82099 46.6084 7.85938C45.6468 6.89776 44.3691 6.31749 43.0122 6.22607C41.6554 6.13466 40.3114 6.53837 39.2295 7.3623C38.1476 8.18624 37.4013 9.37446 37.1287 10.7068C36.8561 12.0391 37.0757 13.425 37.7471 14.6077L35.96 16.3928C35.3966 16.9561 34.679 17.3395 33.8977 17.4949C33.1164 17.6503 32.3068 17.5705 31.5708 17.2656C30.8348 16.9608 30.2058 16.4445 29.7632 15.7822C29.3206 15.1199 29.0841 14.3413 29.084 13.5447V11.0378C30.3949 10.6762 31.5303 9.85142 32.2795 8.71655C33.0288 7.58169 33.3412 6.21357 33.1587 4.86597C32.9762 3.51837 32.3114 2.2827 31.2874 1.38794C30.2633 0.493182 28.9495 0 27.5896 0C26.2297 0 24.9159 0.493182 23.8918 1.38794C22.8678 2.2827 22.203 3.51837 22.0205 4.86597C21.838 6.21357 22.1504 7.58169 22.8997 8.71655C23.6489 9.85142 24.784 10.6762 26.095 11.0378V13.5447C26.0951 14.3415 25.8589 15.1204 25.4163 15.783C24.9736 16.4455 24.3443 16.962 23.6082 17.2668C22.872 17.5717 22.062 17.6514 21.2805 17.4958C20.4991 17.3403 19.7813 16.9564 19.218 16.3928L17.4331 14.6077C18.1052 13.4249 18.3256 12.0387 18.0535 10.7058C17.7814 9.3729 17.0353 8.18384 15.9534 7.35913C14.8715 6.53442 13.5273 6.12988 12.1699 6.2207C10.8126 6.31152 9.53418 6.89154 8.57178 7.85303C7.60938 8.81452 7.02814 10.0922 6.93604 11.4495C6.84393 12.8067 7.24711 14.1514 8.0708 15.2341C8.89449 16.3168 10.0829 17.064 11.4155 17.3374C12.7482 17.6108 14.1347 17.3917 15.3181 16.7207L17.104 18.5056C17.6671 19.0691 18.0505 19.7868 18.2058 20.5681C18.3611 21.3494 18.2814 22.1593 17.9766 22.8953C17.6718 23.6312 17.1556 24.2604 16.4934 24.7031C15.8312 25.1459 15.0527 25.3824 14.2561 25.3828H11.75C11.3883 24.0722 10.5636 22.9372 9.42896 22.1882C8.29427 21.4393 6.92662 21.1271 5.57935 21.3096C4.23207 21.4921 2.99657 22.157 2.10205 23.1809C1.20753 24.2048 0.7146 25.5181 0.7146 26.8777C0.7146 28.2373 1.20753 29.5508 2.10205 30.5747C2.99657 31.5986 4.23207 32.2633 5.57935 32.4458C6.92662 32.6283 8.29427 32.3161 9.42896 31.5671C10.5636 30.8182 11.3883 29.6834 11.75 28.3728H14.2561C15.0528 28.3727 15.8317 28.6087 16.4941 29.0513C17.1566 29.4938 17.6728 30.1229 17.9778 30.8589C18.2827 31.5949 18.3626 32.4049 18.2073 33.1863C18.0519 33.9677 17.6683 34.6854 17.105 35.2488L15.3191 37.0347C14.1367 36.3641 12.7511 36.145 11.4194 36.418C10.0878 36.6909 8.90015 37.4376 8.0769 38.5193C7.25366 39.601 6.85063 40.9445 6.94238 42.3008C7.03414 43.657 7.61448 44.934 8.57593 45.895C9.53737 46.856 10.8148 47.4357 12.1711 47.5269C13.5275 47.618 14.8708 47.2141 15.9521 46.3904C17.0335 45.5666 17.7794 44.3789 18.0518 43.0471C18.3241 41.7153 18.1043 40.3298 17.4331 39.1477L19.218 37.3628C19.7813 36.7992 20.4992 36.4153 21.2808 36.2598C22.0623 36.1042 22.8724 36.1838 23.6086 36.4888C24.3449 36.7938 24.9742 37.3105 25.4167 37.9731C25.8593 38.6358 26.0953 39.4148 26.095 40.2117V42.7168C24.7843 43.0784 23.6492 43.9029 22.9001 45.0376C22.1511 46.1723 21.839 47.5401 22.0215 48.8875C22.2039 50.2348 22.8687 51.4702 23.8926 52.3647C24.9165 53.2593 26.23 53.7524 27.5896 53.7524C28.9492 53.7524 30.2627 53.2593 31.2866 52.3647C32.3105 51.4702 32.9753 50.2348 33.1577 48.8875C33.3402 47.5401 33.0279 46.1723 32.2788 45.0376C31.5297 43.9029 30.3946 43.0784 29.084 42.7168V40.2117C29.0839 39.415 29.3202 38.6361 29.7627 37.9736C30.2052 37.3112 30.8343 36.7949 31.5703 36.49C32.3063 36.185 33.1161 36.1051 33.8975 36.2605C34.6788 36.4159 35.3966 36.7995 35.96 37.3628L37.7461 39.1477C37.0746 40.3302 36.8546 41.7162 37.127 43.0486C37.3993 44.3809 38.1453 45.5692 39.2271 46.3933C40.3088 47.2174 41.6527 47.6214 43.0095 47.5303C44.3664 47.4392 45.6441 46.8593 46.606 45.8979C47.5678 44.9366 48.1485 43.659 48.2402 42.3022C48.332 40.9454 47.9286 39.6014 47.105 38.5193C46.2814 37.4372 45.0934 36.6905 43.7612 36.4175C42.429 36.1445 41.0429 36.3637 39.8601 37.0347L38.074 35.2488C37.5103 34.6856 37.1264 33.968 36.9707 33.1865C36.815 32.4051 36.8948 31.5948 37.1997 30.8586C37.5046 30.1225 38.021 29.4933 38.6836 29.0508C39.3462 28.6083 40.1253 28.3724 40.9221 28.3728H43.4292C43.8344 29.7675 44.7637 30.951 46.0225 31.6755C47.2812 32.4 48.7714 32.6092 50.1809 32.259C51.5904 31.9089 52.8097 31.0265 53.583 29.7971C54.3563 28.5678 54.6237 27.087 54.3291 25.6648ZM27.585 32.5828C26.4581 32.5816 25.3569 32.2465 24.4204 31.6196C23.4839 30.9928 22.7544 30.1024 22.3237 29.061C21.8931 28.0197 21.7808 26.874 22.001 25.7688C22.2212 24.6636 22.7641 23.6486 23.561 22.8518C24.3579 22.055 25.3731 21.5125 26.4783 21.2925C27.5835 21.0725 28.729 21.1849 29.7703 21.6157C30.8115 22.0466 31.7017 22.7763 32.3284 23.7129C32.955 24.6495 33.29 25.7508 33.291 26.8777C33.291 27.627 33.1435 28.3691 32.8567 29.0613C32.5699 29.7535 32.1497 30.3823 31.6199 30.9121C31.09 31.4419 30.4608 31.862 29.7686 32.1487C29.0763 32.4353 28.3342 32.5829 27.585 32.5828Z" fill="white"/>
</svg>
