<svg width="121" height="121" viewBox="0 0 121 121" fill="none" xmlns="http://www.w3.org/2000/svg">
<path d="M111.9 105.202C110.941 104.242 110.401 102.941 110.4 101.584V75.9844C110.4 74.6281 109.861 73.3272 108.902 72.3682C107.943 71.4091 106.642 70.8706 105.286 70.8706H79.693C78.3362 70.8697 77.0352 70.3302 76.076 69.3706L70.919 64.2124C70.4439 63.7378 70.0671 63.1741 69.81 62.5537C69.5529 61.9333 69.4205 61.2687 69.4205 60.5972C69.4205 59.9256 69.5529 59.2605 69.81 58.6401C70.0671 58.0198 70.4439 57.4561 70.919 56.9815L76.077 51.8203C77.0362 50.8607 78.3372 50.3212 79.694 50.3203H105.288C106.644 50.3201 107.945 49.7813 108.904 48.8223C109.863 47.8633 110.402 46.5628 110.402 45.2065V19.6064C110.402 18.935 110.535 18.2705 110.792 17.6504C111.05 17.0303 111.427 16.467 111.902 15.9927L118.57 9.32227C119.045 8.84747 119.421 8.28392 119.678 7.66358C119.935 7.04323 120.068 6.37849 120.068 5.70703C120.068 5.03557 119.935 4.37084 119.678 3.75049C119.421 3.13014 119.045 2.5661 118.57 2.09131C118.095 1.61651 117.532 1.23987 116.911 0.98291C116.291 0.725953 115.626 0.59375 114.954 0.59375C114.283 0.59375 113.618 0.725953 112.998 0.98291C112.377 1.23987 111.814 1.61651 111.339 2.09131L104.67 8.75928C104.196 9.23472 103.632 9.61224 103.012 9.86963C102.392 10.127 101.727 10.2592 101.055 10.2593H98.583H75.456C74.0998 10.2595 72.7993 10.7988 71.8405 11.7578C70.8816 12.7168 70.343 14.0174 70.343 15.3735V40.9663C70.3428 41.6382 70.2102 42.3037 69.9528 42.9243C69.6954 43.5449 69.3183 44.1087 68.843 44.5835L63.683 49.7427C63.2082 50.2178 62.6445 50.5944 62.0241 50.8516C61.4036 51.1087 60.7386 51.2412 60.067 51.2412C59.3954 51.2412 58.7303 51.1087 58.1099 50.8516C57.4894 50.5944 56.9257 50.2178 56.451 49.7427L51.293 44.5835C50.8175 44.1088 50.4403 43.545 50.1829 42.9243C49.9255 42.3037 49.793 41.6382 49.793 40.9663V15.3735C49.793 14.0172 49.2542 12.7164 48.2951 11.7573C47.3361 10.7983 46.0353 10.2593 44.679 10.2593H19.089C17.7328 10.2581 16.4326 9.71857 15.474 8.75928L8.80397 2.08936C8.32918 1.6145 7.7655 1.23797 7.14513 0.980957C6.52475 0.72394 5.85983 0.591355 5.18832 0.591309C4.51682 0.591262 3.85187 0.723537 3.23146 0.980469C2.61105 1.2374 2.04732 1.61407 1.57246 2.08887C1.0976 2.56366 0.720915 3.12767 0.463898 3.74805C0.20688 4.36842 0.0745704 5.03308 0.0745239 5.70459C0.0744775 6.3761 0.206691 7.04121 0.463623 7.66162C0.720555 8.28203 1.09718 8.84545 1.57198 9.32031L8.24197 15.9902C8.7173 16.4651 9.09442 17.0293 9.35179 17.6499C9.60917 18.2705 9.74175 18.9356 9.74197 19.6074V45.2007C9.74224 46.5567 10.281 47.8566 11.2398 48.8154C12.1986 49.7743 13.499 50.3132 14.855 50.3135H40.455C41.8115 50.3145 43.112 50.854 44.071 51.8135L49.231 56.9746C50.1896 57.9336 50.7282 59.2338 50.7282 60.5899C50.7282 61.9459 50.1896 63.2466 49.231 64.2056L44.071 69.3633C43.5967 69.8392 43.0332 70.2167 42.4126 70.4741C41.7921 70.7315 41.1268 70.8638 40.455 70.8633H14.854C13.4977 70.8633 12.1969 71.4023 11.2378 72.3613C10.2788 73.3204 9.73997 74.6212 9.73997 75.9775V101.578C9.7396 102.249 9.60694 102.914 9.34956 103.534C9.09219 104.154 8.71515 104.718 8.23997 105.192L1.57097 111.859C0.633653 112.823 0.113318 114.117 0.122498 115.461C0.131677 116.805 0.669638 118.092 1.62003 119.042C2.57041 119.993 3.85683 120.531 5.20103 120.541C6.54524 120.551 7.83916 120.03 8.80296 119.093L15.471 112.422C16.4296 111.463 17.7298 110.924 19.086 110.922H44.686C45.3574 110.922 46.0223 110.79 46.6425 110.533C47.2628 110.276 47.8264 109.899 48.3011 109.424C48.7758 108.949 49.1523 108.386 49.4091 107.765C49.666 107.145 49.7981 106.48 49.798 105.809V80.2217C49.7984 79.5503 49.931 78.8852 50.1884 78.2651C50.4458 77.645 50.8228 77.0818 51.298 76.6074L56.456 71.4463C57.4151 70.4876 58.7158 69.9492 60.072 69.9492C61.4281 69.9492 62.7288 70.4876 63.688 71.4463L68.847 76.6045C69.3223 77.0794 69.6993 77.6431 69.9567 78.2637C70.2141 78.8843 70.3467 79.5498 70.347 80.2217V105.816C70.3472 107.172 70.8859 108.472 71.8445 109.431C72.8032 110.389 74.1033 110.928 75.459 110.928H98.583H101.055C102.411 110.929 103.711 111.469 104.67 112.428L111.34 119.1C112.299 120.059 113.6 120.597 114.957 120.597C116.313 120.596 117.614 120.057 118.572 119.098C119.531 118.139 120.07 116.838 120.07 115.481C120.069 114.125 119.53 112.824 118.571 111.865L111.9 105.202Z" fill="#E4E4E5"/>
</svg>
