<svg width="54" height="53" viewBox="0 0 54 53" fill="none" xmlns="http://www.w3.org/2000/svg">
<path d="M53.356 26.4322C53.356 11.8651 41.5471 0.0561523 26.98 0.0561523C12.4129 0.0561523 0.604004 11.8651 0.604004 26.4322C0.604004 40.9992 12.4129 52.8082 26.98 52.8082C41.5471 52.8082 53.356 40.9992 53.356 26.4322Z" fill="black"/>
<path d="M39.71 13.019H14.25C13.2193 13.0201 12.2313 13.4299 11.5024 14.1586C10.7736 14.8873 10.3636 15.8753 10.3623 16.906V35.958C10.3636 36.9887 10.7736 37.9767 11.5024 38.7054C12.2313 39.4341 13.2193 39.8439 14.25 39.845H39.71C40.7406 39.8439 41.7291 39.4341 42.458 38.7054C43.1869 37.9767 43.5968 36.9887 43.5981 35.958V16.906C43.5968 15.8753 43.1869 14.8873 42.458 14.1586C41.7291 13.4299 40.7406 13.0201 39.71 13.019ZM37.126 16.819L26.9971 24.085L17.1699 16.819H37.126ZM39.71 36.049H14.25C14.2264 36.049 14.2037 36.0396 14.187 36.0229C14.1703 36.0063 14.1611 35.9836 14.1611 35.96V19.318L26.9609 28.783L39.7969 19.576V35.96C39.7964 35.9829 39.7872 36.0048 39.771 36.021C39.7548 36.0372 39.7329 36.0465 39.71 36.047V36.049Z" fill="#E4E4E5"/>
</svg>
