<svg width="39" height="39" viewBox="0 0 39 39" fill="none" xmlns="http://www.w3.org/2000/svg">
<path d="M5.92634 32.1327C9.40074 35.6076 14.1132 37.5602 19.0271 37.561L5.92634 32.1327ZM5.92634 32.1327C2.45192 28.6577 0.5 23.945 0.5 19.031C0.5 14.1164 2.45227 9.40316 5.92729 5.92795C9.40229 2.45277 14.1154 0.500293 19.0299 0.5L5.92634 32.1327ZM19.0301 0.5C23.9442 0.501068 28.6565 2.45386 32.131 5.92893C35.6056 9.40404 37.5578 14.1169 37.5581 19.031C37.5578 23.9455 35.6053 28.6587 32.1301 32.1337C28.6549 35.6087 23.9417 37.561 19.0272 37.561L19.0301 0.5Z" stroke="#E4E4E5"/>
<path d="M19.0271 10.477C21.8131 10.477 22.1429 10.487 23.2429 10.537C23.9048 10.5452 24.5603 10.6669 25.1809 10.897C25.6311 11.0701 26.04 11.3358 26.3811 11.6769C26.7222 12.018 26.9878 12.4268 27.1609 12.877C27.391 13.4976 27.5129 14.1531 27.521 14.815C27.571 15.915 27.582 16.245 27.582 19.031C27.582 21.817 27.571 22.147 27.521 23.247C27.5129 23.9089 27.391 24.5644 27.1609 25.185C26.9878 25.6352 26.7222 26.044 26.3811 26.3851C26.04 26.7262 25.6311 26.9919 25.1809 27.165C24.5603 27.3951 23.9048 27.5168 23.2429 27.525C22.1429 27.575 21.8131 27.585 19.0271 27.585C16.2411 27.585 15.911 27.575 14.811 27.525C14.1492 27.5168 13.4937 27.3951 12.873 27.165C12.4229 26.9918 12.0141 26.726 11.6731 26.385C11.332 26.0439 11.0663 25.6351 10.8931 25.185C10.663 24.5644 10.5412 23.9088 10.533 23.247C10.483 22.147 10.4729 21.817 10.4729 19.031C10.4729 16.245 10.483 15.915 10.533 14.815C10.5412 14.1532 10.663 13.4976 10.8931 12.877C11.0663 12.4269 11.332 12.0181 11.6731 11.677C12.0141 11.336 12.4229 11.0702 12.873 10.897C13.4937 10.6669 14.1492 10.5452 14.811 10.537C15.911 10.487 16.2411 10.477 19.0271 10.477ZM19.0271 8.596C16.1931 8.596 15.8381 8.609 14.7271 8.659C13.8614 8.67698 13.0051 8.84095 12.1941 9.144C11.5011 9.41222 10.8716 9.82225 10.3462 10.3478C9.8208 10.8734 9.41106 11.5029 9.14307 12.196C8.83903 13.0067 8.67492 13.8633 8.65796 14.729C8.60696 15.842 8.59497 16.197 8.59497 19.029C8.59497 21.861 8.60696 22.218 8.65796 23.329C8.67492 24.1947 8.83903 25.0513 9.14307 25.862C9.41101 26.5552 9.8208 27.1847 10.3462 27.7103C10.8716 28.2358 11.501 28.6458 12.1941 28.914C13.0051 29.2171 13.8614 29.381 14.7271 29.399C15.8401 29.449 16.1951 29.461 19.0271 29.461C21.8591 29.461 22.2159 29.449 23.3269 29.399C24.1925 29.381 25.0491 29.2171 25.8601 28.914C26.5531 28.6456 27.1825 28.2355 27.708 27.71C28.2335 27.1844 28.6437 26.555 28.9121 25.862C29.2165 25.0519 29.3813 24.1962 29.3999 23.331C29.4499 22.218 29.4619 21.863 29.4619 19.031C29.4619 16.199 29.4499 15.842 29.3999 14.731C29.3824 13.8653 29.2186 13.0089 28.915 12.198C28.6466 11.505 28.2365 10.8756 27.7109 10.35C27.1854 9.82451 26.5561 9.41443 25.863 9.146C25.052 8.84295 24.1957 8.67898 23.3301 8.661C22.2171 8.611 21.862 8.598 19.03 8.598" fill="#E4E4E5"/>
<path d="M19.027 13.673C17.9673 13.673 16.9313 13.9872 16.0502 14.576C15.1691 15.1647 14.4824 16.0015 14.0768 16.9806C13.6713 17.9596 13.5652 19.0369 13.7719 20.0763C13.9786 21.1156 14.4889 22.0703 15.2382 22.8197C15.9875 23.569 16.9423 24.0793 17.9816 24.286C19.021 24.4928 20.0983 24.3867 21.0773 23.9811C22.0564 23.5756 22.8931 22.8889 23.4819 22.0077C24.0706 21.1266 24.3849 20.0907 24.3849 19.031C24.3849 17.61 23.8204 16.2471 22.8156 15.2423C21.8108 14.2375 20.448 13.673 19.027 13.673ZM19.027 22.509C18.3389 22.51 17.6658 22.3069 17.0932 21.9253C16.5206 21.5437 16.0742 21.0009 15.8102 20.3654C15.5462 19.73 15.4764 19.0305 15.61 18.3555C15.7437 17.6806 16.0747 17.0604 16.561 16.5735C17.0472 16.0865 17.6667 15.7548 18.3415 15.6202C19.0163 15.4856 19.7159 15.5542 20.3517 15.8173C20.9875 16.0804 21.5311 16.5261 21.9135 17.0982C22.2959 17.6703 22.4999 18.3429 22.4999 19.031C22.4999 19.9534 22.1334 20.8381 21.4811 21.4903C20.8289 22.1426 19.9443 22.509 19.0219 22.509" fill="#E4E4E5"/>
<path d="M25.8491 13.461C25.8491 13.7086 25.7755 13.9507 25.6379 14.1566C25.5003 14.3625 25.3049 14.5229 25.0761 14.6177C24.8473 14.7125 24.5956 14.7373 24.3527 14.6889C24.1099 14.6406 23.8867 14.5214 23.7116 14.3463C23.5365 14.1712 23.4174 13.9481 23.3691 13.7053C23.3208 13.4624 23.3454 13.2107 23.4401 12.9819C23.5349 12.7531 23.6954 12.5576 23.9013 12.42C24.1072 12.2824 24.3492 12.209 24.5969 12.209C24.9289 12.209 25.2473 12.3409 25.4821 12.5757C25.7169 12.8105 25.8491 13.1289 25.8491 13.461" fill="#E4E4E5"/>
</svg>
