<svg width="55" height="54" viewBox="0 0 55 54" fill="none" xmlns="http://www.w3.org/2000/svg">
<path d="M0.713989 0.000976562V53.742H34.755C39.9798 53.742 44.9905 51.6664 48.685 47.9719C52.3794 44.2775 54.455 39.2668 54.455 34.042V0.00195313L0.713989 0.000976562ZM47 46.29C45.3934 47.901 43.4843 49.1785 41.3823 50.0491C39.2804 50.9197 37.0271 51.3662 34.752 51.363H3.09398V2.38013H52.076V34.041C52.0786 36.3165 51.6315 38.57 50.7604 40.6721C49.8893 42.7742 48.6113 44.6834 47 46.29Z" fill="white"/>
<path d="M8.04199 25.8401C12.9515 25.8401 17.6599 23.8899 21.1316 20.4185C24.6032 16.947 26.5537 12.2386 26.554 7.3291H8.04199V25.8401Z" fill="white"/>
</svg>
