<svg width="88" height="449" viewBox="0 0 88 449" fill="none" xmlns="http://www.w3.org/2000/svg">
<path d="M87.977 73.5449L44.25 37.2681V6.0332L87.977 42.3101V73.5449ZM0.518005 0.989746V32.2188L44.25 68.501V37.273L0.518005 0.989746ZM87.977 104.775L44.25 68.501V99.7359L87.977 136.015V104.775ZM0.518005 63.4541V94.6841L44.25 130.961V99.731L0.518005 63.4541ZM87.977 167.239L44.25 130.961V162.196L87.977 198.474V167.239ZM0.518005 125.919V157.147L44.25 193.425V162.196L0.518005 125.919ZM87.977 229.701L44.25 193.424V224.659L87.977 260.938V229.701ZM0.518005 188.381V219.611L44.25 255.889V224.659L0.518005 188.381ZM87.977 292.166L44.25 255.889V287.124L87.977 323.401V292.166ZM0.518005 250.846V282.075L44.25 318.352V287.124L0.518005 250.846ZM87.977 354.63L44.25 318.352V349.587L87.977 385.865V354.63ZM0.518005 313.31V344.538L44.25 380.817V349.587L0.518005 313.31ZM87.977 417.094L44.25 380.817V412.052L87.977 448.33V417.094ZM0.518005 375.773V407.001L44.25 443.279V412.05L0.518005 375.773Z" fill="#E4E4E5"/>
</svg>
