<svg width="781" height="21" viewBox="0 0 781 21" fill="none" xmlns="http://www.w3.org/2000/svg">
<path d="M6 0.265137V20.2651H0.377991V0.265137M142.217 0.265137V20.2651H147.839V0.265137M348.621 0.265137V20.2651H354.243V0.265137M23.213 0.265137V20.2651H28.835V0.265137M202.927 0.265137V20.2651H208.548V0.265137M221.786 0.265137V20.2651H227.407V0.265137M475.456 0.265137V20.2651H481.078V0.265137M528.326 0.265137V20.2651H533.948V0.265137M774.638 0.265137V20.2651H780.259V0.265137M579.659 0.265137V20.2651H585.28V0.265137M598.518 0.265137V20.2651H604.139V0.265137M659.227 0.265137V20.2651H664.848V0.265137M678.084 0.265137V20.2651H683.706V0.265137M276.913 0.265137V20.2651H282.535V0.265137M340.235 0.265137V20.2651H345.857V0.265137" fill="#E4E4E5"/>
</svg>
