<svg width="1920" height="164" viewBox="0 0 1920 164" fill="none" xmlns="http://www.w3.org/2000/svg">
<path d="M2049.59 0.426057L-77.337 134.691L-75.4993 163.803L2051.43 29.5377L2049.59 0.426057Z" fill="#E4E4E5"/>
<path d="M880.556 87.2001L880.11 80.1602L873.07 80.6061L866.327 85.7461L866.027 81.0531L861.803 81.3212L862.103 86.0142L854.765 81.7671L847.725 82.2131L848.171 89.2532L852.395 88.9851L852.127 84.7611L860.932 89.8611L852.841 96.0281L852.573 91.8041L848.349 92.0721L848.795 99.1122L855.835 98.6661L862.578 93.5261L862.878 98.2191L867.102 97.9512L866.802 93.2582L874.14 97.5051L881.18 97.0591L880.645 88.6111L872.197 89.1461L876.597 91.6941L876.775 94.5101L867.97 89.4102L876.061 83.2432L876.329 87.4672L880.556 87.2001Z" fill="black"/>
<path d="M904.422 80.2177L909.666 79.8856L909.993 85.0486L915.013 79.5486L922.129 79.0977L916.742 84.3536L923.369 92.7926L916.726 93.2127L912.576 87.6946L910.315 90.1296L910.535 93.6056L905.291 93.9376L904.422 80.2177Z" fill="black"/>
<path d="M923.774 78.9917L939.301 78.0078L939.523 81.5078L929.24 82.1598L929.34 83.6818L937.854 83.1427L938.076 86.6427L929.562 87.1827L929.67 88.8888L940.59 88.1968L940.812 91.6968L924.647 92.7207L923.774 78.9917Z" fill="black"/>
<path d="M942.036 77.8346L950.654 77.2886L952.319 81.0886C952.775 82.15 953.075 83.2715 953.211 84.4186L953.396 84.4076C953.404 83.2534 953.561 82.1051 953.861 80.9906L954.972 77.0176L963.528 76.4756L964.397 90.1936L959.153 90.5256L958.514 80.4486L958.432 80.4536C958.399 81.4114 958.259 82.3623 958.013 83.2886L955.842 90.7356L951.523 91.0096L948.388 83.8987C948.027 83.01 947.761 82.0854 947.594 81.1406L947.511 81.1456L948.15 91.2236L942.905 91.5557L942.036 77.8346Z" fill="black"/>
<path d="M973.37 85.4927C973.891 86.2237 974.588 86.4686 975.884 86.3866C977.117 86.3086 977.735 85.9596 977.699 85.3866C977.674 84.9956 977.455 84.8027 977.016 84.7077C975.718 84.5276 974.409 84.4517 973.099 84.4806C971.626 84.4449 970.16 84.2539 968.727 83.9107C967.948 83.778 967.239 83.3802 966.719 82.7847C966.2 82.1892 965.902 81.4324 965.877 80.6426C965.677 77.5426 968.6 75.7206 974.359 75.3556C977.279 75.1703 979.467 75.486 980.923 76.3026C981.492 76.6077 981.989 77.0308 982.382 77.5437C982.774 78.0566 983.052 78.6475 983.197 79.2766L976.348 79.7107C975.964 78.8677 975.158 78.5266 973.801 78.6106C972.711 78.6796 972.054 79.0727 972.089 79.6277C972.132 80.3067 972.589 80.4016 976.857 80.5646C978.326 80.5311 979.792 80.7165 981.207 81.1147C981.978 81.3029 982.666 81.7397 983.164 82.3576C983.662 82.9755 983.943 83.7402 983.964 84.5337C984.171 87.8037 981.329 89.5527 975.179 89.9427C972.239 90.1287 969.993 89.8787 968.567 89.2057C967.888 88.9547 967.295 88.5157 966.856 87.9401C966.417 87.3644 966.151 86.6758 966.089 85.9546L973.37 85.4927Z" fill="black"/>
<path d="M1004.23 87.6257L1001.97 87.7687L1001.17 86.3327C1000.64 86.9674 999.953 87.4582 999.179 87.7607C997.746 88.3172 996.232 88.6361 994.696 88.7047C988.876 89.0737 985.463 86.6877 985.168 82.0407C985.054 80.9719 985.197 79.8912 985.586 78.8892C985.976 77.8872 986.599 76.9931 987.405 76.2817C989.341 74.8921 991.657 74.1323 994.04 74.1057C996.507 73.8205 999.003 74.281 1001.21 75.4277C1001.84 75.77 1002.4 76.251 1002.82 76.8351C1003.25 77.4193 1003.54 78.0916 1003.67 78.8027L997.439 79.2027C997.175 78.6243 996.724 78.1519 996.159 77.8615C995.594 77.5712 994.947 77.48 994.323 77.6027C993.828 77.5937 993.337 77.694 992.884 77.8964C992.432 78.0988 992.03 78.3985 991.707 78.7739C991.384 79.1493 991.148 79.5912 991.015 80.0684C990.882 80.5456 990.855 81.0463 990.938 81.5347C991.097 84.0427 992.666 85.3477 995.36 85.1767C997.129 85.0647 998.084 84.4887 998.406 83.3767L996.081 83.5247L995.892 80.5417L1003.75 80.0417L1004.23 87.6257Z" fill="black"/>
<path d="M1005.77 73.7998L1015.93 73.1557C1019.05 72.9557 1019.97 73.0658 1020.86 73.6908C1021.32 74.0454 1021.7 74.5028 1021.96 75.0272C1022.22 75.5516 1022.35 76.1289 1022.35 76.7137C1022.46 77.6454 1022.24 78.5874 1021.73 79.3747C1021.25 79.9175 1020.59 80.2797 1019.88 80.4017C1021.97 80.8677 1022.22 81.2648 1022.57 84.7738C1022.68 85.8208 1022.71 85.9827 1023.05 86.4737L1017.56 86.8218C1017.43 86.2278 1017.34 85.6267 1017.28 85.0217C1016.99 82.1707 1016.77 81.9358 1014.55 82.0768L1011.57 82.2657L1011.88 87.1817L1006.64 87.5138L1005.77 73.7998ZM1014.86 79.1498C1015.37 79.1823 1015.88 79.0714 1016.33 78.8297C1016.5 78.6851 1016.63 78.5015 1016.71 78.2949C1016.79 78.0883 1016.82 77.865 1016.79 77.6448C1016.73 76.6568 1016.23 76.3577 1014.73 76.4537L1011.22 76.6758L1011.39 79.3757L1014.86 79.1498Z" fill="black"/>
<path d="M1028.62 72.3487L1035.55 71.9097L1041.91 85.2797L1036.17 85.6437L1035.51 84.4257L1029.92 84.7797L1029.49 86.0667L1024 86.4147L1028.62 72.3487ZM1034.26 80.9947L1032.18 76.0677L1030.65 81.2237L1034.26 80.9947Z" fill="black"/>
<path d="M1042.23 71.487L1052.47 70.838C1055.11 70.671 1056.21 70.8291 1057.24 71.4861C1057.79 71.8944 1058.24 72.4261 1058.54 73.0382C1058.84 73.6503 1059 74.3256 1058.99 75.0091C1059.11 75.7512 1059.03 76.5112 1058.75 77.2086C1058.47 77.9061 1058.01 78.5151 1057.41 78.971C1056.5 79.586 1055.66 79.7831 1053.09 79.9461L1048.05 80.265L1048.34 84.872L1043.1 85.205L1042.23 71.487ZM1051.13 76.746C1051.72 76.7853 1052.31 76.6771 1052.85 76.4311C1053.03 76.2856 1053.18 76.0935 1053.27 75.8739C1053.36 75.6544 1053.4 75.4148 1053.37 75.179C1053.3 74.172 1052.75 73.8971 1050.98 74.0091L1047.67 74.219L1047.84 76.954L1051.13 76.746Z" fill="black"/>
<path d="M1060.49 70.3299L1065.74 69.9969L1066.04 74.8309L1072.17 74.4419L1071.87 69.6089L1077.11 69.2769L1077.98 82.9949L1072.74 83.3269L1072.39 77.9379L1066.27 78.3269L1066.61 83.7148L1061.36 84.0479L1060.49 70.3299Z" fill="black"/>
<path d="M1079.97 69.0995L1085.21 68.7676L1086.08 82.4846L1080.84 82.8176L1079.97 69.0995Z" fill="black"/>
<path d="M1106.78 76.0287C1106.82 76.854 1106.65 77.6762 1106.27 78.4133C1105.9 79.1504 1105.34 79.7764 1104.65 80.2286C1102.99 81.4286 1101.08 81.9626 1097.67 82.1786C1094.32 82.3906 1092.31 82.0017 1090.6 80.8097C1089.74 80.1936 1089.04 79.3833 1088.56 78.4449C1088.07 77.5066 1087.81 76.4666 1087.8 75.4097C1087.67 74.39 1087.79 73.3545 1088.15 72.3904C1088.51 71.4262 1089.09 70.5617 1089.85 69.8696C1091.49 68.4856 1093.64 67.7916 1096.87 67.5876C1100.59 67.3516 1103.15 67.9336 1104.87 69.3516C1105.82 70.2129 1106.43 71.3942 1106.57 72.6716L1100.54 73.0536C1100.01 71.4976 1099.07 70.9586 1097.11 71.0826C1094.65 71.2386 1093.43 72.5747 1093.58 74.9617C1093.74 77.4697 1095.21 78.8226 1097.59 78.6716C1098.45 78.6678 1099.29 78.3751 1099.96 77.8406C1100.33 77.4292 1100.6 76.9389 1100.76 76.4066L1106.78 76.0287Z" fill="black"/>
<path d="M1115.4 76.4938C1115.92 77.2258 1116.62 77.4707 1117.91 77.3877C1119.15 77.3097 1119.77 76.9617 1119.73 76.3877C1119.7 75.9967 1119.49 75.8038 1119.05 75.7078C1117.75 75.529 1116.44 75.4535 1115.13 75.4818C1113.66 75.446 1112.19 75.2549 1110.76 74.9118C1109.98 74.7788 1109.27 74.3807 1108.75 73.7851C1108.23 73.1894 1107.93 72.4326 1107.91 71.6428C1107.71 68.5428 1110.63 66.7218 1116.39 66.3568C1119.31 66.1721 1121.5 66.4878 1122.95 67.3038C1123.52 67.6089 1124.02 68.0321 1124.41 68.545C1124.8 69.0578 1125.08 69.6487 1125.23 70.2778L1118.38 70.7118C1117.99 69.8688 1117.19 69.5278 1115.83 69.6118C1114.74 69.6808 1114.08 70.0728 1114.12 70.6288C1114.16 71.3068 1114.62 71.4018 1118.89 71.5658C1120.36 71.5313 1121.82 71.7166 1123.24 72.1158C1124.01 72.3039 1124.7 72.7406 1125.19 73.3583C1125.69 73.976 1125.97 74.7406 1125.99 75.5338C1126.2 78.8048 1123.36 80.5538 1117.21 80.9428C1114.27 81.1298 1112.02 80.8798 1110.6 80.2058C1109.92 79.9547 1109.32 79.5156 1108.89 78.94C1108.45 78.3643 1108.18 77.6758 1108.12 76.9547L1115.4 76.4938Z" fill="black"/>
<path d="M578.77 106.323L578.324 99.2827L571.284 99.7288L564.541 104.869L564.241 100.176L560.017 100.444L560.317 105.137L552.979 100.89L545.939 101.336L546.385 108.376L550.609 108.108L550.341 103.884L559.146 108.984L551.055 115.151L550.787 110.927L546.563 111.195L547.009 118.235L554.049 117.789L560.792 112.65L561.092 117.343L565.316 117.075L565.016 112.382L572.354 116.629L579.394 116.183L578.859 107.735L570.411 108.27L574.811 110.818L574.989 113.634L566.184 108.534L574.275 102.367L574.543 106.591L578.77 106.323Z" fill="black"/>
<path d="M602.636 99.3378L607.88 99.0057L608.207 104.169L613.228 98.6687L620.343 98.2178L614.956 103.474L621.583 111.913L614.94 112.334L610.791 106.815L608.529 109.25L608.749 112.726L603.505 113.058L602.636 99.3378Z" fill="black"/>
<path d="M621.988 98.1119L637.516 97.1279L637.737 100.628L627.454 101.279L627.554 102.801L636.069 102.262L636.29 105.762L627.776 106.302L627.884 108.009L638.805 107.317L639.026 110.817L622.861 111.841L621.988 98.1119Z" fill="black"/>
<path d="M640.251 96.9547L648.868 96.4088L650.533 100.209C650.989 101.27 651.29 102.392 651.425 103.54L651.61 103.528C651.618 102.374 651.775 101.225 652.075 100.111L653.187 96.1377L661.742 95.5957L662.611 109.314L657.367 109.647L656.729 99.5687L656.646 99.5737C656.614 100.532 656.474 101.483 656.227 102.41L654.056 109.856L649.737 110.13L646.602 103.019C646.241 102.13 645.975 101.205 645.808 100.261H645.726L646.364 110.339L641.12 110.671L640.251 96.9547Z" fill="black"/>
<path d="M671.584 104.613C672.105 105.344 672.802 105.589 674.098 105.507C675.332 105.429 675.95 105.08 675.913 104.507C675.888 104.116 675.67 103.923 675.23 103.828C673.932 103.648 672.623 103.572 671.313 103.601C669.84 103.566 668.374 103.375 666.941 103.032C666.162 102.899 665.453 102.501 664.933 101.905C664.414 101.309 664.117 100.552 664.091 99.7626C663.891 96.6626 666.814 94.8407 672.573 94.4767C675.493 94.2914 677.681 94.607 679.137 95.4236C679.706 95.7284 680.204 96.1515 680.596 96.6645C680.988 97.1774 681.266 97.7684 681.411 98.3976L674.563 98.8307C674.179 97.9887 673.373 97.6466 672.015 97.7306C670.925 97.8006 670.269 98.1927 670.304 98.7487C670.347 99.4267 670.804 99.5217 675.071 99.6847C676.54 99.6511 678.006 99.8364 679.421 100.235C680.192 100.423 680.88 100.86 681.378 101.478C681.876 102.095 682.157 102.86 682.178 103.654C682.385 106.924 679.543 108.673 673.394 109.063C670.453 109.249 668.207 108.999 666.781 108.326C666.102 108.075 665.509 107.635 665.07 107.06C664.631 106.484 664.365 105.796 664.303 105.075L671.584 104.613Z" fill="black"/>
<path d="M702.444 106.746L700.182 106.89L699.389 105.453C698.853 106.087 698.167 106.578 697.394 106.881C695.961 107.438 694.447 107.756 692.911 107.825C687.091 108.194 683.677 105.809 683.383 101.161C683.269 100.092 683.412 99.0114 683.801 98.0094C684.19 97.0074 684.813 96.1132 685.619 95.4016C687.555 94.0124 689.871 93.2531 692.254 93.2267C694.721 92.9407 697.218 93.4008 699.421 94.5476C700.058 94.8903 700.61 95.3714 701.036 95.9555C701.463 96.5395 701.753 97.2117 701.885 97.9226L695.653 98.3226C695.389 97.7445 694.938 97.2721 694.373 96.9818C693.808 96.6915 693.161 96.6002 692.538 96.7227C692.043 96.7135 691.551 96.8136 691.099 97.016C690.647 97.2183 690.245 97.5179 689.921 97.8933C689.598 98.2687 689.362 98.7109 689.229 99.1881C689.096 99.6654 689.069 100.166 689.152 100.655C689.311 103.163 690.88 104.468 693.575 104.298C695.343 104.186 696.298 103.609 696.62 102.498L694.296 102.646L694.107 99.6626L701.963 99.1626L702.444 106.746Z" fill="black"/>
<path d="M703.983 92.9165L714.143 92.2724C717.269 92.0724 718.184 92.1825 719.07 92.8075C719.535 93.1619 719.912 93.6193 720.171 94.1438C720.43 94.6683 720.564 95.2456 720.563 95.8305C720.676 96.7627 720.458 97.705 719.947 98.4925C719.463 99.0346 718.809 99.3963 718.092 99.5185C720.186 99.9845 720.438 100.381 720.785 103.89C720.892 104.937 720.923 105.099 721.264 105.59L715.773 105.938C715.645 105.344 715.551 104.744 715.494 104.139C715.21 101.287 714.988 101.052 712.767 101.192L709.785 101.381L710.097 106.297L704.852 106.629L703.983 92.9165ZM713.077 98.2674C713.586 98.2998 714.095 98.1887 714.544 97.9465C714.712 97.8018 714.842 97.6181 714.922 97.4115C715.003 97.2049 715.032 96.9817 715.006 96.7615C714.943 95.7735 714.449 95.4755 712.948 95.5705L709.431 95.7934L709.602 98.4875L713.077 98.2674Z" fill="black"/>
<path d="M726.832 91.4697L733.763 91.0298L740.123 104.4L734.385 104.764L733.73 103.546L728.135 103.901L727.701 105.187L722.21 105.535L726.832 91.4697ZM732.479 100.115L730.392 95.1877L728.86 100.344L732.479 100.115Z" fill="black"/>
<path d="M740.446 90.6067L750.688 89.9577C753.321 89.7907 754.425 89.9486 755.458 90.6056C756.006 91.0138 756.451 91.5456 756.755 92.1578C757.059 92.7699 757.215 93.4451 757.209 94.1287C757.327 94.8709 757.241 95.631 756.962 96.3285C756.682 97.0261 756.219 97.6349 755.622 98.0906C754.711 98.7066 753.877 98.9027 751.307 99.0657L746.268 99.3847L746.56 103.993L741.315 104.325L740.446 90.6067ZM749.346 95.8656C749.934 95.9045 750.523 95.7966 751.06 95.5517C751.248 95.4064 751.395 95.2144 751.486 94.9948C751.577 94.7752 751.609 94.5355 751.579 94.2997C751.516 93.2927 750.962 93.0167 749.193 93.1287L745.882 93.3387L746.055 96.0746L749.346 95.8656Z" fill="black"/>
<path d="M758.709 89.4495L763.953 89.1176L764.259 93.9506L770.388 93.5615L770.082 88.7285L775.326 88.3965L776.195 102.115L770.951 102.447L770.609 97.0585L764.481 97.4465L764.822 102.836L759.578 103.167L758.709 89.4495Z" fill="black"/>
<path d="M778.185 88.2157L783.429 87.8838L784.298 101.602L779.054 101.934L778.185 88.2157Z" fill="black"/>
<path d="M804.992 95.1488C805.036 95.974 804.862 96.796 804.488 97.5331C804.115 98.2701 803.554 98.8962 802.863 99.3487C801.204 100.549 799.297 101.083 795.884 101.299C792.531 101.512 790.524 101.122 788.817 99.9298C787.958 99.3136 787.257 98.5034 786.77 97.5651C786.284 96.6267 786.026 95.5867 786.017 94.5298C785.889 93.5101 786.008 92.4745 786.364 91.5104C786.72 90.5462 787.302 89.6818 788.062 88.9897C789.708 87.6057 791.853 86.9117 795.082 86.7077C798.804 86.4717 801.361 87.0538 803.082 88.4718C804.036 89.3327 804.641 90.5141 804.782 91.7917L798.756 92.1737C798.224 90.6177 797.281 90.0787 795.327 90.2027C792.859 90.3587 791.643 91.6958 791.794 94.0818C791.953 96.5898 793.422 97.9427 795.808 97.7917C796.667 97.7881 797.499 97.4954 798.171 96.9608C798.542 96.5493 798.816 96.059 798.971 95.5267L804.992 95.1488Z" fill="black"/>
<path d="M813.611 95.6137C814.132 96.3457 814.829 96.5908 816.124 96.5138C817.358 96.4348 817.976 96.0868 817.94 95.5138C817.915 95.1228 817.696 94.9297 817.257 94.8347C815.959 94.6546 814.65 94.5787 813.34 94.6078C811.867 94.572 810.401 94.3809 808.968 94.0377C808.189 93.9051 807.48 93.5074 806.96 92.9118C806.441 92.3163 806.143 91.5595 806.118 90.7697C805.918 87.6697 808.841 85.8478 814.6 85.4828C817.52 85.2981 819.708 85.6138 821.164 86.4298C821.733 86.735 822.23 87.1581 822.622 87.671C823.014 88.1839 823.293 88.7747 823.438 89.4038L816.589 89.8377C816.205 88.9947 815.399 88.6538 814.042 88.7378C812.952 88.8068 812.295 89.1997 812.33 89.7547C812.373 90.4327 812.83 90.5277 817.098 90.6917C818.567 90.6573 820.033 90.8426 821.448 91.2417C822.219 91.4299 822.906 91.8667 823.405 92.4843C823.903 93.102 824.184 93.8665 824.205 94.6598C824.412 97.9308 821.57 99.6797 815.42 100.069C812.48 100.256 810.234 100.006 808.808 99.3327C808.129 99.0816 807.536 98.6426 807.097 98.067C806.658 97.4914 806.392 96.8029 806.33 96.0818L813.611 95.6137Z" fill="black"/>
<path d="M276.984 125.443L276.538 118.403L269.498 118.849L262.755 123.988L262.455 119.295L258.231 119.563L258.531 124.256L251.193 120.009L244.153 120.455L244.599 127.495L248.823 127.227L248.555 123.003L257.36 128.103L249.269 134.27L249.001 130.046L244.777 130.314L245.223 137.354L252.263 136.908L259.006 131.768L259.306 136.461L263.53 136.193L263.23 131.5L270.568 135.747L277.608 135.301L277.073 126.853L268.625 127.388L273.025 129.936L273.203 132.752L264.398 127.652L272.489 121.485L272.757 125.709L276.984 125.443Z" fill="black"/>
<path d="M300.85 118.458L306.094 118.126L306.422 123.289L311.442 117.789L318.557 117.338L313.171 122.594L319.797 131.033L313.154 131.454L309.005 125.935L306.743 128.37L306.964 131.846L301.719 132.178L300.85 118.458Z" fill="black"/>
<path d="M320.2 117.232L335.727 116.248L335.948 119.748L325.665 120.399L325.765 121.922L334.279 121.382L334.501 124.882L325.986 125.422L326.094 127.129L337.015 126.437L337.237 129.937L321.072 130.961L320.2 117.232Z" fill="black"/>
<path d="M338.465 116.075L347.082 115.529L348.747 119.329C349.204 120.391 349.504 121.513 349.64 122.66L349.825 122.648C349.833 121.494 349.989 120.346 350.29 119.231L351.401 115.259L359.957 114.717L360.826 128.434L355.581 128.767L354.943 118.689L354.86 118.695C354.828 119.653 354.688 120.604 354.441 121.53L352.27 128.977L347.951 129.25L344.816 122.14C344.455 121.251 344.189 120.326 344.022 119.381L343.94 119.386L344.578 129.464L339.334 129.796L338.465 116.075Z" fill="black"/>
<path d="M369.8 123.733C370.322 124.465 371.019 124.709 372.314 124.627C373.548 124.549 374.166 124.2 374.129 123.627C374.105 123.237 373.886 123.043 373.446 122.948C372.149 122.768 370.839 122.693 369.53 122.721C368.056 122.686 366.591 122.495 365.157 122.152C364.378 122.019 363.669 121.621 363.15 121.025C362.63 120.429 362.333 119.673 362.307 118.883C362.107 115.783 365.031 113.962 370.789 113.597C373.709 113.412 375.897 113.728 377.353 114.544C377.922 114.849 378.42 115.272 378.812 115.785C379.204 116.298 379.483 116.889 379.628 117.518L372.779 117.952C372.395 117.109 371.589 116.768 370.231 116.852C369.141 116.921 368.485 117.313 368.52 117.869C368.563 118.547 369.02 118.642 373.287 118.805C374.757 118.771 376.223 118.957 377.638 119.356C378.409 119.544 379.096 119.981 379.595 120.598C380.093 121.216 380.374 121.981 380.394 122.774C380.602 126.044 377.759 127.793 371.61 128.183C368.669 128.369 366.423 128.119 364.997 127.446C364.318 127.195 363.725 126.756 363.286 126.18C362.848 125.605 362.582 124.916 362.52 124.195L369.8 123.733Z" fill="black"/>
<path d="M400.658 125.866L398.396 126.01L397.603 124.573C397.067 125.208 396.381 125.698 395.608 126.001C394.175 126.558 392.661 126.877 391.125 126.945C385.305 127.314 381.891 124.929 381.597 120.281C381.483 119.212 381.626 118.131 382.015 117.129C382.405 116.127 383.028 115.233 383.834 114.522C385.769 113.132 388.086 112.373 390.468 112.347C392.935 112.061 395.432 112.521 397.635 113.669C398.272 114.011 398.824 114.492 399.25 115.076C399.677 115.66 399.967 116.332 400.099 117.043L393.868 117.443C393.604 116.865 393.153 116.392 392.588 116.102C392.022 115.812 391.376 115.72 390.752 115.843C390.257 115.834 389.765 115.934 389.313 116.136C388.861 116.339 388.459 116.638 388.136 117.014C387.812 117.389 387.576 117.831 387.443 118.308C387.31 118.786 387.284 119.286 387.367 119.775C387.525 122.284 389.095 123.589 391.789 123.418C393.558 123.306 394.513 122.729 394.834 121.618L392.51 121.765L392.321 118.782L400.178 118.282L400.658 125.866Z" fill="black"/>
<path d="M402.2 112.037L412.36 111.394C415.485 111.194 416.401 111.303 417.287 111.928C417.752 112.283 418.129 112.74 418.388 113.265C418.646 113.789 418.78 114.366 418.779 114.951C418.892 115.883 418.674 116.826 418.163 117.613C417.679 118.155 417.025 118.517 416.308 118.639C418.402 119.105 418.655 119.502 419.001 123.011C419.109 124.058 419.14 124.221 419.481 124.711L413.989 125.059C413.861 124.465 413.767 123.864 413.71 123.259C413.426 120.407 413.205 120.173 410.984 120.314L408.002 120.502L408.313 125.418L403.069 125.75L402.2 112.037ZM411.294 117.388C411.803 117.42 412.311 117.309 412.76 117.067C412.928 116.923 413.058 116.739 413.139 116.532C413.219 116.326 413.248 116.102 413.222 115.882C413.159 114.895 412.665 114.596 411.164 114.691L407.647 114.914L407.818 117.608L411.294 117.388Z" fill="black"/>
<path d="M425.046 110.59L431.977 110.151L438.337 123.521L432.599 123.884L431.944 122.666L426.35 123.021L425.915 124.308L420.424 124.656L425.046 110.59ZM430.694 119.235L428.606 114.308L427.074 119.465L430.694 119.235Z" fill="black"/>
<path d="M438.661 109.727L448.902 109.078C451.535 108.911 452.639 109.069 453.672 109.726C454.22 110.135 454.665 110.667 454.969 111.279C455.273 111.891 455.429 112.567 455.423 113.25C455.541 113.992 455.455 114.752 455.176 115.449C454.897 116.147 454.434 116.756 453.837 117.211C452.925 117.827 452.091 118.023 449.521 118.186L444.482 118.505L444.774 123.113L439.53 123.445L438.661 109.727ZM447.561 114.986C448.15 115.026 448.739 114.918 449.275 114.672C449.463 114.527 449.61 114.335 449.701 114.115C449.793 113.896 449.825 113.656 449.795 113.42C449.731 112.413 449.177 112.137 447.408 112.249L444.097 112.459L444.27 115.195L447.561 114.986Z" fill="black"/>
<path d="M456.923 108.57L462.167 108.238L462.473 113.071L468.602 112.683L468.296 107.85L473.54 107.517L474.409 121.235L469.165 121.567L468.824 116.179L462.695 116.567L463.036 121.956L457.792 122.288L456.923 108.57Z" fill="black"/>
<path d="M476.4 107.336L481.644 107.004L482.513 120.722L477.269 121.054L476.4 107.336Z" fill="black"/>
<path d="M503.207 114.27C503.251 115.095 503.077 115.917 502.703 116.654C502.329 117.391 501.769 118.017 501.077 118.47C499.419 119.67 497.512 120.204 494.098 120.42C490.745 120.633 488.738 120.244 487.031 119.051C486.172 118.435 485.471 117.625 484.984 116.686C484.497 115.748 484.239 114.708 484.231 113.651C484.102 112.631 484.221 111.596 484.577 110.632C484.933 109.668 485.515 108.804 486.275 108.112C487.922 106.727 490.066 106.033 493.295 105.829C497.018 105.593 499.574 106.175 501.295 107.594C502.249 108.455 502.854 109.636 502.995 110.914L496.969 111.295C496.437 109.74 495.494 109.2 493.54 109.324C491.072 109.48 489.856 110.817 490.007 113.203C490.166 115.712 491.636 117.064 494.021 116.913C494.88 116.91 495.712 116.617 496.384 116.082C496.755 115.67 497.029 115.18 497.184 114.648L503.207 114.27Z" fill="black"/>
<path d="M511.825 114.735C512.346 115.466 513.043 115.711 514.339 115.629C515.573 115.551 516.191 115.202 516.154 114.629C516.129 114.238 515.911 114.045 515.471 113.95C514.174 113.77 512.864 113.694 511.554 113.723C510.081 113.687 508.615 113.496 507.182 113.153C506.403 113.02 505.694 112.623 505.174 112.027C504.655 111.432 504.357 110.675 504.332 109.885C504.132 106.785 507.055 104.963 512.814 104.598C515.734 104.413 517.922 104.729 519.378 105.545C519.947 105.85 520.444 106.273 520.837 106.786C521.229 107.299 521.507 107.89 521.652 108.519L514.804 108.953C514.42 108.11 513.614 107.769 512.256 107.853C511.166 107.922 510.509 108.315 510.545 108.87C510.588 109.549 511.045 109.644 515.312 109.807C516.781 109.773 518.247 109.959 519.662 110.357C520.433 110.545 521.121 110.982 521.619 111.6C522.117 112.218 522.398 112.982 522.419 113.776C522.626 117.046 519.784 118.795 513.635 119.185C510.694 119.371 508.448 119.121 507.022 118.448C506.343 118.197 505.75 117.758 505.311 117.182C504.872 116.607 504.606 115.918 504.544 115.197L511.825 114.735Z" fill="black"/>
<path d="M-0.936031 137.579L4.30897 137.246L4.63597 142.409L9.65597 136.909L16.772 136.459L11.385 141.714L18.011 150.153L11.368 150.574L7.21897 145.055L4.95797 147.491L5.17797 150.966L-0.0660313 151.298L-0.936031 137.579Z" fill="black"/>
<path d="M18.417 136.352L33.944 135.369L34.166 138.869L23.883 139.52L23.983 141.043L32.497 140.503L32.719 144.003L24.205 144.542L24.313 146.249L35.233 145.557L35.455 149.057L19.29 150.081L18.417 136.352Z" fill="black"/>
<path d="M36.679 135.195L45.297 134.649L46.962 138.449C47.4177 139.511 47.7182 140.632 47.854 141.78L48.039 141.768C48.0475 140.614 48.2037 139.466 48.504 138.352L49.615 134.379L58.171 133.837L59.04 147.555L53.796 147.887L53.157 137.81L53.075 137.815C53.0423 138.773 52.9017 139.724 52.656 140.65L50.484 148.097L46.166 148.37L43.031 141.26C42.6697 140.371 42.4035 139.446 42.237 138.501L42.154 138.507L42.793 148.584L37.548 148.916L36.679 135.195Z" fill="black"/>
<path d="M68.013 142.853C68.534 143.585 69.231 143.829 70.526 143.747C71.76 143.669 72.378 143.321 72.342 142.747C72.317 142.357 72.098 142.164 71.659 142.068C70.3613 141.89 69.0516 141.814 67.742 141.841C66.2686 141.806 64.8032 141.615 63.37 141.272C62.5903 141.139 61.8806 140.741 61.3612 140.145C60.8417 139.548 60.5445 138.791 60.52 138C60.32 134.9 63.243 133.079 69.002 132.714C71.922 132.53 74.11 132.845 75.566 133.661C76.135 133.966 76.6323 134.389 77.0245 134.902C77.4167 135.415 77.6947 136.006 77.84 136.635L70.991 137.069C70.607 136.226 69.801 135.885 68.444 135.969C67.354 136.038 66.697 136.43 66.732 136.986C66.775 137.664 67.232 137.759 71.5 137.923C72.9693 137.889 74.4355 138.074 75.85 138.473C76.6211 138.661 77.3088 139.098 77.8071 139.715C78.3054 140.333 78.5865 141.098 78.607 141.891C78.814 145.162 75.972 146.911 69.822 147.3C66.882 147.486 64.636 147.237 63.21 146.563C62.5311 146.312 61.9376 145.873 61.4988 145.298C61.06 144.722 60.7941 144.033 60.732 143.312L68.013 142.853Z" fill="black"/>
<path d="M98.873 144.987L96.61 145.13L95.817 143.693C95.2801 144.329 94.5925 144.82 93.817 145.121C92.384 145.678 90.8698 145.997 89.334 146.066C83.514 146.434 80.101 144.049 79.806 139.401C79.6919 138.332 79.8355 137.251 80.2247 136.25C80.6139 135.248 81.2374 134.353 82.043 133.642C83.9788 132.253 86.2954 131.493 88.678 131.467C91.1451 131.181 93.6414 131.641 95.844 132.789C96.4811 133.131 97.0334 133.612 97.46 134.196C97.8866 134.78 98.1767 135.453 98.309 136.164L92.077 136.558C91.8132 135.98 91.3621 135.507 90.7968 135.217C90.2314 134.927 89.5846 134.835 88.961 134.958C88.4657 134.949 87.9745 135.049 87.5224 135.252C87.0703 135.454 86.6683 135.754 86.3451 136.129C86.022 136.504 85.7855 136.946 85.6525 137.424C85.5196 137.901 85.4934 138.402 85.576 138.89C85.735 141.399 87.304 142.704 89.998 142.533C91.767 142.421 92.722 141.844 93.044 140.733L90.719 140.88L90.53 137.897L98.387 137.397L98.873 144.987Z" fill="black"/>
<path d="M100.412 131.157L110.572 130.514C113.698 130.314 114.613 130.423 115.499 131.048C115.964 131.403 116.341 131.86 116.6 132.385C116.859 132.909 116.992 133.487 116.991 134.072C117.105 135.004 116.887 135.945 116.376 136.733C115.892 137.276 115.237 137.637 114.52 137.759C116.62 138.226 116.867 138.623 117.213 142.132C117.321 143.178 117.352 143.341 117.693 143.832L112.202 144.18C112.074 143.586 111.98 142.985 111.923 142.38C111.638 139.528 111.417 139.294 109.196 139.435L106.214 139.624L106.525 144.539L101.281 144.871L100.412 131.157ZM109.506 136.508C110.015 136.54 110.523 136.429 110.972 136.187C111.14 136.042 111.271 135.859 111.351 135.652C111.432 135.445 111.46 135.222 111.434 135.002C111.372 134.015 110.878 133.716 109.376 133.811L105.86 134.034L106.03 136.728L109.506 136.508Z" fill="black"/>
<path d="M123.261 129.71L130.191 129.271L136.551 142.641L130.813 143.004L130.158 141.786L124.564 142.141L124.13 143.428L118.638 143.776L123.261 129.71ZM128.908 138.355L126.821 133.428L125.289 138.585L128.908 138.355Z" fill="black"/>
<path d="M136.875 128.847L147.117 128.198C149.749 128.032 150.854 128.189 151.887 128.846C152.435 129.255 152.879 129.787 153.183 130.399C153.487 131.011 153.643 131.686 153.638 132.37C153.755 133.112 153.67 133.872 153.391 134.569C153.111 135.267 152.648 135.875 152.051 136.331C151.14 136.947 150.306 137.143 147.735 137.306L142.696 137.626L142.988 142.233L137.744 142.565L136.875 128.847ZM145.775 134.106C146.364 134.146 146.953 134.038 147.49 133.792C147.678 133.646 147.825 133.454 147.916 133.235C148.007 133.015 148.039 132.776 148.009 132.54C147.945 131.533 147.391 131.258 145.623 131.37L142.311 131.579L142.485 134.315L145.775 134.106Z" fill="black"/>
<path d="M155.137 127.69L160.382 127.358L160.688 132.191L166.816 131.803L166.51 126.97L171.755 126.637L172.624 140.355L167.379 140.688L167.038 135.299L160.909 135.687L161.251 141.076L156.006 141.408L155.137 127.69Z" fill="black"/>
<path d="M174.613 126.456L179.858 126.124L180.727 139.842L175.482 140.174L174.613 126.456Z" fill="black"/>
<path d="M201.421 133.39C201.465 134.215 201.291 135.037 200.917 135.775C200.543 136.512 199.982 137.137 199.291 137.59C197.633 138.79 195.726 139.323 192.312 139.54C188.96 139.752 186.953 139.363 185.246 138.17C184.387 137.554 183.686 136.744 183.199 135.806C182.712 134.867 182.454 133.827 182.446 132.77C182.317 131.75 182.436 130.715 182.792 129.75C183.148 128.786 183.73 127.922 184.49 127.23C186.137 125.845 188.282 125.152 191.51 124.947C195.233 124.711 197.789 125.293 199.51 126.712C200.465 127.573 201.07 128.754 201.21 130.032L195.184 130.413C194.652 128.858 193.709 128.318 191.756 128.442C189.288 128.598 188.071 129.935 188.223 132.321C188.382 134.83 189.851 136.182 192.236 136.031C193.095 136.028 193.928 135.735 194.6 135.201C194.971 134.789 195.245 134.298 195.4 133.766L201.421 133.39Z" fill="black"/>
<path d="M210.039 133.855C210.561 134.586 211.257 134.831 212.553 134.749C213.787 134.671 214.405 134.322 214.368 133.749C214.344 133.358 214.125 133.165 213.685 133.07C212.387 132.89 211.078 132.815 209.768 132.843C208.295 132.808 206.829 132.617 205.396 132.274C204.617 132.141 203.908 131.743 203.389 131.147C202.869 130.552 202.572 129.795 202.546 129.005C202.346 125.905 205.27 124.083 211.028 123.719C213.948 123.534 216.136 123.85 217.592 124.666C218.161 124.971 218.659 125.394 219.051 125.907C219.444 126.42 219.722 127.011 219.867 127.64L213.018 128.073C212.634 127.231 211.828 126.889 210.47 126.973C209.38 127.043 208.724 127.435 208.759 127.99C208.802 128.669 209.259 128.764 213.526 128.927C214.996 128.894 216.462 129.079 217.877 129.477C218.648 129.666 219.335 130.102 219.833 130.72C220.331 131.338 220.612 132.103 220.633 132.896C220.841 136.166 217.998 137.915 211.849 138.305C208.908 138.491 206.662 138.241 205.236 137.568C204.557 137.317 203.964 136.878 203.526 136.302C203.087 135.727 202.821 135.038 202.759 134.317L210.039 133.855Z" fill="black"/>
<path d="M1182.34 68.0829L1181.9 61.043L1174.85 61.489L1168.11 66.629L1167.81 61.9359L1163.59 62.2039L1163.89 66.8969L1156.55 62.65L1149.51 63.0959L1149.96 70.1359L1154.18 69.8679L1153.91 65.6439L1162.72 70.744L1154.63 76.911L1154.36 72.687L1150.13 72.9549L1150.58 79.9949L1157.62 79.5489L1164.36 74.409L1164.66 79.102L1168.89 78.8339L1168.59 74.1409L1175.93 78.3879L1182.96 77.942L1182.43 69.494L1173.98 70.0289L1178.38 72.577L1178.56 75.3929L1169.76 70.293L1177.85 64.1259L1178.11 68.3499L1182.34 68.0829Z" fill="black"/>
<path d="M1206.21 61.1L1211.45 60.768L1211.78 65.931L1216.8 60.431L1223.92 59.98L1218.53 65.236L1225.15 73.674L1218.51 74.095L1214.36 68.576L1212.1 71.012L1212.32 74.488L1207.08 74.82L1206.21 61.1Z" fill="black"/>
<path d="M1225.56 59.8722L1241.09 58.8882L1241.31 62.3882L1231.03 63.0402L1231.12 64.5622L1239.64 64.0232L1239.86 67.5232L1231.35 68.0622L1231.45 69.7692L1242.38 69.0772L1242.6 72.5772L1226.43 73.6011L1225.56 59.8722Z" fill="black"/>
<path d="M1243.82 58.715L1252.44 58.1689L1254.1 61.9689C1254.56 63.0301 1254.86 64.1517 1255 65.299L1255.18 65.288C1255.19 64.1337 1255.35 62.9853 1255.65 61.8709L1256.76 57.8979L1265.31 57.356L1266.18 71.0739L1260.94 71.4059L1260.3 61.3289L1260.22 61.3339C1260.19 62.2918 1260.04 63.2429 1259.8 64.1689L1257.63 71.616L1253.31 71.89L1250.17 64.7789C1249.81 63.8902 1249.55 62.9658 1249.38 62.0209L1249.3 62.0259L1249.94 72.103L1244.69 72.436L1243.82 58.715Z" fill="black"/>
<path d="M1275.15 66.372C1275.68 67.104 1276.37 67.349 1277.67 67.272C1278.9 67.193 1279.52 66.845 1279.48 66.272C1279.46 65.881 1279.24 65.6881 1278.8 65.5931C1277.5 65.4128 1276.19 65.3369 1274.88 65.3661C1273.41 65.3302 1271.95 65.1392 1270.51 64.7961C1269.73 64.6631 1269.02 64.2652 1268.5 63.6697C1267.99 63.0742 1267.69 62.3177 1267.66 61.5281C1267.46 58.4231 1270.39 56.6061 1276.14 56.2411C1279.06 56.0564 1281.25 56.372 1282.71 57.188C1283.28 57.4934 1283.77 57.9166 1284.17 58.4295C1284.56 58.9424 1284.84 59.533 1284.98 60.162L1278.13 60.596C1277.75 59.753 1276.94 59.412 1275.59 59.496C1274.5 59.565 1273.84 59.958 1273.87 60.513C1273.92 61.191 1274.37 61.286 1278.64 61.45C1280.11 61.4161 1281.58 61.6014 1282.99 62C1283.76 62.1885 1284.45 62.6252 1284.95 63.2428C1285.45 63.8605 1285.73 64.6249 1285.75 65.4181C1285.96 68.6891 1283.11 70.4381 1276.96 70.8271C1274.02 71.0141 1271.78 70.764 1270.35 70.091C1269.67 69.8397 1269.08 69.4006 1268.64 68.825C1268.2 68.2494 1267.94 67.561 1267.87 66.8401L1275.15 66.372Z" fill="black"/>
<path d="M1306.02 68.5062L1303.75 68.6492L1302.96 67.2122C1302.42 67.8475 1301.74 68.3387 1300.96 68.6412C1299.53 69.1973 1298.02 69.5162 1296.48 69.5853C1290.66 69.9543 1287.25 67.5683 1286.95 62.9213C1286.84 61.8524 1286.98 60.7717 1287.37 59.7697C1287.76 58.7677 1288.39 57.8735 1289.19 57.1622C1291.13 55.7726 1293.44 55.0129 1295.83 54.9863C1298.29 54.7006 1300.79 55.161 1302.99 56.3082C1303.63 56.6506 1304.18 57.1315 1304.61 57.7156C1305.03 58.2997 1305.32 58.9721 1305.46 59.6832L1299.22 60.0832C1298.96 59.505 1298.51 59.0326 1297.94 58.7422C1297.38 58.4519 1296.73 58.3607 1296.11 58.4832C1295.61 58.4739 1295.12 58.5739 1294.67 58.7762C1294.22 58.9784 1293.82 59.2779 1293.49 59.6533C1293.17 60.0287 1292.93 60.4707 1292.8 60.9479C1292.67 61.4252 1292.64 61.9258 1292.72 62.4142C1292.88 64.9232 1294.45 66.2282 1297.15 66.0572C1298.92 65.9452 1299.87 65.3683 1300.19 64.2573L1297.87 64.4042L1297.68 61.4213L1305.54 60.9213L1306.02 68.5062Z" fill="black"/>
<path d="M1307.56 54.6772L1317.71 54.0332C1320.84 53.8332 1321.76 53.9432 1322.64 54.5672C1323.11 54.9221 1323.48 55.3797 1323.74 55.9042C1324 56.4288 1324.14 57.0062 1324.13 57.5912C1324.25 58.523 1324.03 59.4652 1323.52 60.2522C1323.03 60.795 1322.38 61.1569 1321.66 61.2782C1323.76 61.7452 1324.01 62.1422 1324.36 65.6512C1324.46 66.6982 1324.5 66.8602 1324.84 67.3512L1319.34 67.6992C1319.22 67.1052 1319.12 66.5041 1319.06 65.8992C1318.78 63.0482 1318.56 62.8132 1316.34 62.9542L1313.36 63.1432L1313.67 68.0582L1308.42 68.3912L1307.56 54.6772ZM1316.65 60.0272C1317.16 60.0596 1317.67 59.9488 1318.11 59.7072C1318.28 59.5626 1318.41 59.379 1318.49 59.1724C1318.57 58.9657 1318.6 58.7424 1318.58 58.5222C1318.51 57.5342 1318.02 57.2352 1316.52 57.3302L1313 57.5532L1313.17 60.2532L1316.65 60.0272Z" fill="black"/>
<path d="M1330.4 53.2291L1337.33 52.79L1343.69 66.16L1337.95 66.5241L1337.3 65.3061L1331.7 65.66L1331.27 66.9471L1325.78 67.295L1330.4 53.2291ZM1336.05 61.8751L1333.96 56.9481L1332.43 62.1041L1336.05 61.8751Z" fill="black"/>
<path d="M1344.02 52.3669L1354.26 51.7179C1356.89 51.5509 1358 51.7089 1359.03 52.3659C1359.58 52.7741 1360.02 53.3058 1360.33 53.9179C1360.63 54.53 1360.79 55.2053 1360.78 55.8889C1360.9 56.631 1360.81 57.391 1360.53 58.0885C1360.25 58.7859 1359.79 59.3949 1359.19 59.8509C1358.28 60.4659 1357.45 60.6629 1354.88 60.8259L1349.84 61.1449L1350.13 65.7519L1344.89 66.0849L1344.02 52.3669ZM1352.92 57.6259C1353.51 57.6649 1354.1 57.5567 1354.63 57.3109C1354.82 57.1654 1354.97 56.9734 1355.06 56.7538C1355.15 56.5342 1355.18 56.2947 1355.15 56.0589C1355.09 55.0519 1354.53 54.7769 1352.77 54.8889L1349.45 55.0989L1349.63 57.8339L1352.92 57.6259Z" fill="black"/>
<path d="M1362.28 51.2103L1367.52 50.8773L1367.83 55.7103L1373.96 55.3223L1373.65 50.4893L1378.9 50.1572L1379.77 63.8752L1374.52 64.2072L1374.18 58.8182L1368.05 59.2072L1368.39 64.5952L1363.15 64.9282L1362.28 51.2103Z" fill="black"/>
<path d="M1381.76 49.9761L1387 49.6431L1387.87 63.3611L1382.62 63.694L1381.76 49.9761Z" fill="black"/>
<path d="M1408.56 56.9092C1408.61 57.7344 1408.43 58.5566 1408.06 59.2936C1407.69 60.0306 1407.13 60.6566 1406.43 61.1092C1404.78 62.3092 1402.87 62.8432 1399.45 63.0592C1396.1 63.2712 1394.1 62.8822 1392.39 61.6892C1391.53 61.0734 1390.83 60.2633 1390.34 59.3248C1389.86 58.3864 1389.6 57.3462 1389.59 56.2892C1389.46 55.2695 1389.58 54.2339 1389.93 53.2698C1390.29 52.3056 1390.87 51.4411 1391.63 50.7492C1393.28 49.3652 1395.42 48.6712 1398.65 48.4662C1402.38 48.2312 1404.93 48.8132 1406.65 50.2312C1407.61 51.0922 1408.21 52.2736 1408.35 53.5512L1402.33 53.9331C1401.79 52.3771 1400.85 51.8382 1398.9 51.9612C1396.43 52.1182 1395.21 53.4542 1395.36 55.8402C1395.52 58.3492 1396.99 59.7022 1399.38 59.5512C1400.24 59.5477 1401.07 59.2549 1401.74 58.7201C1402.11 58.3086 1402.39 57.8184 1402.54 57.2862L1408.56 56.9092Z" fill="black"/>
<path d="M1417.18 57.3742C1417.7 58.1062 1418.4 58.3502 1419.7 58.2682C1420.93 58.1902 1421.55 57.8422 1421.51 57.2682C1421.49 56.8782 1421.27 56.6851 1420.83 56.5891C1419.53 56.4103 1418.22 56.3345 1416.91 56.3622C1415.44 56.3272 1413.97 56.1365 1412.54 55.7932C1411.76 55.6603 1411.05 55.2624 1410.53 54.6667C1410.01 54.0709 1409.71 53.314 1409.69 52.5241C1409.49 49.4241 1412.41 47.6031 1418.17 47.2381C1421.09 47.0535 1423.28 47.3691 1424.73 48.1852C1425.3 48.4901 1425.8 48.9132 1426.19 49.4261C1426.59 49.9391 1426.86 50.53 1427.01 51.1591L1420.16 51.5932C1419.78 50.7502 1418.97 50.4091 1417.61 50.4931C1416.52 50.5621 1415.87 50.9542 1415.9 51.5102C1415.94 52.1882 1416.4 52.2832 1420.67 52.4472C1422.14 52.4126 1423.6 52.598 1425.02 52.9972C1425.79 53.1851 1426.48 53.6217 1426.98 54.2394C1427.47 54.8572 1427.76 55.6217 1427.78 56.4151C1427.98 59.6861 1425.14 61.4351 1418.99 61.8241C1416.05 62.0101 1413.81 61.7611 1412.38 61.0871C1411.7 60.8359 1411.11 60.3969 1410.67 59.8213C1410.23 59.2457 1409.96 58.5572 1409.9 57.8362L1417.18 57.3742Z" fill="black"/>
<path d="M1484.13 48.9629L1483.68 41.9229L1476.64 42.3689L1469.9 47.5089L1469.6 42.8159L1465.37 43.0839L1465.67 47.7769L1458.34 43.5299L1451.3 43.9759L1451.74 51.0159L1455.97 50.7479L1455.7 46.5239L1464.5 51.6239L1456.41 57.7909L1456.14 53.5669L1451.92 53.8349L1452.37 60.8749L1459.41 60.4289L1466.15 55.2899L1466.45 59.9829L1470.67 59.7149L1470.37 55.0219L1477.71 59.2689L1484.75 58.8229L1484.22 50.3749L1475.77 50.9099L1480.17 53.4579L1480.35 56.2739L1471.54 51.1739L1479.63 45.0069L1479.9 49.2309L1484.13 48.9629Z" fill="black"/>
<path d="M1507.99 41.978L1513.24 41.645L1513.56 46.8079L1518.58 41.3079L1525.7 40.8569L1520.31 46.1129L1526.94 54.551L1520.3 54.9719L1516.15 49.4529L1513.89 51.8889L1514.11 55.364L1508.86 55.697L1507.99 41.978Z" fill="black"/>
<path d="M1527.34 40.7521L1542.87 39.7681L1543.09 43.2681L1532.81 43.92L1532.91 45.4421L1541.43 44.9031L1541.65 48.4031L1533.13 48.9421L1533.24 50.6491L1544.16 49.957L1544.38 53.457L1528.22 54.4821L1527.34 40.7521Z" fill="black"/>
<path d="M1545.61 39.5948L1554.22 39.0488L1555.89 42.8488C1556.35 43.9101 1556.65 45.0317 1556.78 46.1788L1556.97 46.1668C1556.98 45.0129 1557.13 43.8647 1557.43 42.7508L1558.54 38.7778L1567.1 38.2358L1567.97 51.9538L1562.72 52.2858L1562.09 42.2088L1562 42.2138C1561.97 43.1716 1561.83 44.1228 1561.58 45.0488L1559.41 52.4958L1555.09 52.7698L1551.96 45.6588C1551.6 44.7699 1551.33 43.8455 1551.17 42.9008L1551.08 42.9058L1551.72 52.9828L1546.48 53.3148L1545.61 39.5948Z" fill="black"/>
<path d="M1576.94 47.2521C1577.46 47.9841 1578.16 48.2291 1579.45 48.1461C1580.69 48.0681 1581.31 47.7201 1581.27 47.1461C1581.24 46.7551 1581.03 46.5621 1580.59 46.4661C1579.29 46.2874 1577.98 46.2119 1576.67 46.2401C1575.2 46.2042 1573.73 46.0131 1572.3 45.6701C1571.52 45.5372 1570.81 45.1393 1570.29 44.5436C1569.77 43.9478 1569.47 43.191 1569.45 42.4011C1569.25 39.3011 1572.17 37.4801 1577.93 37.1151C1580.85 36.9304 1583.04 37.2461 1584.49 38.0621C1585.06 38.3671 1585.56 38.7903 1585.95 39.3032C1586.34 39.8161 1586.62 40.407 1586.77 41.0361L1579.92 41.4701C1579.54 40.6271 1578.73 40.2861 1577.37 40.3701C1576.28 40.4391 1575.63 40.8311 1575.66 41.3871C1575.7 42.0651 1576.16 42.1601 1580.43 42.3241C1581.9 42.2894 1583.36 42.4749 1584.78 42.8741C1585.55 43.0621 1586.24 43.4986 1586.74 44.1163C1587.23 44.7341 1587.51 45.4987 1587.54 46.2921C1587.74 49.5631 1584.9 51.3121 1578.75 51.7011C1575.81 51.8881 1573.56 51.6381 1572.14 50.9641C1571.46 50.7131 1570.87 50.2742 1570.43 49.6985C1569.99 49.1229 1569.72 48.4343 1569.66 47.7131L1576.94 47.2521Z" fill="black"/>
<path d="M1607.8 49.3861L1605.54 49.5291L1604.75 48.0921C1604.21 48.7268 1603.52 49.2179 1602.75 49.5212C1601.32 50.0772 1599.8 50.3961 1598.27 50.4652C1592.45 50.8342 1589.03 48.4482 1588.74 43.8012C1588.62 42.7324 1588.77 41.6518 1589.16 40.6498C1589.55 39.6478 1590.17 38.7537 1590.98 38.0421C1592.91 36.6526 1595.23 35.8928 1597.61 35.8662C1600.08 35.5804 1602.57 36.0409 1604.78 37.1881C1605.41 37.5307 1605.97 38.0117 1606.39 38.5958C1606.82 39.1799 1607.11 39.8521 1607.24 40.5631L1601.01 40.9632C1600.75 40.3849 1600.29 39.9124 1599.73 39.622C1599.16 39.3317 1598.52 39.2405 1597.89 39.3631C1597.4 39.3542 1596.91 39.4545 1596.46 39.6569C1596 39.8593 1595.6 40.1589 1595.28 40.5343C1594.95 40.9097 1594.72 41.3516 1594.58 41.8288C1594.45 42.306 1594.43 42.8066 1594.51 43.2951C1594.67 45.8041 1596.24 47.1091 1598.93 46.9381C1600.7 46.8261 1601.65 46.2492 1601.98 45.1382L1599.65 45.2851L1599.46 42.3022L1607.32 41.8022L1607.8 49.3861Z" fill="black"/>
<path d="M1609.34 35.5571L1619.5 34.9131C1622.63 34.7131 1623.54 34.8231 1624.43 35.4471C1624.89 35.8017 1625.27 36.2592 1625.53 36.7839C1625.79 37.3085 1625.92 37.886 1625.92 38.4711C1626.03 39.4029 1625.82 40.3448 1625.3 41.1321C1624.82 41.6749 1624.17 42.0368 1623.45 42.1581C1625.54 42.6251 1625.79 43.0221 1626.14 46.5311C1626.25 47.5771 1626.28 47.7401 1626.62 48.2311L1621.13 48.5791C1621 47.9851 1620.91 47.384 1620.85 46.7791C1620.57 43.9281 1620.35 43.6931 1618.12 43.8341L1615.14 44.0231L1615.45 48.9381L1610.21 49.2711L1609.34 35.5571ZM1618.43 40.9071C1618.94 40.9391 1619.45 40.8282 1619.9 40.587C1620.07 40.4422 1620.2 40.2584 1620.28 40.0516C1620.36 39.8448 1620.39 39.6215 1620.36 39.4011C1620.3 38.4141 1619.81 38.1151 1618.31 38.2101L1614.79 38.4331L1614.96 41.1271L1618.43 40.9071Z" fill="black"/>
<path d="M1632.19 34.1089L1639.12 33.6699L1645.48 47.0399L1639.74 47.4039L1639.09 46.1859L1633.49 46.5399L1633.05 47.827L1627.56 48.1749L1632.19 34.1089ZM1637.84 42.7549L1635.75 37.827L1634.22 42.9839L1637.84 42.7549Z" fill="black"/>
<path d="M1645.8 33.2458L1656.04 32.5978C1658.67 32.4308 1659.78 32.5888 1660.81 33.2448C1661.36 33.6532 1661.8 34.1851 1662.11 34.7974C1662.41 35.4097 1662.57 36.0851 1662.56 36.7688C1662.68 37.5109 1662.6 38.2711 1662.32 38.9686C1662.04 39.6661 1661.57 40.2751 1660.98 40.7308C1660.06 41.3458 1659.23 41.5428 1656.66 41.7058L1651.62 42.0248L1651.91 46.6318L1646.67 46.9638L1645.8 33.2458ZM1654.7 38.5058C1655.29 38.545 1655.88 38.4368 1656.41 38.1908C1656.6 38.0455 1656.75 37.8536 1656.84 37.634C1656.93 37.4143 1656.96 37.1747 1656.93 36.9388C1656.87 35.9318 1656.32 35.6568 1654.55 35.7688L1651.24 35.9788L1651.41 38.7138L1654.7 38.5058Z" fill="black"/>
<path d="M1664.07 32.0891L1669.31 31.7571L1669.62 36.5901L1675.74 36.2021L1675.44 31.3691L1680.68 31.0371L1681.55 44.7551L1676.31 45.0871L1675.97 39.6981L1669.84 40.0861L1670.18 45.4751L1664.94 45.8071L1664.07 32.0891Z" fill="black"/>
<path d="M1683.54 30.8549L1688.79 30.5229L1689.66 44.241L1684.41 44.5729L1683.54 30.8549Z" fill="black"/>
<path d="M1710.35 37.7889C1710.39 38.614 1710.22 39.4362 1709.85 40.1733C1709.47 40.9103 1708.91 41.5364 1708.22 41.9889C1706.56 43.1889 1704.65 43.7219 1701.24 43.9389C1697.89 44.1509 1695.88 43.7618 1694.17 42.5688C1693.32 41.9528 1692.61 41.1427 1692.13 40.2043C1691.64 39.2659 1691.38 38.2259 1691.37 37.1689C1691.25 36.1491 1691.36 35.1136 1691.72 34.1494C1692.08 33.1852 1692.66 32.3208 1693.42 31.6289C1695.06 30.2449 1697.21 29.5509 1700.44 29.3459C1704.16 29.1099 1706.72 29.6929 1708.44 31.1109C1709.39 31.9716 1710 33.1532 1710.14 34.4309L1704.11 34.8129C1703.58 33.2569 1702.64 32.7129 1700.68 32.8409C1698.22 32.9979 1697 34.3338 1697.15 36.7198C1697.31 39.2288 1698.78 40.5819 1701.17 40.4299C1702.02 40.427 1702.86 40.1345 1703.53 39.5998C1703.9 39.1881 1704.17 38.698 1704.33 38.1659L1710.35 37.7889Z" fill="black"/>
<path d="M1718.97 38.2541C1719.49 38.9861 1720.19 39.23 1721.48 39.148C1722.72 39.07 1723.33 38.721 1723.3 38.148C1723.27 37.758 1723.05 37.564 1722.61 37.469C1721.32 37.2896 1720.01 37.2137 1718.7 37.242C1717.22 37.2071 1715.76 37.0163 1714.32 36.673C1713.55 36.5402 1712.84 36.1423 1712.32 35.5465C1711.8 34.9508 1711.5 34.1939 1711.47 33.404C1711.27 30.304 1714.2 28.483 1719.96 28.118C1722.88 27.9333 1725.06 28.249 1726.52 29.065C1727.09 29.3699 1727.59 29.7931 1727.98 30.306C1728.37 30.8189 1728.65 31.4098 1728.8 32.039L1721.95 32.4731C1721.56 31.6301 1720.76 31.289 1719.4 31.373C1718.31 31.442 1717.65 31.834 1717.69 32.39C1717.73 33.068 1718.19 33.163 1722.45 33.326C1723.92 33.2922 1725.39 33.478 1726.81 33.877C1727.58 34.065 1728.26 34.5015 1728.76 35.1193C1729.26 35.737 1729.54 36.5016 1729.56 37.295C1729.77 40.565 1726.93 42.314 1720.78 42.704C1717.84 42.89 1715.59 42.64 1714.17 41.967C1713.49 41.716 1712.89 41.2771 1712.45 40.7014C1712.02 40.1258 1711.75 39.4372 1711.69 38.716L1718.97 38.2541Z" fill="black"/>
<path d="M1785.91 29.8417L1785.47 22.8018L1778.43 23.2477L1771.68 28.3878L1771.38 23.6948L1767.16 23.9628L1767.46 28.6558L1760.12 24.4088L1753.08 24.8547L1753.53 31.8948L1757.75 31.6268L1757.48 27.4028L1766.29 32.5027L1758.2 38.6697L1757.93 34.4457L1753.71 34.7137L1754.15 41.7538L1761.19 41.3077L1767.94 36.1678L1768.23 40.8608L1772.46 40.5928L1772.16 35.8998L1779.5 40.1467L1786.54 39.7007L1786 31.2498L1777.55 31.7847L1781.95 34.3328L1782.13 37.1487L1773.32 32.0488L1781.42 25.8818L1781.68 30.1058L1785.91 29.8417Z" fill="black"/>
<path d="M1809.78 22.8578L1815.02 22.5248L1815.35 27.6878L1820.37 22.1878L1827.49 21.7378L1822.1 26.9938L1828.73 35.4318L1822.08 35.8528L1817.93 30.3338L1815.67 32.7698L1815.89 36.2448L1810.65 36.5768L1809.78 22.8578Z" fill="black"/>
<path d="M1829.13 21.6309L1844.66 20.6479L1844.88 24.148L1834.6 24.799L1834.7 26.322L1843.21 25.7819L1843.43 29.2819L1834.92 29.8209L1835.03 31.528L1845.95 30.8359L1846.17 34.3359L1830 35.3489L1829.13 21.6309Z" fill="black"/>
<path d="M1847.39 20.4737L1856.01 19.9277L1857.68 23.7277C1858.13 24.7895 1858.43 25.9113 1858.57 27.0587L1858.75 27.0467C1858.76 25.8928 1858.92 24.7448 1859.22 23.6307L1860.33 19.6577L1868.89 19.1157L1869.75 32.8337L1864.51 33.1657L1863.87 23.0887L1863.79 23.0937C1863.76 24.0514 1863.62 25.0025 1863.37 25.9287L1861.2 33.3757L1856.88 33.6487L1853.74 26.5387C1853.38 25.6496 1853.12 24.7248 1852.95 23.7797L1852.87 23.7857L1853.51 33.8627L1848.26 34.1947L1847.39 20.4737Z" fill="black"/>
<path d="M1878.73 28.132C1879.25 28.864 1879.94 29.108 1881.24 29.026C1882.47 28.948 1883.09 28.6 1883.06 28.026C1883.03 27.636 1882.81 27.443 1882.37 27.347C1881.08 27.1682 1879.77 27.0923 1878.46 27.12C1876.98 27.085 1875.52 26.8943 1874.08 26.551C1873.3 26.4181 1872.6 26.0202 1872.08 25.4245C1871.56 24.8288 1871.26 24.0719 1871.23 23.282C1871.03 20.182 1873.96 18.3609 1879.72 17.9959C1882.64 17.8113 1884.82 18.127 1886.28 18.943C1886.85 19.248 1887.35 19.6711 1887.74 20.1841C1888.13 20.697 1888.41 21.2878 1888.55 21.917L1881.7 22.351C1881.32 21.508 1880.51 21.1669 1879.16 21.2509C1878.07 21.3199 1877.41 21.712 1877.45 22.268C1877.49 22.946 1877.95 23.041 1882.21 23.205C1883.68 23.1704 1885.15 23.3558 1886.56 23.755C1887.34 23.9429 1888.02 24.3795 1888.52 24.9972C1889.02 25.615 1889.3 26.3795 1889.32 27.1729C1889.53 30.4439 1886.69 32.1929 1880.54 32.5819C1877.6 32.7679 1875.35 32.5189 1873.92 31.8449C1873.25 31.5939 1872.65 31.155 1872.21 30.5794C1871.77 30.0037 1871.51 29.3151 1871.45 28.594L1878.73 28.132Z" fill="black"/>
<path d="M1909.59 30.2658L1907.32 30.4088L1906.53 28.9718C1906 29.6065 1905.31 30.0974 1904.54 30.3999C1903.1 30.9567 1901.59 31.2758 1900.05 31.3448C1894.23 31.7128 1890.82 29.3278 1890.53 24.6798C1890.41 23.611 1890.55 22.5305 1890.94 21.5285C1891.33 20.5266 1891.96 19.6324 1892.76 18.9209C1894.7 17.5321 1897.01 16.7726 1899.4 16.7458C1901.86 16.4595 1904.36 16.9201 1906.56 18.0678C1907.2 18.4102 1907.75 18.8911 1908.18 19.4753C1908.61 20.0594 1908.9 20.7317 1909.03 21.4428L1902.8 21.8368C1902.53 21.2586 1902.08 20.7862 1901.52 20.4959C1900.95 20.2056 1900.3 20.1143 1899.68 20.2368C1899.18 20.2279 1898.69 20.3281 1898.24 20.5306C1897.79 20.733 1897.39 21.0326 1897.06 21.408C1896.74 21.7834 1896.5 22.2254 1896.37 22.7026C1896.24 23.1798 1896.21 23.6804 1896.3 24.1689C1896.45 26.6779 1898.02 27.9829 1900.72 27.8119C1902.49 27.6999 1903.44 27.1229 1903.76 26.0119L1901.44 26.1588L1901.25 23.1759L1909.11 22.6759L1909.59 30.2658Z" fill="black"/>
<path d="M1911.13 16.4361L1921.29 15.7932C1924.41 15.5932 1925.33 15.7022 1926.21 16.3272C1926.68 16.6817 1927.06 17.1392 1927.31 17.6639C1927.57 18.1885 1927.71 18.766 1927.71 19.3511C1927.82 20.2829 1927.6 21.2247 1927.09 22.0122C1926.61 22.5546 1925.95 22.9164 1925.23 23.0382C1927.33 23.5052 1927.58 23.9021 1927.93 27.4111C1928.04 28.4571 1928.07 28.6202 1928.41 29.1112L1922.92 29.4591C1922.79 28.8651 1922.69 28.2641 1922.64 27.6591C1922.35 24.8071 1922.13 24.5731 1919.91 24.7141L1916.93 24.9031L1917.24 29.8181L1911.99 30.1502L1911.13 16.4361ZM1920.22 21.7871C1920.73 21.8195 1921.24 21.7083 1921.69 21.4661C1921.85 21.3217 1921.98 21.1381 1922.07 20.9314C1922.15 20.7247 1922.17 20.5014 1922.15 20.2811C1922.09 19.2941 1921.59 18.9952 1920.09 19.0902L1916.57 19.3131L1916.74 22.0072L1920.22 21.7871Z" fill="black"/>
<path d="M1994.7 119.584L-134.356 4.5L-135.931 33.6408L1993.13 148.725L1994.7 119.584Z" fill="#E4E4E5"/>
<path d="M822.5 69.6169L822.882 62.5729L815.838 62.1909L808.538 66.5049L808.793 61.8049L804.567 61.5759L804.312 66.2759L797.523 61.1979L790.479 60.8159L790.097 67.8599L794.323 68.0889L794.552 63.8629L802.699 69.9569L793.941 75.134L794.17 70.908L789.944 70.679L789.562 77.723L796.606 78.1049L803.906 73.791L803.651 78.4909L807.877 78.7199L808.132 74.02L814.921 79.098L821.965 79.4799L822.424 71.0269L813.971 70.5679L818.044 73.6149L817.891 76.4329L809.744 70.3389L818.503 65.163L818.274 69.3889L822.5 69.6169Z" fill="black"/>
<path d="M847.02 65.478L852.267 65.762L851.987 70.928L857.617 66.053L864.737 66.439L858.771 71.027L864.363 80.184L857.716 79.824L854.243 73.8571L851.711 76.01L851.522 79.488L846.275 79.203L847.02 65.478Z" fill="black"/>
<path d="M866.383 66.5278L881.918 67.3708L881.729 70.8708L871.44 70.3128L871.357 71.8358L879.876 72.2988L879.686 75.7988L871.168 75.3359L871.075 77.0438L882.001 77.6368L881.811 81.1368L865.638 80.2598L866.383 66.5278Z" fill="black"/>
<path d="M884.655 67.52L893.277 67.988L894.485 71.954C894.815 73.0613 894.984 74.2105 894.985 75.366L895.17 75.376C895.314 74.2307 895.604 73.1086 896.033 72.037L897.602 68.222L906.162 68.687L905.417 82.412L900.17 82.127L900.717 72.045L900.635 72.04C900.491 72.9877 900.239 73.9159 899.886 74.807L896.857 81.948L892.536 81.713L890.256 74.2841C890.002 73.3591 889.846 72.4098 889.791 71.452L889.708 71.447L889.161 81.53L883.914 81.245L884.655 67.52Z" fill="black"/>
<path d="M914.875 78.8C915.307 79.588 915.97 79.913 917.266 79.983C918.501 80.05 919.155 79.7759 919.187 79.1999C919.208 78.8089 919.013 78.592 918.587 78.446C917.32 78.115 916.028 77.8859 914.724 77.761C913.265 77.5529 911.831 77.1916 910.448 76.683C909.689 76.4595 909.031 75.9808 908.585 75.3279C908.139 74.6749 907.932 73.8878 908 73.1C908.169 69.994 911.282 68.532 917.043 68.844C919.965 69.0026 922.101 69.5727 923.451 70.554C923.98 70.9235 924.425 71.402 924.754 71.9574C925.084 72.5127 925.291 73.1322 925.361 73.774L918.509 73.402C918.226 72.52 917.466 72.0869 916.109 72.0129C915.018 71.9539 914.32 72.267 914.29 72.823C914.253 73.501 914.699 73.65 918.915 74.312C920.378 74.4502 921.812 74.8061 923.17 75.368C923.914 75.6451 924.546 76.1593 924.968 76.8313C925.39 77.5033 925.58 78.2957 925.507 79.086C925.33 82.358 922.302 83.762 916.15 83.428C913.207 83.268 911.006 82.757 909.669 81.921C909.024 81.592 908.486 81.0864 908.118 80.4634C907.75 79.8403 907.566 79.1254 907.589 78.402L914.875 78.8Z" fill="black"/>
<path d="M945.272 84.5342L943.008 84.4111L942.389 82.8911C941.783 83.4584 941.044 83.8654 940.241 84.0751C938.753 84.4602 937.211 84.5998 935.678 84.4882C929.855 84.1722 926.744 81.4032 926.997 76.7532C927.009 75.678 927.279 74.6214 927.783 73.6719C928.288 72.7224 929.013 71.9077 929.897 71.2962C931.982 70.1432 934.372 69.6603 936.741 69.9132C939.225 69.9183 941.65 70.6678 943.703 72.0651C944.296 72.4799 944.787 73.0223 945.143 73.6525C945.498 74.2826 945.707 74.9845 945.755 75.7062L939.52 75.3671C939.326 74.7621 938.933 74.2404 938.405 73.886C937.878 73.5316 937.246 73.3654 936.613 73.4141C936.122 73.3469 935.622 73.3887 935.15 73.5366C934.677 73.6846 934.242 73.9349 933.877 74.2699C933.512 74.6049 933.225 75.0162 933.038 75.4746C932.85 75.933 932.765 76.4273 932.79 76.9221C932.654 79.4321 934.06 80.9121 936.755 81.0581C938.525 81.1581 939.541 80.6932 939.991 79.6242L937.665 79.4982L937.827 76.5142L945.688 76.9401L945.272 84.5342Z" fill="black"/>
<path d="M948.422 70.98L958.587 71.532C961.714 71.701 962.611 71.916 963.418 72.64C963.838 73.0468 964.159 73.5455 964.354 74.0968C964.55 74.6481 964.615 75.2372 964.545 75.818C964.548 76.7564 964.222 77.6661 963.622 78.3879C963.077 78.8695 962.385 79.1516 961.659 79.188C963.684 79.897 963.888 80.3209 963.821 83.846C963.718 84.4431 963.815 85.0574 964.097 85.594L958.603 85.2939C958.545 84.6891 958.523 84.0814 958.537 83.474C958.589 80.609 958.397 80.35 956.174 80.23L953.191 80.068L952.924 84.986L947.677 84.7011L948.422 70.98ZM956.822 77.36C957.324 77.452 957.841 77.4011 958.315 77.213C958.499 77.0894 958.651 76.9223 958.755 76.7264C958.86 76.5306 958.915 76.312 958.915 76.09C958.969 75.102 958.515 74.748 957.015 74.666L953.497 74.475L953.35 77.1751L956.822 77.36Z" fill="black"/>
<path d="M971.282 72.2207L978.217 72.5968L982.966 86.6198L977.225 86.3087L976.717 85.0227L971.117 84.7228L970.535 85.9497L965.041 85.6498L971.282 72.2207ZM975.882 81.4688L974.382 76.3308L972.256 81.2717L975.882 81.4688Z" fill="black"/>
<path d="M984.9 72.96L995.147 73.516C997.781 73.659 998.859 73.9449 999.808 74.7159C1000.3 75.1851 1000.68 75.7646 1000.91 76.4075C1001.14 77.0503 1001.22 77.7385 1001.13 78.416C1001.16 79.1667 1000.99 79.9115 1000.63 80.5714C1000.27 81.2313 999.741 81.7816 999.094 82.1639C998.117 82.6689 997.266 82.764 994.694 82.627L989.652 82.353L989.402 86.963L984.155 86.678L984.9 72.96ZM993.125 79.226C993.705 79.3339 994.303 79.2958 994.864 79.115C995.068 78.9925 995.236 78.8189 995.353 78.6115C995.469 78.404 995.529 78.1698 995.527 77.932C995.581 76.925 995.063 76.586 993.294 76.49L989.981 76.311L989.832 79.048L993.125 79.226Z" fill="black"/>
<path d="M1003.18 73.9512L1008.42 74.2361L1008.16 79.0721L1014.29 79.4042L1014.55 74.5691L1019.8 74.8541L1019.06 88.5791L1013.81 88.2941L1014.1 82.9031L1007.97 82.5701L1007.68 87.9612L1002.43 87.6771L1003.18 73.9512Z" fill="black"/>
<path d="M1022.66 75.0088L1027.91 75.2937L1027.16 89.0188L1021.92 88.7338L1022.66 75.0088Z" fill="black"/>
<path d="M1048.47 85.037C1048.42 85.8619 1048.15 86.6585 1047.69 87.3469C1047.24 88.0353 1046.61 88.5915 1045.87 88.96C1044.08 89.96 1042.12 90.26 1038.71 90.078C1035.35 89.896 1033.41 89.278 1031.85 87.89C1031.07 87.1779 1030.47 86.2915 1030.09 85.3031C1029.72 84.3147 1029.59 83.2521 1029.7 82.202C1029.69 81.1744 1029.93 80.1598 1030.4 79.244C1030.87 78.3282 1031.55 77.5379 1032.38 76.9399C1034.18 75.7579 1036.39 75.32 1039.62 75.496C1043.35 75.696 1045.82 76.575 1047.36 78.186C1048.21 79.1536 1048.67 80.3994 1048.66 81.686L1042.63 81.359C1042.28 79.751 1041.41 79.105 1039.45 78.999C1036.99 78.865 1035.62 80.05 1035.49 82.437C1035.35 84.947 1036.66 86.463 1039.04 86.592C1039.9 86.6897 1040.76 86.4965 1041.49 86.0439C1041.9 85.678 1042.23 85.2231 1042.45 84.713L1048.47 85.037Z" fill="black"/>
<path d="M1056.98 86.5089C1057.41 87.2959 1058.07 87.6209 1059.37 87.6909C1060.6 87.7579 1061.26 87.4848 1061.29 86.9078C1061.31 86.5168 1061.12 86.2999 1060.69 86.1539C1059.42 85.8228 1058.13 85.5937 1056.83 85.4689C1055.37 85.2613 1053.93 84.9 1052.55 84.3909C1051.79 84.1676 1051.14 83.6893 1050.69 83.037C1050.24 82.3846 1050.04 81.5983 1050.1 80.8109C1050.27 77.7049 1053.38 76.2429 1059.15 76.5549C1062.07 76.7136 1064.2 77.2835 1065.55 78.2649C1066.08 78.6348 1066.53 79.1133 1066.86 79.6686C1067.19 80.2239 1067.39 80.8431 1067.46 81.4848L1060.61 81.1129C1060.33 80.2309 1059.57 79.7979 1058.21 79.7239C1057.12 79.6649 1056.42 79.9779 1056.39 80.5339C1056.36 81.2119 1056.8 81.3608 1061.02 82.0228C1062.48 82.1609 1063.92 82.5169 1065.27 83.0788C1066.02 83.3562 1066.65 83.8706 1067.07 84.5425C1067.49 85.2144 1067.68 86.0066 1067.61 86.7969C1067.43 90.0689 1064.4 91.4729 1058.25 91.1389C1055.31 90.9789 1053.11 90.4678 1051.77 89.6318C1051.13 89.303 1050.59 88.7974 1050.22 88.1743C1049.85 87.5512 1049.67 86.8363 1049.69 86.1129L1056.98 86.5089Z" fill="black"/>
<path d="M520.554 53.2321L520.936 46.1881L513.892 45.8062L506.592 50.1201L506.847 45.4201L502.621 45.1911L502.366 49.8911L495.577 44.8131L488.533 44.4312L488.151 51.4751L492.377 51.7041L492.606 47.4781L500.753 53.5721L492 58.7471L492.229 54.5211L488.003 54.2921L487.621 61.3361L494.665 61.7181L501.965 57.4041L501.71 62.1041L505.936 62.3331L506.191 57.6331L512.98 62.7111L520.024 63.0931L520.483 54.6401L512.03 54.1812L516.103 57.2282L515.95 60.0461L507.803 53.9521L516.562 48.7761L516.333 53.0021L520.554 53.2321Z" fill="black"/>
<path d="M545.074 49.0933L550.321 49.3773L550.04 54.5433L555.671 49.6683L562.79 50.0543L556.825 54.6423L562.416 63.8002L555.77 63.4393L552.296 57.4722L549.765 59.6252L549.576 63.1033L544.329 62.8182L545.074 49.0933Z" fill="black"/>
<path d="M564.436 50.1431L579.972 50.9861L579.782 54.4861L569.494 53.9271L569.411 55.4511L577.93 55.9131L577.74 59.4131L569.221 58.9511L569.128 60.6581L580.055 61.251L579.865 64.751L563.691 63.8741L564.436 50.1431Z" fill="black"/>
<path d="M582.708 51.1353L591.33 51.6033L592.539 55.5692C592.869 56.6766 593.037 57.8258 593.039 58.9813L593.224 58.9913C593.367 57.8463 593.657 56.7244 594.086 55.6533L595.655 51.8372L604.215 52.3022L603.471 66.0272L598.224 65.7423L598.771 55.6602H598.688C598.544 56.6078 598.293 57.5361 597.94 58.4272L594.911 65.5682L590.59 65.3333L588.31 57.9042C588.055 56.9793 587.899 56.03 587.844 55.0723L587.762 55.0673L587.215 65.1503L581.968 64.8652L582.708 51.1353Z" fill="black"/>
<path d="M612.928 62.4133C613.36 63.2003 614.028 63.5252 615.32 63.5952C616.554 63.6622 617.209 63.3892 617.24 62.8122C617.261 62.4212 617.067 62.2042 616.64 62.0582C615.373 61.7272 614.081 61.4981 612.777 61.3732C611.318 61.1657 609.885 60.8043 608.502 60.2952C607.744 60.0721 607.086 59.5939 606.64 58.9415C606.194 58.289 605.987 57.5026 606.055 56.7153C606.223 53.6093 609.336 52.1472 615.098 52.4592C618.019 52.6179 620.155 53.1879 621.506 54.1692C622.035 54.5389 622.48 55.0175 622.809 55.5728C623.138 56.1281 623.345 56.7474 623.416 57.3892L616.563 57.0173C616.281 56.1353 615.52 55.7022 614.163 55.6282C613.072 55.5692 612.374 55.8822 612.344 56.4382C612.307 57.1162 612.753 57.2652 616.969 57.9272C618.432 58.0654 619.867 58.4213 621.225 58.9832C621.968 59.2606 622.6 59.7749 623.022 60.4468C623.445 61.1187 623.634 61.9109 623.562 62.7012C623.384 65.9732 620.357 67.3773 614.204 67.0433C611.262 66.8833 609.061 66.3722 607.723 65.5362C607.078 65.2074 606.54 64.7018 606.172 64.0787C605.804 63.4556 605.621 62.7406 605.644 62.0173L612.928 62.4133Z" fill="black"/>
<path d="M643.326 68.1494L641.062 68.0264L640.443 66.5064C639.836 67.0738 639.098 67.4808 638.294 67.6904C636.806 68.0755 635.264 68.2151 633.731 68.1034C627.908 67.7874 624.798 65.0184 625.05 60.3684C625.062 59.2932 625.332 58.2367 625.836 57.2872C626.341 56.3377 627.066 55.523 627.95 54.9114C630.035 53.7584 632.425 53.2756 634.794 53.5284C637.278 53.5337 639.703 54.2833 641.757 55.6804C642.349 56.0953 642.841 56.6378 643.196 57.2679C643.551 57.898 643.761 58.5997 643.809 59.3214L637.574 58.9833C637.379 58.3783 636.987 57.8564 636.46 57.5019C635.932 57.1474 635.301 56.9809 634.667 57.0294C634.176 56.9623 633.676 57.0043 633.204 57.1523C632.731 57.3003 632.297 57.5506 631.932 57.8856C631.567 58.2205 631.28 58.6318 631.092 59.0901C630.904 59.5484 630.819 60.0426 630.844 60.5374C630.707 63.0474 632.113 64.5274 634.809 64.6734C636.578 64.7734 637.594 64.3084 638.044 63.2404L635.719 63.1134L635.881 60.1294L643.742 60.5554L643.326 68.1494Z" fill="black"/>
<path d="M646.475 54.5952L656.64 55.1472C659.768 55.3172 660.664 55.5312 661.471 56.2552C661.891 56.6622 662.212 57.1607 662.407 57.712C662.603 58.2633 662.669 58.8524 662.599 59.4332C662.602 60.3718 662.275 61.2815 661.675 62.0032C661.131 62.485 660.439 62.7671 659.713 62.8032C661.737 63.5122 661.942 63.9362 661.874 67.4612C661.772 68.0588 661.869 68.6734 662.151 69.2103L656.657 68.9102C656.599 68.3057 656.576 67.6984 656.59 67.0913C656.642 64.2253 656.45 63.9673 654.228 63.8463L651.244 63.6843L650.977 68.6022L645.73 68.3182L646.475 54.5952ZM654.875 60.9752C655.377 61.0672 655.895 61.0163 656.369 60.8282C656.553 60.7047 656.705 60.5376 656.809 60.3417C656.914 60.1459 656.969 59.9273 656.969 59.7053C657.022 58.7173 656.569 58.3633 655.069 58.2813L651.55 58.0903L651.404 60.7902L654.875 60.9752Z" fill="black"/>
<path d="M669.336 55.8364L676.27 56.2124L681.019 70.2354L675.278 69.9244L674.771 68.6384L669.171 68.3384L668.589 69.5654L663.095 69.2654L669.336 55.8364ZM673.936 65.0844L672.436 59.9464L670.31 64.8875L673.936 65.0844Z" fill="black"/>
<path d="M682.957 56.5752L693.205 57.1312C695.839 57.2742 696.917 57.5602 697.866 58.3312C698.363 58.8011 698.741 59.3815 698.972 60.0252C699.202 60.6689 699.278 61.3579 699.192 62.0362C699.222 62.7869 699.048 63.5316 698.689 64.1915C698.33 64.8513 697.798 65.4017 697.152 65.7842C696.175 66.2892 695.323 66.3842 692.752 66.2472L687.711 65.9732L687.461 70.5832L682.214 70.2982L682.957 56.5752ZM691.182 62.8412C691.762 62.949 692.36 62.9108 692.922 62.7302C693.126 62.6076 693.294 62.4341 693.41 62.2266C693.526 62.0191 693.586 61.7849 693.584 61.5472C693.639 60.5402 693.121 60.2012 691.351 60.1052L688.038 59.9262L687.89 62.6632L691.182 62.8412Z" fill="black"/>
<path d="M701.23 57.5664L706.477 57.8514L706.214 62.6874L712.346 63.0204L712.609 58.1844L717.856 58.4694L717.111 72.1944L711.864 71.9094L712.156 66.5184L706.024 66.1854L705.732 71.5764L700.485 71.2924L701.23 57.5664Z" fill="black"/>
<path d="M720.716 58.6245L725.963 58.9095L725.218 72.6345L719.971 72.3495L720.716 58.6245Z" fill="black"/>
<path d="M746.526 68.6522C746.473 69.4771 746.204 70.2736 745.747 70.9621C745.289 71.6506 744.659 72.2068 743.919 72.5751C742.131 73.5751 740.175 73.8752 736.759 73.6932C733.405 73.5112 731.459 72.8932 729.902 71.5052C729.122 70.7929 728.521 69.9066 728.148 68.9182C727.774 67.9298 727.64 66.8674 727.755 65.8172C727.747 64.7895 727.986 63.775 728.453 62.8592C728.919 61.9434 729.599 61.1532 730.435 60.5552C732.235 59.3732 734.444 58.9352 737.674 59.1112C741.398 59.3112 743.874 60.1912 745.412 61.8012C746.26 62.769 746.722 64.0146 746.712 65.3012L740.683 64.9742C740.337 63.3662 739.464 62.7202 737.509 62.6142C735.039 62.4802 733.675 63.6652 733.545 66.0522C733.409 68.5622 734.71 70.0781 737.097 70.2071C737.95 70.305 738.811 70.1119 739.541 69.6592C739.957 69.2935 740.285 68.8385 740.501 68.3282L746.526 68.6522Z" fill="black"/>
<path d="M755.03 70.1242C755.462 70.9112 756.13 71.2362 757.422 71.3062C758.657 71.3732 759.311 71.1002 759.343 70.5232C759.364 70.1322 759.169 69.9152 758.743 69.7691C757.475 69.439 756.184 69.2099 754.88 69.0842C753.421 68.8766 751.987 68.5153 750.604 68.0061C749.846 67.7827 749.189 67.3044 748.743 66.6521C748.297 65.9998 748.09 65.2135 748.157 64.4262C748.325 61.3202 751.438 59.8581 757.2 60.1701C760.122 60.3288 762.258 60.8988 763.608 61.8802C764.137 62.2498 764.582 62.7283 764.911 63.2837C765.24 63.839 765.447 64.4583 765.518 65.1001L758.666 64.7282C758.383 63.8462 757.623 63.4132 756.266 63.3392C755.176 63.2802 754.478 63.5932 754.448 64.1492C754.411 64.8272 754.857 64.9762 759.072 65.6382C760.535 65.7763 761.97 66.1322 763.328 66.6941C764.072 66.9712 764.704 67.4855 765.126 68.1575C765.548 68.8295 765.738 69.6218 765.665 70.4122C765.488 73.6842 762.46 75.0882 756.307 74.7542C753.365 74.5952 751.164 74.0831 749.826 73.2471C749.181 72.9181 748.644 72.4126 748.276 71.7895C747.907 71.1664 747.724 70.4515 747.747 69.7282L755.03 70.1242Z" fill="black"/>
<path d="M218.607 36.8474L218.989 29.8033L211.945 29.4214L204.645 33.7354L204.9 29.0353L200.674 28.8064L200.419 33.5063L193.63 28.4283L186.586 28.0464L186.204 35.0904L190.43 35.3193L190.659 31.0934L198.806 37.1874L190.047 42.3633L190.276 38.1374L186.05 37.9084L185.668 44.9524L192.712 45.3344L200.012 41.0204L199.757 45.7203L203.983 45.9493L204.238 41.2494L211.027 46.3274L218.071 46.7094L218.53 38.2564L210.077 37.7974L214.15 40.8444L214 43.6624L205.853 37.5684L214.612 32.3924L214.383 36.6183L218.607 36.8474Z" fill="black"/>
<path d="M243.127 32.708L248.374 32.993L248.094 38.158L253.724 33.283L260.844 33.669L254.878 38.257L260.47 47.415L253.823 47.054L250.35 41.087L247.818 43.24L247.629 46.718L242.382 46.433L243.127 32.708Z" fill="black"/>
<path d="M262.49 33.7588L278.025 34.6018L277.836 38.1018L267.547 37.5428L267.464 39.0668L275.983 39.5288L275.793 43.0288L267.275 42.5668L267.182 44.2738L278.108 44.8668L277.918 48.3668L261.745 47.4898L262.49 33.7588Z" fill="black"/>
<path d="M280.762 34.75L289.384 35.218L290.592 39.184C290.922 40.2913 291.091 41.4405 291.092 42.596L291.277 42.606C291.42 41.461 291.711 40.3391 292.14 39.268L293.709 35.452L302.269 35.917L301.524 49.642L296.277 49.357L296.824 39.275L296.742 39.27C296.598 40.2177 296.346 41.1459 295.993 42.037L292.964 49.178L288.643 48.943L286.363 41.514C286.108 40.589 285.953 39.6398 285.898 38.682L285.815 38.677L285.268 48.76L280.021 48.475L280.762 34.75Z" fill="black"/>
<path d="M310.982 46.028C311.414 46.815 312.082 47.14 313.373 47.21C314.608 47.277 315.262 47.004 315.294 46.427C315.315 46.036 315.12 45.819 314.694 45.673C313.426 45.3426 312.135 45.1136 310.831 44.988C309.372 44.7804 307.938 44.4191 306.555 43.91C305.797 43.6865 305.14 43.2082 304.694 42.5559C304.248 41.9036 304.041 41.1173 304.108 40.33C304.277 37.224 307.39 35.762 313.151 36.074C316.073 36.2326 318.209 36.8026 319.559 37.784C320.088 38.1536 320.533 38.6321 320.862 39.1875C321.192 39.7428 321.398 40.3622 321.469 41.004L314.617 40.632C314.334 39.75 313.574 39.317 312.217 39.243C311.127 39.184 310.429 39.497 310.399 40.053C310.362 40.731 310.808 40.88 315.023 41.542C316.486 41.6801 317.921 42.036 319.279 42.598C320.023 42.8751 320.655 43.3893 321.077 44.0613C321.499 44.7333 321.689 45.5256 321.616 46.316C321.439 49.588 318.416 50.992 312.258 50.658C309.316 50.499 307.115 49.987 305.778 49.151C305.133 48.822 304.595 48.3165 304.227 47.6934C303.859 47.0703 303.675 46.3554 303.698 45.632L310.982 46.028Z" fill="black"/>
<path d="M341.379 51.7641L339.115 51.6411L338.496 50.1211C337.89 50.6888 337.151 51.0962 336.348 51.3062C334.859 51.6904 333.318 51.8296 331.785 51.7182C325.962 51.4022 322.851 48.6331 323.103 43.9831C323.115 42.908 323.385 41.8515 323.89 40.9021C324.394 39.9527 325.119 39.1379 326.003 38.5261C328.088 37.3732 330.478 36.8903 332.847 37.1431C335.331 37.1482 337.756 37.8982 339.809 39.2962C340.402 39.7106 340.894 40.2528 341.249 40.8828C341.604 41.5128 341.813 42.2145 341.861 42.9361L335.626 42.5982C335.432 41.993 335.039 41.471 334.512 41.1165C333.984 40.7619 333.353 40.5955 332.719 40.6441C332.228 40.5771 331.729 40.6191 331.256 40.767C330.783 40.915 330.349 41.1654 329.984 41.5003C329.619 41.8353 329.332 42.2466 329.144 42.7049C328.956 43.1632 328.871 43.6573 328.896 44.1521C328.76 46.6621 330.165 48.1422 332.861 48.2882C334.631 48.3882 335.647 47.9231 336.097 46.8551L333.771 46.7282L333.933 43.7442L341.794 44.1701L341.379 51.7641Z" fill="black"/>
<path d="M344.529 38.21L354.694 38.762C357.821 38.932 358.718 39.1459 359.524 39.8699C359.945 40.2766 360.265 40.7752 360.461 41.3265C360.657 41.8779 360.722 42.4671 360.652 43.0479C360.656 43.9867 360.329 44.8968 359.729 45.619C359.184 46.1 358.492 46.382 357.766 46.4189C359.791 47.1279 359.995 47.552 359.928 51.077C359.826 51.6745 359.923 52.289 360.204 52.8259L354.71 52.5259C354.652 51.9211 354.63 51.3134 354.644 50.7059C354.696 47.8399 354.504 47.5819 352.281 47.4609L349.3 47.2999L349.033 52.218L343.786 51.934L344.529 38.21ZM352.929 44.59C353.431 44.682 353.948 44.631 354.422 44.4429C354.606 44.3194 354.757 44.1525 354.862 43.9568C354.967 43.7612 355.022 43.5428 355.022 43.3209C355.076 42.3329 354.622 41.9779 353.122 41.8959L349.603 41.705L349.457 44.405L352.929 44.59Z" fill="black"/>
<path d="M367.389 39.4512L374.324 39.8272L379.073 53.8512L373.332 53.5392L372.824 52.2532L367.224 51.9532L366.642 53.1802L361.147 52.8802L367.389 39.4512ZM371.989 48.6992L370.489 43.5612L368.363 48.5022L371.989 48.6992Z" fill="black"/>
<path d="M381.011 40.1899L391.258 40.7459C393.892 40.8889 394.97 41.1749 395.919 41.9459C396.415 42.4153 396.793 42.9948 397.024 43.6376C397.254 44.2804 397.33 44.9684 397.245 45.6459C397.275 46.3966 397.101 47.1414 396.742 47.8013C396.383 48.4612 395.852 49.0116 395.205 49.3939C394.228 49.8989 393.377 49.9939 390.805 49.8569L385.763 49.5829L385.513 54.1929L380.266 53.908L381.011 40.1899ZM389.235 46.4559C389.815 46.5638 390.413 46.5256 390.975 46.3449C391.179 46.2224 391.347 46.0489 391.463 45.8414C391.58 45.634 391.64 45.3998 391.638 45.1619C391.692 44.1549 391.174 43.8169 389.405 43.7209L386.092 43.541L385.943 46.278L389.235 46.4559Z" fill="black"/>
<path d="M399.283 41.1821L404.53 41.4661L404.268 46.3021L410.4 46.6351L410.662 41.7991L415.909 42.0841L415.164 55.8091L409.917 55.5241L410.21 50.1331L404.078 49.8001L403.785 55.1921L398.538 54.9071L399.283 41.1821Z" fill="black"/>
<path d="M418.769 42.2393L424.017 42.5242L423.272 56.2493L418.025 55.9642L418.769 42.2393Z" fill="black"/>
<path d="M444.58 52.2671C444.527 53.0921 444.258 53.8886 443.8 54.5771C443.342 55.2655 442.712 55.8217 441.972 56.1901C440.185 57.1901 438.228 57.4901 434.813 57.3091C431.458 57.1271 429.513 56.5091 427.955 55.1201C427.175 54.408 426.574 53.5216 426.201 52.5332C425.828 51.5448 425.693 50.4822 425.809 49.4321C425.801 48.4045 426.04 47.39 426.506 46.4742C426.972 45.5584 427.652 44.7681 428.488 44.1701C430.288 42.9881 432.497 42.5511 435.727 42.7261C439.452 42.9261 441.927 43.8061 443.465 45.4161C444.313 46.3838 444.776 47.6295 444.765 48.9161L438.735 48.5891C438.389 46.9811 437.516 46.3351 435.561 46.2291C433.092 46.0951 431.727 47.2801 431.598 49.6671C431.462 52.1771 432.762 53.6931 435.149 53.8221C436.002 53.9199 436.864 53.7268 437.594 53.2741C438.01 52.9085 438.337 52.4539 438.553 51.9441L444.58 52.2671Z" fill="black"/>
<path d="M453.084 53.7389C453.516 54.5269 454.179 54.8509 455.476 54.9209C456.71 54.9879 457.365 54.7149 457.396 54.1379C457.417 53.7469 457.223 53.5299 456.796 53.3839C455.528 53.0536 454.237 52.8245 452.933 52.6989C451.474 52.4915 450.041 52.1302 448.658 51.6209C447.9 51.3977 447.242 50.9194 446.796 50.2671C446.35 49.6147 446.143 48.8284 446.21 48.0409C446.379 44.9349 449.492 43.4729 455.254 43.7849C458.175 43.9436 460.31 44.5136 461.661 45.4949C462.19 45.8646 462.635 46.3431 462.964 46.8984C463.293 47.4538 463.5 48.0731 463.571 48.7149L456.719 48.3439C456.436 47.4609 455.676 47.0279 454.319 46.9539C453.228 46.8949 452.53 47.2079 452.5 47.7639C452.463 48.4419 452.909 48.5909 457.125 49.2529C458.588 49.3916 460.023 49.7476 461.381 50.3089C462.124 50.5863 462.756 51.1006 463.178 51.7725C463.601 52.4444 463.79 53.2366 463.718 54.0269C463.54 57.2989 460.512 58.7029 454.36 58.3689C451.418 58.2099 449.216 57.6979 447.879 56.8619C447.234 56.533 446.696 56.0275 446.328 55.4044C445.96 54.7813 445.776 54.0664 445.799 53.3429L453.084 53.7389Z" fill="black"/>
<path d="M-21.185 18.3652L-12.563 18.8333L-11.354 22.7993C-11.0242 23.9066 -10.8558 25.0558 -10.854 26.2112L-10.669 26.2213C-10.5259 25.0763 -10.2362 23.9544 -9.80703 22.8832L-8.23803 19.0682L0.321968 19.5322L-0.422033 33.2573L-5.67003 32.9733L-5.12203 22.8903L-5.20503 22.8853C-5.34953 23.8328 -5.60045 24.7609 -5.95303 25.6522L-8.98303 32.7933L-13.304 32.5582L-15.583 25.1293C-15.8377 24.2043 -15.9939 23.255 -16.049 22.2972L-16.131 22.2922L-16.678 32.3752L-21.926 32.0903L-21.185 18.3652Z" fill="black"/>
<path d="M9.03496 29.6432C9.46696 30.4312 10.135 30.7552 11.427 30.8252C12.661 30.8922 13.316 30.6192 13.347 30.0422C13.368 29.6512 13.174 29.4342 12.747 29.2882C11.4795 28.9578 10.1878 28.7288 8.88396 28.6032C7.42493 28.3956 5.99196 28.0343 4.60896 27.5252C3.85098 27.3018 3.19338 26.8235 2.74734 26.1712C2.3013 25.5189 2.09417 24.7326 2.16096 23.9452C2.32996 20.8392 5.44296 19.3772 11.205 19.6892C14.1256 19.8479 16.2616 20.4178 17.613 21.3992C18.1422 21.7689 18.5864 22.2475 18.9158 22.8028C19.2452 23.3582 19.4522 23.9774 19.523 24.6192L12.67 24.2482C12.388 23.3652 11.627 22.9321 10.27 22.8581C9.17896 22.7991 8.48096 23.1122 8.45096 23.6682C8.41396 24.3462 8.85996 24.4952 13.076 25.1571C14.5392 25.2957 15.9736 25.6517 17.332 26.2132C18.0755 26.4906 18.7072 27.0048 19.1295 27.6767C19.5518 28.3486 19.7414 29.1409 19.669 29.9312C19.491 33.2032 16.469 34.6072 10.311 34.2732C7.36896 34.1142 5.16796 33.6022 3.82996 32.7662C3.18518 32.4374 2.64728 31.9319 2.27913 31.3088C1.91098 30.6856 1.72779 29.9706 1.75096 29.2472L9.03496 29.6432Z" fill="black"/>
<path d="M39.432 35.3794L37.169 35.2564L36.55 33.7364C35.9434 34.3041 35.2048 34.7114 34.401 34.9214C32.9125 35.3061 31.3713 35.4453 29.838 35.3334C24.015 35.0174 20.905 32.2484 21.157 27.5984C21.1691 26.5233 21.4387 25.4666 21.9433 24.5172C22.4478 23.5677 23.1727 22.753 24.057 22.1414C26.1421 20.9884 28.5317 20.5055 30.901 20.7584C33.3847 20.7638 35.8098 21.5137 37.863 22.9114C38.4557 23.3259 38.9478 23.8681 39.3031 24.4981C39.6585 25.128 39.8679 25.8297 39.916 26.5514L33.68 26.2134C33.4859 25.6082 33.0934 25.086 32.5659 24.7315C32.0384 24.3769 31.4067 24.2105 30.773 24.2594C30.2822 24.1925 29.7827 24.2346 29.3101 24.3826C28.8374 24.5307 28.4032 24.7811 28.0383 25.116C27.6734 25.451 27.3868 25.8621 27.1989 26.3204C27.011 26.7786 26.9263 27.2727 26.951 27.7674C26.814 30.2774 28.22 31.7574 30.916 31.9034C32.685 32.0034 33.701 31.5394 34.151 30.4704L31.826 30.3444L31.988 27.3594L39.849 27.7864L39.432 35.3794Z" fill="black"/>
<path d="M42.582 21.8252L52.747 22.3772C55.875 22.5472 56.771 22.7612 57.578 23.4852C57.9979 23.8923 58.3182 24.391 58.5138 24.9422C58.7095 25.4934 58.7752 26.0824 58.706 26.6632C58.7093 27.6021 58.3822 28.5122 57.782 29.2342C57.2375 29.7161 56.5452 29.9983 55.819 30.0342C57.844 30.7432 58.048 31.1672 57.981 34.6922C57.8789 35.2898 57.9763 35.9043 58.258 36.4412L52.764 36.1412C52.7057 35.5364 52.6833 34.9286 52.697 34.3212C52.749 31.4552 52.557 31.1972 50.335 31.0762L47.351 30.9142L47.084 35.8322L41.837 35.5482L42.582 21.8252ZM50.982 28.2052C51.4839 28.2971 52.0016 28.2461 52.476 28.0582C52.6604 27.9348 52.8117 27.768 52.9163 27.5723C53.021 27.3766 53.0758 27.1581 53.076 26.9362C53.129 25.9482 52.676 25.5932 51.176 25.5112L47.657 25.3212L47.511 28.0212L50.982 28.2052Z" fill="black"/>
<path d="M65.443 23.0664L72.377 23.4424L77.126 37.4664L71.385 37.1544L70.877 35.8684L65.277 35.5684L64.695 36.7954L59.201 36.4954L65.443 23.0664ZM70.043 32.3145L68.543 27.1765L66.418 32.1174L70.043 32.3145Z" fill="black"/>
<path d="M79.064 23.8003L89.312 24.3563C91.945 24.4993 93.024 24.7853 93.973 25.5563C94.469 26.0256 94.8475 26.6051 95.0779 27.2479C95.3083 27.8907 95.384 28.5788 95.299 29.2563C95.3288 30.0071 95.1548 30.7519 94.7954 31.4118C94.4361 32.0717 93.9048 32.622 93.258 33.0043C92.282 33.5093 91.43 33.6043 88.858 33.4673L83.817 33.1933L83.567 37.8033L78.32 37.5183L79.064 23.8003ZM87.289 30.0663C87.8688 30.1753 88.4667 30.1371 89.028 29.9553C89.2319 29.8332 89.4004 29.6598 89.5166 29.4525C89.6329 29.2451 89.693 29.011 89.691 28.7733C89.746 27.7653 89.228 27.4273 87.458 27.3313L84.145 27.1513L84 29.8933L87.289 30.0663Z" fill="black"/>
<path d="M97.336 24.8003L102.584 25.0843L102.321 29.9203L108.453 30.2533L108.716 25.4173L113.963 25.7023L113.218 39.4273L107.971 39.1423L108.263 33.7513L102.131 33.4183L101.839 38.8103L96.592 38.5253L97.336 24.8003Z" fill="black"/>
<path d="M116.823 25.8545L122.07 26.1395L121.325 39.8645L116.078 39.5795L116.823 25.8545Z" fill="black"/>
<path d="M142.633 35.8824C142.58 36.7072 142.311 37.5036 141.853 38.1921C141.396 38.8805 140.766 39.4367 140.026 39.8053C138.238 40.8053 136.282 41.1054 132.866 40.9244C129.512 40.7424 127.566 40.1243 126.009 38.7353C125.229 38.0231 124.628 37.1367 124.255 36.1484C123.881 35.16 123.747 34.0975 123.862 33.0473C123.854 32.0198 124.093 31.0053 124.56 30.0896C125.026 29.1738 125.705 28.3835 126.541 27.7853C128.341 26.6033 130.55 26.1664 133.781 26.3414C137.505 26.5414 139.976 27.4214 141.518 29.0314C142.366 29.999 142.829 31.2447 142.818 32.5314L136.789 32.2043C136.443 30.5963 135.569 29.9503 133.615 29.8443C131.145 29.7103 129.781 30.8953 129.651 33.2823C129.515 35.7923 130.816 37.3084 133.203 37.4374C134.056 37.5352 134.917 37.3421 135.647 36.8893C136.063 36.5241 136.391 36.0695 136.607 35.5594L142.633 35.8824Z" fill="black"/>
<path d="M151.137 37.3544C151.569 38.1424 152.237 38.4663 153.529 38.5373C154.764 38.6043 155.418 38.3303 155.449 37.7533C155.471 37.3623 155.276 37.1454 154.849 36.9994C153.581 36.6694 152.289 36.4406 150.985 36.3154C149.526 36.1069 148.093 35.7453 146.71 35.2364C145.952 35.0133 145.294 34.535 144.848 33.8826C144.402 33.2302 144.196 32.4437 144.263 31.6564C144.431 28.5504 147.544 27.0883 153.306 27.4013C156.228 27.5593 158.364 28.129 159.714 29.1103C160.243 29.48 160.688 29.9585 161.017 30.5138C161.347 31.0692 161.553 31.6885 161.624 32.3304L154.772 31.9593C154.489 31.0773 153.728 30.6434 152.372 30.5704C151.282 30.5104 150.584 30.8234 150.553 31.3794C150.517 32.0584 150.963 32.2063 155.178 32.8683C156.641 33.0069 158.076 33.3629 159.434 33.9244C160.178 34.2018 160.809 34.7161 161.232 35.388C161.654 36.0599 161.843 36.8521 161.771 37.6424C161.593 40.9154 158.566 42.3184 152.413 41.9844C149.471 41.8254 147.27 41.3133 145.932 40.4773C145.287 40.1486 144.75 39.6433 144.381 39.0204C144.013 38.3974 143.83 37.6826 143.853 36.9593L151.137 37.3544Z" fill="black"/>
<path d="M1124.45 86.0002L1124.83 78.9563L1117.79 78.5742L1110.48 82.8882L1110.74 78.1882L1106.51 77.9592L1106.26 82.6593L1099.47 77.5813L1092.43 77.1992L1092.04 84.2433L1096.27 84.4723L1096.5 80.2462L1104.65 86.3402L1095.89 91.5172L1096.12 87.2913L1091.89 87.0623L1091.51 94.1062L1098.55 94.4883L1105.85 90.1742L1105.6 94.8743L1109.82 95.1033L1110.08 90.4032L1116.87 95.4812L1123.91 95.8633L1124.37 87.4103L1115.92 86.9513L1119.99 89.9983L1119.84 92.8163L1111.69 86.7223L1120.45 81.5463L1120.22 85.7722L1124.45 86.0002Z" fill="black"/>
<path d="M1148.97 81.8633L1154.21 82.1472L1153.93 87.3132L1159.56 82.4382L1166.68 82.8242L1160.72 87.4122L1166.31 96.5692L1159.66 96.2092L1156.19 90.2412L1153.66 92.3953L1153.47 95.8733L1148.22 95.5883L1148.97 81.8633Z" fill="black"/>
<path d="M1168.33 82.9131L1183.86 83.7561L1183.68 87.2561L1173.39 86.6981L1173.3 88.2211L1181.82 88.6841L1181.63 92.1841L1173.11 91.7211L1173.02 93.4291L1183.95 94.0221L1183.76 97.5221L1167.58 96.6451L1168.33 82.9131Z" fill="black"/>
<path d="M1186.6 83.9053L1195.22 84.3733L1196.43 88.3392C1196.76 89.4466 1196.93 90.5958 1196.93 91.7512L1197.12 91.7612C1197.26 90.6159 1197.55 89.4938 1197.98 88.4222L1199.55 84.6073L1208.11 85.0723L1207.36 98.7972L1202.12 98.5122L1202.66 88.4292H1202.58C1202.44 89.3765 1202.19 90.3044 1201.83 91.1952L1198.8 98.3363L1194.48 98.1023L1192.2 90.6732C1191.95 89.7482 1191.79 88.7989 1191.74 87.8412L1191.65 87.8363L1191.11 97.9192L1185.86 97.6343L1186.6 83.9053Z" fill="black"/>
<path d="M1216.82 95.182C1217.25 95.97 1217.92 96.295 1219.21 96.365C1220.45 96.432 1221.1 96.158 1221.13 95.582C1221.16 95.191 1220.96 94.974 1220.53 94.827C1219.27 94.4971 1217.97 94.2683 1216.67 94.1429C1215.21 93.9348 1213.78 93.5735 1212.39 93.0649C1211.64 92.8416 1210.98 92.3634 1210.53 91.711C1210.09 91.0587 1209.88 90.2723 1209.95 89.4849C1210.12 86.3789 1213.23 84.916 1218.99 85.229C1221.91 85.3876 1224.05 85.9576 1225.4 86.9389C1225.93 87.3085 1226.37 87.787 1226.7 88.3424C1227.03 88.8977 1227.24 89.5172 1227.31 90.159L1220.45 89.7869C1220.17 88.9049 1219.41 88.4719 1218.06 88.3979C1216.97 88.3389 1216.27 88.652 1216.24 89.208C1216.2 89.886 1216.65 90.034 1220.86 90.697C1222.32 90.835 1223.76 91.191 1225.12 91.753C1225.86 92.0303 1226.49 92.5444 1226.91 93.2164C1227.34 93.8883 1227.53 94.6806 1227.45 95.4709C1227.28 98.7429 1224.25 100.147 1218.1 99.813C1215.15 99.653 1212.95 99.142 1211.61 98.306C1210.97 97.9771 1210.43 97.4716 1210.06 96.8485C1209.7 96.2254 1209.51 95.5103 1209.54 94.7869L1216.82 95.182Z" fill="black"/>
<path d="M1247.22 100.918L1244.95 100.796L1244.34 99.2761C1243.73 99.8434 1242.99 100.25 1242.19 100.46C1240.7 100.845 1239.16 100.984 1237.62 100.873C1231.8 100.557 1228.69 97.788 1228.94 93.138C1228.96 92.0628 1229.22 91.0062 1229.73 90.0566C1230.23 89.107 1230.96 88.2921 1231.84 87.6802C1233.93 86.5276 1236.32 86.0449 1238.69 86.2981C1241.17 86.3031 1243.6 87.0527 1245.65 88.4501C1246.24 88.8649 1246.73 89.4073 1247.09 90.0375C1247.44 90.6676 1247.65 91.3693 1247.7 92.091L1241.47 91.7521C1241.27 91.1471 1240.88 90.6253 1240.35 90.271C1239.82 89.9166 1239.19 89.7504 1238.56 89.7991C1238.07 89.7318 1237.57 89.7737 1237.1 89.9216C1236.62 90.0695 1236.19 90.3199 1235.82 90.6549C1235.46 90.9899 1235.17 91.4012 1234.98 91.8596C1234.8 92.318 1234.71 92.8123 1234.74 93.3071C1234.6 95.8171 1236.01 97.2971 1238.7 97.4431C1240.47 97.5431 1241.49 97.0781 1241.94 96.0091L1239.61 95.8832L1239.77 92.8992L1247.63 93.3251L1247.22 100.918Z" fill="black"/>
<path d="M1250.37 87.3652L1260.53 87.9172C1263.66 88.0862 1264.56 88.3013 1265.36 89.0253C1265.78 89.432 1266.1 89.9304 1266.3 90.4816C1266.5 91.0327 1266.56 91.6216 1266.49 92.2023C1266.5 93.1412 1266.17 94.0512 1265.57 94.7732C1265.02 95.2549 1264.33 95.5371 1263.61 95.5732C1265.63 96.2822 1265.83 96.7052 1265.77 100.231C1265.66 100.828 1265.76 101.443 1266.04 101.979L1260.55 101.679C1260.49 101.074 1260.47 100.467 1260.48 99.8593C1260.54 96.9943 1260.34 96.7352 1258.12 96.6152L1255.14 96.4532L1254.87 101.371L1249.62 101.086L1250.37 87.3652ZM1258.77 93.7452C1259.27 93.8372 1259.79 93.7863 1260.26 93.5983C1260.45 93.4747 1260.6 93.3075 1260.7 93.1117C1260.81 92.9158 1260.86 92.6973 1260.86 92.4752C1260.92 91.4872 1260.46 91.1333 1258.96 91.0513L1255.44 90.8602L1255.3 93.5603L1258.77 93.7452Z" fill="black"/>
<path d="M1273.23 88.606L1280.16 88.9821L1284.91 103.005L1279.17 102.694L1278.66 101.407L1273.06 101.107L1272.48 102.334L1266.99 102.034L1273.23 88.606ZM1277.82 97.853L1276.33 92.7159L1274.2 97.657L1277.82 97.853Z" fill="black"/>
<path d="M1286.85 89.3452L1297.1 89.9012C1299.73 90.0442 1300.81 90.3302 1301.76 91.1012C1302.25 91.5706 1302.63 92.1502 1302.86 92.793C1303.09 93.4358 1303.17 94.1237 1303.08 94.8013C1303.11 95.5519 1302.94 96.2967 1302.58 96.9565C1302.22 97.6164 1301.69 98.1667 1301.05 98.5492C1300.07 99.0542 1299.22 99.1492 1296.65 99.0112L1291.6 98.7383L1291.35 103.348L1286.11 103.063L1286.85 89.3452ZM1295.07 95.6112C1295.66 95.719 1296.25 95.6809 1296.81 95.5002C1297.02 95.3777 1297.19 95.2042 1297.3 94.9967C1297.42 94.7892 1297.48 94.555 1297.48 94.3173C1297.53 93.3103 1297.01 92.9712 1295.24 92.8752L1291.93 92.6952L1291.78 95.4323L1295.07 95.6112Z" fill="black"/>
<path d="M1305.12 90.3364L1310.37 90.6213L1310.11 95.4574L1316.24 95.7893L1316.5 90.9543L1321.75 91.2384L1321 104.964L1315.76 104.679L1316.05 99.2874L1309.92 98.9553L1309.62 104.346L1304.38 104.062L1305.12 90.3364Z" fill="black"/>
<path d="M1324.61 91.394L1329.86 91.678L1329.11 105.404L1323.86 105.119L1324.61 91.394Z" fill="black"/>
<path d="M1350.42 101.421C1350.37 102.246 1350.1 103.043 1349.64 103.732C1349.18 104.42 1348.55 104.977 1347.81 105.345C1346.02 106.345 1344.07 106.645 1340.65 106.463C1337.3 106.281 1335.35 105.663 1333.8 104.275C1333.01 103.563 1332.41 102.677 1332.04 101.688C1331.67 100.7 1331.53 99.6374 1331.65 98.5873C1331.64 97.5596 1331.88 96.5451 1332.35 95.6293C1332.81 94.7135 1333.49 93.9232 1334.33 93.3252C1336.13 92.1432 1338.34 91.7052 1341.57 91.8812C1345.29 92.0812 1347.76 92.9603 1349.31 94.5713C1350.15 95.5388 1350.62 96.7846 1350.6 98.0713L1344.58 97.7443C1344.23 96.1363 1343.36 95.4903 1341.4 95.3843C1338.93 95.2503 1337.57 96.4343 1337.44 98.8223C1337.3 101.332 1338.6 102.848 1340.99 102.977C1341.84 103.075 1342.7 102.881 1343.43 102.429C1343.85 102.063 1344.18 101.608 1344.39 101.098L1350.42 101.421Z" fill="black"/>
<path d="M1358.92 102.893C1359.36 103.681 1360.02 104.006 1361.31 104.076C1362.55 104.143 1363.2 103.869 1363.24 103.293C1363.26 102.902 1363.06 102.685 1362.64 102.539C1361.37 102.208 1360.08 101.979 1358.77 101.854C1357.31 101.646 1355.88 101.285 1354.5 100.776C1353.74 100.553 1353.08 100.074 1352.64 99.4221C1352.19 98.7698 1351.98 97.9836 1352.05 97.1963C1352.22 94.0903 1355.33 92.6282 1361.09 92.9402C1364.02 93.0995 1366.15 93.6696 1367.5 94.6503C1368.03 95.0198 1368.47 95.4982 1368.8 96.0536C1369.13 96.6089 1369.34 97.2284 1369.41 97.8702L1362.56 97.4983C1362.28 96.6163 1361.52 96.1832 1360.16 96.1092C1359.07 96.0502 1358.37 96.3632 1358.34 96.9192C1358.3 97.5972 1358.75 97.7462 1362.96 98.4082C1364.43 98.5463 1365.86 98.9022 1367.22 99.4642C1367.96 99.7413 1368.6 100.256 1369.02 100.928C1369.44 101.6 1369.63 102.392 1369.56 103.182C1369.38 106.454 1366.36 107.858 1360.2 107.524C1357.26 107.364 1355.06 106.853 1353.72 106.017C1353.08 105.688 1352.54 105.183 1352.17 104.56C1351.8 103.937 1351.62 103.222 1351.64 102.498L1358.92 102.893Z" fill="black"/>
<path d="M1426.39 102.387L1426.78 95.3434L1419.73 94.9614L1412.43 99.2754L1412.69 94.5753L1408.46 94.3463L1408.2 99.0464L1401.42 93.9684L1394.37 93.5864L1393.99 100.63L1398.22 100.859L1398.44 96.6334L1406.59 102.727L1397.83 107.904L1398.06 103.678L1393.84 103.449L1393.45 110.493L1400.5 110.875L1407.8 106.561L1407.54 111.261L1411.77 111.49L1412.02 106.79L1418.81 111.868L1425.86 112.25L1426.32 103.797L1417.86 103.338L1421.94 106.385L1421.78 109.203L1413.64 103.109L1422.4 97.9334L1422.17 102.159L1426.39 102.387Z" fill="black"/>
<path d="M1450.91 98.2471L1456.16 98.5321L1455.88 103.698L1461.51 98.8231L1468.63 99.2091L1462.66 103.797L1468.26 112.954L1461.61 112.594L1458.14 106.626L1455.6 108.78L1455.42 112.257L1450.17 111.973L1450.91 98.2471Z" fill="black"/>
<path d="M1470.28 99.3003L1485.81 100.143L1485.62 103.643L1475.33 103.085L1475.25 104.608L1483.77 105.071L1483.58 108.571L1475.06 108.108L1474.97 109.816L1485.89 110.409L1485.7 113.909L1469.53 113.031L1470.28 99.3003Z" fill="black"/>
<path d="M1488.55 100.29L1497.17 100.758L1498.38 104.724C1498.71 105.831 1498.88 106.981 1498.88 108.136L1499.06 108.146C1499.21 107.001 1499.5 105.879 1499.93 104.807L1501.49 100.992L1510.06 101.457L1509.31 115.182L1504.06 114.897L1504.61 104.814H1504.53C1504.38 105.761 1504.13 106.689 1503.78 107.58L1500.75 114.721L1496.43 114.487L1494.15 107.058C1493.89 106.133 1493.74 105.183 1493.68 104.225H1493.6L1493.05 114.308L1487.81 114.023L1488.55 100.29Z" fill="black"/>
<path d="M1518.77 111.567C1519.2 112.355 1519.87 112.68 1521.16 112.75C1522.39 112.817 1523.05 112.543 1523.08 111.967C1523.1 111.576 1522.91 111.358 1522.48 111.212C1521.21 110.882 1519.92 110.653 1518.62 110.528C1517.16 110.32 1515.73 109.959 1514.34 109.45C1513.58 109.227 1512.93 108.749 1512.48 108.096C1512.03 107.444 1511.83 106.658 1511.89 105.87C1512.06 102.764 1515.18 101.301 1520.94 101.614C1523.86 101.773 1526 102.343 1527.35 103.324C1527.87 103.694 1528.32 104.172 1528.65 104.728C1528.98 105.283 1529.18 105.902 1529.26 106.544L1522.4 106.172C1522.12 105.29 1521.36 104.857 1520 104.783C1518.91 104.724 1518.21 105.037 1518.18 105.592C1518.15 106.271 1518.59 106.419 1522.81 107.081C1524.27 107.22 1525.71 107.576 1527.06 108.138C1527.81 108.415 1528.44 108.93 1528.86 109.602C1529.28 110.274 1529.47 111.066 1529.4 111.856C1529.22 115.128 1526.2 116.532 1520.04 116.198C1517.1 116.038 1514.9 115.527 1513.56 114.691C1512.92 114.362 1512.38 113.857 1512.01 113.234C1511.64 112.611 1511.46 111.896 1511.48 111.172L1518.77 111.567Z" fill="black"/>
<path d="M1549.17 117.3L1546.9 117.178L1546.28 115.658C1545.68 116.226 1544.94 116.633 1544.13 116.842C1542.65 117.227 1541.1 117.366 1539.57 117.254C1533.75 116.939 1530.64 114.169 1530.89 109.519C1530.9 108.444 1531.17 107.388 1531.68 106.438C1532.18 105.489 1532.91 104.674 1533.79 104.062C1535.88 102.91 1538.26 102.427 1540.63 102.68C1543.12 102.685 1545.54 103.435 1547.6 104.832C1548.19 105.247 1548.68 105.79 1549.04 106.42C1549.39 107.05 1549.6 107.752 1549.65 108.473L1543.41 108.134C1543.22 107.53 1542.83 107.008 1542.3 106.654C1541.77 106.299 1541.14 106.133 1540.51 106.181C1540.02 106.114 1539.52 106.156 1539.04 106.304C1538.57 106.452 1538.14 106.703 1537.77 107.038C1537.41 107.373 1537.12 107.784 1536.93 108.242C1536.74 108.7 1536.66 109.195 1536.68 109.689C1536.55 112.199 1537.95 113.679 1540.65 113.825C1542.42 113.925 1543.43 113.46 1543.88 112.391L1541.56 112.265L1541.72 109.281L1549.58 109.707L1549.17 117.3Z" fill="black"/>
<path d="M1552.31 103.75L1562.48 104.302C1565.61 104.471 1566.5 104.685 1567.31 105.41C1567.73 105.817 1568.05 106.315 1568.25 106.866C1568.44 107.417 1568.51 108.006 1568.44 108.587C1568.44 109.526 1568.11 110.436 1567.52 111.158C1566.97 111.639 1566.28 111.922 1565.55 111.958C1567.58 112.667 1567.78 113.09 1567.71 116.616C1567.61 117.213 1567.71 117.827 1567.99 118.364L1562.5 118.064C1562.44 117.459 1562.42 116.851 1562.43 116.244C1562.48 113.379 1562.29 113.12 1560.07 113L1557.08 112.838L1556.82 117.756L1551.57 117.471L1552.31 103.75ZM1560.71 110.13C1561.22 110.221 1561.73 110.17 1562.21 109.983C1562.39 109.859 1562.54 109.692 1562.65 109.496C1562.75 109.301 1562.81 109.082 1562.81 108.86C1562.86 107.872 1562.41 107.518 1560.91 107.436L1557.39 107.245L1557.24 109.945L1560.71 110.13Z" fill="black"/>
<path d="M1575.18 104.991L1582.11 105.367L1586.86 119.39L1581.12 119.079L1580.61 117.792L1575.01 117.492L1574.43 118.719L1568.93 118.419L1575.18 104.991ZM1579.77 114.238L1578.27 109.1L1576.15 114.042L1579.77 114.238Z" fill="black"/>
<path d="M1588.8 105.73L1599.05 106.286C1601.68 106.429 1602.76 106.715 1603.71 107.486C1604.2 107.955 1604.58 108.535 1604.81 109.177C1605.04 109.82 1605.12 110.508 1605.04 111.186C1605.06 111.937 1604.89 112.681 1604.53 113.341C1604.17 114.001 1603.64 114.551 1602.99 114.934C1602.02 115.434 1601.17 115.534 1598.59 115.396L1593.55 115.123L1593.3 119.733L1588.06 119.448L1588.8 105.73ZM1597.03 111.996C1597.6 112.104 1598.2 112.066 1598.76 111.885C1598.97 111.763 1599.14 111.589 1599.25 111.382C1599.37 111.174 1599.43 110.94 1599.43 110.702C1599.48 109.695 1598.96 109.356 1597.19 109.26L1593.88 109.08L1593.73 111.817L1597.03 111.996Z" fill="black"/>
<path d="M1607.07 106.721L1612.32 107.006L1612.05 111.842L1618.19 112.174L1618.45 107.339L1623.69 107.623L1622.95 121.349L1617.7 121.064L1618 115.672L1611.86 115.34L1611.57 120.731L1606.32 120.446L1607.07 106.721Z" fill="black"/>
<path d="M1626.56 107.779L1631.8 108.063L1631.06 121.789L1625.81 121.504L1626.56 107.779Z" fill="black"/>
<path d="M1652.37 117.806C1652.31 118.631 1652.04 119.428 1651.59 120.117C1651.13 120.805 1650.5 121.362 1649.76 121.73C1647.97 122.73 1646.01 123.03 1642.6 122.848C1639.24 122.666 1637.3 122.048 1635.74 120.66C1634.96 119.948 1634.36 119.062 1633.99 118.073C1633.61 117.085 1633.48 116.022 1633.6 114.972C1633.59 113.945 1633.83 112.93 1634.29 112.014C1634.76 111.098 1635.44 110.308 1636.27 109.71C1638.07 108.528 1640.28 108.09 1643.51 108.265C1647.24 108.465 1649.71 109.345 1651.25 110.956C1652.1 111.924 1652.56 113.169 1652.55 114.456L1646.52 114.128C1646.18 112.521 1645.3 111.875 1643.35 111.769C1640.88 111.635 1639.51 112.819 1639.38 115.207C1639.25 117.717 1640.55 119.232 1642.94 119.362C1643.79 119.459 1644.65 119.266 1645.38 118.814C1645.8 118.448 1646.12 117.993 1646.34 117.483L1652.37 117.806Z" fill="black"/>
<path d="M1660.87 119.278C1661.3 120.066 1661.97 120.391 1663.26 120.461C1664.5 120.528 1665.15 120.254 1665.18 119.678C1665.2 119.287 1665.01 119.07 1664.58 118.923C1663.31 118.593 1662.02 118.364 1660.72 118.239C1659.26 118.031 1657.83 117.67 1656.44 117.161C1655.69 116.938 1655.03 116.46 1654.58 115.807C1654.14 115.155 1653.93 114.369 1654 113.581C1654.16 110.475 1657.28 109.012 1663.04 109.325C1665.96 109.484 1668.1 110.055 1669.45 111.035C1669.98 111.405 1670.42 111.883 1670.75 112.439C1671.08 112.994 1671.29 113.613 1671.36 114.255L1664.5 113.883C1664.22 113.001 1663.46 112.568 1662.1 112.494C1661.01 112.435 1660.32 112.748 1660.29 113.304C1660.25 113.982 1660.69 114.13 1664.91 114.793C1666.37 114.931 1667.81 115.287 1669.17 115.849C1669.91 116.127 1670.54 116.641 1670.96 117.313C1671.39 117.985 1671.58 118.777 1671.5 119.567C1671.33 122.839 1668.3 124.243 1662.15 123.909C1659.2 123.749 1657 123.238 1655.67 122.402C1655.02 122.073 1654.48 121.568 1654.11 120.945C1653.75 120.322 1653.56 119.607 1653.59 118.883L1660.87 119.278Z" fill="black"/>
<path d="M1728.34 118.772L1728.72 111.728L1721.68 111.346L1714.38 115.66L1714.63 110.96L1710.41 110.731L1710.15 115.431L1703.36 110.353L1696.32 109.971L1695.94 117.015L1700.16 117.244L1700.39 113.018L1708.54 119.112L1699.78 124.289L1700.01 120.063L1695.78 119.834L1695.4 126.878L1702.44 127.26L1709.74 122.946L1709.49 127.646L1713.72 127.875L1713.97 123.175L1720.76 128.253L1727.8 128.635L1728.26 120.182L1719.81 119.723L1723.88 122.77L1723.73 125.588L1715.58 119.494L1724.34 114.317L1724.11 118.543L1728.34 118.772Z" fill="black"/>
<path d="M1752.86 114.632L1758.11 114.917L1757.83 120.083L1763.46 115.207L1770.58 115.594L1764.61 120.182L1770.2 129.339L1763.56 128.978L1760.08 123.011L1757.55 125.165L1757.36 128.642L1752.11 128.358L1752.86 114.632Z" fill="black"/>
<path d="M1772.22 115.684L1787.76 116.527L1787.57 120.027L1777.28 119.469L1777.2 120.992L1785.72 121.454L1785.53 124.954L1777.01 124.492L1776.92 126.2L1787.84 126.793L1787.65 130.293L1771.48 129.415L1772.22 115.684Z" fill="black"/>
<path d="M1790.49 116.675L1799.12 117.142L1800.32 121.108C1800.65 122.216 1800.82 123.365 1800.82 124.521L1801.01 124.531C1801.15 123.386 1801.44 122.264 1801.87 121.192L1803.44 117.377L1812 117.841L1811.26 131.567L1806.01 131.282L1806.56 121.199H1806.47C1806.33 122.147 1806.08 123.074 1805.73 123.965L1802.7 131.106L1798.38 130.872L1796.1 123.443C1795.84 122.518 1795.69 121.568 1795.63 120.61H1795.55L1795 130.693L1789.75 130.408L1790.49 116.675Z" fill="black"/>
<path d="M1820.71 127.952C1821.15 128.74 1821.81 129.065 1823.11 129.135C1824.34 129.202 1824.99 128.929 1825.03 128.353C1825.05 127.962 1824.85 127.744 1824.43 127.598C1823.16 127.267 1821.87 127.039 1820.56 126.913C1819.1 126.705 1817.67 126.344 1816.29 125.835C1815.53 125.612 1814.87 125.134 1814.43 124.482C1813.98 123.829 1813.77 123.043 1813.84 122.255C1814.01 119.148 1817.12 117.686 1822.88 117.999C1825.81 118.157 1827.94 118.727 1829.29 119.709C1829.82 120.079 1830.26 120.558 1830.59 121.113C1830.92 121.668 1831.13 122.288 1831.2 122.929L1824.35 122.557C1824.07 121.675 1823.3 121.242 1821.95 121.168C1820.86 121.109 1820.16 121.423 1820.13 121.978C1820.09 122.657 1820.54 122.804 1824.75 123.466C1826.22 123.605 1827.65 123.961 1829.01 124.523C1829.75 124.801 1830.39 125.315 1830.81 125.987C1831.23 126.659 1831.42 127.451 1831.35 128.241C1831.17 131.513 1828.14 132.917 1821.99 132.583C1819.05 132.423 1816.85 131.913 1815.51 131.077C1814.86 130.748 1814.33 130.242 1813.96 129.619C1813.59 128.996 1813.41 128.281 1813.43 127.557L1820.71 127.952Z" fill="black"/>
<path d="M1851.11 133.688L1848.85 133.565L1848.23 132.046C1847.62 132.614 1846.88 133.021 1846.08 133.23C1844.59 133.615 1843.05 133.754 1841.52 133.642C1835.69 133.326 1832.58 130.557 1832.84 125.907C1832.85 124.832 1833.12 123.776 1833.62 122.826C1834.13 121.877 1834.85 121.062 1835.74 120.45C1837.82 119.297 1840.21 118.815 1842.58 119.067C1845.06 119.073 1847.49 119.823 1849.54 121.22C1850.13 121.635 1850.63 122.178 1850.98 122.808C1851.34 123.438 1851.55 124.14 1851.59 124.861L1845.36 124.522C1845.16 123.917 1844.77 123.396 1844.24 123.041C1843.72 122.687 1843.09 122.521 1842.45 122.569C1841.96 122.502 1841.46 122.544 1840.99 122.692C1840.52 122.84 1840.08 123.09 1839.72 123.425C1839.35 123.76 1839.06 124.172 1838.88 124.63C1838.69 125.088 1838.6 125.583 1838.63 126.077C1838.49 128.587 1839.9 130.067 1842.59 130.213C1844.36 130.313 1845.38 129.848 1845.83 128.779L1843.5 128.653L1843.67 125.668L1851.53 126.095L1851.11 133.688Z" fill="black"/>
<path d="M1854.26 120.135L1864.43 120.687C1867.55 120.856 1868.45 121.07 1869.26 121.795C1869.68 122.202 1870 122.7 1870.19 123.251C1870.39 123.803 1870.46 124.392 1870.39 124.972C1870.39 125.911 1870.06 126.821 1869.46 127.543C1868.92 128.025 1868.22 128.307 1867.5 128.343C1869.52 129.051 1869.73 129.475 1869.66 133.001C1869.56 133.598 1869.66 134.213 1869.94 134.749L1864.44 134.449C1864.38 133.844 1864.36 133.237 1864.38 132.629C1864.43 129.764 1864.24 129.505 1862.01 129.385L1859.03 129.223L1858.76 134.141L1853.52 133.856L1854.26 120.135ZM1862.66 126.514C1863.16 126.607 1863.68 126.556 1864.16 126.368C1864.34 126.245 1864.49 126.078 1864.6 125.882C1864.7 125.686 1864.75 125.467 1864.76 125.245C1864.81 124.257 1864.35 123.902 1862.85 123.821L1859.34 123.63L1859.19 126.33L1862.66 126.514Z" fill="black"/>
<path d="M1877.12 121.375L1884.06 121.752L1888.81 135.776L1883.06 135.464L1882.56 134.177L1876.96 133.877L1876.38 135.104L1870.88 134.804L1877.12 121.375ZM1881.72 130.624L1880.23 125.485L1878.1 130.427L1881.72 130.624Z" fill="black"/>
<path d="M1890.74 122.115L1900.99 122.671C1903.62 122.814 1904.7 123.1 1905.65 123.871C1906.15 124.341 1906.53 124.92 1906.76 125.563C1906.99 126.206 1907.06 126.894 1906.98 127.571C1907.01 128.322 1906.83 129.067 1906.47 129.726C1906.12 130.386 1905.58 130.936 1904.94 131.319C1903.96 131.819 1903.11 131.919 1900.54 131.781L1895.5 131.508L1895.25 136.118L1890 135.833L1890.74 122.115ZM1898.97 128.381C1899.55 128.489 1900.15 128.451 1900.71 128.27C1900.91 128.148 1901.08 127.974 1901.2 127.767C1901.31 127.559 1901.37 127.325 1901.37 127.087C1901.42 126.08 1900.91 125.741 1899.14 125.645L1895.82 125.465L1895.68 128.202L1898.97 128.381Z" fill="black"/>
<path d="M1909.02 123.106L1914.26 123.391L1914 128.226L1920.13 128.559L1920.4 123.724L1925.64 124.009L1924.9 137.734L1919.65 137.449L1919.94 132.057L1913.81 131.725L1913.52 137.116L1908.27 136.832L1909.02 123.106Z" fill="black"/>
</svg>
