<svg width="1920" height="164" viewBox="0 0 1920 164" fill="none" xmlns="http://www.w3.org/2000/svg">
<path d="M2049.59 0.496857L-77.337 134.762L-75.4993 163.873L2051.43 29.6085L2049.59 0.496857Z" fill="#E4E4E5"/>
<path d="M880.556 87.2744L880.11 80.2344L873.07 80.6804L866.327 85.8193L866.027 81.1263L861.803 81.3944L862.103 86.0874L854.765 81.8403L847.725 82.2864L848.171 89.3264L852.395 89.0584L852.127 84.8344L860.932 89.9343L852.841 96.1013L852.573 91.8773L848.349 92.1454L848.795 99.1854L855.835 98.7394L862.578 93.5994L862.878 98.2924L867.102 98.0244L866.802 93.3314L874.14 97.5784L881.18 97.1323L880.645 88.6843L872.197 89.2194L876.597 91.7673L876.775 94.5834L867.97 89.4834L876.061 83.3164L876.329 87.5404L880.556 87.2744Z" fill="black"/>
<path d="M904.422 80.2893L909.666 79.9574L909.993 85.1204L915.013 79.6204L922.129 79.1704L916.742 84.4254L923.369 92.8644L916.726 93.2854L912.576 87.7664L910.315 90.2014L910.535 93.6774L905.291 94.0094L904.422 80.2893Z" fill="black"/>
<path d="M923.774 79.0636L939.301 78.0806L939.523 81.5806L929.24 82.2316L929.34 83.7546L937.854 83.2146L938.076 86.7146L929.562 87.2546L929.67 88.9617L940.59 88.2697L940.812 91.7697L924.647 92.7936L923.774 79.0636Z" fill="black"/>
<path d="M942.036 77.9064L950.654 77.3604L952.319 81.1604C952.775 82.2221 953.075 83.3439 953.211 84.4913L953.396 84.4794C953.404 83.3255 953.561 82.1775 953.861 81.0634L954.972 77.0903L963.528 76.5483L964.397 90.2664L959.153 90.5984L958.514 80.5204L958.432 80.5264C958.399 81.4841 958.259 82.4351 958.013 83.3613L955.842 90.8084L951.523 91.0814L948.388 83.9713C948.027 83.0822 947.761 82.1575 947.594 81.2124L947.511 81.2184L948.15 91.2954L942.905 91.6273L942.036 77.9064Z" fill="black"/>
<path d="M973.37 85.5644C973.891 86.2964 974.588 86.5404 975.884 86.4584C977.117 86.3804 977.735 86.0314 977.699 85.4584C977.674 85.0684 977.455 84.8744 977.016 84.7794C975.718 84.6008 974.409 84.5248 973.099 84.5524C971.626 84.5175 970.16 84.3268 968.727 83.9834C967.948 83.8506 967.239 83.4525 966.719 82.8568C966.2 82.2611 965.902 81.5043 965.877 80.7144C965.677 77.6144 968.6 75.7934 974.359 75.4284C977.279 75.243 979.467 75.5587 980.923 76.3754C981.492 76.6803 981.989 77.1034 982.382 77.6164C982.774 78.1293 983.052 78.7202 983.197 79.3494L976.348 79.7834C975.964 78.9404 975.158 78.5994 973.801 78.6834C972.711 78.7524 972.054 79.1443 972.089 79.7003C972.132 80.3783 972.589 80.4734 976.857 80.6364C978.326 80.6025 979.792 80.7883 981.207 81.1874C981.978 81.3753 982.666 81.8118 983.164 82.4296C983.662 83.0473 983.943 83.812 983.964 84.6054C984.171 87.8764 981.329 89.6244 975.179 90.0144C972.239 90.2004 969.993 89.9504 968.567 89.2774C967.888 89.0264 967.295 88.5874 966.856 88.0117C966.417 87.4361 966.151 86.7475 966.089 86.0264L973.37 85.5644Z" fill="black"/>
<path d="M1004.23 87.7002L1001.97 87.8443L1001.17 86.4073C1000.64 87.0422 999.953 87.5331 999.179 87.8352C997.746 88.3921 996.232 88.7114 994.696 88.7803C988.876 89.1483 985.463 86.7633 985.168 82.1153C985.054 81.0465 985.197 79.9659 985.587 78.9639C985.976 77.962 986.599 77.0678 987.405 76.3562C989.34 74.9665 991.657 74.2072 994.04 74.1813C996.507 73.8951 999.003 74.3557 1001.21 75.5033C1001.84 75.8456 1002.4 76.3263 1002.82 76.9102C1003.25 77.4941 1003.54 78.1663 1003.67 78.8772L997.439 79.2773C997.175 78.699 996.724 78.2266 996.159 77.9363C995.593 77.646 994.947 77.5547 994.323 77.6773C993.828 77.6683 993.336 77.7686 992.884 77.971C992.432 78.1734 992.03 78.473 991.707 78.8484C991.384 79.2238 991.147 79.6658 991.014 80.143C990.882 80.6202 990.855 81.1209 990.938 81.6093C991.097 84.1183 992.666 85.4232 995.36 85.2522C997.129 85.1402 998.084 84.5633 998.406 83.4523L996.081 83.5993L995.892 80.6162L1003.75 80.1162L1004.23 87.7002Z" fill="black"/>
<path d="M1005.77 73.8683L1015.93 73.2253C1019.05 73.0253 1019.97 73.1343 1020.86 73.7593C1021.32 74.1139 1021.7 74.5713 1021.96 75.0958C1022.22 75.6202 1022.35 76.1974 1022.35 76.7823C1022.46 77.7143 1022.24 78.6566 1021.73 79.4443C1021.25 79.9864 1020.59 80.3481 1019.88 80.4703C1021.97 80.9373 1022.22 81.3333 1022.57 84.8423C1022.68 85.8893 1022.71 86.0523 1023.05 86.5423L1017.56 86.8893C1017.43 86.2954 1017.34 85.6943 1017.28 85.0893C1016.99 82.2373 1016.77 82.0033 1014.55 82.1443L1011.57 82.3323L1011.88 87.2484L1006.64 87.5803L1005.77 73.8683ZM1014.86 79.2193C1015.37 79.2517 1015.88 79.1405 1016.33 78.8983C1016.5 78.7538 1016.63 78.5701 1016.71 78.3635C1016.79 78.1568 1016.82 77.9336 1016.79 77.7133C1016.73 76.7263 1016.23 76.4273 1014.73 76.5223L1011.22 76.7453L1011.39 79.4393L1014.86 79.2193Z" fill="black"/>
<path d="M1028.62 72.4214L1035.55 71.9824L1041.91 85.3524L1036.17 85.7153L1035.51 84.4973L1029.92 84.8524L1029.49 86.1394L1024 86.4874L1028.62 72.4214ZM1034.26 81.0664L1032.18 76.1394L1030.65 81.2964L1034.26 81.0664Z" fill="black"/>
<path d="M1042.23 71.5583L1052.47 70.9094C1055.11 70.7434 1056.21 70.9004 1057.24 71.5574C1057.79 71.966 1058.24 72.498 1058.54 73.1102C1058.84 73.7224 1059 74.3978 1058.99 75.0814C1059.11 75.8234 1059.03 76.5833 1058.75 77.2806C1058.47 77.978 1058.01 78.5867 1057.41 79.0423C1056.5 79.6583 1055.66 79.8543 1053.09 80.0173L1048.05 80.3364L1048.34 84.9443L1043.1 85.2764L1042.23 71.5583ZM1051.13 76.8174C1051.72 76.8573 1052.31 76.7494 1052.85 76.5034C1053.03 76.3578 1053.18 76.1657 1053.27 75.9462C1053.36 75.7266 1053.4 75.4871 1053.37 75.2513C1053.3 74.2443 1052.75 73.9683 1050.98 74.0803L1047.67 74.2904L1047.84 77.0264L1051.13 76.8174Z" fill="black"/>
<path d="M1060.49 70.4001L1065.74 70.0681L1066.04 74.9011L1072.17 74.5131L1071.87 69.6802L1077.11 69.3472L1077.98 83.0651L1072.74 83.3981L1072.39 78.0092L1066.27 78.3971L1066.61 83.7861L1061.36 84.1182L1060.49 70.4001Z" fill="black"/>
<path d="M1079.97 69.1675L1085.21 68.8354L1086.08 82.5535L1080.84 82.8855L1079.97 69.1675Z" fill="black"/>
<path d="M1106.78 76.1003C1106.82 76.9256 1106.65 77.748 1106.27 78.4851C1105.9 79.2222 1105.34 79.8482 1104.65 80.3004C1102.99 81.5004 1101.08 82.0344 1097.67 82.2504C1094.32 82.4634 1092.31 82.0743 1090.6 80.8813C1089.74 80.2654 1089.04 79.4552 1088.56 78.5168C1088.07 77.5784 1087.81 76.5383 1087.8 75.4813C1087.67 74.4618 1087.79 73.4265 1088.15 72.4625C1088.51 71.4985 1089.09 70.6342 1089.85 69.9424C1091.49 68.5574 1093.64 67.8644 1096.87 67.6594C1100.59 67.4234 1103.15 68.0053 1104.87 69.4243C1105.82 70.2855 1106.43 71.4669 1106.57 72.7444L1100.54 73.1254C1100.01 71.5704 1099.07 71.0304 1097.11 71.1544C1094.65 71.3104 1093.43 72.6473 1093.58 75.0333C1093.74 77.5423 1095.21 78.8944 1097.59 78.7434C1098.45 78.7401 1099.29 78.4473 1099.96 77.9123C1100.33 77.5009 1100.6 77.0107 1100.76 76.4784L1106.78 76.1003Z" fill="black"/>
<path d="M1115.4 76.5664C1115.92 77.2974 1116.62 77.5424 1117.91 77.4604C1119.15 77.3824 1119.77 77.0334 1119.73 76.4604C1119.7 76.0694 1119.49 75.8764 1119.05 75.7814C1117.75 75.6019 1116.44 75.5259 1115.13 75.5543C1113.66 75.5183 1112.19 75.3276 1110.76 74.9854C1109.98 74.8522 1109.27 74.4542 1108.75 73.8585C1108.23 73.2629 1107.93 72.5061 1107.91 71.7163C1107.71 68.6163 1110.63 66.7943 1116.39 66.4293C1119.31 66.244 1121.5 66.5597 1122.95 67.3764C1123.52 67.6815 1124.02 68.1047 1124.41 68.6176C1124.8 69.1305 1125.08 69.7212 1125.23 70.3504L1118.38 70.7845C1117.99 69.9415 1117.19 69.6004 1115.83 69.6844C1114.74 69.7534 1114.08 70.1464 1114.12 70.7014C1114.16 71.3804 1114.62 71.4753 1118.89 71.6383C1120.36 71.6048 1121.82 71.7902 1123.24 72.1884C1124.01 72.3769 1124.7 72.8138 1125.19 73.4317C1125.69 74.0495 1125.97 74.8141 1125.99 75.6075C1126.2 78.8775 1123.36 80.6264 1117.21 81.0164C1114.27 81.2024 1112.02 80.9524 1110.6 80.2794C1109.92 80.0282 1109.33 79.5891 1108.89 79.0135C1108.45 78.4378 1108.18 77.7493 1108.12 77.0283L1115.4 76.5664Z" fill="black"/>
<path d="M578.77 106.394L578.324 99.354L571.284 99.8L564.541 104.94L564.241 100.247L560.017 100.515L560.317 105.208L552.979 100.961L545.939 101.407L546.385 108.447L550.609 108.179L550.341 103.955L559.146 109.055L551.055 115.222L550.787 110.998L546.563 111.266L547.009 118.306L554.049 117.86L560.792 112.72L561.092 117.413L565.316 117.145L565.016 112.452L572.354 116.699L579.394 116.253L578.859 107.805L570.411 108.34L574.811 110.888L574.989 113.704L566.184 108.604L574.275 102.437L574.543 106.661L578.77 106.394Z" fill="black"/>
<path d="M602.636 99.4102L607.88 99.0771L608.207 104.24L613.228 98.7401L620.343 98.2891L614.956 103.545L621.583 111.983L614.94 112.404L610.791 106.885L608.529 109.321L608.749 112.796L603.505 113.129L602.636 99.4102Z" fill="black"/>
<path d="M621.988 98.1832L637.516 97.2002L637.737 100.7L627.454 101.351L627.554 102.874L636.069 102.334L636.29 105.834L627.776 106.373L627.884 108.08L638.805 107.388L639.026 110.888L622.861 111.912L621.988 98.1832Z" fill="black"/>
<path d="M640.251 97.026L648.868 96.48L650.533 100.28C650.989 101.342 651.29 102.463 651.425 103.611L651.61 103.599C651.618 102.445 651.775 101.297 652.075 100.183L653.187 96.21L661.742 95.668L662.611 109.386L657.367 109.718L656.729 99.641L656.646 99.646C656.614 100.604 656.474 101.555 656.227 102.481L654.056 109.928L649.737 110.201L646.602 103.091C646.241 102.202 645.975 101.277 645.808 100.332L645.726 100.338L646.364 110.415L641.12 110.747L640.251 97.026Z" fill="black"/>
<path d="M671.584 104.684C672.105 105.416 672.802 105.66 674.098 105.578C675.332 105.5 675.95 105.152 675.913 104.578C675.888 104.188 675.67 103.995 675.23 103.899C673.932 103.72 672.622 103.645 671.313 103.673C669.84 103.637 668.374 103.446 666.941 103.103C666.162 102.97 665.453 102.572 664.933 101.976C664.414 101.381 664.116 100.624 664.091 99.834C663.891 96.734 666.814 94.913 672.573 94.548C675.493 94.3627 677.681 94.6784 679.137 95.495C679.706 95.8 680.203 96.2232 680.595 96.7361C680.988 97.249 681.266 97.8399 681.411 98.469L674.563 98.903C674.179 98.06 673.373 97.719 672.015 97.803C670.925 97.872 670.269 98.264 670.304 98.82C670.347 99.498 670.804 99.593 675.071 99.757C676.54 99.7224 678.006 99.9078 679.421 100.307C680.192 100.495 680.88 100.931 681.378 101.549C681.876 102.167 682.157 102.932 682.178 103.725C682.385 106.996 679.543 108.745 673.394 109.134C670.453 109.32 668.207 109.071 666.781 108.397C666.102 108.146 665.509 107.707 665.07 107.131C664.631 106.556 664.365 105.867 664.303 105.146L671.584 104.684Z" fill="black"/>
<path d="M702.444 106.818L700.182 106.961L699.389 105.524C698.853 106.159 698.167 106.65 697.394 106.952C695.961 107.509 694.447 107.828 692.911 107.897C687.091 108.265 683.677 105.88 683.383 101.233C683.268 100.164 683.412 99.0837 683.801 98.0817C684.19 97.0797 684.813 96.1855 685.619 95.474C687.555 94.0844 689.871 93.3246 692.254 93.298C694.721 93.0119 697.218 93.4724 699.421 94.62C700.058 94.9625 700.61 95.4435 701.036 96.0276C701.463 96.6117 701.753 97.284 701.885 97.995L695.653 98.3891C695.389 97.8109 694.938 97.3384 694.373 97.0481C693.808 96.7578 693.161 96.6665 692.538 96.789C692.043 96.78 691.551 96.8804 691.099 97.0828C690.647 97.2852 690.245 97.5847 689.922 97.9601C689.599 98.3355 689.362 98.7775 689.229 99.2547C689.096 99.7318 689.07 100.232 689.152 100.721C689.311 103.23 690.88 104.535 693.575 104.364C695.343 104.252 696.298 103.675 696.62 102.564L694.296 102.711L694.107 99.728L701.963 99.228L702.444 106.818Z" fill="black"/>
<path d="M703.983 92.989L714.143 92.3449C717.269 92.1449 718.184 92.254 719.07 92.879C719.535 93.2335 719.912 93.691 720.171 94.2156C720.43 94.7403 720.564 95.3178 720.563 95.9029C720.676 96.8347 720.458 97.7767 719.947 98.5639C719.463 99.1063 718.809 99.4681 718.092 99.5899C720.186 100.057 720.438 100.454 720.785 103.963C720.892 105.009 720.923 105.172 721.264 105.663L715.773 106.011C715.645 105.417 715.551 104.816 715.494 104.211C715.21 101.359 714.988 101.125 712.767 101.266L709.785 101.455L710.097 106.37L704.852 106.702L703.983 92.989ZM713.077 98.3389C713.586 98.3713 714.095 98.2601 714.544 98.0179C714.712 97.8734 714.842 97.6897 714.923 97.4831C715.003 97.2765 715.032 97.0532 715.006 96.8329C714.943 95.8459 714.449 95.5469 712.948 95.6419L709.431 95.8649L709.602 98.5589L713.077 98.3389Z" fill="black"/>
<path d="M726.832 91.541L733.763 91.1021L740.123 104.472L734.385 104.835L733.73 103.617L728.135 103.972L727.701 105.259L722.21 105.607L726.832 91.541ZM732.479 100.186L730.392 95.259L728.86 100.416L732.479 100.186Z" fill="black"/>
<path d="M740.446 90.678L750.688 90.029C753.321 89.863 754.425 90.02 755.458 90.677C756.006 91.0853 756.451 91.6173 756.755 92.2296C757.059 92.8419 757.215 93.5173 757.209 94.201C757.327 94.943 757.241 95.703 756.962 96.4004C756.682 97.0978 756.219 97.7065 755.622 98.162C754.711 98.778 753.877 98.975 751.307 99.137L746.268 99.457L746.56 104.064L741.315 104.396L740.446 90.678ZM749.346 95.938C749.935 95.9772 750.524 95.869 751.06 95.623C751.248 95.4779 751.395 95.2858 751.486 95.0662C751.577 94.8465 751.609 94.6068 751.579 94.371C751.516 93.364 750.962 93.089 749.193 93.201L745.882 93.41L746.055 96.146L749.346 95.938Z" fill="black"/>
<path d="M758.709 89.5212L763.953 89.1892L764.259 94.0222L770.388 93.6343L770.082 88.8013L775.326 88.4683L776.195 102.186L770.951 102.519L770.609 97.1303L764.481 97.5182L764.822 102.907L759.578 103.239L758.709 89.5212Z" fill="black"/>
<path d="M778.185 88.2871L783.429 87.9551L784.298 101.673L779.054 102.005L778.185 88.2871Z" fill="black"/>
<path d="M804.992 95.2211C805.035 96.0462 804.862 96.8683 804.488 97.6053C804.115 98.3423 803.554 98.9685 802.863 99.4211C801.204 100.621 799.297 101.154 795.884 101.371C792.531 101.583 790.524 101.194 788.817 100.001C787.958 99.385 787.257 98.5748 786.77 97.6365C786.284 96.6981 786.026 95.658 786.017 94.6011C785.889 93.5813 786.008 92.5458 786.364 91.5816C786.719 90.6175 787.302 89.753 788.062 89.0611C789.708 87.6761 791.853 86.9831 795.082 86.7781C798.804 86.5421 801.361 87.1241 803.082 88.5431C804.037 89.4037 804.642 90.5854 804.782 91.8631L798.756 92.2451C798.224 90.6891 797.281 90.1451 795.327 90.2731C792.859 90.4291 791.643 91.7661 791.794 94.1521C791.953 96.6611 793.422 98.0132 795.808 97.8622C796.666 97.8588 797.499 97.5664 798.171 97.0321C798.542 96.6203 798.815 96.1302 798.971 95.5981L804.992 95.2211Z" fill="black"/>
<path d="M813.611 95.6861C814.132 96.4181 814.829 96.6621 816.124 96.5801C817.358 96.5021 817.976 96.1531 817.94 95.5801C817.915 95.1891 817.696 94.9961 817.257 94.9011C815.959 94.7217 814.65 94.6458 813.34 94.6741C811.867 94.6391 810.401 94.4484 808.968 94.1051C808.189 93.9722 807.48 93.5743 806.96 92.9786C806.441 92.3829 806.143 91.6261 806.118 90.8362C805.918 87.7362 808.841 85.9142 814.6 85.5502C817.52 85.3655 819.708 85.6811 821.164 86.4971C821.733 86.8021 822.23 87.2252 822.623 87.7381C823.015 88.2511 823.293 88.8419 823.438 89.4711L816.589 89.9051C816.205 89.0621 815.399 88.7212 814.042 88.8052C812.952 88.8742 812.295 89.2661 812.33 89.8221C812.373 90.5001 812.83 90.5952 817.098 90.7582C818.567 90.7246 820.033 90.9099 821.448 91.3081C822.219 91.4964 822.907 91.9331 823.405 92.551C823.903 93.1689 824.184 93.9337 824.205 94.7272C824.412 97.9972 821.57 99.7461 815.42 100.136C812.48 100.322 810.234 100.072 808.808 99.3992C808.129 99.1482 807.536 98.7092 807.097 98.1335C806.658 97.5579 806.392 96.8692 806.33 96.1481L813.611 95.6861Z" fill="black"/>
<path d="M276.984 125.515L276.538 118.475L269.498 118.921L262.755 124.061L262.455 119.368L258.231 119.636L258.531 124.329L251.193 120.082L244.153 120.528L244.599 127.568L248.823 127.3L248.555 123.076L257.36 128.176L249.269 134.343L249.001 130.119L244.777 130.387L245.223 137.427L252.263 136.981L259.006 131.841L259.306 136.534L263.53 136.266L263.23 131.573L270.568 135.82L277.608 135.374L277.073 126.926L268.625 127.461L273.025 130.009L273.203 132.825L264.398 127.725L272.489 121.558L272.757 125.782L276.984 125.515Z" fill="black"/>
<path d="M300.85 118.53L306.094 118.197L306.422 123.36L311.442 117.86L318.557 117.409L313.171 122.665L319.797 131.103L313.154 131.524L309.005 126L306.743 128.436L306.964 131.911L301.719 132.244L300.85 118.53Z" fill="black"/>
<path d="M320.2 117.3L335.727 116.316L335.948 119.816L325.665 120.468L325.765 121.99L334.279 121.451L334.501 124.951L325.986 125.49L326.094 127.197L337.015 126.505L337.237 130.005L321.072 131.03L320.2 117.3Z" fill="black"/>
<path d="M338.465 116.147L347.082 115.601L348.747 119.401C349.203 120.462 349.504 121.584 349.64 122.731L349.825 122.719C349.833 121.565 349.989 120.417 350.29 119.303L351.401 115.33L359.957 114.788L360.826 128.506L355.581 128.838L354.943 118.761H354.86C354.828 119.719 354.688 120.67 354.441 121.596L352.27 129.043L347.951 129.317L344.816 122.206C344.455 121.317 344.189 120.393 344.022 119.448L343.94 119.453L344.578 129.53L339.334 129.863L338.465 116.147Z" fill="black"/>
<path d="M369.8 123.8C370.322 124.532 371.019 124.777 372.314 124.694C373.548 124.616 374.166 124.268 374.129 123.694C374.105 123.303 373.886 123.11 373.446 123.015C372.149 122.835 370.839 122.759 369.53 122.788C368.056 122.752 366.591 122.561 365.157 122.218C364.378 122.085 363.669 121.687 363.15 121.092C362.631 120.496 362.333 119.74 362.307 118.95C362.107 115.85 365.031 114.028 370.789 113.663C373.709 113.478 375.897 113.794 377.353 114.61C377.922 114.915 378.419 115.339 378.812 115.851C379.204 116.364 379.482 116.955 379.628 117.584L372.779 118.018C372.395 117.175 371.589 116.834 370.231 116.918C369.141 116.987 368.485 117.379 368.52 117.935C368.563 118.613 369.02 118.708 373.287 118.872C374.757 118.838 376.223 119.023 377.638 119.422C378.409 119.61 379.096 120.047 379.595 120.665C380.093 121.283 380.374 122.047 380.394 122.84C380.602 126.111 377.759 127.86 371.61 128.249C368.669 128.436 366.423 128.186 364.997 127.512C364.318 127.261 363.725 126.822 363.286 126.247C362.848 125.672 362.582 124.983 362.52 124.262L369.8 123.8Z" fill="black"/>
<path d="M400.658 125.938L398.396 126.081L397.603 124.644C397.068 125.279 396.382 125.77 395.608 126.073C394.175 126.629 392.661 126.948 391.125 127.017C385.305 127.386 381.891 125 381.597 120.353C381.482 119.284 381.626 118.203 382.015 117.201C382.404 116.199 383.028 115.305 383.834 114.594C385.769 113.205 388.086 112.445 390.468 112.418C392.935 112.132 395.432 112.593 397.635 113.74C398.272 114.082 398.824 114.563 399.251 115.147C399.677 115.732 399.967 116.404 400.099 117.115L393.868 117.515C393.604 116.937 393.153 116.464 392.588 116.174C392.022 115.884 391.376 115.792 390.752 115.915C390.257 115.906 389.765 116.006 389.313 116.208C388.861 116.411 388.459 116.71 388.136 117.086C387.812 117.461 387.576 117.903 387.443 118.381C387.31 118.858 387.284 119.359 387.367 119.847C387.525 122.356 389.095 123.661 391.789 123.49C393.558 123.378 394.513 122.801 394.834 121.69L392.51 121.837L392.321 118.854L400.178 118.354L400.658 125.938Z" fill="black"/>
<path d="M402.2 112.109L412.36 111.465C415.485 111.265 416.401 111.375 417.287 111.999C417.752 112.354 418.129 112.812 418.388 113.336C418.646 113.861 418.78 114.438 418.779 115.023C418.892 115.955 418.674 116.897 418.163 117.684C417.679 118.227 417.025 118.589 416.308 118.71C418.402 119.177 418.655 119.574 419.001 123.083C419.109 124.129 419.14 124.292 419.481 124.783L413.989 125.131C413.861 124.537 413.767 123.936 413.71 123.331C413.426 120.48 413.205 120.245 410.984 120.386L408.002 120.575L408.313 125.49L403.069 125.823L402.2 112.109ZM411.294 117.459C411.803 117.491 412.311 117.38 412.76 117.139C412.928 116.995 413.058 116.811 413.139 116.604C413.219 116.397 413.248 116.174 413.222 115.953C413.159 114.966 412.665 114.667 411.164 114.762L407.647 114.985L407.818 117.679L411.294 117.459Z" fill="black"/>
<path d="M425.046 110.661L431.977 110.222L438.337 123.592L432.599 123.956L431.944 122.738L426.35 123.092L425.915 124.379L420.424 124.727L425.046 110.661ZM430.694 119.307L428.606 114.379L427.074 119.536L430.694 119.307Z" fill="black"/>
<path d="M438.661 109.8L448.902 109.151C451.535 108.984 452.639 109.142 453.672 109.798C454.22 110.206 454.665 110.738 454.969 111.351C455.273 111.963 455.429 112.638 455.423 113.322C455.54 114.064 455.455 114.824 455.176 115.522C454.897 116.219 454.434 116.828 453.837 117.284C452.925 117.899 452.091 118.096 449.521 118.259L444.482 118.578L444.774 123.185L439.53 123.517L438.661 109.8ZM447.561 115.059C448.15 115.098 448.739 114.99 449.275 114.744C449.463 114.599 449.61 114.407 449.702 114.187C449.793 113.968 449.825 113.728 449.795 113.492C449.731 112.485 449.177 112.21 447.408 112.322L444.097 112.532L444.27 115.267L447.561 115.059Z" fill="black"/>
<path d="M456.923 108.641L462.167 108.309L462.473 113.142L468.602 112.754L468.296 107.921L473.54 107.589L474.409 121.307L469.165 121.639L468.824 116.25L462.695 116.638L463.036 122.027L457.792 122.359L456.923 108.641Z" fill="black"/>
<path d="M476.4 107.408L481.644 107.075L482.513 120.793L477.269 121.125L476.4 107.408Z" fill="black"/>
<path d="M503.207 114.341C503.25 115.166 503.076 115.989 502.703 116.726C502.329 117.463 501.768 118.089 501.077 118.541C499.419 119.741 497.512 120.275 494.098 120.491C490.745 120.703 488.738 120.314 487.031 119.121C486.172 118.505 485.47 117.695 484.984 116.757C484.497 115.818 484.239 114.778 484.231 113.721C484.102 112.701 484.221 111.666 484.577 110.702C484.933 109.738 485.515 108.873 486.275 108.181C487.922 106.797 490.066 106.103 493.295 105.898C497.018 105.662 499.574 106.245 501.295 107.663C502.249 108.524 502.854 109.706 502.995 110.983L496.969 111.365C496.437 109.809 495.494 109.265 493.54 109.393C491.072 109.55 489.856 110.886 490.007 113.272C490.166 115.781 491.636 117.134 494.021 116.982C494.88 116.98 495.712 116.687 496.384 116.152C496.755 115.741 497.029 115.25 497.184 114.718L503.207 114.341Z" fill="black"/>
<path d="M511.825 114.806C512.346 115.538 513.043 115.782 514.339 115.7C515.573 115.622 516.191 115.273 516.154 114.7C516.129 114.31 515.911 114.116 515.471 114.021C514.173 113.842 512.864 113.766 511.554 113.794C510.081 113.759 508.615 113.568 507.182 113.225C506.403 113.092 505.694 112.694 505.174 112.099C504.655 111.503 504.357 110.746 504.332 109.956C504.132 106.856 507.055 105.035 512.814 104.67C515.734 104.486 517.922 104.801 519.378 105.617C519.947 105.922 520.445 106.345 520.837 106.858C521.229 107.371 521.507 107.962 521.652 108.591L514.804 109.025C514.42 108.182 513.614 107.841 512.256 107.925C511.166 107.994 510.509 108.386 510.545 108.942C510.588 109.62 511.045 109.715 515.312 109.878C516.781 109.844 518.248 110.03 519.662 110.429C520.433 110.617 521.121 111.054 521.619 111.671C522.117 112.289 522.399 113.054 522.419 113.847C522.626 117.118 519.784 118.866 513.635 119.256C510.694 119.442 508.448 119.192 507.022 118.519C506.343 118.268 505.75 117.829 505.311 117.254C504.872 116.678 504.606 115.989 504.544 115.268L511.825 114.806Z" fill="black"/>
<path d="M-0.936031 137.65L4.30897 137.318L4.63597 142.481L9.65597 136.981L16.772 136.53L11.385 141.786L18.011 150.224L11.368 150.645L7.21897 145.126L4.95797 147.562L5.17797 151.038L-0.0660313 151.37L-0.936031 137.65Z" fill="black"/>
<path d="M18.417 136.424L33.944 135.44L34.166 138.94L23.883 139.593L23.983 141.115L32.497 140.575L32.719 144.075L24.205 144.615L24.313 146.322L35.233 145.629L35.455 149.129L19.29 150.154L18.417 136.424Z" fill="black"/>
<path d="M36.679 135.267L45.297 134.721L46.962 138.521C47.4177 139.583 47.7181 140.704 47.854 141.851L48.039 141.84C48.0474 140.686 48.2037 139.538 48.504 138.423L49.615 134.45L58.171 133.908L59.04 147.626L53.796 147.958L53.157 137.881L53.075 137.886C53.0423 138.844 52.9018 139.795 52.656 140.721L50.484 148.168L46.166 148.442L43.031 141.331C42.6697 140.443 42.4035 139.518 42.237 138.573L42.154 138.578L42.793 148.655L37.548 148.988L36.679 135.267Z" fill="black"/>
<path d="M68.013 142.925C68.534 143.657 69.231 143.902 70.526 143.825C71.76 143.746 72.378 143.398 72.342 142.825C72.317 142.434 72.098 142.241 71.659 142.146C70.3614 141.966 69.0516 141.89 67.742 141.919C66.2686 141.883 64.8032 141.692 63.37 141.349C62.5909 141.216 61.8816 140.819 61.3622 140.223C60.8428 139.627 60.5452 138.87 60.52 138.081C60.32 134.981 63.243 133.159 69.002 132.794C71.922 132.608 74.11 132.924 75.566 133.741C76.1349 134.046 76.6322 134.469 77.0243 134.982C77.4165 135.495 77.6946 136.086 77.84 136.715L70.991 137.149C70.607 136.306 69.801 135.965 68.444 136.049C67.354 136.118 66.697 136.511 66.732 137.066C66.775 137.744 67.232 137.839 71.5 138.003C72.9693 137.969 74.4354 138.154 75.85 138.553C76.6209 138.741 77.3085 139.178 77.8067 139.795C78.305 140.413 78.5862 141.177 78.607 141.971C78.814 145.242 75.972 146.991 69.822 147.381C66.882 147.567 64.636 147.317 63.21 146.644C62.5311 146.393 61.9377 145.953 61.4989 145.378C61.0602 144.802 60.7942 144.114 60.732 143.393L68.013 142.925Z" fill="black"/>
<path d="M98.873 145.059L96.61 145.201L95.817 143.764C95.2801 144.4 94.5925 144.892 93.817 145.194C92.3838 145.75 90.8696 146.068 89.334 146.138C83.514 146.507 80.101 144.121 79.806 139.474C79.6917 138.405 79.8351 137.324 80.2243 136.322C80.6135 135.32 81.2372 134.426 82.043 133.715C83.9786 132.325 86.2953 131.565 88.678 131.539C91.1451 131.253 93.6412 131.713 95.844 132.861C96.4811 133.203 97.0334 133.684 97.46 134.268C97.8866 134.852 98.1767 135.524 98.309 136.236L92.077 136.636C91.8133 136.057 91.3623 135.585 90.7969 135.294C90.2314 135.004 89.5846 134.913 88.961 135.036C88.4657 135.026 87.9746 135.127 87.5224 135.329C87.0703 135.531 86.6684 135.831 86.3452 136.206C86.022 136.581 85.7855 137.023 85.6525 137.5C85.5196 137.978 85.4934 138.478 85.576 138.966C85.735 141.475 87.304 142.781 89.998 142.61C91.767 142.498 92.722 141.921 93.044 140.81L90.719 140.957L90.53 137.974L98.387 137.474L98.873 145.059Z" fill="black"/>
<path d="M100.412 131.229L110.572 130.585C113.698 130.385 114.613 130.496 115.499 131.12C115.964 131.474 116.341 131.932 116.599 132.457C116.858 132.981 116.992 133.558 116.991 134.143C117.105 135.075 116.887 136.017 116.376 136.804C115.892 137.347 115.237 137.709 114.52 137.83C116.62 138.297 116.867 138.694 117.213 142.203C117.321 143.25 117.352 143.413 117.693 143.904L112.202 144.251C112.074 143.658 111.98 143.057 111.923 142.452C111.638 139.601 111.417 139.365 109.196 139.506L106.214 139.695L106.525 144.612L101.281 144.944L100.412 131.229ZM109.506 136.579C110.015 136.612 110.523 136.501 110.972 136.26C111.14 136.115 111.27 135.931 111.351 135.725C111.431 135.518 111.46 135.295 111.434 135.074C111.372 134.086 110.878 133.787 109.376 133.882L105.86 134.105L106.03 136.806L109.506 136.579Z" fill="black"/>
<path d="M123.261 129.781L130.191 129.342L136.551 142.712L130.813 143.076L130.158 141.858L124.564 142.212L124.13 143.499L118.638 143.847L123.261 129.781ZM128.908 138.427L126.821 133.5L125.289 138.656L128.908 138.427Z" fill="black"/>
<path d="M136.875 128.92L147.117 128.271C149.749 128.104 150.854 128.262 151.887 128.919C152.435 129.327 152.879 129.859 153.184 130.471C153.488 131.083 153.643 131.758 153.638 132.442C153.755 133.184 153.67 133.944 153.39 134.641C153.111 135.339 152.648 135.948 152.051 136.404C151.14 137.019 150.306 137.216 147.735 137.379L142.696 137.698L142.988 142.305L137.744 142.638L136.875 128.92ZM145.775 134.179C146.364 134.218 146.953 134.11 147.49 133.864C147.678 133.718 147.825 133.526 147.916 133.307C148.007 133.087 148.039 132.847 148.009 132.612C147.945 131.605 147.391 131.33 145.623 131.442L142.311 131.652L142.485 134.387L145.775 134.179Z" fill="black"/>
<path d="M155.137 127.762L160.382 127.429L160.688 132.262L166.816 131.875L166.51 127.042L171.755 126.709L172.624 140.427L167.379 140.76L167.038 135.37L160.909 135.76L161.251 141.147L156.006 141.48L155.137 127.762Z" fill="black"/>
<path d="M174.613 126.528L179.858 126.195L180.727 139.913L175.482 140.246L174.613 126.528Z" fill="black"/>
<path d="M201.421 133.462C201.465 134.287 201.291 135.109 200.917 135.846C200.543 136.583 199.983 137.209 199.291 137.661C197.633 138.861 195.726 139.395 192.312 139.611C188.96 139.823 186.953 139.434 185.246 138.241C184.387 137.626 183.686 136.815 183.199 135.877C182.712 134.939 182.454 133.898 182.446 132.841C182.318 131.822 182.436 130.786 182.792 129.822C183.148 128.858 183.73 127.993 184.49 127.301C186.137 125.917 188.282 125.223 191.51 125.018C195.233 124.783 197.789 125.365 199.51 126.783C200.464 127.644 201.069 128.826 201.21 130.103L195.184 130.485C194.652 128.929 193.709 128.39 191.756 128.513C189.288 128.67 188.071 130.006 188.223 132.392C188.382 134.901 189.851 136.254 192.236 136.103C193.095 136.1 193.928 135.807 194.6 135.272C194.971 134.861 195.245 134.371 195.4 133.838L201.421 133.462Z" fill="black"/>
<path d="M210.039 133.926C210.561 134.658 211.257 134.902 212.553 134.82C213.787 134.742 214.405 134.394 214.368 133.82C214.344 133.43 214.125 133.237 213.685 133.141C212.387 132.962 211.078 132.887 209.768 132.914C208.295 132.879 206.829 132.688 205.396 132.345C204.617 132.212 203.908 131.814 203.389 131.219C202.869 130.623 202.572 129.866 202.546 129.076C202.346 125.976 205.27 124.155 211.028 123.79C213.948 123.606 216.136 123.921 217.592 124.737C218.161 125.043 218.658 125.466 219.051 125.978C219.443 126.491 219.721 127.082 219.867 127.711L213.018 128.145C212.634 127.302 211.828 126.961 210.47 127.045C209.38 127.114 208.724 127.506 208.759 128.062C208.802 128.74 209.259 128.835 213.526 128.999C214.996 128.965 216.462 129.15 217.877 129.549C218.648 129.737 219.335 130.174 219.834 130.792C220.332 131.41 220.613 132.174 220.633 132.967C220.841 136.238 217.998 137.987 211.849 138.376C208.908 138.562 206.662 138.313 205.236 137.639C204.557 137.388 203.964 136.949 203.525 136.374C203.087 135.798 202.821 135.109 202.759 134.388L210.039 133.926Z" fill="black"/>
<path d="M1182.34 68.1543L1181.9 61.1143L1174.85 61.5603L1168.11 66.7002L1167.81 62.0072L1163.59 62.2753L1163.89 66.9683L1156.55 62.7212L1149.51 63.1672L1149.96 70.2073L1154.18 69.9392L1153.91 65.7152L1162.72 70.8152L1154.63 76.9823L1154.36 72.7583L1150.13 73.0262L1150.58 80.0663L1157.62 79.6202L1164.36 74.4812L1164.66 79.1742L1168.89 78.9063L1168.59 74.2133L1175.93 78.4602L1182.96 78.0143L1182.43 69.5663L1173.98 70.1012L1178.38 72.6493L1178.56 75.4652L1169.76 70.3652L1177.85 64.1982L1178.11 68.4222L1182.34 68.1543Z" fill="black"/>
<path d="M1206.21 61.1693L1211.45 60.8374L1211.78 66.0004L1216.8 60.5004L1223.92 60.0493L1218.53 65.3054L1225.15 73.7444L1218.51 74.1654L1214.36 68.6464L1212.1 71.0814L1212.32 74.5574L1207.08 74.8894L1206.21 61.1693Z" fill="black"/>
<path d="M1225.56 59.943L1241.09 58.959L1241.31 62.459L1231.03 63.11L1231.12 64.6331L1239.64 64.093L1239.86 67.593L1231.35 68.1331L1231.45 69.84L1242.38 69.148L1242.6 72.648L1226.43 73.672L1225.56 59.943Z" fill="black"/>
<path d="M1243.82 58.7863L1252.44 58.2402L1254.1 62.0403C1254.56 63.1018 1254.86 64.2237 1255 65.3712L1255.18 65.3593C1255.19 64.205 1255.35 63.0567 1255.65 61.9423L1256.76 57.9702L1265.31 57.4272L1266.18 71.1453L1260.94 71.4783L1260.3 61.4003L1260.22 61.4053C1260.19 62.3634 1260.04 63.3148 1259.8 64.2412L1257.63 71.6873L1253.31 71.9613L1250.17 64.8502C1249.81 63.9616 1249.55 63.0371 1249.38 62.0923L1249.3 62.0973L1249.94 72.1753L1244.69 72.5072L1243.82 58.7863Z" fill="black"/>
<path d="M1275.15 66.4442C1275.68 67.1762 1276.37 67.4203 1277.67 67.3383C1278.9 67.2603 1279.52 66.9113 1279.48 66.3383C1279.46 65.9473 1279.24 65.7543 1278.8 65.6593C1277.5 65.4799 1276.19 65.4039 1274.88 65.4323C1273.41 65.3973 1271.95 65.2066 1270.51 64.8633C1269.73 64.7301 1269.02 64.332 1268.5 63.7364C1267.99 63.1407 1267.69 62.3841 1267.66 61.5943C1267.46 58.4943 1270.39 56.6723 1276.14 56.3083C1279.06 56.1229 1281.25 56.4386 1282.71 57.2553C1283.28 57.5605 1283.78 57.9837 1284.17 58.4966C1284.56 59.0095 1284.84 59.6002 1284.98 60.2293L1278.13 60.6632C1277.75 59.8202 1276.94 59.4793 1275.59 59.5633C1274.5 59.6323 1273.84 60.0242 1273.87 60.5802C1273.92 61.2582 1274.37 61.3533 1278.64 61.5163C1280.11 61.4828 1281.58 61.6682 1282.99 62.0663C1283.76 62.2548 1284.45 62.6916 1284.95 63.3095C1285.45 63.9273 1285.73 64.6919 1285.75 65.4853C1285.96 68.7553 1283.11 70.5043 1276.96 70.8943C1274.02 71.0803 1271.78 70.8303 1270.35 70.1573C1269.67 69.906 1269.08 69.467 1268.64 68.8914C1268.2 68.3158 1267.94 67.6273 1267.87 66.9063L1275.15 66.4442Z" fill="black"/>
<path d="M1306.02 68.5773L1303.75 68.7212L1302.96 67.2843C1302.42 67.9189 1301.74 68.4097 1300.96 68.7123C1299.53 69.2692 1298.02 69.5881 1296.48 69.6562C1290.66 70.0252 1287.25 67.6402 1286.95 62.9922C1286.84 61.9233 1286.98 60.8427 1287.37 59.8407C1287.76 58.8387 1288.39 57.9446 1289.19 57.2333C1291.13 55.8436 1293.44 55.0841 1295.83 55.0582C1298.29 54.7722 1300.79 55.2324 1302.99 56.3793C1303.63 56.7217 1304.18 57.2026 1304.61 57.7867C1305.03 58.3708 1305.32 59.0432 1305.46 59.7543L1299.22 60.1543C1298.96 59.5762 1298.51 59.1038 1297.94 58.8135C1297.38 58.5232 1296.73 58.4318 1296.11 58.5542C1295.61 58.5449 1295.12 58.645 1294.67 58.8473C1294.22 59.0496 1293.82 59.3491 1293.49 59.7246C1293.17 60.1001 1292.93 60.5423 1292.8 61.0196C1292.67 61.497 1292.64 61.9977 1292.72 62.4862C1292.88 64.9952 1294.45 66.2993 1297.15 66.1293C1298.92 66.0173 1299.87 65.4402 1300.19 64.3292L1297.87 64.4762L1297.68 61.4933L1305.54 60.9933L1306.02 68.5773Z" fill="black"/>
<path d="M1307.56 54.748L1317.71 54.104C1320.84 53.904 1321.76 54.014 1322.64 54.639C1323.11 54.9937 1323.48 55.4511 1323.74 55.9756C1324 56.5 1324.14 57.0771 1324.13 57.662C1324.25 58.5941 1324.03 59.5364 1323.52 60.324C1323.03 60.8661 1322.38 61.2278 1321.66 61.35C1323.76 61.816 1324.01 62.213 1324.36 65.722C1324.46 66.769 1324.5 66.932 1324.84 67.422L1319.34 67.77C1319.22 67.176 1319.12 66.5749 1319.06 65.9699C1318.78 63.1179 1318.56 62.884 1316.34 63.024L1313.36 63.213L1313.67 68.129L1308.42 68.461L1307.56 54.748ZM1316.65 60.099C1317.16 60.1312 1317.67 60.02 1318.11 59.7779C1318.28 59.6335 1318.41 59.4498 1318.49 59.2431C1318.57 59.0365 1318.6 58.8133 1318.58 58.593C1318.51 57.605 1318.02 57.307 1316.52 57.402L1313 57.625L1313.17 60.3189L1316.65 60.099Z" fill="black"/>
<path d="M1330.4 53.3004L1337.33 52.8604L1343.69 66.2313L1337.95 66.5944L1337.3 65.3763L1331.7 65.7313L1331.27 67.0183L1325.78 67.3654L1330.4 53.3004ZM1336.05 61.9453L1333.96 57.0183L1332.43 62.1743L1336.05 61.9453Z" fill="black"/>
<path d="M1344.02 52.4383L1354.26 51.7892C1356.89 51.6222 1358 51.7803 1359.03 52.4373C1359.58 52.8455 1360.02 53.3773 1360.33 53.9894C1360.63 54.6015 1360.79 55.2766 1360.78 55.9602C1360.9 56.7024 1360.81 57.4624 1360.53 58.1598C1360.25 58.8573 1359.79 59.4663 1359.19 59.9223C1358.28 60.5383 1357.45 60.7342 1354.88 60.8972L1349.84 61.2162L1350.13 65.8242L1344.89 66.1563L1344.02 52.4383ZM1352.92 57.6973C1353.51 57.7358 1354.1 57.628 1354.63 57.3833C1354.82 57.2377 1354.97 57.0456 1355.06 56.8261C1355.15 56.6065 1355.18 56.367 1355.15 56.1312C1355.09 55.1242 1354.53 54.8482 1352.77 54.9602L1349.45 55.1703L1349.63 57.9063L1352.92 57.6973Z" fill="black"/>
<path d="M1362.28 51.281L1367.52 50.949L1367.83 55.782L1373.96 55.3929L1373.65 50.5601L1378.9 50.228L1379.77 63.946L1374.52 64.278L1374.18 58.89L1368.05 59.278L1368.39 64.667L1363.15 64.999L1362.28 51.281Z" fill="black"/>
<path d="M1381.76 50.0469L1387 49.7148L1387.87 63.4329L1382.62 63.7649L1381.76 50.0469Z" fill="black"/>
<path d="M1408.56 56.9798C1408.61 57.8051 1408.43 58.6273 1408.06 59.3644C1407.69 60.1014 1407.13 60.7274 1406.43 61.1799C1404.78 62.3799 1402.87 62.9139 1399.45 63.1299C1396.1 63.3429 1394.1 62.9528 1392.39 61.7608C1391.53 61.145 1390.83 60.3349 1390.34 59.3965C1389.86 58.4581 1389.6 57.4179 1389.59 56.3608C1389.46 55.3413 1389.58 54.3059 1389.93 53.3419C1390.29 52.3779 1390.87 51.5136 1391.63 50.8219C1393.28 49.4369 1395.42 48.7428 1398.65 48.5388C1402.38 48.3028 1404.93 48.8848 1406.65 50.3038C1407.61 51.1644 1408.21 52.3456 1408.35 53.6229L1402.33 54.0049C1401.79 52.4489 1400.85 51.9049 1398.9 52.0339C1396.43 52.1899 1395.21 53.5268 1395.36 55.9128C1395.52 58.4208 1396.99 59.7739 1399.38 59.6229C1400.24 59.6195 1401.07 59.3267 1401.74 58.7919C1402.11 58.3804 1402.39 57.8902 1402.54 57.3579L1408.56 56.9798Z" fill="black"/>
<path d="M1417.18 57.4451C1417.7 58.1771 1418.4 58.4221 1419.7 58.3451C1420.93 58.2661 1421.55 57.9181 1421.51 57.3451C1421.49 56.9541 1421.27 56.7612 1420.83 56.6662C1419.53 56.4861 1418.22 56.4101 1416.91 56.4391C1415.44 56.4033 1413.97 56.2123 1412.54 55.8692C1411.76 55.7365 1411.05 55.3387 1410.53 54.7432C1410.01 54.1476 1409.71 53.3909 1409.69 52.6011C1409.49 49.5011 1412.41 47.6791 1418.17 47.3141C1421.09 47.1288 1423.28 47.4445 1424.73 48.2611C1425.3 48.5662 1425.8 48.9893 1426.19 49.5022C1426.59 50.0151 1426.86 50.606 1427.01 51.2351L1420.16 51.6691C1419.78 50.8261 1418.97 50.4851 1417.61 50.5691C1416.52 50.6381 1415.87 51.0312 1415.9 51.5862C1415.94 52.2642 1416.4 52.3591 1420.67 52.5231C1422.14 52.489 1423.6 52.6744 1425.02 53.0731C1425.79 53.2614 1426.48 53.698 1426.98 54.3157C1427.47 54.9334 1427.76 55.6978 1427.78 56.4911C1427.98 59.7621 1425.14 61.5112 1418.99 61.9012C1416.05 62.0872 1413.81 61.8371 1412.38 61.1641C1411.7 60.9128 1411.11 60.4738 1410.67 59.8982C1410.23 59.3226 1409.96 58.6342 1409.9 57.9131L1417.18 57.4451Z" fill="black"/>
<path d="M1484.13 49.0342L1483.68 41.9941L1476.64 42.4401L1469.9 47.5801L1469.6 42.8871L1465.37 43.1552L1465.67 47.8481L1458.34 43.6011L1451.3 44.0471L1451.74 51.0872L1455.97 50.8191L1455.7 46.5951L1464.5 51.6951L1456.41 57.8622L1456.14 53.6381L1451.92 53.9061L1452.37 60.9462L1459.41 60.5001L1466.15 55.3601L1466.45 60.0531L1470.67 59.7852L1470.37 55.0922L1477.71 59.3391L1484.75 58.8931L1484.22 50.4451L1475.77 50.9801L1480.17 53.5281L1480.35 56.3441L1471.54 51.2441L1479.63 45.0771L1479.9 49.3011L1484.13 49.0342Z" fill="black"/>
<path d="M1507.99 42.0492L1513.24 41.7173L1513.56 46.8803L1518.58 41.3802L1525.7 40.9292L1520.31 46.1853L1526.94 54.6243L1520.3 55.0453L1516.15 49.5262L1513.89 51.9613L1514.11 55.4373L1508.86 55.7693L1507.99 42.0492Z" fill="black"/>
<path d="M1527.34 40.8234L1542.87 39.8394L1543.09 43.3394L1532.81 43.9913L1532.91 45.5133L1541.43 44.9744L1541.65 48.4744L1533.13 49.0144L1533.24 50.7203L1544.16 50.0294L1544.38 53.5294L1528.22 54.5533L1527.34 40.8234Z" fill="black"/>
<path d="M1545.61 39.6661L1554.22 39.1201L1555.89 42.9202C1556.35 43.9818 1556.65 45.1036 1556.78 46.2511L1556.97 46.2391C1556.98 45.0849 1557.13 43.9364 1557.43 42.8221L1558.54 38.8491L1567.1 38.3071L1567.97 52.0251L1562.72 52.3572L1562.09 42.2802L1562 42.2852C1561.97 43.2433 1561.83 44.1947 1561.58 45.1211L1559.41 52.5671L1555.09 52.8411L1551.96 45.7301C1551.6 44.8412 1551.33 43.9168 1551.17 42.9722L1551.08 42.9772L1551.72 53.0552L1546.48 53.3871L1545.61 39.6661Z" fill="black"/>
<path d="M1576.94 47.3243C1577.46 48.0553 1578.16 48.3003 1579.45 48.2183C1580.69 48.1403 1581.31 47.7913 1581.27 47.2183C1581.24 46.8273 1581.03 46.6342 1580.59 46.5392C1579.29 46.3598 1577.98 46.2839 1576.67 46.3123C1575.2 46.2763 1573.73 46.0856 1572.3 45.7433C1571.52 45.6103 1570.81 45.2123 1570.29 44.6166C1569.77 44.021 1569.47 43.2642 1569.45 42.4743C1569.25 39.3743 1572.17 37.5523 1577.93 37.1873C1580.85 37.0026 1583.04 37.3186 1584.49 38.1353C1585.06 38.44 1585.56 38.8629 1585.95 39.3757C1586.34 39.8884 1586.62 40.4793 1586.77 41.1083L1579.92 41.5423C1579.54 40.7003 1578.73 40.3583 1577.37 40.4423C1576.28 40.5113 1575.63 40.9043 1575.66 41.4593C1575.7 42.1383 1576.16 42.2333 1580.43 42.3963C1581.9 42.3628 1583.36 42.5482 1584.78 42.9463C1585.55 43.1346 1586.24 43.5714 1586.74 44.1893C1587.23 44.8072 1587.51 45.5718 1587.54 46.3653C1587.74 49.6353 1584.9 51.3844 1578.75 51.7744C1575.81 51.9604 1573.56 51.7103 1572.14 51.0373C1571.46 50.7862 1570.87 50.3472 1570.43 49.7715C1569.99 49.1959 1569.72 48.5074 1569.66 47.7863L1576.94 47.3243Z" fill="black"/>
<path d="M1607.8 49.4572L1605.54 49.6001L1604.75 48.1641C1604.21 48.7984 1603.52 49.2893 1602.75 49.5922C1601.32 50.1487 1599.8 50.4675 1598.27 50.5362C1592.45 50.9052 1589.03 48.5201 1588.74 43.8721C1588.62 42.8034 1588.77 41.7228 1589.16 40.7208C1589.55 39.7189 1590.17 38.8247 1590.98 38.1132C1592.91 36.724 1595.23 35.9645 1597.61 35.9381C1600.08 35.6521 1602.57 36.1123 1604.78 37.2592C1605.41 37.6017 1605.97 38.0827 1606.39 38.6668C1606.82 39.2509 1607.11 39.9232 1607.24 40.6342L1601.01 41.0342C1600.75 40.4559 1600.29 39.9834 1599.73 39.693C1599.16 39.4027 1598.52 39.3114 1597.89 39.4341C1597.4 39.425 1596.91 39.5252 1596.46 39.7276C1596 39.9299 1595.6 40.2295 1595.28 40.6049C1594.95 40.9803 1594.72 41.4224 1594.58 41.8997C1594.45 42.3769 1594.43 42.8776 1594.51 43.3661C1594.67 45.8741 1596.24 47.1792 1598.93 47.0092C1600.7 46.8962 1601.65 46.3201 1601.98 45.2091L1599.65 45.3572L1599.46 42.3742L1607.32 41.8742L1607.8 49.4572Z" fill="black"/>
<path d="M1609.34 35.6284L1619.5 34.9844C1622.63 34.7844 1623.54 34.8944 1624.43 35.5194C1624.89 35.8738 1625.27 36.3312 1625.53 36.8557C1625.79 37.3802 1625.92 37.9574 1625.92 38.5423C1626.03 39.4745 1625.82 40.4168 1625.3 41.2043C1624.82 41.7465 1624.17 42.1082 1623.45 42.2303C1625.54 42.6963 1625.79 43.0934 1626.14 46.6024C1626.25 47.6494 1626.28 47.8113 1626.62 48.3023L1621.13 48.6504C1621 48.0564 1620.91 47.4553 1620.85 46.8503C1620.57 43.9983 1620.35 43.7644 1618.12 43.9044L1615.14 44.0934L1615.45 49.0094L1610.21 49.3413L1609.34 35.6284ZM1618.43 40.9793C1618.94 41.0117 1619.45 40.9004 1619.9 40.6583C1620.07 40.5136 1620.2 40.33 1620.28 40.1234C1620.36 39.9168 1620.39 39.6936 1620.36 39.4734C1620.3 38.4854 1619.81 38.1873 1618.31 38.2823L1614.79 38.5044L1614.96 41.1993L1618.43 40.9793Z" fill="black"/>
<path d="M1632.19 34.1803L1639.12 33.7412L1645.48 47.1112L1639.74 47.4752L1639.09 46.2572L1633.49 46.6112L1633.05 47.8982L1627.56 48.2462L1632.19 34.1803ZM1637.84 42.8263L1635.75 37.8993L1634.22 43.0553L1637.84 42.8263Z" fill="black"/>
<path d="M1645.8 33.3181L1656.04 32.6691C1658.67 32.5021 1659.78 32.6602 1660.81 33.3172C1661.36 33.7252 1661.8 34.257 1662.11 34.8692C1662.41 35.4813 1662.57 36.1565 1662.56 36.8401C1662.68 37.5823 1662.6 38.3424 1662.32 39.0399C1662.04 39.7375 1661.57 40.3464 1660.98 40.8021C1660.06 41.4171 1659.23 41.6141 1656.66 41.7771L1651.62 42.0961L1651.91 46.7041L1646.67 47.0362L1645.8 33.3181ZM1654.7 38.5772C1655.29 38.6164 1655.88 38.5081 1656.41 38.2621C1656.6 38.1169 1656.75 37.925 1656.84 37.7053C1656.93 37.4857 1656.96 37.2461 1656.93 37.0102C1656.87 36.0032 1656.32 35.7281 1654.55 35.8401L1651.24 36.0502L1651.41 38.7862L1654.7 38.5772Z" fill="black"/>
<path d="M1664.07 32.1614L1669.31 31.8293L1669.62 36.6624L1675.74 36.2733L1675.44 31.4403L1680.68 31.1084L1681.55 44.8264L1676.31 45.1583L1675.97 39.7704L1669.84 40.1583L1670.18 45.5464L1664.94 45.8794L1664.07 32.1614Z" fill="black"/>
<path d="M1683.54 30.9272L1688.79 30.5952L1689.66 44.3132L1684.41 44.6453L1683.54 30.9272Z" fill="black"/>
<path d="M1710.35 37.8602C1710.39 38.6854 1710.22 39.5077 1709.85 40.2447C1709.47 40.9818 1708.91 41.6079 1708.22 42.0603C1706.56 43.2603 1704.65 43.7942 1701.24 44.0102C1697.89 44.2232 1695.88 43.8332 1694.17 42.6412C1693.32 42.0251 1692.61 41.2148 1692.13 40.2765C1691.64 39.3381 1691.38 38.2982 1691.37 37.2412C1691.25 36.2215 1691.37 35.186 1691.72 34.2219C1692.08 33.2578 1692.66 32.3933 1693.42 31.7013C1695.06 30.3173 1697.21 29.6232 1700.44 29.4192C1704.16 29.1832 1706.72 29.7652 1708.44 31.1832C1709.39 32.044 1710 33.2256 1710.14 34.5033L1704.11 34.8852C1703.58 33.3292 1702.64 32.7852 1700.68 32.9142C1698.22 33.0702 1697 34.4062 1697.15 36.7932C1697.31 39.3012 1698.78 40.6543 1701.16 40.5033C1702.02 40.4997 1702.86 40.2069 1703.53 39.6722C1703.9 39.2608 1704.17 38.7705 1704.33 38.2383L1710.35 37.8602Z" fill="black"/>
<path d="M1718.97 38.3251C1719.49 39.0571 1720.19 39.3021 1721.48 39.2191C1722.72 39.1411 1723.33 38.7931 1723.3 38.2191C1723.27 37.8281 1723.05 37.6352 1722.61 37.5402C1721.32 37.3602 1720.01 37.2842 1718.7 37.3131C1717.22 37.2774 1715.76 37.0864 1714.32 36.7432C1713.55 36.6106 1712.84 36.2128 1712.32 35.6172C1711.8 35.0217 1711.5 34.2649 1711.47 33.4751C1711.27 30.3751 1714.2 28.5531 1719.96 28.1881C1722.88 28.0028 1725.06 28.3185 1726.52 29.1352C1727.09 29.4402 1727.59 29.8633 1727.98 30.3762C1728.37 30.8892 1728.65 31.48 1728.8 32.1092L1721.95 32.5431C1721.56 31.7001 1720.76 31.3591 1719.4 31.4431C1718.31 31.5121 1717.65 31.9041 1717.69 32.4601C1717.73 33.1381 1718.19 33.2331 1722.45 33.3971C1723.92 33.3626 1725.39 33.548 1726.81 33.9472C1727.58 34.1351 1728.26 34.5716 1728.76 35.1894C1729.26 35.8071 1729.54 36.5717 1729.56 37.3651C1729.77 40.6361 1726.93 42.3852 1720.78 42.7742C1717.84 42.9612 1715.59 42.7111 1714.17 42.0371C1713.49 41.7863 1712.89 41.3476 1712.45 40.7721C1712.02 40.1966 1711.75 39.5081 1711.69 38.7871L1718.97 38.3251Z" fill="black"/>
<path d="M1785.91 29.9139L1785.47 22.874L1778.43 23.3199L1771.68 28.459L1771.38 23.766L1767.16 24.0341L1767.46 28.7271L1760.12 24.48L1753.08 24.926L1753.53 31.9659L1757.75 31.698L1757.48 27.474L1766.29 32.574L1758.2 38.741L1757.93 34.517L1753.71 34.785L1754.15 41.825L1761.19 41.379L1767.94 36.239L1768.23 40.932L1772.46 40.6639L1772.16 35.971L1779.5 40.218L1786.54 39.772L1786 31.324L1777.55 31.859L1781.95 34.407L1782.13 37.223L1773.33 32.123L1781.42 25.9561L1781.69 30.1801L1785.91 29.9139Z" fill="black"/>
<path d="M1809.78 22.9291L1815.02 22.5972L1815.35 27.7601L1820.37 22.2601L1827.49 21.8091L1822.1 27.0651L1828.73 35.5042L1822.08 35.9241L1817.93 30.4052L1815.67 32.8411L1815.89 36.3171L1810.65 36.6492L1809.78 22.9291Z" fill="black"/>
<path d="M1829.13 21.7003L1844.66 20.7163L1844.88 24.2163L1834.6 24.8684L1834.7 26.3904L1843.21 25.8513L1843.43 29.3513L1834.92 29.8904L1835.03 31.5974L1845.95 30.9054L1846.17 34.4054L1830 35.4214L1829.13 21.7003Z" fill="black"/>
<path d="M1847.39 20.546L1856.01 20L1857.68 23.8C1858.13 24.8614 1858.43 25.9829 1858.57 27.13L1858.75 27.119C1858.76 25.9648 1858.92 24.8165 1859.22 23.702L1860.33 19.729L1868.89 19.187L1869.75 32.905L1864.51 33.2371L1863.87 23.16L1863.79 23.165C1863.76 24.1228 1863.62 25.0738 1863.37 26L1861.2 33.447L1856.88 33.7209L1853.74 26.61C1853.38 25.7213 1853.12 24.7968 1852.95 23.8521L1852.87 23.8571L1853.51 33.934L1848.26 34.267L1847.39 20.546Z" fill="black"/>
<path d="M1878.73 28.2002C1879.25 28.9322 1879.94 29.1772 1881.24 29.1002C1882.47 29.0222 1883.09 28.6732 1883.06 28.1002C1883.03 27.7092 1882.81 27.5162 1882.37 27.4212C1881.08 27.2411 1879.77 27.1651 1878.46 27.1942C1876.98 27.1585 1875.52 26.9675 1874.08 26.6242C1873.3 26.4916 1872.6 26.0938 1872.08 25.4983C1871.56 24.9027 1871.26 24.146 1871.23 23.3562C1871.03 20.2562 1873.96 18.4342 1879.72 18.0692C1882.64 17.8845 1884.82 18.2002 1886.28 19.0162C1886.85 19.3212 1887.35 19.7444 1887.74 20.2573C1888.13 20.7702 1888.41 21.3611 1888.55 21.9902L1881.7 22.4242C1881.32 21.5812 1880.51 21.2402 1879.16 21.3242C1878.07 21.3932 1877.41 21.7862 1877.45 22.3412C1877.49 23.0192 1877.95 23.1142 1882.21 23.2782C1883.68 23.2442 1885.15 23.4296 1886.56 23.8282C1887.34 24.0165 1888.02 24.4532 1888.52 25.0711C1889.02 25.689 1889.3 26.4537 1889.32 27.2472C1889.53 30.5172 1886.69 32.2662 1880.54 32.6562C1877.6 32.8422 1875.35 32.5922 1873.92 31.9192C1873.25 31.6681 1872.65 31.2292 1872.21 30.6535C1871.77 30.0779 1871.51 29.3893 1871.45 28.6682L1878.73 28.2002Z" fill="black"/>
<path d="M1909.59 30.3372L1907.32 30.4801L1906.53 29.0431C1906 29.678 1905.31 30.1693 1904.54 30.4722C1903.1 31.0281 1901.59 31.3469 1900.05 31.4161C1894.23 31.7851 1890.82 29.3991 1890.52 24.7521C1890.41 23.6833 1890.55 22.6027 1890.94 21.6007C1891.33 20.5987 1891.96 19.7046 1892.76 18.9932C1894.7 17.6036 1897.01 16.8438 1899.4 16.8171C1901.86 16.5318 1904.36 16.9923 1906.56 18.1392C1907.2 18.4815 1907.75 18.9624 1908.18 19.5465C1908.61 20.1306 1908.9 20.803 1909.03 21.5142L1902.8 21.9141C1902.53 21.3357 1902.08 20.8632 1901.52 20.5729C1900.95 20.2825 1900.3 20.1914 1899.68 20.3141C1899.18 20.305 1898.69 20.4051 1898.24 20.6074C1897.79 20.8097 1897.39 21.1092 1897.06 21.4845C1896.74 21.8598 1896.5 22.3019 1896.37 22.7791C1896.24 23.2562 1896.21 23.7567 1896.29 24.2451C1896.45 26.7541 1898.02 28.0591 1900.72 27.8881C1902.49 27.7761 1903.44 27.1991 1903.76 26.0881L1901.44 26.2351L1901.25 23.2532L1909.11 22.7532L1909.59 30.3372Z" fill="black"/>
<path d="M1911.13 16.5083L1921.29 15.8642C1924.41 15.6642 1925.33 15.7743 1926.21 16.3993C1926.68 16.7537 1927.06 17.211 1927.31 17.7355C1927.57 18.2599 1927.71 18.8373 1927.71 19.4222C1927.82 20.354 1927.6 21.296 1927.09 22.0832C1926.61 22.626 1925.95 22.9882 1925.23 23.1102C1927.33 23.5762 1927.58 23.9733 1927.93 27.4823C1928.04 28.5293 1928.07 28.6912 1928.41 29.1822L1922.92 29.5303C1922.79 28.9363 1922.69 28.3352 1922.64 27.7302C1922.35 24.8792 1922.13 24.6443 1919.91 24.7853L1916.93 24.9742L1917.24 29.8902L1911.99 30.2223L1911.13 16.5083ZM1920.22 21.8583C1920.73 21.8908 1921.24 21.7798 1921.69 21.5382C1921.85 21.3937 1921.98 21.21 1922.06 21.0034C1922.15 20.7968 1922.17 20.5735 1922.15 20.3532C1922.09 19.3652 1921.59 19.0662 1920.09 19.1612L1916.57 19.3843L1916.74 22.0792L1920.22 21.8583Z" fill="black"/>
<path d="M1994.7 131.886L-134.356 16.8022L-135.931 45.9431L1993.13 161.027L1994.7 131.886Z" fill="#E4E4E5"/>
<path d="M822.5 81.9196L822.882 74.8756L815.838 74.4937L808.538 78.8076L808.793 74.1077L804.567 73.8787L804.312 78.5786L797.523 73.5006L790.479 73.1187L790.097 80.1626L794.323 80.3916L794.552 76.1657L802.699 82.2596L793.941 87.4366L794.17 83.2106L789.944 82.9816L789.562 90.0256L796.606 90.4076L803.906 86.0936L803.651 90.7936L807.877 91.0226L808.132 86.3226L814.921 91.4006L821.965 91.7826L822.424 83.3296L813.971 82.8706L818.044 85.9176L817.891 88.7356L809.744 82.6416L818.503 77.4656L818.274 81.6917L822.5 81.9196Z" fill="black"/>
<path d="M847.02 77.7793L852.267 78.0642L851.987 83.2302L857.617 78.3542L864.737 78.7412L858.771 83.3292L864.363 92.4862L857.716 92.1252L854.243 86.1582L851.711 88.3123L851.522 91.7892L846.275 91.5043L847.02 77.7793Z" fill="black"/>
<path d="M866.383 78.8301L881.918 79.6731L881.729 83.1731L871.44 82.6151L871.357 84.1381L879.876 84.6001L879.686 88.1001L871.168 87.6381L871.075 89.3461L882.001 89.9391L881.811 93.4391L865.638 92.5612L866.383 78.8301Z" fill="black"/>
<path d="M884.655 79.8213L893.277 80.2892L894.485 84.2552C894.815 85.3629 894.984 86.5124 894.985 87.6682L895.17 87.6782C895.314 86.5329 895.604 85.4108 896.033 84.3392L897.602 80.5243L906.162 80.9883L905.417 94.7142L900.17 94.4292L900.717 84.3462H900.635C900.491 85.2935 900.239 86.2216 899.886 87.1123L896.857 94.2533L892.536 94.0193L890.256 86.5902C890.001 85.6649 889.846 84.7153 889.791 83.7572H889.708L889.161 93.8392L883.914 93.5553L884.655 79.8213Z" fill="black"/>
<path d="M914.875 91.1004C915.307 91.8884 915.97 92.2124 917.266 92.2834C918.501 92.3504 919.155 92.0765 919.187 91.5005C919.208 91.1095 919.013 90.8915 918.587 90.7455C917.319 90.4153 916.028 90.1866 914.724 90.0615C913.265 89.8534 911.831 89.4921 910.448 88.9835C909.689 88.76 909.031 88.2812 908.585 87.6283C908.139 86.9753 907.932 86.1884 908 85.4005C908.169 82.2945 911.282 80.8325 917.043 81.1455C919.965 81.3035 922.101 81.8735 923.451 82.8555C923.98 83.225 924.425 83.7035 924.754 84.2589C925.084 84.8143 925.291 85.4336 925.361 86.0754L918.509 85.7035C918.226 84.8215 917.466 84.3874 916.109 84.3144C915.018 84.2554 914.32 84.5675 914.29 85.1235C914.253 85.8025 914.699 85.9505 918.915 86.6125C920.378 86.7514 921.812 87.1075 923.17 87.6694C923.914 87.9463 924.545 88.4605 924.968 89.1323C925.39 89.8041 925.58 90.5962 925.507 91.3865C925.33 94.6595 922.302 96.0625 916.15 95.7295C913.207 95.5695 911.006 95.0575 909.669 94.2225C909.024 93.8935 908.486 93.3879 908.118 92.7649C907.75 92.1418 907.566 91.4269 907.589 90.7035L914.875 91.1004Z" fill="black"/>
<path d="M945.272 96.8354L943.008 96.7125L942.389 95.1925C941.783 95.7604 941.045 96.1677 940.241 96.3774C938.753 96.7622 937.211 96.9014 935.678 96.7894C929.855 96.4734 926.744 93.7044 926.997 89.0544C927.009 87.9792 927.279 86.9227 927.783 85.9732C928.288 85.0237 929.013 84.209 929.897 83.5975C931.982 82.4445 934.372 81.9616 936.741 82.2144C939.225 82.2198 941.65 82.9697 943.703 84.3674C944.295 84.7821 944.787 85.3245 945.142 85.9544C945.498 86.5844 945.707 87.2858 945.755 88.0074L939.52 87.6694C939.326 87.0644 938.933 86.5427 938.405 86.1883C937.878 85.8339 937.246 85.6677 936.613 85.7164C936.122 85.6492 935.622 85.691 935.15 85.8389C934.677 85.9869 934.242 86.2372 933.877 86.5722C933.512 86.9072 933.225 87.3185 933.038 87.7769C932.85 88.2353 932.765 88.7296 932.79 89.2244C932.654 91.7344 934.06 93.2134 936.755 93.3604C938.525 93.4604 939.541 92.9955 939.991 91.9265L937.665 91.8005L937.827 88.8154L945.688 89.2424L945.272 96.8354Z" fill="black"/>
<path d="M948.422 83.2822L958.587 83.8333C961.714 84.0033 962.611 84.2173 963.418 84.9423C963.838 85.3489 964.159 85.8473 964.354 86.3984C964.55 86.9496 964.615 87.5386 964.545 88.1193C964.548 89.058 964.222 89.968 963.622 90.6902C963.077 91.1713 962.385 91.4534 961.659 91.4902C963.684 92.1982 963.888 92.6222 963.821 96.1482C963.718 96.7454 963.815 97.3597 964.097 97.8962L958.603 97.5962C958.545 96.9914 958.523 96.3837 958.537 95.7762C958.589 92.9112 958.397 92.6523 956.174 92.5313L953.191 92.3702L952.924 97.2882L947.677 97.0033L948.422 83.2822ZM956.822 89.6613C957.323 89.7529 957.841 89.7023 958.315 89.5153C958.499 89.3917 958.651 89.2245 958.755 89.0287C958.86 88.8328 958.915 88.6143 958.915 88.3922C958.969 87.4042 958.515 87.0493 957.015 86.9683L953.497 86.7772L953.35 89.4773L956.822 89.6613Z" fill="black"/>
<path d="M971.282 84.5225L978.217 84.8995L982.966 98.9225L977.225 98.6105L976.717 97.3245L971.117 97.0245L970.535 98.2515L965.041 97.9515L971.282 84.5225ZM975.882 93.7705L974.382 88.6324L972.256 93.5745L975.882 93.7705Z" fill="black"/>
<path d="M984.9 85.2612L995.147 85.8173C997.781 85.9603 998.859 86.2462 999.808 87.0172C1000.3 87.4863 1000.68 88.0659 1000.91 88.7087C1001.14 89.3516 1001.22 90.0397 1001.13 90.7173C1001.16 91.4681 1000.99 92.213 1000.63 92.873C1000.27 93.5331 999.741 94.0835 999.094 94.4662C998.117 94.9662 997.266 95.0662 994.694 94.9282L989.652 94.6553L989.402 99.2643L984.155 98.9802L984.9 85.2612ZM993.125 91.5282C993.705 91.6367 994.303 91.5982 994.864 91.4163C995.068 91.2941 995.236 91.1208 995.353 90.9135C995.469 90.7061 995.529 90.472 995.527 90.2343C995.581 89.2263 995.063 88.8882 993.294 88.7922L989.981 88.6123L989.832 91.3492L993.125 91.5282Z" fill="black"/>
<path d="M1003.18 86.2534L1008.42 86.5383L1008.16 91.3734L1014.29 91.7064L1014.55 86.8704L1019.8 87.1554L1019.06 100.88L1013.81 100.596L1014.1 95.2043L1007.97 94.8713L1007.68 100.263L1002.43 99.9784L1003.18 86.2534Z" fill="black"/>
<path d="M1022.66 87.3105L1027.91 87.5955L1027.16 101.32L1021.92 101.037L1022.66 87.3105Z" fill="black"/>
<path d="M1048.47 97.3384C1048.42 98.1634 1048.15 98.96 1047.69 99.6485C1047.24 100.337 1046.6 100.893 1045.86 101.261C1044.08 102.261 1042.12 102.561 1038.71 102.38C1035.35 102.198 1033.41 101.58 1031.85 100.192C1031.07 99.4801 1030.47 98.5936 1030.09 97.605C1029.72 96.6164 1029.59 95.5537 1029.7 94.5035C1029.69 93.4758 1029.93 92.4613 1030.4 91.5455C1030.87 90.6296 1031.55 89.8394 1032.38 89.2414C1034.18 88.0594 1036.39 87.6224 1039.62 87.7974C1043.34 87.9974 1045.81 88.8775 1047.36 90.4875C1048.21 91.4552 1048.67 92.7008 1048.66 93.9875L1042.63 93.6604C1042.28 92.0534 1041.41 91.4065 1039.45 91.3005C1036.98 91.1665 1035.62 92.3514 1035.49 94.7394C1035.35 97.2494 1036.65 98.7645 1039.04 98.8945C1039.9 98.9911 1040.76 98.798 1041.49 98.3464C1041.9 97.9804 1042.23 97.5255 1042.45 97.0154L1048.47 97.3384Z" fill="black"/>
<path d="M1056.98 98.8104C1057.41 99.5984 1058.07 99.9234 1059.37 99.9934C1060.6 100.06 1061.26 99.7863 1061.29 99.2103C1061.31 98.8193 1061.12 98.6013 1060.69 98.4553C1059.42 98.1251 1058.13 97.8964 1056.83 97.7713C1055.37 97.5633 1053.93 97.202 1052.55 96.6933C1051.79 96.4701 1051.14 95.9918 1050.69 95.3395C1050.24 94.6871 1050.04 93.9008 1050.1 93.1134C1050.27 90.0064 1053.38 88.5444 1059.15 88.8574C1062.07 89.0154 1064.2 89.5854 1065.55 90.5674C1066.08 90.9372 1066.53 91.4158 1066.86 91.9711C1067.19 92.5263 1067.39 93.1456 1067.46 93.7873L1060.61 93.4154C1060.33 92.5334 1059.57 92.1003 1058.21 92.0263C1057.12 91.9673 1056.42 92.2793 1056.39 92.8353C1056.36 93.5143 1056.8 93.6623 1061.02 94.3243C1062.48 94.4632 1063.92 94.8194 1065.27 95.3813C1066.02 95.6587 1066.65 96.173 1067.07 96.845C1067.49 97.5169 1067.68 98.309 1067.61 99.0993C1067.43 102.371 1064.4 103.775 1058.25 103.441C1055.31 103.281 1053.11 102.77 1051.77 101.934C1051.13 101.605 1050.59 101.1 1050.22 100.477C1049.85 99.8537 1049.67 99.1388 1049.69 98.4154L1056.98 98.8104Z" fill="black"/>
<path d="M520.554 65.5344L520.936 58.4904L513.892 58.1084L506.592 62.4224L506.847 57.7224L502.621 57.4934L502.366 62.1934L495.577 57.1154L488.533 56.7334L488.151 63.7773L492.377 64.0063L492.606 59.7804L500.753 65.8744L492 71.0493L492.229 66.8234L488.003 66.5944L487.621 73.6383L494.665 74.0204L501.965 69.7064L501.71 74.4064L505.936 74.6354L506.191 69.9354L512.98 75.0133L520.024 75.3954L520.483 66.9424L512.03 66.4834L516.103 69.5304L515.95 72.3484L507.803 66.2544L516.562 61.0784L516.333 65.3043L520.554 65.5344Z" fill="black"/>
<path d="M545.074 61.3945L550.321 61.6794L550.04 66.8455L555.671 61.9695L562.79 62.3564L556.825 66.9445L562.416 76.1014L555.77 75.7405L552.296 69.7734L549.765 71.9275L549.576 75.4045L544.329 75.1205L545.074 61.3945Z" fill="black"/>
<path d="M564.436 62.4453L579.972 63.2883L579.782 66.7883L569.494 66.2303L569.411 67.7534L577.93 68.2153L577.74 71.7153L569.221 71.2534L569.128 72.9614L580.055 73.5543L579.865 77.0543L563.691 76.1764L564.436 62.4453Z" fill="black"/>
<path d="M582.708 63.4375L591.33 63.9045L592.539 67.8705C592.869 68.9782 593.037 70.1277 593.039 71.2834L593.224 71.2935C593.367 70.1481 593.657 69.026 594.086 67.9545L595.655 64.1395L604.215 64.6035L603.471 78.3295L598.224 78.0444L598.771 67.9615H598.688C598.544 68.9088 598.293 69.8368 597.94 70.7275L594.911 77.8685L590.59 77.6345L588.31 70.2054C588.055 69.2802 587.899 68.3306 587.844 67.3724H587.762L587.215 77.4554L581.968 77.1705L582.708 63.4375Z" fill="black"/>
<path d="M612.928 74.7142C613.36 75.5022 614.028 75.8272 615.32 75.8972C616.554 75.9642 617.209 75.6902 617.24 75.1142C617.261 74.7232 617.067 74.5052 616.64 74.3592C615.372 74.029 614.081 73.8003 612.777 73.6753C611.318 73.4672 609.885 73.1059 608.502 72.5973C607.744 72.374 607.086 71.8956 606.64 71.2433C606.195 70.5909 605.988 69.8045 606.055 69.0172C606.223 65.9102 609.336 64.4482 615.098 64.7612C618.019 64.9192 620.155 65.4892 621.506 66.4712C622.035 66.8409 622.48 67.3194 622.809 67.8747C623.138 68.4301 623.345 69.0495 623.416 69.6913L616.563 69.3192C616.281 68.4372 615.52 68.0043 614.163 67.9303C613.072 67.8713 612.374 68.1832 612.344 68.7392C612.307 69.4182 612.753 69.5663 616.969 70.2283C618.432 70.367 619.867 70.7233 621.225 71.2853C621.968 71.5627 622.6 72.077 623.022 72.7489C623.445 73.4208 623.634 74.213 623.562 75.0033C623.384 78.2753 620.357 79.6792 614.204 79.3452C611.262 79.1852 609.061 78.6742 607.723 77.8382C607.078 77.5094 606.54 77.0038 606.172 76.3807C605.804 75.7576 605.621 75.0426 605.644 74.3192L612.928 74.7142Z" fill="black"/>
<path d="M643.326 80.4501L641.062 80.3272L640.443 78.8072C639.836 79.375 639.098 79.7822 638.294 79.9921C636.805 80.377 635.264 80.5162 633.731 80.4042C627.908 80.0882 624.798 77.3191 625.05 72.6691C625.062 71.594 625.332 70.5374 625.836 69.588C626.341 68.6385 627.066 67.8239 627.95 67.2122C630.035 66.0593 632.425 65.5763 634.794 65.8292C637.278 65.8347 639.703 66.5847 641.757 67.9822C642.349 68.3971 642.841 68.9394 643.196 69.5693C643.551 70.1992 643.761 70.9006 643.809 71.6221L637.574 71.2842C637.379 70.6794 636.987 70.1576 636.459 69.8033C635.932 69.449 635.3 69.2827 634.667 69.3312C634.176 69.264 633.676 69.3058 633.204 69.4537C632.731 69.6016 632.296 69.852 631.931 70.187C631.566 70.5219 631.279 70.9332 631.092 71.3917C630.904 71.8501 630.819 72.3444 630.844 72.8392C630.707 75.3492 632.113 76.8292 634.809 76.9752C636.578 77.0752 637.594 76.6102 638.044 75.5412L635.719 75.4152L635.881 72.4302L643.742 72.8572L643.326 80.4501Z" fill="black"/>
<path d="M646.475 66.9004L656.64 67.4514C659.768 67.6214 660.664 67.8354 661.471 68.5604C661.891 68.9671 662.212 69.4655 662.407 70.0166C662.603 70.5677 662.669 71.1568 662.599 71.7374C662.602 72.6762 662.275 73.5861 661.675 74.3084C661.131 74.7901 660.439 75.0723 659.713 75.1084C661.737 75.8164 661.942 76.2404 661.874 79.7664C661.772 80.3636 661.869 80.978 662.151 81.5144L656.657 81.2144C656.599 80.6096 656.576 80.0019 656.59 79.3944C656.642 76.5294 656.45 76.2704 654.228 76.1504L651.244 75.9884L650.977 80.9064L645.73 80.6213L646.475 66.9004ZM654.875 73.2794C655.377 73.3715 655.894 73.321 656.369 73.1334C656.553 73.0098 656.705 72.8427 656.809 72.6469C656.914 72.451 656.969 72.2324 656.969 72.0104C657.022 71.0224 656.569 70.6674 655.069 70.5864L651.55 70.3954L651.404 73.0953L654.875 73.2794Z" fill="black"/>
<path d="M669.336 68.1377L676.27 68.5148L681.019 82.5377L675.278 82.2257L674.771 80.9397L669.171 80.6398L668.589 81.8677L663.095 81.5678L669.336 68.1377ZM673.936 77.3857L672.436 72.2477L670.31 77.1897L673.936 77.3857Z" fill="black"/>
<path d="M682.957 68.8765L693.205 69.4335C695.839 69.5755 696.917 69.8625 697.866 70.6335C698.362 71.1029 698.74 71.6824 698.971 72.3252C699.201 72.968 699.277 73.656 699.192 74.3335C699.222 75.0843 699.048 75.8292 698.689 76.4891C698.329 77.1491 697.798 77.6997 697.152 78.0825C696.175 78.5825 695.323 78.6824 692.752 78.5444L687.711 78.2715L687.461 82.8805L682.214 82.5964L682.957 68.8765ZM691.182 75.1434C691.762 75.2518 692.36 75.2133 692.922 75.0315C693.126 74.9093 693.294 74.7359 693.41 74.5286C693.526 74.3212 693.586 74.0871 693.584 73.8495C693.639 72.8415 693.121 72.5035 691.351 72.4075L688.038 72.2275L687.89 74.9645L691.182 75.1434Z" fill="black"/>
<path d="M701.23 69.8687L706.477 70.1536L706.214 74.9886L712.346 75.3217L712.609 70.4856L717.856 70.7706L717.111 84.4956L711.864 84.2117L712.156 78.8196L706.024 78.4866L705.732 83.8787L700.485 83.5936L701.23 69.8687Z" fill="black"/>
<path d="M720.716 70.9258L725.963 71.2107L725.218 84.9358L719.971 84.6517L720.716 70.9258Z" fill="black"/>
<path d="M746.526 80.9537C746.473 81.7788 746.205 82.5756 745.747 83.2642C745.29 83.9529 744.659 84.5092 743.919 84.8776C742.131 85.8776 740.175 86.1777 736.759 85.9957C733.405 85.8137 731.459 85.1957 729.902 83.8077C729.122 83.0953 728.521 82.2087 728.147 81.2201C727.774 80.2316 727.64 79.169 727.755 78.1187C727.747 77.091 727.987 76.0766 728.453 75.1608C728.92 74.2451 729.599 73.4548 730.435 72.8566C732.235 71.6746 734.444 71.2376 737.674 71.4126C741.398 71.6126 743.874 72.4927 745.412 74.1027C746.26 75.0706 746.722 76.3161 746.712 77.6027L740.683 77.2757C740.337 75.6687 739.464 75.0227 737.509 74.9157C735.039 74.7817 733.675 75.9667 733.545 78.3547C733.409 80.8647 734.71 82.3797 737.097 82.5097C737.95 82.6066 738.811 82.4136 739.541 81.9617C739.957 81.5959 740.285 81.1409 740.501 80.6307L746.526 80.9537Z" fill="black"/>
<path d="M755.03 82.4256C755.462 83.2136 756.13 83.5386 757.422 83.6086C758.657 83.6756 759.311 83.4015 759.343 82.8255C759.364 82.4345 759.169 82.2165 758.743 82.0705C757.475 81.7405 756.184 81.5118 754.88 81.3866C753.421 81.1786 751.987 80.8172 750.604 80.3086C749.846 80.0851 749.189 79.6069 748.743 78.9546C748.297 78.3022 748.09 77.5159 748.157 76.7286C748.325 73.6216 751.438 72.1596 757.2 72.4726C760.122 72.6306 762.258 73.2006 763.608 74.1826C764.137 74.5521 764.582 75.0307 764.911 75.586C765.241 76.1414 765.448 76.7607 765.518 77.4026L758.666 77.0306C758.383 76.1486 757.623 75.7156 756.266 75.6416C755.176 75.5826 754.478 75.8955 754.448 76.4505C754.411 77.1295 754.857 77.2776 759.072 77.9396C760.535 78.0784 761.97 78.4346 763.328 78.9966C764.072 79.2737 764.704 79.788 765.126 80.4599C765.548 81.1319 765.738 81.9242 765.665 82.7146C765.488 85.9866 762.46 87.3906 756.307 87.0566C753.365 86.8966 751.164 86.3855 749.826 85.5495C749.181 85.2205 748.644 84.715 748.276 84.0919C747.907 83.4688 747.724 82.754 747.747 82.0306L755.03 82.4256Z" fill="black"/>
<path d="M218.607 49.1497L218.989 42.1056L211.945 41.7236L204.645 46.0376L204.9 41.3376L200.674 41.1086L200.419 45.8086L193.63 40.7306L186.586 40.3486L186.204 47.3926L190.43 47.6216L190.659 43.3956L198.806 49.4896L190.047 54.6666L190.276 50.4406L186.05 50.2117L185.668 57.2556L192.712 57.6376L200.012 53.3236L199.757 58.0236L203.983 58.2526L204.238 53.5526L211.027 58.6306L218.071 59.0126L218.53 50.5596L210.077 50.1006L214.15 53.1476L213.997 55.9656L205.85 49.8716L214.609 44.6946L214.38 48.9207L218.607 49.1497Z" fill="black"/>
<path d="M243.127 45.0093L248.374 45.2942L248.094 50.4602L253.724 45.5842L260.844 45.9712L254.878 50.5592L260.47 59.7162L253.823 59.3562L250.35 53.3882L247.818 55.5422L247.629 59.0193L242.382 58.7352L243.127 45.0093Z" fill="black"/>
<path d="M262.49 46.0605L278.025 46.9034L277.836 50.4034L267.547 49.8455L267.464 51.3685L275.983 51.8304L275.793 55.3304L267.275 54.8674L267.182 56.5754L278.108 57.1685L277.918 60.6685L261.745 59.7905L262.49 46.0605Z" fill="black"/>
<path d="M280.762 47.0522L289.384 47.5203L290.592 51.4852C290.922 52.5928 291.091 53.7424 291.092 54.8982L291.277 54.9082C291.421 53.7629 291.711 52.6407 292.14 51.5692L293.709 47.7543L302.269 48.2183L301.524 61.9442L296.277 61.6593L296.824 51.5763H296.742C296.598 52.5236 296.346 53.4515 295.993 54.3423L292.964 61.4833L288.643 61.2493L286.363 53.8202C286.109 52.8949 285.953 51.9454 285.898 50.9873H285.815L285.268 61.0702L280.021 60.7853L280.762 47.0522Z" fill="black"/>
<path d="M310.982 58.3295C311.414 59.1175 312.082 59.4424 313.373 59.5124C314.608 59.5794 315.262 59.3055 315.294 58.7295C315.315 58.3385 315.12 58.1205 314.694 57.9745C313.427 57.6443 312.135 57.4156 310.831 57.2905C309.372 57.0824 307.938 56.7211 306.555 56.2125C305.797 55.9891 305.14 55.5107 304.694 54.8584C304.248 54.2061 304.041 53.4197 304.108 52.6324C304.277 49.5254 307.39 48.0634 313.151 48.3764C316.073 48.5344 318.209 49.1045 319.559 50.0865C320.088 50.4561 320.533 50.9345 320.862 51.4899C321.192 52.0452 321.399 52.6646 321.469 53.3065L314.617 52.9344C314.334 52.0524 313.574 51.6195 312.217 51.5455C311.127 51.4865 310.429 51.7995 310.399 52.3545C310.362 53.0335 310.808 53.1815 315.023 53.8435C316.486 53.9823 317.921 54.3386 319.279 54.9005C320.023 55.1776 320.655 55.6918 321.077 56.3638C321.499 57.0357 321.689 57.8282 321.616 58.6185C321.439 61.8905 318.416 63.2944 312.258 62.9604C309.316 62.8004 307.115 62.2895 305.778 61.4535C305.133 61.1245 304.595 60.6189 304.227 59.9958C303.859 59.3728 303.675 58.6578 303.698 57.9344L310.982 58.3295Z" fill="black"/>
<path d="M341.379 64.0654L339.115 63.9425L338.496 62.4234C337.889 62.9903 337.151 63.3973 336.348 63.6075C334.86 63.9922 333.318 64.1313 331.785 64.0195C325.962 63.7035 322.851 60.9345 323.103 56.2845C323.116 55.2094 323.385 54.153 323.89 53.2036C324.394 52.2542 325.119 51.4394 326.003 50.8275C328.088 49.6745 330.478 49.1916 332.847 49.4444C335.331 49.4499 337.756 50.1999 339.809 51.5975C340.402 52.0123 340.894 52.5546 341.249 53.1848C341.604 53.8149 341.813 54.5168 341.861 55.2385L335.626 54.8995C335.432 54.2945 335.039 53.7728 334.512 53.4184C333.984 53.064 333.353 52.8978 332.719 52.9465C332.228 52.8793 331.728 52.921 331.256 53.0689C330.783 53.2168 330.348 53.4672 329.983 53.8022C329.618 54.1372 329.332 54.5485 329.144 55.0069C328.956 55.4653 328.871 55.9596 328.896 56.4544C328.76 58.9644 330.165 60.4444 332.861 60.5904C334.631 60.6904 335.647 60.2254 336.097 59.1564L333.771 59.0305L333.933 56.0455L341.794 56.4725L341.379 64.0654Z" fill="black"/>
<path d="M344.529 50.5122L354.694 51.0642C357.821 51.2332 358.718 51.4472 359.524 52.1722C359.945 52.5787 360.265 53.0771 360.461 53.6283C360.657 54.1795 360.722 54.7685 360.652 55.3492C360.656 56.288 360.329 57.1982 359.729 57.9203C359.184 58.4017 358.492 58.6838 357.766 58.7202C359.791 59.4292 359.995 59.8523 359.928 63.3783C359.826 63.9755 359.923 64.5897 360.204 65.1262L354.71 64.8263C354.652 64.2215 354.63 63.6137 354.644 63.0062C354.696 60.1412 354.504 59.8822 352.281 59.7622L349.298 59.6002L349.031 64.5182L343.784 64.2333L344.529 50.5122ZM352.929 56.8912C353.431 56.9834 353.948 56.9328 354.422 56.7452C354.606 56.6217 354.758 56.4546 354.862 56.2588C354.967 56.0629 355.022 55.8442 355.022 55.6222C355.076 54.6342 354.622 54.2792 353.122 54.1982L349.603 54.0072L349.457 56.7073L352.929 56.8912Z" fill="black"/>
<path d="M367.389 51.7524L374.324 52.1295L379.073 66.1525L373.332 65.8414L372.824 64.5544L367.224 64.2545L366.642 65.4814L361.147 65.1815L367.389 51.7524ZM371.989 61.0005L370.489 55.8625L368.363 60.8044L371.989 61.0005Z" fill="black"/>
<path d="M381.011 52.4922L391.258 53.0482C393.892 53.1912 394.97 53.4773 395.919 54.2483C396.415 54.7177 396.793 55.2972 397.024 55.9399C397.254 56.5827 397.33 57.2707 397.245 57.9482C397.275 58.6989 397.101 59.4436 396.742 60.1034C396.382 60.7632 395.851 61.3137 395.205 61.6963C394.228 62.1963 393.377 62.2962 390.805 62.1582L385.763 61.8853L385.513 66.4952L380.266 66.2102L381.011 52.4922ZM389.235 58.7583C389.815 58.8662 390.413 58.828 390.975 58.6472C391.179 58.5247 391.347 58.3513 391.464 58.1438C391.58 57.9363 391.64 57.7021 391.638 57.4642C391.692 56.4572 391.174 56.1182 389.405 56.0222L386.092 55.8423L385.943 58.5792L389.235 58.7583Z" fill="black"/>
<path d="M399.283 53.4834L404.53 53.7683L404.268 58.6034L410.4 58.9364L410.662 54.1013L415.909 54.3854L415.164 68.1113L409.917 67.8264L410.21 62.4343L404.078 62.1024L403.785 67.4934L398.538 67.2084L399.283 53.4834Z" fill="black"/>
<path d="M418.769 54.5415L424.017 54.8254L423.272 68.5515L418.025 68.2665L418.769 54.5415Z" fill="black"/>
<path d="M444.58 64.5684C444.527 65.3935 444.258 66.1902 443.8 66.8788C443.343 67.5674 442.712 68.1238 441.972 68.4923C440.185 69.4923 438.228 69.7923 434.813 69.6103C431.458 69.4283 429.513 68.8104 427.955 67.4224C427.175 66.7101 426.573 65.8236 426.201 64.835C425.828 63.8464 425.693 62.7837 425.809 61.7334C425.801 60.7058 426.04 59.6913 426.507 58.7755C426.973 57.8597 427.652 57.0694 428.488 56.4713C430.288 55.2903 432.497 54.8523 435.727 55.0273C439.452 55.2273 441.927 56.1074 443.465 57.7184C444.313 58.6859 444.776 59.9317 444.765 61.2184L438.735 60.8904C438.389 59.2834 437.516 58.6374 435.561 58.5314C433.092 58.3974 431.727 59.5814 431.598 61.9694C431.462 64.4794 432.762 65.9944 435.149 66.1244C436.002 66.2217 436.864 66.0286 437.594 65.5764C438.01 65.2104 438.337 64.7554 438.553 64.2454L444.58 64.5684Z" fill="black"/>
<path d="M453.084 66.0404C453.516 66.8284 454.179 67.1533 455.476 67.2233C456.71 67.2903 457.365 67.0163 457.396 66.4403C457.417 66.0493 457.223 65.8314 456.796 65.6854C455.529 65.3551 454.237 65.1263 452.933 65.0013C451.474 64.7934 450.041 64.4321 448.658 63.9233C447.9 63.7001 447.242 63.2219 446.796 62.5695C446.35 61.9172 446.143 61.1308 446.21 60.3433C446.379 57.2373 449.492 55.7744 455.254 56.0874C458.175 56.246 460.31 56.816 461.661 57.7973C462.19 58.1669 462.635 58.6454 462.964 59.2008C463.294 59.7561 463.501 60.3754 463.571 61.0173L456.719 60.6453C456.436 59.7633 455.676 59.3303 454.319 59.2563C453.228 59.1973 452.53 59.5103 452.5 60.0653C452.463 60.7443 452.909 60.8923 457.125 61.5543C458.588 61.6932 460.023 62.0495 461.381 62.6113C462.125 62.8887 462.756 63.403 463.179 64.0749C463.601 64.7468 463.79 65.539 463.718 66.3293C463.54 69.6013 460.512 71.0053 454.36 70.6713C451.418 70.5113 449.216 70.0003 447.879 69.1643C447.234 68.8353 446.696 68.3298 446.328 67.7067C445.96 67.0837 445.776 66.3688 445.799 65.6453L453.084 66.0404Z" fill="black"/>
<path d="M-21.185 30.6675L-12.563 31.1355L-11.354 35.1014C-11.0242 36.2088 -10.8558 37.358 -10.854 38.5134L-10.669 38.5234C-10.5258 37.3781 -10.2361 36.256 -9.80703 35.1844L-8.23803 31.3695L0.321968 31.8345L-0.422033 45.5595L-5.67003 45.2745L-5.12203 35.1915H-5.20503C-5.34953 36.1387 -5.60045 37.0666 -5.95303 37.9575L-8.98303 45.0985L-13.304 44.8645L-15.583 37.4355C-15.8377 36.5103 -15.9939 35.5607 -16.049 34.6025H-16.131L-16.678 44.6856L-21.926 44.4005L-21.185 30.6675Z" fill="black"/>
<path d="M9.03497 41.9447C9.46697 42.7327 10.135 43.0576 11.427 43.1276C12.661 43.1946 13.316 42.9207 13.347 42.3447C13.368 41.9537 13.174 41.7367 12.747 41.5897C11.4795 41.2595 10.1878 41.0308 8.88397 40.9057C7.42504 40.6977 5.99212 40.3363 4.60897 39.8277C3.85099 39.6043 3.1934 39.126 2.74735 38.4737C2.30131 37.8214 2.09418 37.035 2.16097 36.2476C2.32997 33.1416 5.44297 31.6787 11.205 31.9917C14.1256 32.151 16.2616 32.7211 17.613 33.7017C18.1423 34.0714 18.5866 34.5499 18.916 35.1052C19.2454 35.6605 19.4524 36.2799 19.523 36.9217L12.67 36.5496C12.388 35.6676 11.627 35.2347 10.27 35.1607C9.17897 35.1017 8.48098 35.4147 8.45097 35.9697C8.41397 36.6487 8.85997 36.7967 13.076 37.4597C14.5393 37.5978 15.9738 37.9537 17.332 38.5157C18.0755 38.7931 18.7072 39.3074 19.1295 39.9793C19.5519 40.6512 19.7414 41.4434 19.669 42.2337C19.491 45.5057 16.469 46.9096 10.311 46.5756C7.36897 46.4156 5.16797 45.9047 3.82997 45.0687C3.18526 44.7398 2.64743 44.2343 2.2793 43.6112C1.91116 42.988 1.72792 42.273 1.75097 41.5496L9.03497 41.9447Z" fill="black"/>
<path d="M39.432 47.6808L37.169 47.5587L36.55 46.0387C35.9431 46.6057 35.2045 47.0127 34.401 47.2228C32.9125 47.6075 31.3713 47.7466 29.838 47.6348C24.015 47.3198 20.905 44.5498 21.157 39.8998C21.1692 38.8247 21.4389 37.768 21.9435 36.8186C22.448 35.8692 23.1728 35.0545 24.057 34.4427C26.1422 33.2901 28.5318 32.8076 30.901 33.0608C33.3847 33.0653 35.8099 33.815 37.863 35.2128C38.4557 35.6275 38.9478 36.1699 39.3031 36.8C39.6584 37.4302 39.8678 38.132 39.916 38.8538L33.68 38.5148C33.4857 37.9097 33.0931 37.3878 32.5656 37.0334C32.0381 36.6791 31.4066 36.5129 30.773 36.5618C30.2822 36.4947 29.7826 36.5366 29.3099 36.6846C28.8372 36.8326 28.4029 37.083 28.0379 37.418C27.673 37.7529 27.3864 38.1642 27.1985 38.6226C27.0106 39.0809 26.9261 39.575 26.951 40.0697C26.814 42.5797 28.22 44.0597 30.916 44.2057C32.685 44.3057 33.701 43.8407 34.151 42.7717L31.826 42.6457L31.988 39.6617L39.849 40.0878L39.432 47.6808Z" fill="black"/>
<path d="M42.582 34.1274L52.747 34.6794C55.875 34.8484 56.771 35.0625 57.578 35.7875C57.9982 36.1942 58.3187 36.6926 58.5143 37.2438C58.71 37.7949 58.7756 38.3838 58.706 38.9645C58.7093 39.9034 58.3822 40.8135 57.782 41.5355C57.2375 42.0175 56.5452 42.2995 55.819 42.3355C57.844 43.0445 58.048 43.4675 57.981 46.9935C57.8788 47.5908 57.9761 48.205 58.258 48.7415L52.764 48.4415C52.7056 47.8367 52.6833 47.2289 52.697 46.6215C52.749 43.7565 52.557 43.4974 50.335 43.3774L47.351 43.2155L47.084 48.1335L41.837 47.8485L42.582 34.1274ZM50.982 40.5074C51.4839 40.5988 52.0014 40.5479 52.476 40.3605C52.6605 40.2369 52.8117 40.0699 52.9163 39.874C53.021 39.6782 53.0758 39.4596 53.076 39.2376C53.129 38.2495 52.676 37.8955 51.176 37.8135L47.657 37.6224L47.511 40.3225L50.982 40.5074Z" fill="black"/>
<path d="M65.443 35.3687L72.377 35.7446L77.126 49.7676L71.385 49.4567L70.877 48.1696L65.277 47.8696L64.695 49.0966L59.201 48.7966L65.443 35.3687ZM70.043 44.6156L68.543 39.4777L66.418 44.4196L70.043 44.6156Z" fill="black"/>
<path d="M79.064 36.1074L89.312 36.6633C91.945 36.8063 93.024 37.0924 93.973 37.8634C94.4688 38.3328 94.8472 38.9123 95.0776 39.5551C95.3079 40.1978 95.3838 40.8858 95.299 41.5634C95.3288 42.3141 95.1548 43.059 94.7954 43.7189C94.4361 44.3788 93.9048 44.9291 93.258 45.3114C92.282 45.8114 91.43 45.9113 88.858 45.7733L83.817 45.5004L83.567 50.1104L78.32 49.8253L79.064 36.1074ZM87.289 42.3734C87.8689 42.4813 88.4665 42.4431 89.028 42.2623C89.232 42.14 89.4005 41.9665 89.5168 41.759C89.6331 41.5515 89.6931 41.3172 89.691 41.0793C89.746 40.0723 89.228 39.7333 87.458 39.6373L84.145 39.4574L84 42.1943L87.289 42.3734Z" fill="black"/>
<path d="M97.336 37.1006L102.584 37.3856L102.321 42.2216L108.453 42.5536L108.716 37.7186L113.963 38.0026L113.218 51.7286L107.971 51.4436L108.263 46.0516L102.131 45.7196L101.839 51.1106L96.592 50.8256L97.336 37.1006Z" fill="black"/>
<path d="M116.823 38.1567L122.07 38.4407L121.325 52.1668L116.078 51.8817L116.823 38.1567Z" fill="black"/>
<path d="M142.633 48.1836C142.58 49.0086 142.311 49.8052 141.854 50.4938C141.396 51.1824 140.766 51.7389 140.026 52.1077C138.238 53.1077 136.282 53.4076 132.866 53.2256C129.512 53.0436 127.566 52.4256 126.009 51.0376C125.229 50.3253 124.628 49.439 124.255 48.4507C123.881 47.4623 123.747 46.3998 123.862 45.3496C123.854 44.322 124.093 43.3075 124.559 42.3917C125.026 41.4759 125.705 40.6857 126.541 40.0876C128.341 38.9056 130.55 38.4676 133.781 38.6426C137.505 38.8426 139.976 39.7226 141.518 41.3336C142.366 42.3011 142.829 43.5469 142.818 44.8336L136.789 44.5056C136.443 42.8986 135.569 42.2526 133.615 42.1466C131.145 42.0126 129.781 43.1966 129.651 45.5846C129.515 48.0946 130.816 49.6096 133.203 49.7396C134.056 49.837 134.917 49.644 135.647 49.1916C136.063 48.8258 136.391 48.3708 136.607 47.8606L142.633 48.1836Z" fill="black"/>
<path d="M151.137 49.6556C151.569 50.4436 152.237 50.7686 153.529 50.8386C154.764 50.9056 155.418 50.6316 155.449 50.0556C155.471 49.6646 155.276 49.4476 154.849 49.3006C153.581 48.9706 152.289 48.7418 150.985 48.6165C149.526 48.4084 148.093 48.0471 146.71 47.5385C145.952 47.3153 145.294 46.837 144.848 46.1847C144.403 45.5323 144.196 44.7459 144.263 43.9586C144.431 40.8526 147.544 39.3896 153.306 39.7026C156.228 39.8613 158.364 40.4312 159.714 41.4126C160.243 41.7821 160.688 42.2606 161.017 42.816C161.347 43.3714 161.554 43.9907 161.624 44.6325L154.772 44.2606C154.489 43.3786 153.728 42.9455 152.372 42.8715C151.282 42.8125 150.584 43.1256 150.553 43.6816C150.517 44.3596 150.963 44.5076 155.178 45.1706C156.641 45.3087 158.076 45.6645 159.434 46.2265C160.178 46.5038 160.809 47.0181 161.232 47.69C161.654 48.362 161.844 49.1542 161.771 49.9445C161.593 53.2165 158.566 54.6206 152.413 54.2866C149.471 54.1266 147.27 53.6156 145.932 52.7796C145.287 52.4508 144.749 51.9452 144.381 51.3221C144.013 50.699 143.83 49.984 143.853 49.2606L151.137 49.6556Z" fill="black"/>
<path d="M1124.45 98.3005L1124.83 91.2565L1117.79 90.8745L1110.48 95.1885L1110.74 90.4885L1106.51 90.2595L1106.26 94.9595L1099.47 89.8815L1092.43 89.4995L1092.04 96.5435L1096.27 96.7725L1096.5 92.5465L1104.65 98.6405L1095.89 103.818L1096.12 99.5914L1091.89 99.3626L1091.51 106.406L1098.55 106.788L1105.85 102.474L1105.6 107.174L1109.82 107.403L1110.08 102.703L1116.87 107.781L1123.91 108.163L1124.37 99.7105L1115.92 99.2515L1119.99 102.298L1119.84 105.116L1111.69 99.0225L1120.45 93.8455L1120.22 98.0715L1124.45 98.3005Z" fill="black"/>
<path d="M1148.97 94.1646L1154.21 94.4496L1153.93 99.6156L1159.56 94.7396L1166.68 95.1266L1160.72 99.7146L1166.31 108.872L1159.66 108.511L1156.19 102.544L1153.66 104.698L1153.47 108.175L1148.22 107.89L1148.97 94.1646Z" fill="black"/>
<path d="M1168.33 95.2153L1183.86 96.0583L1183.68 99.5584L1173.39 99.0004L1173.3 100.523L1181.82 100.985L1181.63 104.485L1173.11 104.023L1173.02 105.731L1183.95 106.324L1183.76 109.824L1167.58 108.946L1168.33 95.2153Z" fill="black"/>
<path d="M1186.6 96.2065L1195.22 96.6744L1196.43 100.641C1196.76 101.748 1196.93 102.897 1196.93 104.052L1197.12 104.063C1197.26 102.918 1197.55 101.796 1197.98 100.724L1199.55 96.9095L1208.11 97.3735L1207.36 111.099L1202.12 110.814L1202.66 100.731L1202.58 100.726C1202.44 101.674 1202.18 102.602 1201.83 103.494L1198.8 110.635L1194.48 110.4L1192.2 102.97C1191.95 102.045 1191.79 101.096 1191.74 100.138H1191.65L1191.11 110.22L1185.86 109.937L1186.6 96.2065Z" fill="black"/>
<path d="M1216.82 107.485C1217.25 108.273 1217.92 108.597 1219.21 108.668C1220.45 108.735 1221.1 108.461 1221.13 107.884C1221.16 107.494 1220.96 107.276 1220.53 107.13C1219.27 106.8 1217.97 106.571 1216.67 106.446C1215.21 106.237 1213.78 105.876 1212.39 105.368C1211.64 105.144 1210.98 104.666 1210.53 104.013C1210.09 103.361 1209.88 102.574 1209.95 101.787C1210.11 98.6807 1213.23 97.2187 1218.99 97.5317C1221.91 97.6897 1224.05 98.2597 1225.4 99.2417C1225.93 99.6111 1226.37 100.09 1226.7 100.645C1227.03 101.2 1227.24 101.82 1227.31 102.462L1220.45 102.09C1220.17 101.208 1219.41 100.774 1218.06 100.701C1216.97 100.642 1216.27 100.954 1216.24 101.51C1216.2 102.189 1216.65 102.337 1220.86 102.999C1222.32 103.137 1223.76 103.493 1225.12 104.055C1225.86 104.332 1226.49 104.846 1226.91 105.518C1227.34 106.19 1227.53 106.982 1227.45 107.773C1227.28 111.046 1224.25 112.449 1218.1 112.116C1215.15 111.956 1212.95 111.444 1211.61 110.609C1210.97 110.28 1210.43 109.774 1210.06 109.151C1209.7 108.528 1209.51 107.813 1209.54 107.09L1216.82 107.485Z" fill="black"/>
<path d="M1247.22 113.221L1244.95 113.098L1244.34 111.578C1243.73 112.146 1242.99 112.553 1242.19 112.763C1240.7 113.148 1239.16 113.287 1237.62 113.175C1231.8 112.859 1228.69 110.09 1228.94 105.44C1228.96 104.365 1229.22 103.308 1229.73 102.358C1230.23 101.409 1230.96 100.594 1231.84 99.9827C1233.93 98.8298 1236.32 98.3468 1238.69 98.5997C1241.17 98.6054 1243.6 99.3553 1245.65 100.753C1246.24 101.167 1246.73 101.71 1247.09 102.34C1247.44 102.97 1247.65 103.671 1247.7 104.393L1241.47 104.055C1241.27 103.45 1240.88 102.928 1240.35 102.573C1239.82 102.219 1239.19 102.053 1238.56 102.102C1238.07 102.034 1237.57 102.076 1237.1 102.224C1236.62 102.372 1236.19 102.622 1235.82 102.957C1235.46 103.292 1235.17 103.703 1234.98 104.162C1234.8 104.62 1234.71 105.114 1234.74 105.609C1234.6 108.12 1236.01 109.599 1238.7 109.746C1240.47 109.846 1241.49 109.381 1241.94 108.312L1239.61 108.186L1239.77 105.201L1247.63 105.628L1247.22 113.221Z" fill="black"/>
<path d="M1250.37 99.6675L1260.53 100.219C1263.66 100.389 1264.56 100.603 1265.36 101.327C1265.78 101.734 1266.1 102.232 1266.3 102.783C1266.5 103.335 1266.56 103.924 1266.49 104.505C1266.5 105.443 1266.17 106.353 1265.57 107.075C1265.02 107.557 1264.33 107.839 1263.61 107.875C1265.63 108.584 1265.83 109.008 1265.77 112.533C1265.66 113.131 1265.76 113.746 1266.04 114.282L1260.55 113.983C1260.49 113.378 1260.47 112.77 1260.48 112.162C1260.54 109.297 1260.34 109.038 1258.12 108.917L1255.14 108.755L1254.87 113.674L1249.62 113.39L1250.37 99.6675ZM1258.77 106.047C1259.27 106.138 1259.79 106.088 1260.26 105.901C1260.45 105.777 1260.6 105.61 1260.7 105.414C1260.81 105.218 1260.86 104.999 1260.86 104.777C1260.92 103.789 1260.46 103.435 1258.96 103.354L1255.44 103.162L1255.3 105.863L1258.77 106.047Z" fill="black"/>
<path d="M1273.23 100.908L1280.16 101.284L1284.91 115.308L1279.17 114.996L1278.66 113.71L1273.06 113.41L1272.48 114.637L1266.99 114.337L1273.23 100.908ZM1277.82 110.156L1276.33 105.018L1274.2 109.96L1277.82 110.156Z" fill="black"/>
<path d="M1286.85 101.646L1297.1 102.203C1299.73 102.346 1300.81 102.631 1301.76 103.402C1302.26 103.872 1302.63 104.451 1302.86 105.094C1303.09 105.737 1303.17 106.425 1303.08 107.103C1303.11 107.853 1302.94 108.598 1302.58 109.258C1302.22 109.918 1301.69 110.469 1301.05 110.851C1300.07 111.351 1299.22 111.451 1296.65 111.313L1291.6 111.039L1291.35 115.65L1286.11 115.365L1286.85 101.646ZM1295.07 107.913C1295.66 108.022 1296.25 107.983 1296.81 107.802C1297.02 107.679 1297.19 107.506 1297.3 107.298C1297.42 107.091 1297.48 106.857 1297.48 106.62C1297.53 105.612 1297.01 105.273 1295.24 105.177L1291.93 104.997L1291.78 107.734L1295.07 107.913Z" fill="black"/>
<path d="M1305.12 102.639L1310.37 102.924L1310.11 107.759L1316.24 108.092L1316.5 103.256L1321.75 103.541L1321 117.266L1315.76 116.982L1316.05 111.59L1309.92 111.257L1309.62 116.649L1304.38 116.364L1305.12 102.639Z" fill="black"/>
<path d="M1324.61 103.695L1329.86 103.98L1329.11 117.705L1323.86 117.421L1324.61 103.695Z" fill="black"/>
<path d="M1350.42 113.724C1350.37 114.549 1350.1 115.345 1349.64 116.034C1349.18 116.722 1348.55 117.278 1347.81 117.647C1346.02 118.647 1344.07 118.947 1340.65 118.766C1337.3 118.584 1335.35 117.966 1333.8 116.578C1333.01 115.865 1332.41 114.979 1332.04 113.99C1331.67 113.002 1331.53 111.939 1331.65 110.889C1331.64 109.861 1331.88 108.847 1332.35 107.931C1332.81 107.015 1333.49 106.225 1334.33 105.627C1336.13 104.445 1338.34 104.008 1341.57 104.183C1345.29 104.383 1347.76 105.263 1349.31 106.873C1350.15 107.84 1350.62 109.086 1350.61 110.373L1344.58 110.046C1344.23 108.439 1343.36 107.792 1341.4 107.686C1338.93 107.552 1337.57 108.737 1337.44 111.124C1337.3 113.635 1338.6 115.15 1340.99 115.28C1341.84 115.377 1342.7 115.183 1343.43 114.732C1343.85 114.366 1344.18 113.911 1344.39 113.401L1350.42 113.724Z" fill="black"/>
<path d="M1358.92 115.196C1359.36 115.984 1360.02 116.308 1361.31 116.379C1362.55 116.446 1363.2 116.172 1363.24 115.596C1363.26 115.205 1363.06 114.987 1362.64 114.841C1361.37 114.511 1360.08 114.282 1358.77 114.157C1357.31 113.949 1355.88 113.587 1354.5 113.079C1353.74 112.855 1353.08 112.377 1352.64 111.724C1352.19 111.072 1351.98 110.285 1352.05 109.498C1352.22 106.392 1355.33 104.93 1361.09 105.243C1364.02 105.401 1366.15 105.971 1367.5 106.953C1368.03 107.322 1368.47 107.801 1368.8 108.356C1369.13 108.911 1369.34 109.531 1369.41 110.173L1362.56 109.801C1362.28 108.919 1361.52 108.485 1360.16 108.412C1359.07 108.353 1358.37 108.665 1358.34 109.221C1358.3 109.9 1358.75 110.048 1362.96 110.71C1364.43 110.848 1365.86 111.205 1367.22 111.767C1367.96 112.044 1368.6 112.558 1369.02 113.229C1369.44 113.901 1369.63 114.694 1369.56 115.484C1369.38 118.757 1366.36 120.16 1360.2 119.827C1357.26 119.667 1355.06 119.155 1353.72 118.32C1353.08 117.991 1352.54 117.485 1352.17 116.862C1351.8 116.239 1351.62 115.524 1351.64 114.801L1358.92 115.196Z" fill="black"/>
<path d="M1426.39 114.688L1426.78 107.644L1419.73 107.262L1412.43 111.576L1412.69 106.876L1408.46 106.647L1408.2 111.347L1401.42 106.269L1394.37 105.887L1393.99 112.931L1398.22 113.16L1398.44 108.934L1406.59 115.028L1397.83 120.204L1398.06 115.978L1393.84 115.749L1393.45 122.793L1400.5 123.175L1407.8 118.861L1407.54 123.561L1411.77 123.79L1412.02 119.09L1418.81 124.168L1425.86 124.55L1426.32 116.097L1417.86 115.638L1421.94 118.685L1421.78 121.503L1413.64 115.409L1422.4 110.232L1422.17 114.458L1426.39 114.688Z" fill="black"/>
<path d="M1450.91 110.549L1456.16 110.834L1455.88 115.999L1461.51 111.124L1468.63 111.51L1462.66 116.099L1468.26 125.256L1461.61 124.895L1458.14 118.928L1455.6 121.082L1455.42 124.559L1450.17 124.274L1450.91 110.549Z" fill="black"/>
<path d="M1470.28 111.601L1485.81 112.444L1485.62 115.944L1475.33 115.386L1475.25 116.909L1483.77 117.371L1483.58 120.871L1475.06 120.409L1474.97 122.117L1485.89 122.71L1485.7 126.21L1469.53 125.332L1470.28 111.601Z" fill="black"/>
<path d="M1488.55 112.591L1497.17 113.059L1498.38 117.025C1498.71 118.133 1498.88 119.282 1498.88 120.437L1499.06 120.447C1499.21 119.302 1499.5 118.181 1499.93 117.109L1501.49 113.294L1510.06 113.758L1509.31 127.483L1504.06 127.199L1504.61 117.116L1504.53 117.111C1504.38 118.059 1504.13 118.987 1503.78 119.878L1500.75 127.019L1496.43 126.784L1494.15 119.355C1493.89 118.43 1493.74 117.481 1493.68 116.523L1493.6 116.518L1493.05 126.601L1487.81 126.317L1488.55 112.591Z" fill="black"/>
<path d="M1518.77 123.869C1519.2 124.657 1519.87 124.981 1521.16 125.052C1522.39 125.119 1523.05 124.845 1523.08 124.268C1523.1 123.878 1522.91 123.661 1522.48 123.515C1521.21 123.184 1519.92 122.955 1518.62 122.83C1517.16 122.622 1515.73 122.261 1514.34 121.751C1513.58 121.528 1512.93 121.05 1512.48 120.398C1512.03 119.745 1511.83 118.959 1511.89 118.171C1512.06 115.065 1515.18 113.603 1520.94 113.916C1523.86 114.074 1526 114.644 1527.35 115.625C1527.87 115.995 1528.32 116.474 1528.65 117.029C1528.98 117.584 1529.18 118.204 1529.26 118.845L1522.4 118.474C1522.12 117.592 1521.36 117.158 1520 117.085C1518.91 117.025 1518.21 117.339 1518.18 117.895C1518.15 118.574 1518.59 118.722 1522.81 119.384C1524.27 119.522 1525.71 119.878 1527.06 120.439C1527.81 120.717 1528.44 121.231 1528.86 121.903C1529.28 122.575 1529.47 123.367 1529.4 124.157C1529.22 127.43 1526.2 128.833 1520.04 128.499C1517.1 128.34 1514.9 127.828 1513.56 126.992C1512.92 126.664 1512.38 126.158 1512.01 125.536C1511.64 124.913 1511.46 124.198 1511.48 123.474L1518.77 123.869Z" fill="black"/>
<path d="M1549.17 129.601L1546.9 129.478L1546.28 127.958C1545.68 128.526 1544.94 128.933 1544.13 129.143C1542.65 129.527 1541.1 129.667 1539.57 129.555C1533.75 129.239 1530.64 126.47 1530.89 121.82C1530.9 120.744 1531.17 119.688 1531.68 118.738C1532.18 117.789 1532.91 116.974 1533.79 116.363C1535.88 115.21 1538.26 114.727 1540.63 114.98C1543.12 114.985 1545.54 115.735 1547.6 117.133C1548.19 117.547 1548.68 118.089 1549.04 118.719C1549.39 119.349 1549.6 120.051 1549.65 120.773L1543.41 120.435C1543.22 119.829 1542.83 119.307 1542.3 118.953C1541.77 118.599 1541.14 118.432 1540.51 118.482C1540.02 118.414 1539.52 118.457 1539.04 118.604C1538.57 118.752 1538.14 119.003 1537.77 119.337C1537.41 119.672 1537.12 120.083 1536.93 120.542C1536.74 121 1536.66 121.494 1536.68 121.989C1536.55 124.499 1537.95 125.979 1540.65 126.126C1542.42 126.226 1543.43 125.761 1543.88 124.692L1541.56 124.565L1541.72 121.581L1549.58 122.008L1549.17 129.601Z" fill="black"/>
<path d="M1552.31 116.052L1562.48 116.603C1565.61 116.773 1566.5 116.987 1567.31 117.711C1567.73 118.118 1568.05 118.617 1568.25 119.168C1568.44 119.719 1568.51 120.309 1568.44 120.889C1568.44 121.828 1568.11 122.738 1567.52 123.46C1566.97 123.942 1566.28 124.224 1565.55 124.26C1567.58 124.969 1567.78 125.393 1567.71 128.918C1567.61 129.516 1567.71 130.13 1567.99 130.667L1562.5 130.367C1562.44 129.762 1562.42 129.155 1562.43 128.547C1562.48 125.682 1562.29 125.423 1560.07 125.302L1557.08 125.14L1556.82 130.059L1551.57 129.774L1552.31 116.052ZM1560.71 122.431C1561.22 122.523 1561.73 122.472 1562.21 122.285C1562.39 122.161 1562.54 121.994 1562.65 121.798C1562.75 121.603 1562.81 121.384 1562.81 121.162C1562.86 120.174 1562.41 119.819 1560.91 119.738L1557.39 119.547L1557.24 122.242L1560.71 122.431Z" fill="black"/>
<path d="M1575.18 117.292L1582.11 117.668L1586.86 131.693L1581.12 131.38L1580.61 130.094L1575.01 129.794L1574.43 131.021L1568.93 130.721L1575.18 117.292ZM1579.77 126.541L1578.27 121.402L1576.15 126.344L1579.77 126.541Z" fill="black"/>
<path d="M1588.8 118.031L1599.05 118.587C1601.68 118.73 1602.76 119.016 1603.71 119.787C1604.2 120.256 1604.58 120.836 1604.81 121.479C1605.04 122.121 1605.12 122.81 1605.04 123.487C1605.06 124.238 1604.89 124.983 1604.53 125.643C1604.17 126.302 1603.64 126.853 1602.99 127.235C1602.02 127.74 1601.17 127.835 1598.59 127.698L1593.55 127.424L1593.3 132.034L1588.06 131.749L1588.8 118.031ZM1597.03 124.298C1597.6 124.407 1598.2 124.368 1598.76 124.186C1598.97 124.064 1599.14 123.891 1599.25 123.683C1599.37 123.476 1599.43 123.242 1599.43 123.004C1599.48 121.996 1598.96 121.658 1597.19 121.562L1593.88 121.382L1593.73 124.119L1597.03 124.298Z" fill="black"/>
<path d="M1607.07 119.023L1612.32 119.307L1612.05 124.143L1618.19 124.476L1618.45 119.641L1623.69 119.926L1622.95 133.651L1617.7 133.365L1618 127.974L1611.86 127.641L1611.57 133.033L1606.32 132.749L1607.07 119.023Z" fill="black"/>
<path d="M1626.56 120.081L1631.8 120.366L1631.06 134.091L1625.81 133.806L1626.56 120.081Z" fill="black"/>
<path d="M1652.37 130.108C1652.31 130.933 1652.04 131.73 1651.59 132.419C1651.13 133.107 1650.5 133.663 1649.76 134.031C1647.97 135.031 1646.01 135.331 1642.6 135.15C1639.24 134.968 1637.3 134.35 1635.74 132.961C1634.96 132.25 1634.36 131.363 1633.99 130.375C1633.61 129.386 1633.48 128.324 1633.59 127.273C1633.59 126.246 1633.83 125.231 1634.29 124.315C1634.76 123.4 1635.44 122.609 1636.27 122.011C1638.07 120.829 1640.28 120.392 1643.51 120.567C1647.24 120.767 1649.71 121.647 1651.25 123.257C1652.1 124.225 1652.56 125.471 1652.55 126.757L1646.52 126.43C1646.17 124.823 1645.3 124.176 1643.35 124.07C1640.88 123.936 1639.51 125.121 1639.38 127.508C1639.25 130.018 1640.55 131.534 1642.94 131.663C1643.79 131.761 1644.65 131.568 1645.38 131.116C1645.8 130.751 1646.12 130.296 1646.34 129.785L1652.37 130.108Z" fill="black"/>
<path d="M1660.87 131.58C1661.3 132.368 1661.97 132.692 1663.26 132.763C1664.5 132.83 1665.15 132.556 1665.18 131.979C1665.2 131.589 1665.01 131.371 1664.58 131.225C1663.31 130.895 1662.02 130.667 1660.72 130.541C1659.26 130.333 1657.83 129.972 1656.44 129.463C1655.69 129.24 1655.03 128.762 1654.58 128.109C1654.14 127.457 1653.93 126.67 1654 125.882C1654.16 122.776 1657.28 121.314 1663.04 121.627C1665.96 121.785 1668.1 122.356 1669.45 123.338C1669.98 123.707 1670.42 124.186 1670.75 124.741C1671.08 125.296 1671.29 125.916 1671.36 126.557L1664.5 126.186C1664.22 125.304 1663.46 124.869 1662.1 124.796C1661.01 124.736 1660.32 125.049 1660.29 125.605C1660.25 126.284 1660.69 126.432 1664.91 127.094C1666.37 127.233 1667.81 127.589 1669.17 128.15C1669.91 128.428 1670.54 128.942 1670.96 129.614C1671.39 130.286 1671.58 131.078 1671.5 131.869C1671.33 135.142 1668.3 136.544 1662.15 136.21C1659.2 136.051 1657 135.539 1655.67 134.704C1655.02 134.375 1654.48 133.87 1654.11 133.247C1653.75 132.624 1653.56 131.909 1653.59 131.186L1660.87 131.58Z" fill="black"/>
<path d="M1728.34 131.073L1728.72 124.03L1721.68 123.647L1714.38 127.962L1714.63 123.261L1710.41 123.032L1710.15 127.733L1703.36 122.655L1696.32 122.272L1695.94 129.317L1700.16 129.546L1700.39 125.319L1708.54 131.413L1699.78 136.589L1700.01 132.364L1695.78 132.135L1695.4 139.178L1702.44 139.561L1709.74 135.246L1709.49 139.947L1713.72 140.176L1713.97 135.475L1720.76 140.553L1727.8 140.936L1728.26 132.483L1719.81 132.023L1723.88 135.07L1723.73 137.888L1715.58 131.794L1724.34 126.617L1724.11 130.844L1728.34 131.073Z" fill="black"/>
<path d="M1752.86 126.935L1758.11 127.22L1757.83 132.385L1763.46 127.51L1770.58 127.896L1764.61 132.485L1770.2 141.642L1763.56 141.281L1760.08 135.314L1757.55 137.467L1757.36 140.945L1752.11 140.66L1752.86 126.935Z" fill="black"/>
<path d="M1772.22 127.986L1787.76 128.829L1787.57 132.329L1777.28 131.77L1777.2 133.294L1785.72 133.756L1785.53 137.256L1777.01 136.794L1776.92 138.502L1787.84 139.094L1787.65 142.594L1771.48 141.716L1772.22 127.986Z" fill="black"/>
<path d="M1790.49 128.977L1799.12 129.445L1800.32 133.411C1800.65 134.518 1800.82 135.667 1800.82 136.823L1801.01 136.833C1801.15 135.688 1801.44 134.566 1801.87 133.495L1803.44 129.68L1812 130.144L1811.26 143.869L1806.01 143.585L1806.56 133.502L1806.47 133.497C1806.33 134.444 1806.08 135.372 1805.73 136.264L1802.7 143.405L1798.38 143.17L1796.1 135.741C1795.84 134.816 1795.69 133.866 1795.63 132.909L1795.55 132.904L1795 142.987L1789.75 142.702L1790.49 128.977Z" fill="black"/>
<path d="M1820.71 140.255C1821.15 141.043 1821.81 141.367 1823.11 141.437C1824.34 141.504 1825 141.23 1825.03 140.653C1825.05 140.262 1824.85 140.046 1824.43 139.9C1823.16 139.569 1821.87 139.34 1820.56 139.214C1819.1 139.007 1817.67 138.645 1816.29 138.136C1815.53 137.913 1814.87 137.435 1814.43 136.783C1813.98 136.13 1813.77 135.344 1813.84 134.557C1814.01 131.451 1817.12 129.989 1822.88 130.301C1825.81 130.459 1827.94 131.029 1829.29 132.01C1829.82 132.38 1830.26 132.859 1830.59 133.414C1830.92 133.969 1831.13 134.589 1831.2 135.23L1824.35 134.859C1824.07 133.976 1823.3 133.543 1821.95 133.47C1820.86 133.41 1820.16 133.724 1820.13 134.28C1820.09 134.958 1820.54 135.106 1824.76 135.768C1826.22 135.907 1827.65 136.263 1829.01 136.824C1829.75 137.102 1830.39 137.616 1830.81 138.288C1831.23 138.96 1831.42 139.752 1831.35 140.542C1831.17 143.814 1828.14 145.219 1821.99 144.885C1819.05 144.726 1816.85 144.213 1815.51 143.377C1814.86 143.049 1814.33 142.543 1813.96 141.92C1813.59 141.297 1813.41 140.582 1813.43 139.859L1820.71 140.255Z" fill="black"/>
<path d="M1851.11 145.991L1848.85 145.868L1848.23 144.348C1847.62 144.916 1846.88 145.323 1846.08 145.533C1844.59 145.917 1843.05 146.057 1841.52 145.945C1835.69 145.629 1832.58 142.86 1832.84 138.21C1832.85 137.135 1833.12 136.078 1833.62 135.128C1834.13 134.179 1834.85 133.364 1835.74 132.753C1837.82 131.6 1840.21 131.117 1842.58 131.37C1845.06 131.375 1847.49 132.125 1849.54 133.523C1850.13 133.937 1850.63 134.479 1850.98 135.109C1851.34 135.739 1851.55 136.441 1851.59 137.163L1845.36 136.825C1845.16 136.22 1844.77 135.698 1844.24 135.343C1843.72 134.988 1843.09 134.822 1842.45 134.871C1841.96 134.804 1841.46 134.846 1840.99 134.994C1840.52 135.142 1840.08 135.392 1839.72 135.727C1839.35 136.062 1839.06 136.473 1838.88 136.931C1838.69 137.39 1838.6 137.884 1838.63 138.379C1838.49 140.889 1839.9 142.369 1842.59 142.516C1844.36 142.616 1845.38 142.151 1845.83 141.082L1843.5 140.956L1843.67 137.971L1851.53 138.398L1851.11 145.991Z" fill="black"/>
<path d="M1854.26 132.437L1864.43 132.989C1867.55 133.159 1868.45 133.372 1869.26 134.096C1869.68 134.503 1870 135.002 1870.19 135.553C1870.39 136.104 1870.46 136.694 1870.39 137.275C1870.39 138.213 1870.06 139.123 1869.46 139.845C1868.92 140.327 1868.22 140.609 1867.5 140.646C1869.52 141.355 1869.73 141.778 1869.66 145.303C1869.56 145.901 1869.66 146.516 1869.94 147.052L1864.44 146.752C1864.38 146.148 1864.36 145.54 1864.38 144.932C1864.43 142.066 1864.24 141.809 1862.01 141.688L1859.03 141.526L1858.76 146.444L1853.52 146.159L1854.26 132.437ZM1862.66 138.817C1863.16 138.909 1863.68 138.858 1864.16 138.669C1864.34 138.546 1864.49 138.379 1864.6 138.184C1864.7 137.988 1864.75 137.769 1864.76 137.547C1864.81 136.559 1864.35 136.204 1862.85 136.122L1859.34 135.932L1859.19 138.627L1862.66 138.817Z" fill="black"/>
<path d="M1877.12 133.678L1884.06 134.054L1888.81 148.078L1883.06 147.766L1882.56 146.48L1876.96 146.18L1876.38 147.407L1870.88 147.107L1877.12 133.678ZM1881.72 142.926L1880.23 137.788L1878.1 142.729L1881.72 142.926Z" fill="black"/>
<path d="M1890.74 134.417L1900.99 134.973C1903.62 135.116 1904.7 135.401 1905.65 136.172C1906.15 136.642 1906.53 137.221 1906.76 137.864C1906.99 138.507 1907.06 139.195 1906.98 139.872C1907.01 140.623 1906.83 141.368 1906.47 142.028C1906.12 142.688 1905.58 143.238 1904.94 143.621C1903.96 144.126 1903.11 144.22 1900.54 144.083L1895.5 143.81L1895.25 148.419L1890 148.135L1890.74 134.417ZM1898.97 140.683C1899.55 140.792 1900.15 140.753 1900.71 140.572C1900.91 140.449 1901.08 140.276 1901.2 140.068C1901.31 139.861 1901.37 139.627 1901.37 139.39C1901.42 138.382 1900.91 138.044 1899.14 137.948L1895.82 137.767L1895.68 140.505L1898.97 140.683Z" fill="black"/>
<path d="M1909.02 135.409L1914.26 135.693L1914 140.529L1920.13 140.862L1920.4 136.026L1925.64 136.311L1924.9 150.036L1919.65 149.751L1919.94 144.36L1913.81 144.027L1913.52 149.419L1908.27 149.134L1909.02 135.409Z" fill="black"/>
</svg>
