<svg width="1920" height="166" viewBox="0 0 1920 166" fill="none" xmlns="http://www.w3.org/2000/svg">
<path d="M2055.06 2.41484L-71.8618 136.68L-70.0241 165.791L2056.9 31.5265L2055.06 2.41484Z" fill="white"/>
<path d="M886.031 89.1919L885.585 82.1519L878.545 82.5979L871.802 87.7379L871.502 83.0449L867.278 83.3129L867.578 88.0059L860.24 83.7589L853.2 84.2048L853.646 91.2449L857.87 90.9769L857.602 86.7529L866.407 91.8529L858.316 98.0199L858.048 93.7959L853.824 94.0638L854.27 101.104L861.311 100.658L868.054 95.5178L868.354 100.211L872.578 99.9429L872.278 95.2499L879.615 99.4968L886.656 99.0509L886.12 90.6029L877.672 91.1378L882.072 93.6859L882.25 96.5018L873.445 91.4019L881.537 85.2349L881.805 89.4589L886.031 89.1919Z" fill="black"/>
<path d="M909.896 82.2069L915.141 81.8739L915.468 87.0369L920.488 81.5369L927.604 81.0859L922.217 86.3419L928.843 94.7799L922.2 95.2009L918.051 89.6819L915.79 92.1179L916.01 95.5929L910.765 95.9259L909.896 82.2069Z" fill="black"/>
<path d="M929.249 80.981L944.775 80L944.996 83.5L934.713 84.152L934.813 85.674L943.327 85.135L943.549 88.635L935.034 89.174L935.143 90.881L946.063 90.189L946.285 93.689L930.12 94.714L929.249 80.981Z" fill="black"/>
<path d="M947.511 79.8239L956.128 79.2778L957.793 83.0779C958.25 84.139 958.551 85.2606 958.686 86.4078L958.871 86.3959C958.879 85.242 959.035 84.0939 959.336 82.9799L960.447 79.0068L969.003 78.4648L969.872 92.1829L964.627 92.5149L963.989 82.4379H963.907C963.874 83.3957 963.734 84.3466 963.487 85.2728L961.316 92.7198L956.998 92.9939L953.863 85.8829C953.5 84.9944 953.232 84.0698 953.063 83.1249L952.981 83.1299L953.619 93.2069L948.375 93.5388L947.511 79.8239Z" fill="black"/>
<path d="M978.844 87.4809C979.366 88.2129 980.063 88.4579 981.358 88.3749C982.592 88.2969 983.21 87.9489 983.174 87.3749C983.149 86.9839 982.93 86.7909 982.49 86.6949C981.193 86.5162 979.883 86.4406 978.574 86.4689C977.1 86.4331 975.635 86.2421 974.201 85.899C973.422 85.7659 972.713 85.3679 972.194 84.7722C971.674 84.1766 971.377 83.4198 971.351 82.6299C971.151 79.5299 974.075 77.7089 979.833 77.3439C982.753 77.1586 984.941 77.4743 986.398 78.2909C986.967 78.5961 987.464 79.0194 987.856 79.5323C988.248 80.0451 988.526 80.6359 988.672 81.2649L981.823 81.6989C981.439 80.8559 980.633 80.5149 979.276 80.5989C978.186 80.6679 977.529 81.0599 977.564 81.6159C977.607 82.2939 978.064 82.3889 982.332 82.5529C983.801 82.5184 985.267 82.7038 986.682 83.1029C987.453 83.2911 988.14 83.7276 988.639 84.3454C989.137 84.9631 989.417 85.7276 989.438 86.5209C989.646 89.7919 986.804 91.541 980.654 91.93C977.714 92.117 975.468 91.8669 974.041 91.1929C973.362 90.9417 972.769 90.5028 972.33 89.9272C971.892 89.3515 971.626 88.6629 971.564 87.9419L978.844 87.4809Z" fill="black"/>
<path d="M1009.71 89.6151L1007.44 89.7582L1006.65 88.3212C1006.11 88.9561 1005.43 89.4473 1004.65 89.7501C1003.22 90.3062 1001.71 90.625 1000.17 90.6941C994.351 91.0631 990.937 88.6772 990.643 84.0302C990.529 82.9614 990.672 81.8807 991.062 80.8787C991.451 79.8767 992.074 78.9826 992.88 78.2711C994.816 76.8816 997.132 76.1218 999.515 76.0951C1001.98 75.8095 1004.48 76.27 1006.68 77.4171C1007.32 77.7594 1007.87 78.2404 1008.3 78.8245C1008.72 79.4086 1009.01 80.081 1009.15 80.7921L1002.91 81.1922C1002.65 80.6139 1002.2 80.1414 1001.63 79.8511C1001.07 79.5608 1000.42 79.4696 999.798 79.5922C999.303 79.5832 998.812 79.6835 998.359 79.8859C997.907 80.0883 997.505 80.3878 997.182 80.7632C996.859 81.1386 996.623 81.5807 996.49 82.0579C996.357 82.5351 996.331 83.0358 996.413 83.5242C996.572 86.0332 998.141 87.3381 1000.83 87.1671C1002.6 87.0551 1003.56 86.4781 1003.88 85.3671L1001.56 85.5142L1001.37 82.5311L1009.22 82.0311L1009.71 89.6151Z" fill="black"/>
<path d="M1011.24 75.7861L1021.4 75.1421C1024.53 74.9421 1025.45 75.0521 1026.33 75.6761C1026.8 76.0309 1027.17 76.4884 1027.43 77.0131C1027.69 77.5377 1027.82 78.1151 1027.82 78.7001C1027.94 79.6319 1027.72 80.5738 1027.21 81.3611C1026.72 81.9039 1026.07 82.2658 1025.35 82.3871C1027.45 82.8541 1027.7 83.2511 1028.04 86.7601C1028.15 87.8061 1028.18 87.9691 1028.52 88.4601L1023.03 88.8081C1022.9 88.2141 1022.81 87.6131 1022.75 87.0082C1022.47 84.1562 1022.25 83.9221 1020.03 84.0631L1017.05 84.2521L1017.36 89.1671L1012.11 89.5001L1011.24 75.7861ZM1020.34 81.1361C1020.85 81.1679 1021.35 81.0572 1021.8 80.8162C1021.97 80.6715 1022.1 80.4876 1022.18 80.2808C1022.26 80.0739 1022.29 79.8505 1022.27 79.6301C1022.2 78.6431 1021.71 78.3441 1020.21 78.4391L1016.69 78.6621L1016.86 81.3561L1020.34 81.1361Z" fill="black"/>
<path d="M1034.09 74.3379L1041.02 73.8989L1047.38 87.2689L1041.65 87.6329L1040.99 86.4149L1035.4 86.7689L1034.96 88.0559L1029.47 88.4039L1034.09 74.3379ZM1039.74 82.9839L1037.65 78.0559L1036.12 83.2129L1039.74 82.9839Z" fill="black"/>
<path d="M1047.71 73.4753L1057.95 72.8273C1060.58 72.6603 1061.69 72.8183 1062.72 73.4743C1063.27 73.8825 1063.71 74.4145 1064.02 75.0271C1064.32 75.6398 1064.48 76.3158 1064.48 77.0003C1064.59 77.7423 1064.51 78.5021 1064.23 79.1994C1063.95 79.8967 1063.49 80.5055 1062.89 80.9614C1061.98 81.5774 1061.14 81.7743 1058.57 81.9373L1053.53 82.2563L1053.83 86.8633L1048.58 87.1952L1047.71 73.4753ZM1056.61 78.7353C1057.2 78.7742 1057.79 78.666 1058.32 78.4203C1058.51 78.2748 1058.66 78.0826 1058.75 77.8631C1058.84 77.6435 1058.87 77.4041 1058.84 77.1683C1058.78 76.1613 1058.22 75.8863 1056.45 75.9983L1053.14 76.2083L1053.32 78.9433L1056.61 78.7353Z" fill="black"/>
<path d="M1065.97 72.3181L1071.21 71.9861L1071.52 76.8191L1077.65 76.4312L1077.34 71.5981L1082.59 71.2661L1083.46 84.9841L1078.21 85.3162L1077.87 79.9271L1071.74 80.3151L1072.08 85.7041L1066.84 86.0361L1065.97 72.3181Z" fill="black"/>
<path d="M1085.45 71.084L1090.69 70.752L1091.56 84.47L1086.31 84.802L1085.45 71.084Z" fill="black"/>
<path d="M1112.25 78.0179C1112.3 78.8431 1112.12 79.6654 1111.75 80.4024C1111.38 81.1394 1110.81 81.7654 1110.12 82.2179C1108.47 83.4179 1106.56 83.9509 1103.14 84.1679C1099.79 84.3799 1097.79 83.9909 1096.08 82.7979C1095.22 82.1822 1094.52 81.3721 1094.03 80.4336C1093.54 79.4952 1093.29 78.455 1093.28 77.3979C1093.15 76.3782 1093.27 75.3427 1093.62 74.3785C1093.98 73.4143 1094.56 72.5498 1095.32 71.858C1096.97 70.474 1099.11 69.7799 1102.34 69.5749C1106.07 69.3389 1108.62 69.9219 1110.34 71.3399C1111.3 72.2009 1111.9 73.3824 1112.04 74.66L1106.02 75.0419C1105.48 73.4859 1104.54 72.9419 1102.59 73.0699C1100.12 73.2269 1098.9 74.5629 1099.05 76.9489C1099.21 79.4579 1100.68 80.811 1103.07 80.659C1103.93 80.656 1104.76 80.3635 1105.43 79.8289C1105.8 79.4169 1106.08 78.9268 1106.23 78.3949L1112.25 78.0179Z" fill="black"/>
<path d="M1120.87 78.483C1121.4 79.215 1122.09 79.4589 1123.39 79.3769C1124.62 79.2989 1125.24 78.9499 1125.2 78.3769C1125.18 77.9869 1124.96 77.793 1124.52 77.698C1123.22 77.5185 1121.91 77.4426 1120.6 77.4709C1119.13 77.4357 1117.67 77.2451 1116.23 76.902C1115.45 76.7689 1114.74 76.3709 1114.22 75.7752C1113.71 75.1796 1113.41 74.4229 1113.38 73.633C1113.18 70.533 1116.11 68.712 1121.86 68.347C1124.78 68.1624 1126.97 68.4779 1128.43 69.2939C1129 69.5988 1129.49 70.0221 1129.89 70.535C1130.28 71.048 1130.56 71.6387 1130.7 72.2679L1123.85 72.702C1123.47 71.859 1122.66 71.518 1121.31 71.602C1120.22 71.671 1119.56 72.063 1119.6 72.619C1119.64 73.297 1120.1 73.392 1124.36 73.555C1125.83 73.5211 1127.3 73.7067 1128.71 74.1059C1129.48 74.294 1130.17 74.7306 1130.67 75.3484C1131.17 75.9661 1131.45 76.7307 1131.47 77.524C1131.68 80.794 1128.83 82.543 1122.68 82.933C1119.74 83.119 1117.5 82.869 1116.07 82.196C1115.39 81.9449 1114.8 81.5059 1114.36 80.9303C1113.92 80.3546 1113.66 79.666 1113.59 78.9449L1120.87 78.483Z" fill="black"/>
<path d="M584.245 108.312L583.799 101.272L576.759 101.718L570.016 106.858L569.716 102.165L565.492 102.433L565.792 107.126L558.455 102.879L551.415 103.325L551.861 110.365L556.085 110.097L555.817 105.873L564.622 110.973L556.531 117.14L556.263 112.916L552.039 113.184L552.485 120.224L559.526 119.778L566.269 114.639L566.569 119.332L570.793 119.064L570.493 114.371L577.83 118.618L584.87 118.172L584.335 109.724L575.887 110.259L580.287 112.807L580.465 115.623L571.66 110.523L579.751 104.356L580.019 108.58L584.245 108.312Z" fill="black"/>
<path d="M608.111 101.327L613.355 100.995L613.682 106.158L618.702 100.658L625.818 100.207L620.431 105.463L627.058 113.901L620.415 114.322L616.265 108.803L614.004 111.239L614.224 114.715L608.98 115.047L608.111 101.327Z" fill="black"/>
<path d="M627.463 100.1L642.99 99.1162L643.212 102.616L632.929 103.268L633.029 104.79L641.544 104.251L641.765 107.751L633.251 108.29L633.359 109.997L644.279 109.305L644.501 112.805L628.336 113.829L627.463 100.1Z" fill="black"/>
<path d="M645.725 98.944L654.343 98.3979L656.008 102.198C656.464 103.259 656.764 104.381 656.9 105.528L657.085 105.517C657.093 104.363 657.25 103.214 657.55 102.1L658.661 98.127L667.217 97.585L668.086 111.303L662.842 111.635L662.203 101.558L662.121 101.563C662.089 102.521 661.948 103.472 661.702 104.398L659.531 111.845L655.212 112.119L652.077 105.008C651.716 104.119 651.45 103.195 651.283 102.25L651.2 102.255L651.839 112.332L646.594 112.665L645.725 98.944Z" fill="black"/>
<path d="M677.059 106.6C677.58 107.332 678.277 107.577 679.573 107.5C680.806 107.421 681.424 107.073 681.388 106.5C681.363 106.109 681.144 105.916 680.705 105.821C679.407 105.641 678.098 105.565 676.788 105.594C675.315 105.559 673.849 105.368 672.416 105.024C671.637 104.891 670.928 104.494 670.409 103.898C669.89 103.303 669.592 102.546 669.566 101.756C669.366 98.6564 672.289 96.8344 678.048 96.4694C680.968 96.2841 683.156 96.5997 684.612 97.4164C685.181 97.7215 685.678 98.1446 686.071 98.6575C686.463 99.1704 686.741 99.7613 686.886 100.39L680.037 100.824C679.653 99.9814 678.847 99.6404 677.49 99.7244C676.4 99.7934 675.743 100.186 675.778 100.741C675.821 101.419 676.278 101.514 680.546 101.678C682.015 101.644 683.481 101.829 684.896 102.228C685.667 102.417 686.355 102.853 686.853 103.471C687.351 104.089 687.632 104.853 687.653 105.646C687.86 108.917 685.018 110.666 678.869 111.055C675.928 111.242 673.682 110.992 672.256 110.319C671.577 110.068 670.984 109.629 670.545 109.054C670.106 108.478 669.84 107.789 669.778 107.068L677.059 106.6Z" fill="black"/>
<path d="M707.919 108.735L705.656 108.878L704.863 107.441C704.328 108.076 703.642 108.567 702.869 108.87C701.436 109.426 699.921 109.745 698.385 109.814C692.565 110.183 689.152 107.797 688.857 103.15C688.743 102.082 688.886 101.001 689.275 99.9989C689.665 98.9969 690.288 98.1028 691.094 97.3913C693.03 96.0018 695.346 95.242 697.729 95.2153C700.196 94.9295 702.692 95.39 704.895 96.5373C705.532 96.8796 706.085 97.3606 706.511 97.9447C706.938 98.5288 707.228 99.2012 707.36 99.9123L701.128 100.312C700.864 99.734 700.414 99.2615 699.848 98.9712C699.283 98.6808 698.636 98.5897 698.012 98.7124C697.517 98.7033 697.026 98.8034 696.574 99.0057C696.122 99.208 695.72 99.5075 695.397 99.8828C695.073 100.258 694.837 100.7 694.704 101.177C694.571 101.654 694.544 102.155 694.627 102.643C694.786 105.152 696.355 106.457 699.049 106.286C700.818 106.174 701.773 105.597 702.095 104.486L699.77 104.633L699.581 101.65L707.438 101.15L707.919 108.735Z" fill="black"/>
<path d="M709.458 94.9062L719.618 94.2622C722.744 94.0622 723.659 94.1723 724.545 94.7963C725.01 95.1509 725.387 95.6084 725.646 96.1331C725.906 96.6577 726.04 97.2351 726.038 97.8202C726.151 98.752 725.933 99.694 725.422 100.481C724.938 101.024 724.284 101.386 723.567 101.507C725.661 101.974 725.913 102.371 726.259 105.88C726.367 106.927 726.398 107.089 726.739 107.58L721.248 107.928C721.12 107.334 721.027 106.733 720.969 106.128C720.685 103.277 720.463 103.042 718.242 103.183L715.26 103.372L715.572 108.287L710.327 108.62L709.458 94.9062ZM718.552 100.256C719.061 100.289 719.569 100.178 720.018 99.9363C720.186 99.7918 720.316 99.608 720.397 99.4014C720.478 99.1947 720.506 98.9715 720.48 98.7512C720.418 97.7632 719.924 97.4642 718.423 97.5592L714.906 97.7822L715.076 100.482L718.552 100.256Z" fill="black"/>
<path d="M732.307 93.4585L739.237 93.0195L745.598 106.39L739.86 106.754L739.204 105.536L733.61 105.89L733.176 107.177L727.685 107.525L732.307 93.4585ZM737.954 102.104L735.867 97.1765L734.335 102.333L737.954 102.104Z" fill="black"/>
<path d="M745.921 92.6003L756.163 91.9513C758.795 91.7843 759.9 91.9423 760.933 92.5993C761.481 93.0076 761.925 93.5394 762.229 94.1515C762.534 94.7636 762.69 95.4387 762.684 96.1222C762.802 96.8644 762.716 97.6246 762.437 98.3222C762.158 99.0197 761.695 99.6286 761.097 100.084C760.186 100.699 759.352 100.896 756.781 101.059L751.743 101.378L752.034 105.985L746.79 106.318L745.921 92.6003ZM754.821 97.8593C755.41 97.8986 756 97.7903 756.536 97.5442C756.724 97.3989 756.871 97.207 756.962 96.9873C757.053 96.7677 757.085 96.5281 757.055 96.2923C756.991 95.2853 756.437 95.0102 754.669 95.1222L751.357 95.3323L751.531 98.0673L754.821 97.8593Z" fill="black"/>
<path d="M764.183 91.4392L769.428 91.1062L769.734 95.9392L775.863 95.5513L775.556 90.7183L780.801 90.3862L781.67 104.104L776.426 104.436L776.084 99.0472L769.955 99.4363L770.297 104.824L765.052 105.157L764.183 91.4392Z" fill="black"/>
<path d="M783.659 90.2002L788.904 89.8672L789.773 103.585L784.529 103.918L783.659 90.2002Z" fill="black"/>
<path d="M810.467 97.1382C810.511 97.9633 810.337 98.7855 809.963 99.5226C809.59 100.26 809.029 100.886 808.338 101.338C806.679 102.538 804.772 103.072 801.358 103.288C798.006 103.5 795.999 103.111 794.292 101.918C793.433 101.302 792.732 100.492 792.245 99.5538C791.758 98.6154 791.5 97.5752 791.492 96.5182C791.364 95.4985 791.482 94.463 791.838 93.4989C792.194 92.5347 792.776 91.6703 793.536 90.9783C795.183 89.5943 797.328 88.9002 800.557 88.6952C804.279 88.4602 806.835 89.0422 808.557 90.4602C809.511 91.3211 810.116 92.5026 810.257 93.7803L804.23 94.1622C803.698 92.6062 802.755 92.0672 800.802 92.1902C798.334 92.3472 797.118 93.6832 797.269 96.0692C797.428 98.5782 798.897 99.9313 801.283 99.7803C802.142 99.7765 802.974 99.4837 803.646 98.9492C804.017 98.5377 804.291 98.0475 804.446 97.5152L810.467 97.1382Z" fill="black"/>
<path d="M819.085 97.6002C819.607 98.3322 820.304 98.5762 821.599 98.4942C822.833 98.4162 823.451 98.0682 823.414 97.4942C823.39 97.1042 823.171 96.9112 822.731 96.8152C821.434 96.6363 820.124 96.5605 818.815 96.5882C817.341 96.5531 815.875 96.3624 814.442 96.0193C813.663 95.8862 812.954 95.4882 812.434 94.8925C811.915 94.2969 811.618 93.5401 811.592 92.7502C811.392 89.6502 814.316 87.8292 820.074 87.4642C822.994 87.2795 825.182 87.5952 826.638 88.4112C827.207 88.7163 827.705 89.1394 828.097 89.6523C828.489 90.1652 828.767 90.7561 828.913 91.3852L822.064 91.8192C821.68 90.9762 820.874 90.6352 819.516 90.7192C818.426 90.7882 817.77 91.1802 817.805 91.7362C817.848 92.4142 818.305 92.5092 822.573 92.6732C824.042 92.6387 825.509 92.8241 826.923 93.2232C827.694 93.4114 828.382 93.8479 828.88 94.4657C829.378 95.0834 829.659 95.8479 829.679 96.6412C829.887 99.9122 827.044 101.661 820.895 102.05C817.954 102.236 815.709 101.987 814.282 101.313C813.603 101.062 813.01 100.623 812.571 100.047C812.133 99.4718 811.867 98.7833 811.805 98.0622L819.085 97.6002Z" fill="black"/>
<path d="M282.459 127.432L282.013 120.392L274.973 120.838L268.23 125.978L267.93 121.285L263.706 121.553L264.006 126.246L256.669 121.999L249.629 122.445L250.075 129.485L254.299 129.217L254.031 124.993L262.836 130.093L254.745 136.26L254.477 132.036L250.253 132.304L250.699 139.344L257.739 138.898L264.482 133.758L264.782 138.451L269.006 138.183L268.706 133.49L276.043 137.737L283.083 137.291L282.548 128.843L274.1 129.378L278.5 131.926L278.678 134.742L269.873 129.642L277.964 123.475L278.232 127.699L282.459 127.432Z" fill="black"/>
<path d="M306.325 120.447L311.569 120.115L311.896 125.278L316.917 119.778L324.032 119.327L318.646 124.583L325.272 133.022L318.629 133.442L314.48 127.924L312.218 130.359L312.438 133.835L307.194 134.167L306.325 120.447Z" fill="black"/>
<path d="M325.675 119.221L341.203 118.237L341.424 121.737L331.141 122.389L331.241 123.911L339.755 123.372L339.976 126.872L331.462 127.411L331.57 129.118L342.491 128.426L342.712 131.926L326.547 132.95L325.675 119.221Z" fill="black"/>
<path d="M343.94 118.064L352.557 117.518L354.222 121.318C354.678 122.38 354.979 123.501 355.115 124.648L355.3 124.637C355.308 123.483 355.464 122.334 355.765 121.22L356.876 117.247L365.431 116.705L366.3 130.423L361.056 130.755L360.418 120.678L360.335 120.683C360.303 121.641 360.163 122.592 359.916 123.518L357.745 130.965L353.426 131.239L350.291 124.128C349.93 123.239 349.664 122.315 349.497 121.37L349.415 121.375L350.053 131.453L344.809 131.785L343.94 118.064Z" fill="black"/>
<path d="M375.275 125.722C375.796 126.453 376.493 126.698 377.789 126.616C379.023 126.538 379.641 126.189 379.604 125.616C379.579 125.225 379.361 125.032 378.921 124.937C377.623 124.757 376.313 124.681 375.004 124.71C373.53 124.674 372.065 124.483 370.632 124.14C369.853 124.008 369.144 123.61 368.624 123.014C368.105 122.419 367.808 121.662 367.782 120.872C367.582 117.772 370.505 115.95 376.264 115.585C379.184 115.4 381.372 115.715 382.828 116.532C383.397 116.837 383.894 117.26 384.286 117.773C384.679 118.286 384.957 118.877 385.102 119.506L378.254 119.94C377.87 119.097 377.064 118.756 375.706 118.84C374.616 118.909 373.96 119.302 373.995 119.857C374.038 120.536 374.495 120.631 378.762 120.794C380.231 120.76 381.698 120.946 383.112 121.344C383.883 121.532 384.571 121.969 385.069 122.587C385.567 123.205 385.848 123.97 385.869 124.763C386.076 128.033 383.234 129.782 377.085 130.172C374.144 130.358 371.898 130.108 370.472 129.435C369.793 129.184 369.2 128.745 368.761 128.169C368.322 127.594 368.056 126.905 367.994 126.184L375.275 125.722Z" fill="black"/>
<path d="M406.133 127.855L403.871 127.998L403.078 126.562C402.541 127.197 401.853 127.688 401.078 127.99C399.645 128.547 398.131 128.866 396.595 128.934C390.775 129.303 387.361 126.917 387.067 122.27C386.953 121.201 387.096 120.121 387.485 119.119C387.874 118.117 388.498 117.223 389.303 116.511C391.239 115.122 393.555 114.362 395.938 114.335C398.406 114.05 400.902 114.51 403.105 115.657C403.742 116 404.294 116.481 404.72 117.065C405.147 117.649 405.437 118.321 405.57 119.032L399.337 119.432C399.074 118.854 398.623 118.381 398.058 118.091C397.493 117.801 396.846 117.71 396.222 117.832C395.727 117.823 395.236 117.923 394.783 118.125C394.331 118.328 393.928 118.627 393.605 119.003C393.282 119.378 393.045 119.82 392.912 120.298C392.779 120.775 392.753 121.276 392.836 121.764C392.995 124.272 394.564 125.577 397.259 125.406C399.027 125.294 399.982 124.718 400.304 123.606L397.98 123.754L397.791 120.771L405.647 120.271L406.133 127.855Z" fill="black"/>
<path d="M407.675 114.026L417.835 113.382C420.961 113.182 421.876 113.292 422.762 113.917C423.228 114.272 423.604 114.729 423.863 115.254C424.122 115.778 424.256 116.355 424.255 116.94C424.368 117.872 424.15 118.814 423.639 119.601C423.155 120.144 422.501 120.506 421.784 120.628C423.878 121.094 424.13 121.491 424.477 125C424.584 126.047 424.615 126.209 424.956 126.7L419.465 127.048C419.337 126.454 419.244 125.853 419.186 125.248C418.902 122.397 418.686 122.162 416.459 122.303L413.477 122.492L413.789 127.408L408.545 127.74L407.675 114.026ZM416.769 119.376C417.278 119.409 417.787 119.298 418.236 119.056C418.404 118.912 418.534 118.728 418.615 118.521C418.695 118.315 418.724 118.092 418.698 117.871C418.635 116.883 418.141 116.584 416.64 116.68L413.123 116.902L413.294 119.602L416.769 119.376Z" fill="black"/>
<path d="M430.521 112.578L437.452 112.139L443.812 125.509L438.074 125.873L437.419 124.655L431.824 125.009L431.39 126.296L425.899 126.644L430.521 112.578ZM436.169 121.224L434.081 116.297L432.549 121.453L436.169 121.224Z" fill="black"/>
<path d="M444.135 111.716L454.377 111.068C457.01 110.901 458.114 111.058 459.147 111.715C459.695 112.124 460.14 112.655 460.444 113.267C460.749 113.88 460.904 114.555 460.898 115.239C461.016 115.981 460.93 116.741 460.651 117.438C460.371 118.136 459.909 118.745 459.311 119.2C458.4 119.815 457.566 120.013 454.996 120.176L449.957 120.495L450.249 125.101L445.004 125.434L444.135 111.716ZM453.035 116.976C453.624 117.015 454.213 116.907 454.749 116.661C454.937 116.515 455.085 116.323 455.176 116.104C455.267 115.884 455.299 115.644 455.269 115.408C455.205 114.401 454.651 114.127 452.882 114.239L449.571 114.449L449.744 117.184L453.035 116.976Z" fill="black"/>
<path d="M462.398 110.559L467.642 110.226L467.948 115.06L474.077 114.671L473.771 109.838L479.015 109.506L479.884 123.224L474.64 123.556L474.298 118.167L468.17 118.556L468.511 123.944L463.267 124.277L462.398 110.559Z" fill="black"/>
<path d="M481.875 109.325L487.119 108.993L487.988 122.71L482.744 123.043L481.875 109.325Z" fill="black"/>
<path d="M508.681 116.258C508.725 117.083 508.551 117.906 508.178 118.643C507.804 119.38 507.244 120.006 506.552 120.458C504.893 121.658 502.986 122.192 499.573 122.408C496.22 122.62 494.213 122.231 492.506 121.039C491.647 120.423 490.946 119.613 490.459 118.674C489.973 117.736 489.715 116.696 489.706 115.639C489.578 114.619 489.697 113.584 490.053 112.62C490.409 111.656 490.991 110.791 491.751 110.099C493.397 108.715 495.542 108.021 498.771 107.817C502.493 107.581 505.05 108.163 506.771 109.581C507.726 110.442 508.331 111.623 508.471 112.901L502.445 113.283C501.913 111.727 500.97 111.188 499.016 111.311C496.548 111.468 495.332 112.804 495.483 115.19C495.642 117.699 497.111 119.052 499.497 118.901C500.356 118.897 501.188 118.605 501.86 118.07C502.231 117.659 502.505 117.168 502.66 116.636L508.681 116.258Z" fill="black"/>
<path d="M517.3 116.723C517.821 117.455 518.518 117.7 519.814 117.617C521.047 117.539 521.665 117.191 521.629 116.617C521.604 116.227 521.385 116.034 520.946 115.938C519.648 115.76 518.339 115.684 517.029 115.712C515.556 115.676 514.09 115.485 512.657 115.142C511.878 115.01 511.169 114.612 510.649 114.016C510.13 113.42 509.832 112.663 509.807 111.873C509.607 108.773 512.53 106.952 518.289 106.587C521.209 106.403 523.397 106.718 524.853 107.534C525.422 107.839 525.92 108.262 526.312 108.775C526.704 109.288 526.982 109.879 527.127 110.508L520.278 110.942C519.894 110.099 519.088 109.758 517.731 109.842C516.641 109.911 515.984 110.303 516.019 110.859C516.062 111.537 516.519 111.632 520.787 111.796C522.256 111.762 523.723 111.947 525.137 112.346C525.908 112.534 526.596 112.971 527.094 113.588C527.592 114.206 527.873 114.971 527.894 115.764C528.101 119.035 525.259 120.784 519.109 121.173C516.169 121.36 513.923 121.11 512.497 120.436C511.818 120.185 511.224 119.746 510.785 119.171C510.347 118.595 510.081 117.906 510.019 117.185L517.3 116.723Z" fill="black"/>
<path d="M4.53906 139.567L9.78418 139.235L10.1113 144.398L15.1309 138.898L22.2471 138.447L16.8599 143.703L23.4863 152.142L16.8433 152.563L12.6943 147.044L10.4321 149.479L10.6533 152.955L5.4082 153.287L4.53906 139.567Z" fill="black"/>
<path d="M23.8921 138.341L39.4189 137.357L39.6401 140.857L29.3569 141.508L29.457 143.03L37.9712 142.491L38.1929 145.991L29.6782 146.531L29.7871 148.238L40.707 147.546L40.9292 151.046L24.7642 152.07L23.8921 138.341Z" fill="black"/>
<path d="M42.1543 137.184L50.771 136.638L52.436 140.438C52.8925 141.5 53.1934 142.622 53.3291 143.769L53.5142 143.757C53.5223 142.603 53.6784 141.455 53.979 140.34L55.0903 136.367L63.646 135.825L64.5151 149.543L59.27 149.876L58.6323 139.798L58.5493 139.803C58.5175 140.761 58.3765 141.713 58.1299 142.639L55.959 150.085L51.6401 150.359L48.5059 143.248C48.1442 142.36 47.8778 141.435 47.7109 140.49H47.6289L48.2671 150.568L43.0229 150.9L42.1543 137.184Z" fill="black"/>
<path d="M73.4872 144.842C74.0092 145.573 74.7058 145.818 76.0008 145.736C77.2348 145.658 77.8528 145.309 77.8158 144.736C77.7918 144.345 77.5731 144.152 77.1331 144.057C75.8359 143.878 74.5264 143.802 73.2171 143.83C71.7435 143.795 70.2776 143.604 68.8441 143.261C68.0652 143.128 67.3561 142.73 66.8368 142.134C66.3175 141.539 66.0198 140.782 65.994 139.992C65.794 136.892 68.7179 135.07 74.4759 134.706C77.3959 134.521 79.5839 134.836 81.0399 135.653C81.6093 135.958 82.107 136.381 82.4994 136.894C82.8917 137.407 83.1697 137.998 83.3148 138.627L76.4662 139.06C76.0822 138.218 75.2758 137.876 73.9178 137.96C72.8278 138.03 72.1719 138.422 72.2069 138.978C72.2499 139.656 72.7069 139.751 76.9749 139.914C78.4442 139.881 79.9103 140.066 81.325 140.464C82.096 140.653 82.7835 141.09 83.2816 141.707C83.7796 142.325 84.0604 143.09 84.0809 143.883C84.2889 147.153 81.4457 148.902 75.2967 149.292C72.3557 149.478 70.1109 149.228 68.6839 148.555C68.0053 148.304 67.4121 147.865 66.9735 147.289C66.5349 146.714 66.269 146.025 66.2069 145.304L73.4872 144.842Z" fill="black"/>
<path d="M104.348 146.975L102.085 147.119L101.292 145.682C100.755 146.318 100.067 146.808 99.292 147.11C97.8592 147.667 96.3449 147.986 94.8091 148.054C88.9891 148.423 85.5753 146.038 85.2813 141.39C85.167 140.321 85.3105 139.241 85.6998 138.239C86.089 137.237 86.7123 136.343 87.5181 135.631C89.4539 134.242 91.7708 133.483 94.1534 133.456C96.6204 133.17 99.1165 133.63 101.319 134.777C101.956 135.12 102.509 135.601 102.935 136.185C103.362 136.769 103.652 137.441 103.784 138.152L97.5523 138.552C97.2882 137.974 96.8368 137.502 96.2715 137.212C95.7062 136.921 95.0597 136.83 94.4361 136.952C93.9407 136.943 93.4493 137.043 92.9971 137.245C92.5449 137.448 92.1431 137.747 91.8199 138.123C91.4966 138.498 91.2604 138.94 91.1275 139.418C90.9946 139.895 90.9686 140.396 91.0513 140.884C91.2093 143.392 92.7792 144.697 95.4732 144.527C97.2422 144.415 98.1971 143.838 98.5181 142.727L96.1944 142.875L96.0049 139.892L103.862 139.392L104.348 146.975Z" fill="black"/>
<path d="M105.887 133.146L116.047 132.502C119.172 132.302 120.088 132.412 120.974 133.037C121.439 133.392 121.815 133.849 122.074 134.374C122.333 134.898 122.467 135.475 122.466 136.06C122.58 136.992 122.362 137.935 121.85 138.722C121.366 139.264 120.712 139.626 119.995 139.748C122.089 140.214 122.342 140.611 122.688 144.12C122.796 145.167 122.827 145.329 123.168 145.82L117.676 146.168C117.548 145.574 117.454 144.973 117.397 144.368C117.113 141.516 116.897 141.282 114.671 141.422L111.689 141.611L112 146.527L106.756 146.859L105.887 133.146ZM114.981 138.497C115.49 138.529 115.998 138.418 116.447 138.176C116.615 138.031 116.745 137.848 116.826 137.641C116.906 137.434 116.935 137.211 116.909 136.991C116.846 136.003 116.352 135.705 114.851 135.8L111.334 136.023L111.505 138.717L114.981 138.497Z" fill="black"/>
<path d="M128.735 131.7L135.666 131.26L142.026 144.63L136.288 144.994L135.633 143.776L130.039 144.131L129.604 145.417L124.113 145.765L128.735 131.7ZM134.383 140.345L132.295 135.418L130.763 140.574L134.383 140.345Z" fill="black"/>
<path d="M142.35 130.836L152.591 130.187C155.224 130.02 156.328 130.178 157.361 130.835C157.91 131.243 158.353 131.775 158.658 132.387C158.962 132.999 159.118 133.675 159.112 134.358C159.23 135.1 159.144 135.86 158.865 136.558C158.586 137.255 158.123 137.864 157.526 138.32C156.615 138.936 155.78 139.132 153.21 139.295L148.171 139.614L148.463 144.222L143.219 144.554L142.35 130.836ZM151.25 136.095C151.839 136.134 152.428 136.026 152.965 135.781C153.153 135.635 153.3 135.443 153.391 135.224C153.482 135.004 153.513 134.765 153.484 134.529C153.42 133.522 152.866 133.246 151.097 133.358L147.786 133.568L147.959 136.304L151.25 136.095Z" fill="black"/>
<path d="M160.612 129.679L165.856 129.347L166.163 134.18L172.291 133.791L171.985 128.958L177.229 128.626L178.098 142.344L172.854 142.676L172.513 137.288L166.384 137.676L166.725 143.065L161.481 143.397L160.612 129.679Z" fill="black"/>
<path d="M180.088 128.445L185.332 128.113L186.202 141.831L180.957 142.163L180.088 128.445Z" fill="black"/>
<path d="M206.896 135.378C206.939 136.204 206.766 137.026 206.392 137.763C206.018 138.5 205.458 139.126 204.766 139.578C203.108 140.778 201.201 141.312 197.787 141.528C194.434 141.741 192.428 141.351 190.72 140.159C189.861 139.543 189.16 138.733 188.673 137.795C188.187 136.856 187.928 135.816 187.92 134.759C187.791 133.74 187.91 132.704 188.266 131.74C188.622 130.776 189.204 129.911 189.964 129.219C191.611 127.835 193.755 127.141 196.984 126.937C200.707 126.701 203.263 127.283 204.984 128.701C205.938 129.563 206.543 130.744 206.684 132.021L200.658 132.403C200.126 130.847 199.183 130.308 197.229 130.432C194.761 130.588 193.545 131.924 193.696 134.311C193.855 136.819 195.325 138.172 197.71 138.021C198.569 138.018 199.401 137.725 200.073 137.19C200.444 136.778 200.718 136.288 200.873 135.756L206.896 135.378Z" fill="black"/>
<path d="M215.514 135.843C216.035 136.575 216.732 136.82 218.028 136.743C219.262 136.664 219.88 136.316 219.843 135.743C219.818 135.352 219.6 135.159 219.16 135.064C217.862 134.884 216.553 134.808 215.243 134.837C213.77 134.801 212.304 134.61 210.871 134.267C210.092 134.134 209.383 133.737 208.864 133.141C208.344 132.546 208.046 131.789 208.021 130.999C207.821 127.899 210.744 126.077 216.503 125.712C219.423 125.528 221.611 125.843 223.067 126.659C223.636 126.964 224.134 127.387 224.526 127.9C224.918 128.413 225.196 129.004 225.341 129.633L218.493 130.067C218.109 129.224 217.303 128.883 215.945 128.967C214.855 129.036 214.198 129.429 214.234 129.984C214.277 130.662 214.734 130.757 219.001 130.921C220.47 130.887 221.936 131.072 223.351 131.471C224.122 131.659 224.81 132.096 225.308 132.714C225.806 133.331 226.087 134.096 226.108 134.889C226.315 138.16 223.473 139.909 217.324 140.298C214.383 140.485 212.137 140.235 210.711 139.561C210.032 139.31 209.439 138.871 209 138.296C208.562 137.72 208.295 137.032 208.233 136.311L215.514 135.843Z" fill="black"/>
<path d="M1187.82 70.0713L1187.37 63.0312L1180.33 63.4773L1173.59 68.6162L1173.29 63.9232L1169.06 64.1913L1169.36 68.8843L1162.02 64.6372L1154.98 65.0833L1155.43 72.1233L1159.66 71.8552L1159.39 67.6312L1168.19 72.7312L1160.1 78.8982L1159.83 74.6742L1155.61 74.9423L1156.06 81.9823L1163.1 81.5363L1169.84 76.3962L1170.14 81.0892L1174.36 80.8213L1174.06 76.1283L1181.4 80.3752L1188.44 79.9292L1187.91 71.4812L1179.46 72.0162L1183.86 74.5642L1184.04 77.3802L1175.23 72.2803L1183.32 66.1133L1183.59 70.3373L1187.82 70.0713Z" fill="black"/>
<path d="M1211.68 63.0873L1216.93 62.7543L1217.25 67.9172L1222.27 62.4172L1229.39 61.9673L1224 67.2223L1230.63 75.6613L1223.99 76.0823L1219.84 70.5632L1217.58 73.0002L1217.79 76.4752L1212.55 76.8073L1211.68 63.0873Z" fill="black"/>
<path d="M1231.03 61.86L1246.56 60.877L1246.78 64.377L1236.5 65.028L1236.6 66.551L1245.11 66.011L1245.33 69.511L1236.82 70.05L1236.93 71.757L1247.85 71.0649L1248.07 74.5649L1231.91 75.589L1231.03 61.86Z" fill="black"/>
<path d="M1249.3 60.7002L1257.91 60.1543L1259.58 63.9542C1260.04 65.0159 1260.34 66.1378 1260.47 67.2853L1260.66 67.2732C1260.67 66.1193 1260.82 64.9713 1261.12 63.8573L1262.23 59.8843L1270.79 59.3423L1271.66 73.0603L1266.41 73.3922L1265.77 63.3152L1265.69 63.3202C1265.66 64.278 1265.52 65.2292 1265.27 66.1553L1263.1 73.6023L1258.78 73.8752L1255.65 66.7653C1255.29 65.876 1255.02 64.9512 1254.85 64.0062L1254.77 64.0122L1255.41 74.0892L1250.17 74.4213L1249.3 60.7002Z" fill="black"/>
<path d="M1280.63 68.3612C1281.15 69.0932 1281.85 69.3373 1283.14 69.2553C1284.38 69.1773 1285 68.8293 1284.96 68.2553C1284.93 67.8653 1284.72 67.6723 1284.28 67.5763C1282.98 67.3976 1281.67 67.3216 1280.36 67.3493C1278.89 67.3143 1277.42 67.1236 1275.99 66.7803C1275.21 66.6475 1274.5 66.2494 1273.98 65.6537C1273.46 65.058 1273.16 64.3012 1273.14 63.5113C1272.94 60.4113 1275.86 58.5902 1281.62 58.2252C1284.54 58.0399 1286.73 58.3556 1288.18 59.1723C1288.75 59.4772 1289.25 59.9003 1289.64 60.4132C1290.03 60.9262 1290.31 61.5171 1290.46 62.1463L1283.61 62.5802C1283.22 61.7372 1282.42 61.3963 1281.06 61.4803C1279.97 61.5493 1279.31 61.9412 1279.35 62.4972C1279.39 63.1752 1279.85 63.2702 1284.12 63.4342C1285.59 63.3997 1287.05 63.5852 1288.47 63.9843C1289.24 64.1724 1289.93 64.609 1290.42 65.2267C1290.92 65.8444 1291.2 66.609 1291.22 67.4022C1291.43 70.6732 1288.59 72.4223 1282.44 72.8113C1279.5 72.9973 1277.25 72.7482 1275.83 72.0742C1275.15 71.8232 1274.55 71.3843 1274.12 70.8086C1273.68 70.233 1273.41 69.5443 1273.35 68.8233L1280.63 68.3612Z" fill="black"/>
<path d="M1311.49 70.4953L1309.23 70.6383L1308.44 69.2014C1307.9 69.8368 1307.21 70.3277 1306.44 70.6293C1305 71.1862 1303.49 71.5054 1301.95 71.5743C1296.13 71.9423 1292.72 69.5574 1292.42 64.9094C1292.31 63.8407 1292.45 62.7601 1292.84 61.7581C1293.23 60.7562 1293.85 59.862 1294.66 59.1503C1296.6 57.7611 1298.91 57.0017 1301.29 56.9753C1303.76 56.689 1306.26 57.1496 1308.46 58.2973C1309.1 58.6399 1309.65 59.121 1310.08 59.705C1310.5 60.2891 1310.79 60.9613 1310.93 61.6723L1304.7 62.0664C1304.43 61.4882 1303.98 61.0158 1303.41 60.7255C1302.85 60.4352 1302.2 60.3439 1301.58 60.4663C1301.08 60.4573 1300.59 60.5577 1300.14 60.7601C1299.69 60.9625 1299.29 61.262 1298.96 61.6374C1298.64 62.0128 1298.4 62.4548 1298.27 62.932C1298.14 63.4091 1298.11 63.9098 1298.19 64.3983C1298.35 66.9073 1299.92 68.2123 1302.62 68.0413C1304.39 67.9293 1305.34 67.3523 1305.66 66.2413L1303.34 66.3883L1303.15 63.4053L1311 62.9053L1311.49 70.4953Z" fill="black"/>
<path d="M1313.03 56.6652L1323.19 56.0222C1326.31 55.8222 1327.23 55.9312 1328.12 56.5562C1328.58 56.911 1328.96 57.3685 1329.22 57.8931C1329.48 58.4177 1329.61 58.9951 1329.61 59.5801C1329.72 60.5119 1329.5 61.4539 1328.99 62.2411C1328.51 62.7836 1327.85 63.1454 1327.14 63.2671C1329.23 63.7341 1329.48 64.1312 1329.83 67.6402C1329.94 68.6862 1329.97 68.8491 1330.31 69.3401L1324.82 69.6882C1324.69 69.0942 1324.6 68.4931 1324.54 67.8881C1324.26 65.0361 1324.04 64.8022 1321.81 64.9432L1318.83 65.1321L1319.14 70.0472L1313.9 70.3792L1313.03 56.6652ZM1322.12 62.0162C1322.63 62.0485 1323.14 61.9373 1323.59 61.6951C1323.76 61.5505 1323.89 61.367 1323.97 61.1603C1324.05 60.9537 1324.08 60.7304 1324.05 60.5102C1323.99 59.5232 1323.5 59.2242 1321.99 59.3192L1318.48 59.5422L1318.65 62.2361L1322.12 62.0162Z" fill="black"/>
<path d="M1335.88 55.2183L1342.81 54.7793L1349.17 68.1493L1343.43 68.5122L1342.77 67.2942L1337.18 67.6493L1336.74 68.9363L1331.25 69.2843L1335.88 55.2183ZM1341.52 63.8633L1339.44 58.9363L1337.9 64.0933L1341.52 63.8633Z" fill="black"/>
<path d="M1349.49 54.3552L1359.73 53.7063C1362.37 53.5403 1363.47 53.6972 1364.5 54.3542C1365.05 54.7625 1365.5 55.2944 1365.8 55.9067C1366.11 56.519 1366.26 57.1946 1366.25 57.8783C1366.37 58.6203 1366.29 59.3802 1366.01 60.0776C1365.73 60.775 1365.27 61.3838 1364.67 61.8392C1363.76 62.4552 1362.92 62.6522 1360.35 62.8142L1355.31 63.1343L1355.61 67.7412L1350.36 68.0732L1349.49 54.3552ZM1358.39 59.6142C1358.98 59.6541 1359.57 59.5462 1360.11 59.3003C1360.29 59.155 1360.44 58.963 1360.53 58.7434C1360.62 58.5238 1360.66 58.2841 1360.63 58.0482C1360.56 57.0412 1360.01 56.7663 1358.24 56.8783L1354.93 57.0873L1355.1 59.8232L1358.39 59.6142Z" fill="black"/>
<path d="M1367.75 53.2L1373 52.868L1373.31 57.701L1379.43 57.313L1379.13 52.48L1384.37 52.147L1385.24 65.865L1380 66.198L1379.66 60.809L1373.53 61.197L1373.87 66.5861L1368.62 66.918L1367.75 53.2Z" fill="black"/>
<path d="M1387.23 51.9639L1392.48 51.6318L1393.34 65.3499L1388.1 65.6819L1387.23 51.9639Z" fill="black"/>
<path d="M1414.04 58.9003C1414.08 59.7254 1413.91 60.5476 1413.53 61.2847C1413.16 62.0217 1412.6 62.6477 1411.91 63.1002C1410.25 64.3002 1408.34 64.8333 1404.93 65.0503C1401.58 65.2623 1399.57 64.8733 1397.86 63.6803C1397 63.0644 1396.3 62.2542 1395.82 61.3158C1395.33 60.3774 1395.07 59.3373 1395.06 58.2803C1394.93 57.2606 1395.05 56.225 1395.41 55.2608C1395.76 54.2967 1396.35 53.4321 1397.11 52.7402C1398.75 51.3552 1400.9 50.6623 1404.13 50.4573C1407.85 50.2213 1410.41 50.8033 1412.13 52.2223C1413.08 53.0831 1413.69 54.2646 1413.83 55.5422L1407.8 55.9242C1407.27 54.3682 1406.33 53.8243 1404.37 53.9523C1401.9 54.1083 1400.69 55.4453 1400.84 57.8313C1401 60.3403 1402.47 61.6922 1404.85 61.5412C1405.71 61.5378 1406.54 61.2454 1407.22 60.7113C1407.59 60.2991 1407.86 59.8086 1408.02 59.2762L1414.04 58.9003Z" fill="black"/>
<path d="M1422.66 59.3632C1423.18 60.0942 1423.87 60.3391 1425.17 60.2571C1426.4 60.1791 1427.02 59.8301 1426.99 59.2571C1426.96 58.8661 1426.74 58.6732 1426.3 58.5782C1425.01 58.3988 1423.7 58.3228 1422.39 58.3511C1420.91 58.3161 1419.45 58.1254 1418.01 57.7821C1417.24 57.6491 1416.53 57.2511 1416.01 56.6554C1415.49 56.0598 1415.19 55.303 1415.16 54.5131C1414.96 51.4131 1417.89 49.5912 1423.65 49.2272C1426.57 49.0419 1428.75 49.3574 1430.21 50.1741C1430.78 50.4788 1431.28 50.9019 1431.67 51.4148C1432.06 51.9278 1432.34 52.5188 1432.48 53.1481L1425.64 53.5812C1425.25 52.7392 1424.44 52.3971 1423.09 52.4811C1422 52.5511 1421.34 52.9432 1421.38 53.4992C1421.42 54.1772 1421.88 54.2722 1426.14 54.4352C1427.61 54.4017 1429.08 54.587 1430.49 54.9851C1431.27 55.1733 1431.95 55.61 1432.45 56.2279C1432.95 56.8459 1433.23 57.6107 1433.25 58.4042C1433.46 61.6742 1430.62 63.4231 1424.47 63.8131C1421.53 63.9991 1419.28 63.7492 1417.85 63.0762C1417.17 62.8252 1416.58 62.3862 1416.14 61.8106C1415.7 61.2349 1415.44 60.5463 1415.38 59.8251L1422.66 59.3632Z" fill="black"/>
<path d="M1489.6 50.9512L1489.16 43.9111L1482.12 44.3572L1475.37 49.4971L1475.07 44.8041L1470.85 45.0721L1471.15 49.7651L1463.81 45.5181L1456.77 45.9641L1457.22 53.0042L1461.44 52.7361L1461.17 48.5121L1469.98 53.6122L1461.89 59.7792L1461.62 55.5552L1457.4 55.8231L1457.84 62.8632L1464.88 62.4171L1471.62 57.2781L1471.93 61.9711L1476.15 61.7031L1475.85 57.0101L1483.19 61.2571L1490.23 60.8112L1489.69 52.3632L1481.24 52.8981L1485.64 55.4462L1485.82 58.2621L1477.02 53.1621L1485.11 46.9951L1485.38 51.2191L1489.6 50.9512Z" fill="black"/>
<path d="M1513.47 43.9662L1518.71 43.6343L1519.04 48.7972L1524.06 43.2972L1531.18 42.8462L1525.79 48.1023L1532.42 56.5413L1525.77 56.9623L1521.62 51.4432L1519.36 53.8783L1519.58 57.3542L1514.34 57.6863L1513.47 43.9662Z" fill="black"/>
<path d="M1532.82 42.7399L1548.35 41.7559L1548.57 45.2559L1538.29 45.9069L1538.39 47.4299L1546.9 46.8899L1547.12 50.3899L1538.61 50.9299L1538.72 52.6368L1549.64 51.9448L1549.86 55.4448L1533.69 56.4689L1532.82 42.7399Z" fill="black"/>
<path d="M1551.08 41.5831L1559.7 41.0371L1561.37 44.8372C1561.82 45.899 1562.12 47.0207 1562.26 48.1681L1562.44 48.1561C1562.45 47.002 1562.61 45.8536 1562.91 44.7391L1564.02 40.7671L1572.57 40.2251L1573.44 53.9431L1568.2 54.2751L1567.56 44.1971L1567.48 44.2031C1567.45 45.1609 1567.3 46.1118 1567.06 47.0381L1564.89 54.4851L1560.57 54.7582L1557.43 47.6481C1557.07 46.759 1556.81 45.8342 1556.64 44.8892L1556.56 44.8942L1557.2 54.9722L1551.95 55.3041L1551.08 41.5831Z" fill="black"/>
<path d="M1582.42 49.2411C1582.94 49.9731 1583.63 50.2172 1584.93 50.1352C1586.16 50.0572 1586.78 49.7082 1586.74 49.1352C1586.72 48.7452 1586.5 48.5512 1586.06 48.4562C1584.76 48.2768 1583.45 48.2008 1582.14 48.2292C1580.67 48.1942 1579.21 48.0035 1577.77 47.6602C1576.99 47.5272 1576.28 47.1291 1575.77 46.5335C1575.25 45.9378 1574.95 45.181 1574.92 44.3911C1574.72 41.2911 1577.65 39.4701 1583.41 39.1051C1586.33 38.9198 1588.51 39.2355 1589.97 40.0522C1590.54 40.3571 1591.04 40.7803 1591.43 41.2932C1591.82 41.8062 1592.1 42.397 1592.24 43.0261L1585.39 43.4601C1585.01 42.6171 1584.2 42.2761 1582.85 42.3601C1581.76 42.4291 1581.1 42.8211 1581.14 43.3771C1581.18 44.0551 1581.64 44.1501 1585.9 44.3131C1587.37 44.2792 1588.84 44.4649 1590.25 44.8642C1591.02 45.0521 1591.71 45.4886 1592.21 46.1063C1592.71 46.7241 1592.99 47.4887 1593.01 48.2821C1593.22 51.5521 1590.37 53.3012 1584.23 53.6912C1581.28 53.8772 1579.04 53.6271 1577.61 52.9541C1576.93 52.7031 1576.34 52.2642 1575.9 51.6885C1575.46 51.1128 1575.2 50.4243 1575.14 49.7032L1582.42 49.2411Z" fill="black"/>
<path d="M1613.27 51.3742L1611.01 51.5182L1610.22 50.0813C1609.68 50.7154 1609 51.2062 1608.22 51.5092C1606.79 52.0661 1605.28 52.385 1603.74 52.4532C1597.92 52.8222 1594.51 50.4372 1594.21 45.7892C1594.1 44.7204 1594.24 43.6399 1594.63 42.638C1595.02 41.6361 1595.64 40.7419 1596.45 40.0302C1598.39 38.6405 1600.7 37.881 1603.08 37.8552C1605.55 37.5689 1608.05 38.0294 1610.25 39.1772C1610.89 39.5194 1611.44 40.0001 1611.87 40.5841C1612.29 41.168 1612.58 41.8403 1612.72 42.5512L1606.48 42.9513C1606.22 42.373 1605.77 41.9005 1605.2 41.6102C1604.64 41.3199 1603.99 41.2286 1603.37 41.3512C1602.87 41.3422 1602.38 41.4426 1601.93 41.645C1601.48 41.8474 1601.08 42.1469 1600.75 42.5223C1600.43 42.8977 1600.19 43.3398 1600.06 43.817C1599.93 44.2942 1599.9 44.7947 1599.98 45.2832C1600.14 47.7922 1601.71 49.0972 1604.41 48.9262C1606.17 48.8142 1607.13 48.2372 1607.45 47.1262L1605.13 47.2732L1604.94 44.2903L1612.79 43.7903L1613.27 51.3742Z" fill="black"/>
<path d="M1614.81 37.5451L1624.98 36.902C1628.1 36.702 1629.02 36.8111 1629.9 37.4361C1630.37 37.7905 1630.74 38.2478 1631 38.7723C1631.26 39.2968 1631.4 39.8741 1631.4 40.459C1631.51 41.3912 1631.29 42.3335 1630.78 43.121C1630.29 43.663 1629.64 44.0247 1628.92 44.147C1631.02 44.613 1631.27 45.0101 1631.62 48.5191C1631.72 49.5661 1631.76 49.7291 1632.1 50.2191L1626.6 50.5671C1626.48 49.9731 1626.38 49.372 1626.33 48.767C1626.04 45.915 1625.82 45.6811 1623.6 45.8221L1620.62 46.0101L1620.93 50.9261L1615.68 51.2581L1614.81 37.5451ZM1623.91 42.8961C1624.42 42.9285 1624.93 42.8172 1625.38 42.575C1625.54 42.4305 1625.67 42.2469 1625.75 42.0402C1625.83 41.8336 1625.86 41.6103 1625.84 41.3901C1625.77 40.4031 1625.28 40.104 1623.78 40.199L1620.26 40.4221L1620.43 43.116L1623.91 42.8961Z" fill="black"/>
<path d="M1637.66 36.1001L1644.59 35.6611L1650.96 49.0311L1645.22 49.3942L1644.56 48.1761L1638.97 48.5311L1638.53 49.8181L1633.04 50.1661L1637.66 36.1001ZM1643.31 44.7451L1641.22 39.8181L1639.69 44.9751L1643.31 44.7451Z" fill="black"/>
<path d="M1651.27 35.235L1661.52 34.5861C1664.15 34.4191 1665.25 34.577 1666.29 35.234C1666.84 35.6426 1667.28 36.1745 1667.58 36.7868C1667.89 37.399 1668.04 38.0744 1668.04 38.7581C1668.16 39.5001 1668.07 40.26 1667.79 40.9574C1667.51 41.6548 1667.05 42.2636 1666.45 42.719C1665.54 43.335 1664.71 43.531 1662.14 43.694L1657.1 44.013L1657.39 48.621L1652.14 48.953L1651.27 35.235ZM1660.18 40.4941C1660.76 40.534 1661.35 40.4261 1661.89 40.1801C1662.08 40.0347 1662.22 39.8427 1662.32 39.6231C1662.41 39.4035 1662.44 39.1638 1662.41 38.928C1662.35 37.921 1661.79 37.645 1660.02 37.757L1656.71 37.9671L1656.89 40.703L1660.18 40.4941Z" fill="black"/>
<path d="M1669.54 34.0784L1674.79 33.7463L1675.09 38.5793L1681.22 38.1914L1680.91 33.3584L1686.16 33.0254L1687.03 46.7434L1681.78 47.0753L1681.44 41.6874L1675.31 42.0753L1675.65 47.4644L1670.41 47.7964L1669.54 34.0784Z" fill="black"/>
<path d="M1689.02 32.8442L1694.26 32.5122L1695.13 46.2302L1689.89 46.5623L1689.02 32.8442Z" fill="black"/>
<path d="M1715.82 39.7781C1715.87 40.6032 1715.69 41.4254 1715.32 42.1625C1714.95 42.8995 1714.39 43.5256 1713.7 43.9781C1712.04 45.1781 1710.13 45.7121 1706.72 45.9281C1703.36 46.1411 1701.36 45.7521 1699.65 44.5591C1698.79 43.943 1698.09 43.1328 1697.6 42.1944C1697.12 41.2561 1696.86 40.2161 1696.85 39.1592C1696.72 38.1397 1696.84 37.1043 1697.2 36.1404C1697.55 35.1764 1698.13 34.312 1698.89 33.6201C1700.54 32.2351 1702.68 31.5411 1705.91 31.3371C1709.64 31.1011 1712.19 31.6832 1713.91 33.1022C1714.87 33.9631 1715.47 35.1445 1715.61 36.4221L1709.59 36.8031C1709.05 35.2481 1708.11 34.7081 1706.16 34.8321C1703.69 34.9881 1702.47 36.3252 1702.63 38.7112C1702.78 41.2202 1704.25 42.5721 1706.64 42.4211C1707.5 42.4181 1708.33 42.1252 1709 41.5901C1709.37 41.1786 1709.65 40.6884 1709.8 40.1561L1715.82 39.7781Z" fill="black"/>
<path d="M1724.44 40.2432C1724.96 40.9742 1725.66 41.2191 1726.96 41.1371C1728.19 41.0591 1728.81 40.7101 1728.77 40.1371C1728.75 39.7461 1728.53 39.5532 1728.09 39.4582C1726.79 39.278 1725.48 39.202 1724.17 39.2311C1722.7 39.1953 1721.23 39.0043 1719.8 38.6612C1719.02 38.5283 1718.31 38.1306 1717.79 37.5351C1717.27 36.9396 1716.97 36.1828 1716.95 35.3931C1716.75 32.2931 1719.67 30.4711 1725.43 30.1061C1728.35 29.9208 1730.54 30.2365 1732 31.0531C1732.56 31.3584 1733.06 31.7817 1733.45 32.2946C1733.85 32.8075 1734.12 33.3981 1734.27 34.0271L1727.42 34.4612C1727.04 33.6182 1726.23 33.2771 1724.87 33.3611C1723.78 33.4301 1723.13 33.8232 1723.16 34.3782C1723.2 35.0572 1723.66 35.1521 1727.93 35.3151C1729.4 35.2816 1730.87 35.467 1732.28 35.8651C1733.05 36.0536 1733.74 36.4904 1734.24 37.1083C1734.73 37.7262 1735.02 38.4909 1735.04 39.2842C1735.24 42.5542 1732.4 44.3031 1726.25 44.6931C1723.31 44.8791 1721.07 44.6292 1719.64 43.9562C1718.96 43.7051 1718.37 43.266 1717.93 42.6903C1717.49 42.1147 1717.22 41.4261 1717.16 40.7051L1724.44 40.2432Z" fill="black"/>
<path d="M1791.39 31.8311L1790.94 24.791L1783.9 25.2371L1777.16 30.377L1776.86 25.684L1772.64 25.952L1772.94 30.645L1765.6 26.3979L1758.56 26.844L1759 33.884L1763.23 33.616L1762.96 29.392L1771.76 34.4919L1763.67 40.6591L1763.4 36.4351L1759.18 36.703L1759.62 43.743L1766.66 43.297L1773.41 38.157L1773.71 42.85L1777.93 42.582L1777.63 37.889L1784.97 42.136L1792.01 41.6899L1791.47 33.2419L1783.02 33.777L1787.42 36.325L1787.6 39.141L1778.8 34.041L1786.89 27.874L1787.16 32.098L1791.39 31.8311Z" fill="black"/>
<path d="M1815.25 24.8461L1820.5 24.5142L1820.83 29.6771L1825.85 24.1771L1832.96 23.7261L1827.57 28.9822L1834.2 37.4211L1827.56 37.8422L1823.41 32.3231L1821.15 34.7582L1821.37 38.2341L1816.12 38.5662L1815.25 24.8461Z" fill="black"/>
<path d="M1834.61 23.6202L1850.13 22.6362L1850.35 26.1362L1840.07 26.7872L1840.17 28.3092L1848.69 27.7703L1848.91 31.2703L1840.39 31.8103L1840.5 33.5172L1851.42 32.8252L1851.64 36.3252L1835.48 37.3383L1834.61 23.6202Z" fill="black"/>
<path d="M1852.87 22.463L1861.48 21.917L1863.15 25.717C1863.61 26.7785 1863.91 27.9004 1864.04 29.048L1864.23 29.036C1864.24 27.8818 1864.39 26.7334 1864.69 25.619L1865.8 21.646L1874.36 21.104L1875.23 34.822L1869.98 35.155L1869.35 25.077L1869.26 25.082C1869.23 26.0401 1869.09 26.9914 1868.85 27.918L1866.67 35.364L1862.35 35.6379L1859.22 28.527C1858.86 27.6385 1858.59 26.714 1858.43 25.769L1858.34 25.774L1858.98 35.8521L1853.74 36.184L1852.87 22.463Z" fill="black"/>
<path d="M1884.2 30.1212C1884.72 30.8522 1885.42 31.0972 1886.72 31.0152C1887.95 30.9372 1888.57 30.5882 1888.53 30.0152C1888.51 29.6242 1888.29 29.4313 1887.85 29.3363C1886.55 29.1569 1885.24 29.081 1883.93 29.1092C1882.46 29.0744 1880.99 28.8837 1879.56 28.5403C1878.78 28.4073 1878.07 28.0092 1877.55 27.4135C1877.03 26.8179 1876.73 26.0611 1876.71 25.2712C1876.51 22.1712 1879.43 20.3492 1885.19 19.9852C1888.11 19.8005 1890.3 20.1162 1891.75 20.9322C1892.32 21.2373 1892.82 21.6605 1893.21 22.1734C1893.61 22.6863 1893.88 23.2771 1894.03 23.9062L1887.18 24.3402C1886.8 23.4972 1885.99 23.1552 1884.63 23.2402C1883.54 23.3102 1882.89 23.7023 1882.92 24.2583C1882.96 24.9363 1883.42 25.0312 1887.69 25.1942C1889.16 25.1607 1890.62 25.3461 1892.04 25.7442C1892.81 25.9327 1893.5 26.3695 1894 26.9874C1894.49 27.6053 1894.77 28.3697 1894.8 29.1632C1895 32.4332 1892.16 34.1822 1886.01 34.5722C1883.07 34.7582 1880.82 34.5082 1879.4 33.8352C1878.72 33.5839 1878.13 33.1449 1877.69 32.5693C1877.25 31.9937 1876.98 31.3052 1876.92 30.5842L1884.2 30.1212Z" fill="black"/>
<path d="M1915.06 32.254L1912.8 32.3979L1912.01 30.961C1911.47 31.5957 1910.78 32.0865 1910.01 32.389C1908.58 32.946 1907.06 33.2648 1905.53 33.333C1899.71 33.702 1896.3 31.3169 1896 26.6689C1895.89 25.6001 1896.03 24.5195 1896.42 23.5176C1896.81 22.5156 1897.43 21.6214 1898.24 20.91C1900.17 19.5203 1902.49 18.7608 1904.87 18.735C1907.34 18.449 1909.84 18.9092 1912.04 20.056C1912.68 20.3984 1913.23 20.8794 1913.65 21.4635C1914.08 22.0476 1914.37 22.7199 1914.5 23.431L1908.27 23.831C1908.01 23.2528 1907.56 22.7803 1906.99 22.49C1906.43 22.1997 1905.78 22.1084 1905.16 22.2309C1904.66 22.2218 1904.17 22.322 1903.72 22.5244C1903.26 22.7268 1902.86 23.0263 1902.54 23.4017C1902.22 23.7772 1901.98 24.2193 1901.85 24.6965C1901.71 25.1738 1901.69 25.6745 1901.77 26.1629C1901.93 28.6709 1903.5 29.976 1906.19 29.806C1907.96 29.694 1908.92 29.117 1909.24 28.006L1906.91 28.154L1906.72 25.171L1914.58 24.671L1915.06 32.254Z" fill="black"/>
<path d="M1916.6 18.4252L1926.76 17.7812C1929.89 17.5812 1930.8 17.6912 1931.69 18.3162C1932.15 18.6708 1932.53 19.1283 1932.79 19.6527C1933.05 20.1771 1933.18 20.7544 1933.18 21.3392C1933.29 22.2714 1933.08 23.2137 1932.56 24.0012C1932.08 24.544 1931.43 24.9059 1930.71 25.0272C1932.8 25.4932 1933.06 25.8903 1933.4 29.3993C1933.51 30.4463 1933.54 30.6082 1933.88 31.0992L1928.39 31.4473C1928.26 30.8533 1928.17 30.2522 1928.11 29.6472C1927.83 26.7952 1927.61 26.5613 1925.39 26.7013L1922.4 26.8902L1922.71 31.8063L1917.47 32.1382L1916.6 18.4252ZM1925.7 23.7762C1926.2 23.8087 1926.71 23.6974 1927.16 23.4552C1927.33 23.3107 1927.46 23.1271 1927.54 22.9204C1927.62 22.7137 1927.65 22.4905 1927.62 22.2703C1927.56 21.2823 1927.07 20.9842 1925.56 21.0792L1922.05 21.3022L1922.22 23.9962L1925.7 23.7762Z" fill="black"/>
<path d="M2057.34 115.998L-70.7158 0.522949L-72.2963 29.6501L2055.76 145.125L2057.34 115.998Z" fill="white"/>
<path d="M886.14 65.6399L886.522 58.5958L879.478 58.2139L872.178 62.5278L872.433 57.8279L868.206 57.5989L867.951 62.2988L861.162 57.2208L854.118 56.8389L853.736 63.8829L857.963 64.1119L858.192 59.8859L866.339 65.9799L857.581 71.1569L857.81 66.9309L853.583 66.7019L853.201 73.7458L860.245 74.1279L867.545 69.8138L867.29 74.5139L871.517 74.7429L871.772 70.0428L878.561 75.1208L885.605 75.5029L886.063 67.0499L877.61 66.5908L881.683 69.6378L881.53 72.4559L873.383 66.3619L882.142 61.1859L881.913 65.4119L886.14 65.6399Z" fill="black"/>
<path d="M910.659 61.5L915.907 61.785L915.626 66.95L921.257 62.075L928.376 62.4611L922.411 67.05L928.002 76.207L921.356 75.8459L917.882 69.879L915.35 72.032L915.162 75.51L909.915 75.225L910.659 61.5Z" fill="black"/>
<path d="M930.022 62.5518L945.558 63.3948L945.368 66.8948L935.079 66.3358L934.997 67.8597L943.516 68.3218L943.326 71.8218L934.807 71.3597L934.714 73.0677L945.641 73.6598L945.451 77.1598L929.277 76.2817L930.022 62.5518Z" fill="black"/>
<path d="M948.294 63.543L956.916 64.011L958.125 67.9771C958.455 69.0845 958.623 70.2336 958.625 71.389L958.81 71.399C958.953 70.2541 959.243 69.1322 959.672 68.061L961.241 64.246L969.801 64.71L969.057 78.4351L963.809 78.151L964.357 68.068L964.274 68.063C964.13 69.0105 963.879 69.9387 963.526 70.83L960.496 77.9709L956.175 77.736L953.896 70.307C953.641 69.3822 953.485 68.4328 953.43 67.475L953.348 67.47L952.801 77.553L947.553 77.2679L948.294 63.543Z" fill="black"/>
<path d="M978.514 74.821C978.946 75.609 979.609 75.933 980.906 76.004C982.14 76.071 982.795 75.797 982.826 75.22C982.847 74.829 982.653 74.6119 982.226 74.4659C980.959 74.1355 979.667 73.9065 978.363 73.781C976.904 73.5734 975.471 73.212 974.088 72.703C973.33 72.4797 972.672 72.0014 972.226 71.3491C971.78 70.6968 971.573 69.9105 971.64 69.123C971.809 66.017 974.922 64.5549 980.684 64.8669C983.605 65.0263 985.741 65.5963 987.092 66.577C987.621 66.9468 988.065 67.4254 988.395 67.9807C988.724 68.536 988.93 69.1553 989.001 69.797L982.149 69.426C981.867 68.544 981.106 68.11 979.749 68.037C978.658 67.977 977.96 68.2899 977.93 68.8459C977.893 69.5249 978.339 69.6729 982.555 70.3349C984.018 70.4735 985.453 70.8295 986.811 71.391C987.555 71.6684 988.187 72.1827 988.609 72.8546C989.031 73.5265 989.22 74.3187 989.148 75.109C988.97 78.382 985.942 79.785 979.79 79.451C976.848 79.292 974.646 78.78 973.309 77.944C972.664 77.6153 972.126 77.11 971.758 76.487C971.39 75.8641 971.207 75.1492 971.23 74.426L978.514 74.821Z" fill="black"/>
<path d="M1008.91 80.5571L1006.65 80.434L1006.03 78.914C1005.42 79.4819 1004.68 79.8893 1003.88 80.0991C1002.39 80.4838 1000.85 80.623 999.317 80.5111C993.494 80.1951 990.384 77.4261 990.636 72.7761C990.648 71.7009 990.918 70.6444 991.422 69.6949C991.927 68.7454 992.652 67.9307 993.536 67.319C995.621 66.1661 998.011 65.6833 1000.38 65.9361C1002.86 65.9416 1005.29 66.6915 1007.34 68.0891C1007.94 68.5035 1008.43 69.0457 1008.78 69.6757C1009.14 70.3057 1009.35 71.0074 1009.39 71.7291L1003.16 71.3911C1002.97 70.7859 1002.57 70.2639 1002.04 69.9095C1001.52 69.5551 1000.89 69.389 1000.25 69.4381C999.761 69.3708 999.262 69.4126 998.789 69.5605C998.316 69.7084 997.882 69.9587 997.517 70.2935C997.152 70.6284 996.866 71.0397 996.678 71.498C996.49 71.9563 996.405 72.4503 996.43 72.945C996.293 75.455 997.699 76.9351 1000.4 77.0821C1002.16 77.1821 1003.18 76.717 1003.63 75.648L1001.31 75.522L1001.47 72.5371L1009.33 72.9641L1008.91 80.5571Z" fill="black"/>
<path d="M1012.06 67L1022.23 67.551C1025.35 67.721 1026.25 67.9351 1027.06 68.6591C1027.48 69.066 1027.8 69.5645 1027.99 70.1158C1028.19 70.6671 1028.25 71.2562 1028.19 71.837C1028.19 72.7758 1027.86 73.6857 1027.26 74.408C1026.72 74.8899 1026.02 75.1721 1025.3 75.208C1027.32 75.917 1027.53 76.341 1027.46 79.866C1027.36 80.4636 1027.46 81.0783 1027.74 81.615L1022.24 81.3149C1022.18 80.7101 1022.16 80.1025 1022.18 79.495C1022.23 76.63 1022.04 76.371 1019.81 76.25L1016.83 76.088L1016.56 81.006L1011.32 80.722L1012.06 67ZM1020.46 73.379C1020.96 73.4705 1021.48 73.42 1021.96 73.233C1022.14 73.1094 1022.29 72.9423 1022.4 72.7465C1022.5 72.5506 1022.55 72.332 1022.56 72.11C1022.61 71.122 1022.16 70.767 1020.66 70.686L1017.14 70.495L1016.99 73.1899L1020.46 73.379Z" fill="black"/>
<path d="M1034.92 68.2441L1041.86 68.6201L1046.6 82.6442L1040.86 82.3322L1040.36 81.0461L1034.76 80.7461L1034.17 81.9731L1028.68 81.6731L1034.92 68.2441ZM1039.52 77.4921L1038.02 72.3541L1035.9 77.2952L1039.52 77.4921Z" fill="black"/>
<path d="M1048.54 68.9829L1058.79 69.5388C1061.42 69.6818 1062.5 69.9679 1063.45 70.7389C1063.95 71.2083 1064.33 71.7879 1064.56 72.4307C1064.79 73.0734 1064.86 73.7613 1064.78 74.4388C1064.81 75.1896 1064.63 75.9344 1064.27 76.5942C1063.92 77.2541 1063.38 77.8044 1062.74 78.1869C1061.76 78.6919 1060.91 78.7869 1058.34 78.6499L1053.3 78.3759L1053.05 82.9858L1047.8 82.7009L1048.54 68.9829ZM1056.77 75.2499C1057.35 75.3582 1057.95 75.3196 1058.51 75.1378C1058.71 75.0158 1058.88 74.8426 1059 74.6353C1059.11 74.4279 1059.17 74.1937 1059.17 73.9559C1059.22 72.9479 1058.71 72.6099 1056.94 72.5139L1053.62 72.3339L1053.48 75.0709L1056.77 75.2499Z" fill="black"/>
<path d="M1066.81 69.9751L1072.06 70.2592L1071.8 75.0951L1077.93 75.4281L1078.19 70.5922L1083.44 70.8771L1082.7 84.6022L1077.45 84.3181L1077.74 78.9261L1071.61 78.5931L1071.32 83.9851L1066.07 83.7001L1066.81 69.9751Z" fill="black"/>
<path d="M1086.3 71.0322L1091.55 71.3173L1090.8 85.0422L1085.56 84.7572L1086.3 71.0322Z" fill="black"/>
<path d="M1112.11 81.0601C1112.06 81.8849 1111.79 82.6813 1111.33 83.3697C1110.88 84.0581 1110.24 84.6144 1109.51 84.9831C1107.72 85.9831 1105.76 86.2831 1102.35 86.1021C1098.99 85.9201 1097.05 85.302 1095.49 83.913C1094.71 83.2011 1094.11 82.3148 1093.73 81.3263C1093.36 80.3379 1093.23 79.2752 1093.34 78.225C1093.33 77.1974 1093.57 76.183 1094.04 75.2673C1094.51 74.3515 1095.18 73.5612 1096.02 72.9631C1097.82 71.7811 1100.03 71.3441 1103.26 71.5191C1106.98 71.7191 1109.46 72.599 1111 74.209C1111.85 75.1767 1112.31 76.4224 1112.3 77.709L1106.27 77.382C1105.92 75.775 1105.05 75.128 1103.09 75.022C1100.62 74.888 1099.26 76.073 1099.13 78.46C1098.99 80.97 1100.3 82.486 1102.68 82.616C1103.54 82.7127 1104.4 82.5197 1105.13 82.068C1105.54 81.7022 1105.87 81.2473 1106.09 80.7371L1112.11 81.0601Z" fill="black"/>
<path d="M1120.62 82.5321C1121.05 83.3201 1121.72 83.6441 1123.01 83.7151C1124.24 83.7821 1124.9 83.5081 1124.93 82.9311C1124.95 82.5411 1124.76 82.3231 1124.33 82.1771C1123.06 81.8471 1121.77 81.6184 1120.46 81.4931C1119 81.2849 1117.57 80.9236 1116.19 80.4151C1115.43 80.1918 1114.77 79.7133 1114.33 79.0608C1113.88 78.4082 1113.67 77.6216 1113.74 76.8341C1113.91 73.7281 1117.02 72.2661 1122.79 72.5791C1125.71 72.7371 1127.84 73.307 1129.19 74.289C1129.72 74.6586 1130.17 75.1371 1130.5 75.6925C1130.83 76.2478 1131.03 76.8673 1131.1 77.5091L1124.25 77.1371C1123.97 76.2551 1123.21 75.8212 1121.85 75.7482C1120.76 75.6892 1120.06 76.0011 1120.03 76.5571C1120 77.2361 1120.44 77.3841 1124.66 78.0461C1126.12 78.1844 1127.55 78.5407 1128.91 79.1031C1129.66 79.3802 1130.29 79.8942 1130.71 80.566C1131.13 81.2378 1131.32 82.0299 1131.25 82.8201C1131.07 86.0931 1128.04 87.4961 1121.89 87.1631C1118.95 87.0031 1116.75 86.4911 1115.41 85.6561C1114.77 85.3271 1114.23 84.8216 1113.86 84.1985C1113.49 83.5754 1113.31 82.8604 1113.33 82.1371L1120.62 82.5321Z" fill="black"/>
<path d="M584.193 49.2551L584.575 42.2112L577.531 41.8291L570.231 46.1431L570.486 41.4431L566.26 41.2141L566.005 45.9141L559.216 40.8362L552.172 40.4541L551.79 47.4982L556.016 47.7272L556.245 43.5011L564.392 49.5951L555.633 54.7721L555.862 50.5461L551.636 50.3171L551.254 57.3611L558.298 57.7432L565.598 53.4291L565.343 58.1292L569.569 58.3582L569.824 53.6581L576.613 58.7361L583.657 59.1182L584.116 50.6652L575.663 50.2062L579.736 53.2532L579.583 56.0712L571.436 49.9772L580.194 44.8011L579.965 49.0271L584.193 49.2551Z" fill="black"/>
<path d="M608.713 45.1162L613.96 45.4012L613.68 50.5663L619.31 45.6913L626.43 46.0773L620.464 50.6653L626.056 59.8232L619.409 59.4623L615.935 53.4952L613.404 55.6482L613.215 59.1262L607.968 58.8412L608.713 45.1162Z" fill="black"/>
<path d="M628.075 46.167L643.61 47.01L643.42 50.51L633.132 49.951L633.049 51.475L641.568 51.937L641.378 55.437L632.859 54.975L632.767 56.682L643.693 57.275L643.503 60.775L627.33 59.8979L628.075 46.167Z" fill="black"/>
<path d="M646.348 47.1582L654.97 47.6262L656.178 51.5923C656.508 52.6996 656.677 53.8488 656.678 55.0043L656.863 55.0143C657.007 53.8694 657.297 52.7477 657.725 51.6763L659.295 47.8602L667.855 48.3252L667.11 62.0503L661.863 61.7653L662.41 51.6832L662.327 51.6782C662.183 52.6258 661.932 53.554 661.579 54.4452L658.55 61.5863L654.229 61.3512L651.949 53.9222C651.695 52.9973 651.538 52.048 651.484 51.0902L651.401 51.0852L650.854 61.1682L645.607 60.8833L646.348 47.1582Z" fill="black"/>
<path d="M676.567 58.4361C676.999 59.2231 677.667 59.5481 678.959 59.6181C680.194 59.6851 680.848 59.4121 680.88 58.8351C680.901 58.4441 680.706 58.2272 680.28 58.0812C679.013 57.7509 677.721 57.5218 676.417 57.3961C674.958 57.1886 673.524 56.8272 672.141 56.3181C671.383 56.0948 670.726 55.6166 670.28 54.9642C669.834 54.3119 669.627 53.5255 669.694 52.7381C669.862 49.6321 672.975 48.1702 678.737 48.4822C681.659 48.6408 683.795 49.2108 685.145 50.1921C685.674 50.5618 686.119 51.0402 686.448 51.5956C686.778 52.1509 686.985 52.7703 687.055 53.4121L680.203 53.0401C679.92 52.1581 679.16 51.7251 677.803 51.6511C676.713 51.5921 676.015 51.9052 675.985 52.4612C675.948 53.1392 676.394 53.2881 680.609 53.9501C682.072 54.0882 683.507 54.4442 684.865 55.0061C685.609 55.2832 686.241 55.7975 686.663 56.4695C687.085 57.1414 687.275 57.9337 687.202 58.7241C687.025 61.9961 683.997 63.4001 677.844 63.0661C674.902 62.9071 672.701 62.3951 671.363 61.5591C670.719 61.2301 670.181 60.7246 669.812 60.1015C669.444 59.4784 669.261 58.7635 669.284 58.0401L676.567 58.4361Z" fill="black"/>
<path d="M706.965 64.1723L704.701 64.0493L704.082 62.5294C703.476 63.0971 702.738 63.5043 701.934 63.7143C700.445 64.0987 698.904 64.2378 697.37 64.1263C691.547 63.8103 688.437 61.0413 688.689 56.3913C688.701 55.3162 688.971 54.2597 689.476 53.3103C689.98 52.3608 690.705 51.5461 691.589 50.9343C693.674 49.7813 696.064 49.2985 698.433 49.5513C700.917 49.5565 703.342 50.3064 705.395 51.7043C705.988 52.1188 706.48 52.6611 706.835 53.2911C707.19 53.9211 707.399 54.6227 707.447 55.3443L701.212 55.0063C701.018 54.4011 700.626 53.8789 700.098 53.5244C699.571 53.1698 698.939 53.0035 698.305 53.0523C697.814 52.9853 697.315 53.0273 696.842 53.1752C696.369 53.3232 695.935 53.5736 695.57 53.9085C695.205 54.2435 694.918 54.6548 694.73 55.1131C694.542 55.5715 694.457 56.0656 694.482 56.5604C694.346 59.0704 695.751 60.5504 698.447 60.6964C700.217 60.7964 701.233 60.3313 701.683 59.2633L699.357 59.1363L699.519 56.1523L707.38 56.5783L706.965 64.1723Z" fill="black"/>
<path d="M710.114 50.6182L720.28 51.1702C723.407 51.3402 724.304 51.5541 725.11 52.2781C725.53 52.6848 725.851 53.1834 726.047 53.7347C726.243 54.2861 726.308 54.8753 726.238 55.4562C726.242 56.3951 725.914 57.3051 725.314 58.0271C724.769 58.5083 724.078 58.7905 723.352 58.8271C725.377 59.5361 725.581 59.9601 725.514 63.4851C725.412 64.0826 725.509 64.6971 725.79 65.2341L720.296 64.9341C720.238 64.3293 720.216 63.7216 720.23 63.1141C720.282 60.2481 720.089 59.9901 717.867 59.8691L714.884 59.7072L714.617 64.6251L709.37 64.3411L710.114 50.6182ZM718.514 56.9982C719.016 57.0903 719.533 57.0392 720.007 56.8511C720.192 56.7276 720.343 56.5608 720.447 56.3651C720.552 56.1695 720.607 55.951 720.607 55.7291C720.661 54.7411 720.207 54.3861 718.707 54.3041L715.188 54.1132L715.042 56.8131L718.514 56.9982Z" fill="black"/>
<path d="M732.975 51.8594L739.909 52.2354L744.659 66.2594L738.918 65.9474L738.41 64.6614L732.81 64.3613L732.227 65.5884L726.733 65.2883L732.975 51.8594ZM737.575 61.1074L736.075 55.9694L733.949 60.9104L737.575 61.1074Z" fill="black"/>
<path d="M746.597 52.6001L756.844 53.1561C759.478 53.2991 760.556 53.5851 761.505 54.3561C762.001 54.8254 762.379 55.4049 762.61 56.0477C762.84 56.6905 762.916 57.3786 762.831 58.0562C762.861 58.8068 762.687 59.5516 762.328 60.2114C761.969 60.8713 761.438 61.4216 760.791 61.8041C759.814 62.3091 758.963 62.4041 756.391 62.2671L751.349 61.9932L751.099 66.6031L745.852 66.3181L746.597 52.6001ZM754.821 58.8661C755.401 58.9744 755.999 58.9363 756.561 58.7551C756.765 58.6326 756.933 58.4592 757.049 58.252C757.165 58.0447 757.225 57.8107 757.223 57.5731C757.278 56.5651 756.76 56.2271 754.99 56.1311L751.678 55.9512L751.529 58.6881L754.821 58.8661Z" fill="black"/>
<path d="M764.869 53.5903L770.116 53.8744L769.854 58.7103L775.986 59.0433L776.248 54.2074L781.495 54.4923L780.75 68.2174L775.503 67.9324L775.796 62.5414L769.664 62.2084L769.371 67.6003L764.124 67.3153L764.869 53.5903Z" fill="black"/>
<path d="M784.355 54.6475L789.602 54.9325L788.858 68.6575L783.611 68.3724L784.355 54.6475Z" fill="black"/>
<path d="M810.165 64.6753C810.112 65.5003 809.844 66.2969 809.386 66.9854C808.929 67.6739 808.298 68.2301 807.558 68.5983C805.77 69.5983 803.814 69.8983 800.398 69.7173C797.044 69.5353 795.098 68.9172 793.541 67.5282C792.761 66.816 792.16 65.9297 791.786 64.9413C791.413 63.9529 791.279 62.8904 791.394 61.8403C791.386 60.8126 791.626 59.7981 792.092 58.8824C792.559 57.9666 793.238 57.1764 794.074 56.5783C795.874 55.3963 798.083 54.9593 801.313 55.1343C805.038 55.3343 807.513 56.2143 809.051 57.8243C809.899 58.792 810.361 60.0376 810.351 61.3243L804.322 60.9972C803.976 59.3892 803.103 58.7432 801.148 58.6372C798.679 58.5032 797.314 59.6882 797.185 62.0752C797.049 64.5852 798.349 66.1013 800.736 66.2303C801.589 66.3281 802.45 66.135 803.18 65.6823C803.596 65.3172 803.925 64.8625 804.14 64.3523L810.165 64.6753Z" fill="black"/>
<path d="M818.67 66.1473C819.102 66.9353 819.77 67.2593 821.062 67.3303C822.296 67.3973 822.951 67.1234 822.982 66.5464C823.003 66.1554 822.809 65.9383 822.382 65.7923C821.115 65.4622 819.823 65.2336 818.519 65.1084C817.06 64.9002 815.627 64.5385 814.244 64.0294C813.486 63.8062 812.828 63.3279 812.382 62.6755C811.936 62.0232 811.729 61.2368 811.796 60.4493C811.965 57.3433 815.078 55.8813 820.839 56.1943C823.761 56.3523 825.897 56.922 827.247 57.9033C827.776 58.2729 828.221 58.7515 828.55 59.3069C828.88 59.8622 829.087 60.4816 829.157 61.1234L822.305 60.7523C822.022 59.8703 821.262 59.4364 819.905 59.3634C818.814 59.3034 818.116 59.6163 818.086 60.1723C818.049 60.8513 818.495 60.9994 822.711 61.6614C824.174 61.8002 825.608 62.1561 826.966 62.7174C827.71 62.9946 828.341 63.5088 828.764 64.1808C829.186 64.8527 829.376 65.6451 829.303 66.4354C829.126 69.7084 826.098 71.1113 819.946 70.7773C817.003 70.6183 814.802 70.1064 813.465 69.2704C812.821 68.9417 812.282 68.4364 811.914 67.8135C811.546 67.1905 811.362 66.4756 811.385 65.7523L818.67 66.1473Z" fill="black"/>
<path d="M282.246 32.8699L282.628 25.8259L275.584 25.4438L268.284 29.7579L268.539 25.0579L264.312 24.8289L264.057 29.5289L257.268 24.4509L250.224 24.0688L249.842 31.1129L254.069 31.3419L254.298 27.1158L262.445 33.2098L253.687 38.3859L253.916 34.1599L249.689 33.9309L249.307 40.9749L256.351 41.3569L263.651 37.0428L263.396 41.7429L267.623 41.9719L267.878 37.2719L274.667 42.3499L281.711 42.7319L282.169 34.2789L273.716 33.8198L277.789 36.8668L277.636 39.6849L269.489 33.5908L278.248 28.4138L278.019 32.6399L282.246 32.8699Z" fill="black"/>
<path d="M306.766 28.731L312.013 29.015L311.733 34.181L317.364 29.306L324.483 29.692L318.518 34.28L324.109 43.437L317.463 43.077L313.989 37.11L311.457 39.2629L311.269 42.741L306.022 42.4561L306.766 28.731Z" fill="black"/>
<path d="M326.129 29.7812L341.665 30.6243L341.475 34.1243L331.186 33.5663L331.104 35.0892L339.623 35.5522L339.433 39.0522L330.914 38.5892L330.821 40.2972L341.748 40.8903L341.558 44.3903L325.384 43.5132L326.129 29.7812Z" fill="black"/>
<path d="M344.401 30.7729L353.023 31.241L354.232 35.207C354.561 36.3145 354.73 37.4636 354.732 38.619L354.917 38.629C355.06 37.4837 355.35 36.3616 355.779 35.29L357.348 31.475L365.908 31.9399L365.163 45.665L359.916 45.38L360.463 35.298L360.381 35.293C360.237 36.2407 359.986 37.169 359.632 38.0601L356.603 45.2L352.282 44.9659L350.002 37.537C349.748 36.612 349.592 35.6627 349.537 34.705L349.455 34.7L348.907 44.783L343.66 44.498L344.401 30.7729Z" fill="black"/>
<path d="M374.621 42.0499C375.053 42.8379 375.721 43.1629 377.013 43.2329C378.247 43.2999 378.902 43.0258 378.933 42.4498C378.954 42.0588 378.76 41.8419 378.333 41.6959C377.066 41.3648 375.774 41.1357 374.47 41.0108C373.011 40.8034 371.578 40.442 370.195 39.9328C369.437 39.7094 368.779 39.2311 368.333 38.5788C367.887 37.9265 367.68 37.1403 367.747 36.3529C367.916 33.2469 371.029 31.7849 376.791 32.0969C379.712 32.2556 381.847 32.8255 383.198 33.8069C383.728 34.1764 384.172 34.655 384.501 35.2103C384.831 35.7657 385.037 36.385 385.108 37.0268L378.256 36.6549C377.973 35.7729 377.213 35.3399 375.856 35.2659C374.765 35.2069 374.067 35.5199 374.037 36.0759C374 36.7539 374.446 36.9028 378.662 37.5648C380.125 37.703 381.56 38.059 382.918 38.6208C383.661 38.8982 384.293 39.4125 384.716 40.0845C385.138 40.7564 385.327 41.5485 385.255 42.3389C385.077 45.6109 382.049 47.0149 375.897 46.6809C372.955 46.5209 370.753 46.0098 369.416 45.1738C368.771 44.8448 368.233 44.3394 367.865 43.7163C367.497 43.0932 367.313 42.3783 367.336 41.6549L374.621 42.0499Z" fill="black"/>
<path d="M405.018 47.7871L402.755 47.664L402.135 46.1441C401.529 46.7113 400.791 47.1182 399.987 47.3281C398.499 47.7133 396.958 47.8527 395.424 47.741C389.601 47.425 386.49 44.6561 386.743 40.0061C386.755 38.9309 387.025 37.8744 387.529 36.9249C388.034 35.9754 388.759 35.1607 389.643 34.549C391.728 33.3961 394.118 32.9133 396.487 33.1661C398.971 33.1713 401.396 33.9209 403.449 35.3181C404.042 35.7328 404.534 36.2752 404.889 36.9054C405.244 37.5355 405.453 38.2373 405.501 38.9591L399.266 38.621C399.072 38.0159 398.679 37.4939 398.152 37.1394C397.625 36.7848 396.993 36.6184 396.359 36.6671C395.868 36.6 395.369 36.642 394.896 36.79C394.423 36.938 393.989 37.1883 393.624 37.5233C393.259 37.8582 392.972 38.2695 392.784 38.7279C392.596 39.1862 392.512 39.6803 392.536 40.1751C392.4 42.6851 393.806 44.1651 396.502 44.3111C398.271 44.4111 399.287 43.946 399.737 42.877L397.412 42.7511L397.573 39.767L405.434 40.1931L405.018 47.7871Z" fill="black"/>
<path d="M408.168 34.2329L418.333 34.7849C421.46 34.9549 422.357 35.1688 423.164 35.8928C423.584 36.2996 423.905 36.7983 424.101 37.3496C424.296 37.901 424.361 38.4902 424.291 39.0709C424.294 40.0093 423.968 40.919 423.368 41.6409C422.824 42.1228 422.131 42.405 421.405 42.4409C423.43 43.1499 423.634 43.5739 423.567 47.0989C423.464 47.6965 423.562 48.3112 423.844 48.8479L418.344 48.5479C418.287 47.9433 418.265 47.336 418.278 46.7289C418.33 43.8629 418.138 43.6049 415.916 43.4839L412.932 43.3219L412.665 48.2399L407.418 47.9548L408.168 34.2329ZM416.568 40.6129C417.07 40.705 417.588 40.6539 418.062 40.4658C418.247 40.3424 418.398 40.1754 418.503 39.9795C418.608 39.7836 418.662 39.565 418.662 39.3429C418.716 38.3549 418.262 38.0008 416.762 37.9188L413.243 37.7279L413.097 40.4279L416.568 40.6129Z" fill="black"/>
<path d="M431.029 35.4741L437.963 35.8501L442.712 49.8732L436.971 49.5621L436.463 48.2761L430.863 47.9761L430.281 49.2031L424.787 48.9031L431.029 35.4741ZM435.624 44.7222L434.124 39.5841L431.999 44.5251L435.624 44.7222Z" fill="black"/>
<path d="M444.65 36.2129L454.897 36.7689C457.531 36.9119 458.61 37.1979 459.559 37.9689C460.056 38.4389 460.434 39.0193 460.665 39.663C460.895 40.3067 460.971 40.9955 460.885 41.6738C460.915 42.4246 460.741 43.1694 460.381 43.8292C460.022 44.4891 459.491 45.0394 458.844 45.4219C457.867 45.9269 457.016 46.0219 454.444 45.8849L449.403 45.6108L449.153 50.2208L443.905 49.9359L444.65 36.2129ZM452.875 42.4789C453.455 42.5867 454.053 42.5486 454.614 42.3679C454.818 42.2456 454.987 42.072 455.103 41.8645C455.219 41.657 455.279 41.4228 455.277 41.1849C455.332 40.1779 454.814 39.8389 453.044 39.7429L449.731 39.5638L449.582 42.3009L452.875 42.4789Z" fill="black"/>
<path d="M462.922 37.2002L468.169 37.4852L467.907 42.3213L474.039 42.6543L474.301 37.8182L479.549 38.1033L478.804 51.8282L473.557 51.5432L473.849 46.1522L467.717 45.8192L467.425 51.2102L462.178 50.9263L462.922 37.2002Z" fill="black"/>
<path d="M482.409 38.2617L487.656 38.5468L486.911 52.2717L481.664 51.9868L482.409 38.2617Z" fill="black"/>
<path d="M508.219 48.2899C508.166 49.1147 507.897 49.9112 507.44 50.5996C506.982 51.288 506.352 51.8443 505.612 52.2129C503.824 53.2129 501.867 53.5129 498.452 53.3319C495.098 53.1489 493.152 52.5318 491.595 51.1428C490.815 50.4308 490.213 49.5446 489.84 48.5561C489.467 47.5677 489.333 46.505 489.448 45.4548C489.44 44.4272 489.679 43.4127 490.146 42.4969C490.612 41.5811 491.291 40.7909 492.127 40.1929C493.927 39.0109 496.136 38.5729 499.367 38.7489C503.091 38.9489 505.562 39.8288 507.104 41.4388C507.953 42.4063 508.416 43.6521 508.404 44.9388L502.375 44.6119C502.028 43.0039 501.155 42.3578 499.201 42.2518C496.731 42.1178 495.367 43.3028 495.237 45.6898C495.101 48.1998 496.402 49.7158 498.789 49.8448C499.642 49.9426 500.503 49.7495 501.233 49.2969C501.649 48.9316 501.977 48.477 502.193 47.9669L508.219 48.2899Z" fill="black"/>
<path d="M516.723 49.7618C517.155 50.5498 517.823 50.8738 519.115 50.9438C520.349 51.0108 521.004 50.7379 521.035 50.1609C521.057 49.7699 520.862 49.5528 520.435 49.4068C519.167 49.0767 517.875 48.8477 516.571 48.7219C515.112 48.5142 513.679 48.1529 512.296 47.6439C511.538 47.4206 510.88 46.9423 510.435 46.2899C509.989 45.6375 509.782 44.8512 509.849 44.0638C510.017 40.9578 513.13 39.4958 518.892 39.8078C521.814 39.9672 523.95 40.5371 525.3 41.5178C525.83 41.8874 526.274 42.366 526.603 42.9214C526.932 43.4767 527.139 44.0961 527.21 44.7379L520.357 44.3658C520.075 43.4838 519.314 43.0509 517.957 42.9769C516.867 42.9179 516.168 43.2308 516.138 43.7868C516.101 44.4648 516.548 44.6139 520.763 45.2759C522.226 45.4139 523.661 45.7699 525.019 46.3319C525.763 46.6091 526.394 47.1233 526.817 47.7953C527.239 48.4672 527.429 49.2596 527.356 50.0499C527.178 53.3219 524.151 54.7258 517.998 54.3918C515.056 54.2328 512.855 53.7209 511.517 52.8849C510.872 52.5559 510.335 52.0503 509.967 51.4272C509.599 50.8041 509.415 50.0892 509.438 49.3658L516.723 49.7618Z" fill="black"/>
<path d="M4.82031 12.3452L10.0669 12.6302L9.78711 17.7963L15.417 12.9213L22.5371 13.3073L16.5713 17.8953L22.1631 27.0522L15.5161 26.6923L12.042 20.7242L9.51123 22.8783L9.32227 26.3552L4.0752 26.0713L4.82031 12.3452Z" fill="black"/>
<path d="M24.1831 13.4004L39.7183 14.2433L39.5283 17.7433L29.2402 17.1854L29.1572 18.7084L37.6763 19.1714L37.4863 22.6714L28.9673 22.2084L28.875 23.9164L39.8013 24.5094L39.6113 28.0094L23.438 27.1313L24.1831 13.4004Z" fill="black"/>
<path d="M42.4551 14.3882L51.0771 14.8562L52.2852 18.8222C52.6154 19.9295 52.7838 21.0787 52.7852 22.2342L52.9702 22.2442C53.1135 21.0989 53.403 19.9767 53.832 18.9052L55.4019 15.0902L63.9619 15.5552L63.2173 29.2802L57.9702 28.9952L58.5171 18.9122H58.4341C58.2899 19.8594 58.039 20.7873 57.686 21.6782L54.6572 28.8192L50.3359 28.5851L48.0562 21.1562C47.8018 20.2309 47.6461 19.2813 47.5913 18.3232H47.5083L46.9609 28.4062L41.7139 28.1212L42.4551 14.3882Z" fill="black"/>
<path d="M72.6753 25.6654C73.1073 26.4534 73.7749 26.7784 75.0669 26.8484C76.3019 26.9154 76.9563 26.6413 76.9873 26.0653C77.0093 25.6743 76.8142 25.4574 76.3872 25.3104C75.1193 24.9805 73.827 24.7517 72.5229 24.6264C71.064 24.4182 69.6312 24.0568 68.248 23.5484C67.4899 23.3253 66.8321 22.847 66.3862 22.1946C65.9403 21.5422 65.7338 20.7558 65.8012 19.9684C65.9692 16.8624 69.0822 15.3994 74.8442 15.7124C77.7662 15.871 79.9019 16.441 81.2519 17.4224C81.7814 17.7919 82.2257 18.2704 82.5551 18.8258C82.8846 19.3811 83.0916 20.0006 83.1621 20.6424L76.31 20.2704C76.027 19.3884 75.2661 18.9554 73.9101 18.8814C72.8201 18.8224 72.1223 19.1354 72.0913 19.6914C72.0553 20.3694 72.5013 20.5174 76.7163 21.1804C78.1796 21.3185 79.614 21.6744 80.9721 22.2363C81.7157 22.5137 82.3472 23.0281 82.7695 23.7C83.1918 24.3719 83.3815 25.1641 83.309 25.9544C83.131 29.2264 80.1041 30.6304 73.9511 30.2964C71.0091 30.1364 68.8082 29.6253 67.4702 28.7893C66.8255 28.4604 66.2875 27.9549 65.9194 27.3318C65.5513 26.7087 65.3681 25.9938 65.3911 25.2704L72.6753 25.6654Z" fill="black"/>
<path d="M103.075 31.4005L100.811 31.2784L100.192 29.7585C99.5853 30.3258 98.8467 30.7328 98.043 30.9425C96.5546 31.3272 95.0134 31.4667 93.48 31.3555C87.657 31.0395 84.5474 28.2705 84.7994 23.6205C84.8119 22.5453 85.0814 21.4887 85.586 20.5391C86.0905 19.5896 86.8152 18.7746 87.6993 18.1625C89.7845 17.0099 92.1739 16.5274 94.543 16.7805C97.0267 16.7853 99.4518 17.5349 101.505 18.9325C102.097 19.3473 102.59 19.8898 102.945 20.5199C103.3 21.15 103.509 21.8518 103.557 22.5735L97.3223 22.2345C97.1279 21.6295 96.735 21.1078 96.2076 20.7534C95.6801 20.3991 95.0486 20.2328 94.4151 20.2815C93.9242 20.2143 93.4246 20.2561 92.9517 20.404C92.4788 20.5519 92.0443 20.8023 91.6792 21.1373C91.3142 21.4723 91.0278 21.8836 90.8399 22.342C90.652 22.8005 90.5675 23.2946 90.5923 23.7894C90.4563 26.2994 91.8612 27.7795 94.5572 27.9255C96.3272 28.0255 97.343 27.5604 97.793 26.4914L95.4673 26.3655L95.6289 23.3815L103.49 23.8075L103.075 31.4005Z" fill="black"/>
<path d="M106.221 17.8481L116.387 18.4001C119.514 18.5691 120.41 18.7841 121.217 19.5081C121.638 19.9147 121.958 20.4131 122.154 20.9642C122.35 21.5154 122.415 22.1045 122.345 22.6852C122.349 23.6242 122.022 24.5344 121.421 25.2561C120.877 25.7378 120.185 26.02 119.459 26.0562C121.484 26.7652 121.688 27.1881 121.621 30.7141C121.519 31.3113 121.616 31.9256 121.897 32.4622L116.403 32.1621C116.345 31.5573 116.322 30.9496 116.337 30.3422C116.389 27.4772 116.196 27.2181 113.974 27.0981L110.991 26.9362L110.724 31.8541L105.477 31.5691L106.221 17.8481ZM114.621 24.2281C115.123 24.3202 115.641 24.2693 116.115 24.0812C116.3 23.9575 116.451 23.7903 116.555 23.5945C116.66 23.3987 116.715 23.1801 116.715 22.9581C116.769 21.9701 116.315 21.6162 114.815 21.5342L111.296 21.3431L111.15 24.0431L114.621 24.2281Z" fill="black"/>
<path d="M129.082 19.0894L136.016 19.4654L140.766 33.4884L135.025 33.1774L134.517 31.8904L128.917 31.5903L128.335 32.8174L122.841 32.5173L129.082 19.0894ZM133.682 28.3364L132.182 23.1993L130.056 28.1404L133.682 28.3364Z" fill="black"/>
<path d="M142.704 19.8281L152.951 20.3841C155.585 20.5271 156.663 20.8131 157.612 21.5841C158.108 22.0535 158.486 22.6331 158.717 23.2759C158.947 23.9187 159.023 24.6067 158.938 25.2842C158.968 26.0349 158.794 26.7796 158.435 27.4395C158.076 28.0993 157.545 28.6497 156.898 29.0321C155.921 29.5371 155.07 29.6321 152.498 29.4941L147.456 29.2211L147.206 33.8312L141.959 33.5461L142.704 19.8281ZM150.928 26.0941C151.508 26.2019 152.106 26.1638 152.668 25.9832C152.872 25.8607 153.04 25.6871 153.156 25.4796C153.272 25.2721 153.332 25.0379 153.33 24.8002C153.385 23.7932 152.867 23.4542 151.097 23.3582L147.784 23.1781L147.636 25.9152L150.928 26.0941Z" fill="black"/>
<path d="M160.975 20.8193L166.222 21.1044L165.96 25.9403L172.091 26.2723L172.354 21.4374L177.601 21.7224L176.856 35.4474L171.609 35.1624L171.902 29.7714L165.77 29.4384L165.477 34.8293L160.23 34.5454L160.975 20.8193Z" fill="black"/>
<path d="M180.462 21.877L185.709 22.161L184.965 35.887L179.717 35.6021L180.462 21.877Z" fill="black"/>
<path d="M206.275 31.9051C206.222 32.7301 205.953 33.5266 205.496 34.2151C205.038 34.9036 204.408 35.4598 203.668 35.8281C201.88 36.8281 199.924 37.1282 196.508 36.9462C193.154 36.7642 191.208 36.1462 189.651 34.7582C188.87 34.0459 188.27 33.1595 187.897 32.1711C187.524 31.1828 187.389 30.1202 187.504 29.0701C187.496 28.0424 187.735 27.028 188.202 26.1122C188.668 25.1964 189.348 24.4061 190.184 23.8081C191.984 22.6261 194.193 22.1881 197.423 22.3641C201.148 22.5641 203.623 23.4431 205.161 25.0541C206.009 26.0217 206.471 27.2674 206.461 28.5541L200.432 28.2272C200.086 26.6192 199.213 25.9731 197.258 25.8671C194.789 25.7331 193.424 26.9172 193.295 29.3052C193.158 31.8152 194.459 33.3311 196.846 33.4601C197.699 33.5573 198.56 33.3643 199.29 32.9121C199.706 32.5464 200.034 32.0915 200.25 31.5812L206.275 31.9051Z" fill="black"/>
<path d="M214.775 33.3771C215.207 34.1641 215.875 34.4891 217.166 34.5591C218.401 34.6261 219.055 34.3531 219.087 33.7761C219.108 33.3851 218.913 33.1681 218.487 33.0221C217.22 32.6911 215.928 32.4621 214.624 32.3371C213.165 32.1295 211.731 31.7682 210.348 31.2591C209.59 31.0355 208.933 30.5572 208.487 29.9049C208.041 29.2526 207.834 28.4663 207.901 27.6791C208.07 24.5731 211.183 23.1111 216.944 23.4231C219.866 23.5824 222.002 24.1525 223.352 25.1332C223.881 25.5027 224.326 25.9811 224.655 26.5365C224.985 27.0918 225.192 27.7113 225.262 28.3531L218.41 27.9811C218.127 27.0991 217.367 26.6661 216.01 26.5921C214.919 26.5331 214.221 26.8461 214.191 27.4021C214.154 28.0801 214.6 28.2291 218.816 28.8911C220.279 29.0293 221.713 29.3853 223.071 29.9471C223.815 30.2242 224.447 30.7384 224.869 31.4104C225.291 32.0824 225.481 32.8748 225.408 33.6651C225.231 36.9371 222.203 38.3411 216.051 38.0071C213.108 37.8471 210.907 37.3361 209.57 36.5001C208.926 36.1711 208.388 35.6655 208.019 35.0425C207.651 34.4194 207.468 33.7045 207.49 32.9811L214.775 33.3771Z" fill="black"/>
<path d="M1188.09 82.0251L1188.47 74.9811L1181.42 74.5991L1174.12 78.9131L1174.38 74.2131L1170.15 73.9841L1169.9 78.6841L1163.11 73.6061L1156.06 73.2241L1155.68 80.2681L1159.91 80.4971L1160.14 76.2711L1168.29 82.3651L1159.53 87.5421L1159.75 83.3162L1155.53 83.0872L1155.15 90.1311L1162.19 90.5131L1169.49 86.1991L1169.24 90.8992L1173.46 91.1282L1173.72 86.4281L1180.51 91.5061L1187.55 91.8881L1188.01 83.4352L1179.56 82.9761L1183.63 86.0231L1183.48 88.8411L1175.33 82.7471L1184.09 77.5701L1183.86 81.7961L1188.09 82.0251Z" fill="black"/>
<path d="M1212.61 77.8862L1217.85 78.1713L1217.57 83.3373L1223.2 78.4613L1230.32 78.8483L1224.36 83.4363L1229.95 92.5933L1223.3 92.2323L1219.83 86.2653L1217.3 88.4192L1217.11 91.8962L1211.86 91.6112L1212.61 77.8862Z" fill="black"/>
<path d="M1231.97 78.9375L1247.5 79.7805L1247.31 83.2805L1237.03 82.7225L1236.94 84.2455L1245.46 84.7075L1245.27 88.2075L1236.75 87.7455L1236.66 89.4535L1247.59 90.0465L1247.4 93.5465L1231.22 92.6685L1231.97 78.9375Z" fill="black"/>
<path d="M1250.24 79.9282L1258.86 80.3962L1260.07 84.3623C1260.4 85.4696 1260.57 86.6188 1260.57 87.7743L1260.76 87.7843C1260.9 86.6393 1261.19 85.5174 1261.62 84.4463L1263.19 80.6312L1271.75 81.0952L1271 94.8202L1265.76 94.5363L1266.3 84.4532L1266.22 84.4482C1266.08 85.3958 1265.82 86.3239 1265.47 87.2152L1262.44 94.3562L1258.12 94.1212L1255.84 86.6923C1255.59 85.7673 1255.43 84.818 1255.38 83.8602H1255.29L1254.75 93.9423L1249.5 93.6582L1250.24 79.9282Z" fill="black"/>
<path d="M1280.46 91.2064C1280.89 91.9944 1281.56 92.3184 1282.85 92.3894C1284.09 92.4564 1284.74 92.1823 1284.77 91.6053C1284.79 91.2153 1284.6 90.9973 1284.17 90.8513C1282.91 90.5213 1281.61 90.2927 1280.31 90.1673C1278.85 89.9589 1277.42 89.5975 1276.03 89.0893C1275.28 88.8659 1274.62 88.3874 1274.17 87.7348C1273.73 87.0823 1273.52 86.2959 1273.59 85.5084C1273.76 82.4024 1276.87 80.9404 1282.63 81.2534C1285.55 81.4114 1287.69 81.9814 1289.04 82.9634C1289.57 83.3329 1290.01 83.8114 1290.34 84.3668C1290.67 84.9222 1290.88 85.5415 1290.95 86.1833L1284.1 85.8114C1283.81 84.9294 1283.05 84.4953 1281.7 84.4223C1280.61 84.3633 1279.91 84.6753 1279.88 85.2313C1279.84 85.9103 1280.29 86.0583 1284.5 86.7203C1285.97 86.859 1287.4 87.215 1288.76 87.7763C1289.5 88.0536 1290.13 88.5679 1290.56 89.2399C1290.98 89.9118 1291.17 90.704 1291.1 91.4944C1290.92 94.7674 1287.89 96.1704 1281.74 95.8374C1278.8 95.6774 1276.59 95.1653 1275.26 94.3303C1274.61 94.0011 1274.07 93.4955 1273.71 92.8724C1273.34 92.2494 1273.15 91.5347 1273.18 90.8114L1280.46 91.2064Z" fill="black"/>
<path d="M1310.86 96.9423L1308.59 96.8193L1307.98 95.2993C1307.37 95.867 1306.63 96.2744 1305.83 96.4843C1304.34 96.8691 1302.8 97.0082 1301.26 96.8963C1295.44 96.5803 1292.33 93.8113 1292.58 89.1613C1292.59 88.0862 1292.86 87.0297 1293.37 86.0803C1293.87 85.1308 1294.6 84.3161 1295.48 83.7043C1297.57 82.5514 1299.96 82.0685 1302.33 82.3214C1304.81 82.3269 1307.23 83.0768 1309.29 84.4743C1309.88 84.889 1310.37 85.4313 1310.73 86.0612C1311.08 86.6912 1311.29 87.3928 1311.34 88.1143L1305.11 87.7763C1304.91 87.1714 1304.52 86.6496 1303.99 86.2952C1303.46 85.9409 1302.83 85.7746 1302.2 85.8233C1301.71 85.7561 1301.21 85.7979 1300.73 85.9458C1300.26 86.0936 1299.83 86.3439 1299.46 86.6788C1299.1 87.0137 1298.81 87.4248 1298.62 87.8831C1298.44 88.3414 1298.35 88.8355 1298.38 89.3303C1298.24 91.8413 1299.64 93.3204 1302.34 93.4674C1304.11 93.5674 1305.13 93.1023 1305.58 92.0333L1303.25 91.9073L1303.41 88.9223L1311.27 89.3493L1310.86 96.9423Z" fill="black"/>
<path d="M1314.01 83.3892L1324.17 83.9401C1327.3 84.1101 1328.2 84.3241 1329 85.0481C1329.42 85.4547 1329.74 85.9533 1329.94 86.5046C1330.14 87.056 1330.2 87.6452 1330.13 88.2261C1330.13 89.1648 1329.81 90.075 1329.21 90.7971C1328.66 91.2782 1327.97 91.5602 1327.25 91.5972C1329.27 92.3052 1329.47 92.7292 1329.41 96.2542C1329.3 96.8516 1329.4 97.4663 1329.68 98.0032L1324.19 97.7031C1324.13 97.0983 1324.11 96.4906 1324.12 95.8832C1324.18 93.0182 1323.98 92.7591 1321.76 92.6381L1318.78 92.4761L1318.51 97.3951L1313.26 97.1101L1314.01 83.3892ZM1322.41 89.7681C1322.91 89.8596 1323.43 89.809 1323.9 89.6221C1324.08 89.4984 1324.24 89.3313 1324.34 89.1355C1324.44 88.9397 1324.5 88.7212 1324.5 88.4991C1324.55 87.5111 1324.1 87.1561 1322.6 87.0751L1319.08 86.8842L1318.94 89.5841L1322.41 89.7681Z" fill="black"/>
<path d="M1336.87 84.6294L1343.8 85.0054L1348.55 99.0294L1342.81 98.7174L1342.3 97.4314L1336.7 97.1313L1336.12 98.3584L1330.63 98.0583L1336.87 84.6294ZM1341.46 93.8773L1339.97 88.7394L1337.84 93.6814L1341.46 93.8773Z" fill="black"/>
<path d="M1350.49 85.3682L1360.74 85.9241C1363.37 86.0671 1364.45 86.3531 1365.4 87.1241C1365.89 87.5935 1366.27 88.173 1366.5 88.8158C1366.73 89.4586 1366.81 90.1466 1366.72 90.8241C1366.75 91.5749 1366.58 92.3197 1366.22 92.9797C1365.86 93.6397 1365.33 94.1903 1364.68 94.5731C1363.71 95.0731 1362.86 95.1732 1360.28 95.0352L1355.24 94.7621L1354.99 99.3711L1349.75 99.0872L1350.49 85.3682ZM1358.71 91.6351C1359.29 91.7434 1359.89 91.7049 1360.45 91.5231C1360.66 91.4008 1360.83 91.2275 1360.94 91.0201C1361.06 90.8128 1361.12 90.5787 1361.12 90.3411C1361.17 89.3331 1360.65 88.9952 1358.88 88.8992L1355.57 88.7191L1355.42 91.4562L1358.71 91.6351Z" fill="black"/>
<path d="M1368.76 86.3604L1374.01 86.6454L1373.75 91.4803L1379.88 91.8134L1380.14 86.9774L1385.39 87.2623L1384.64 100.987L1379.4 100.703L1379.69 95.3114L1373.56 94.9784L1373.26 100.37L1368.02 100.085L1368.76 86.3604Z" fill="black"/>
<path d="M1388.25 87.417L1393.5 87.702L1392.75 101.427L1387.5 101.143L1388.25 87.417Z" fill="black"/>
<path d="M1414.06 97.4452C1414.01 98.2702 1413.74 99.0668 1413.28 99.7553C1412.82 100.444 1412.19 101 1411.45 101.368C1409.66 102.368 1407.71 102.668 1404.29 102.487C1400.94 102.305 1398.99 101.687 1397.43 100.299C1396.65 99.5869 1396.05 98.7004 1395.68 97.7118C1395.31 96.7232 1395.17 95.6605 1395.29 94.6103C1395.28 93.5827 1395.52 92.5682 1395.99 91.6524C1396.45 90.7366 1397.13 89.9464 1397.97 89.3483C1399.77 88.1663 1401.98 87.7293 1405.21 87.9043C1408.93 88.1043 1411.4 88.9843 1412.94 90.5943C1413.79 91.5623 1414.25 92.8078 1414.24 94.0943L1408.21 93.7673C1407.87 92.1603 1407 91.5133 1405.04 91.4073C1402.57 91.2733 1401.21 92.4582 1401.08 94.8462C1400.94 97.3562 1402.24 98.8713 1404.63 99.0013C1405.48 99.0981 1406.34 98.9051 1407.07 98.4533C1407.49 98.0876 1407.82 97.6325 1408.03 97.1222L1414.06 97.4452Z" fill="black"/>
<path d="M1422.56 98.9173C1422.99 99.7053 1423.66 100.03 1424.96 100.1C1426.19 100.167 1426.84 99.8934 1426.87 99.3174C1426.9 98.9264 1426.7 98.7084 1426.27 98.5624C1425.01 98.2321 1423.72 98.0034 1422.41 97.8784C1420.95 97.6705 1419.52 97.3092 1418.14 96.8004C1417.38 96.577 1416.72 96.0987 1416.28 95.4464C1415.83 94.7941 1415.62 94.0077 1415.69 93.2203C1415.86 90.1133 1418.97 88.6513 1424.73 88.9643C1427.65 89.1223 1429.79 89.6923 1431.14 90.6743C1431.67 91.0439 1432.11 91.5225 1432.44 92.0779C1432.77 92.6332 1432.98 93.2526 1433.05 93.8944L1426.2 93.5223C1425.92 92.6403 1425.16 92.2074 1423.8 92.1334C1422.71 92.0744 1422.01 92.3864 1421.98 92.9424C1421.94 93.6214 1422.39 93.7694 1426.6 94.4314C1428.07 94.5702 1429.5 94.9265 1430.86 95.4884C1431.6 95.7655 1432.23 96.2797 1432.66 96.9516C1433.08 97.6236 1433.27 98.416 1433.2 99.2064C1433.02 102.478 1429.99 103.882 1423.84 103.548C1420.9 103.388 1418.69 102.877 1417.36 102.041C1416.71 101.712 1416.18 101.207 1415.81 100.584C1415.44 99.9608 1415.26 99.2458 1415.28 98.5223L1422.56 98.9173Z" fill="black"/>
<path d="M1490.03 98.4109L1490.42 91.3668L1483.37 90.9849L1476.07 95.2988L1476.33 90.5989L1472.1 90.3699L1471.84 95.0698L1465.06 89.9918L1458.01 89.6099L1457.63 96.6539L1461.86 96.8829L1462.08 92.6569L1470.23 98.7509L1461.47 103.927L1461.7 99.7009L1457.48 99.4719L1457.09 106.516L1464.14 106.898L1471.44 102.584L1471.18 107.284L1475.41 107.513L1475.67 102.813L1482.45 107.891L1489.5 108.273L1489.96 99.8198L1481.5 99.3608L1485.58 102.408L1485.42 105.226L1477.28 99.1318L1486.04 93.9548L1485.81 98.1809L1490.03 98.4109Z" fill="black"/>
<path d="M1514.55 94.271L1519.8 94.556L1519.52 99.722L1525.15 94.8459L1532.27 95.233L1526.3 99.821L1531.9 108.978L1525.25 108.617L1521.77 102.65L1519.24 104.804L1519.06 108.281L1513.81 107.997L1514.55 94.271Z" fill="black"/>
<path d="M1533.92 95.3223L1549.45 96.1653L1549.26 99.6653L1538.97 99.1073L1538.89 100.63L1547.41 101.092L1547.22 104.592L1538.7 104.13L1538.61 105.838L1549.53 106.431L1549.34 109.931L1533.17 109.053L1533.92 95.3223Z" fill="black"/>
<path d="M1552.19 96.314L1560.81 96.781L1562.02 100.747C1562.35 101.855 1562.52 103.004 1562.52 104.16L1562.7 104.17C1562.85 103.025 1563.14 101.903 1563.56 100.831L1565.13 97.016L1573.69 97.48L1572.95 111.206L1567.7 110.921L1568.25 100.838H1568.17C1568.02 101.785 1567.77 102.713 1567.42 103.604L1564.39 110.745L1560.07 110.511L1557.79 103.082C1557.53 102.157 1557.38 101.207 1557.32 100.249H1557.24L1556.69 110.332L1551.45 110.047L1552.19 96.314Z" fill="black"/>
<path d="M1582.41 107.591C1582.84 108.379 1583.51 108.703 1584.8 108.774C1586.03 108.841 1586.69 108.567 1586.72 107.991C1586.74 107.6 1586.55 107.382 1586.12 107.236C1584.85 106.906 1583.56 106.677 1582.26 106.552C1580.8 106.344 1579.36 105.983 1577.98 105.474C1577.22 105.251 1576.57 104.773 1576.12 104.12C1575.67 103.468 1575.47 102.682 1575.53 101.894C1575.7 98.7873 1578.82 97.3252 1584.58 97.6382C1587.5 97.7962 1589.63 98.3662 1590.98 99.3482C1591.51 99.7179 1591.96 100.196 1592.29 100.752C1592.62 101.307 1592.82 101.926 1592.89 102.568L1586.04 102.196C1585.76 101.314 1585 100.881 1583.64 100.807C1582.55 100.748 1581.85 101.06 1581.82 101.616C1581.79 102.295 1582.23 102.443 1586.45 103.105C1587.91 103.244 1589.35 103.6 1590.7 104.162C1591.45 104.439 1592.08 104.954 1592.5 105.626C1592.92 106.298 1593.11 107.09 1593.04 107.88C1592.86 111.152 1589.84 112.556 1583.68 112.222C1580.74 112.062 1578.54 111.551 1577.2 110.715C1576.56 110.386 1576.02 109.881 1575.65 109.258C1575.28 108.635 1575.1 107.92 1575.12 107.196L1582.41 107.591Z" fill="black"/>
<path d="M1612.8 113.327L1610.54 113.204L1609.92 111.684C1609.32 112.252 1608.58 112.659 1607.77 112.869C1606.28 113.254 1604.74 113.393 1603.21 113.281C1597.39 112.965 1594.28 110.196 1594.53 105.546C1594.54 104.471 1594.81 103.414 1595.32 102.465C1595.82 101.515 1596.54 100.701 1597.43 100.089C1599.51 98.9361 1601.9 98.4533 1604.27 98.7061C1606.76 98.7115 1609.18 99.4614 1611.23 100.859C1611.83 101.274 1612.32 101.816 1612.67 102.446C1613.03 103.076 1613.24 103.777 1613.29 104.499L1607.05 104.161C1606.86 103.556 1606.46 103.034 1605.94 102.68C1605.41 102.326 1604.78 102.159 1604.15 102.208C1603.65 102.141 1603.15 102.183 1602.68 102.331C1602.21 102.479 1601.78 102.729 1601.41 103.064C1601.05 103.399 1600.76 103.811 1600.57 104.269C1600.38 104.727 1600.3 105.221 1600.32 105.716C1600.19 108.226 1601.59 109.706 1604.29 109.852C1606.06 109.952 1607.07 109.487 1607.52 108.418L1605.2 108.292L1605.36 105.307L1613.22 105.734L1612.8 113.327Z" fill="black"/>
<path d="M1615.95 99.7739L1626.12 100.325C1629.25 100.495 1630.14 100.709 1630.95 101.434C1631.37 101.841 1631.69 102.339 1631.89 102.89C1632.08 103.441 1632.15 104.03 1632.08 104.611C1632.08 105.55 1631.75 106.46 1631.15 107.182C1630.61 107.663 1629.92 107.946 1629.19 107.982C1631.22 108.69 1631.42 109.114 1631.35 112.64C1631.25 113.237 1631.35 113.851 1631.63 114.388L1626.14 114.088C1626.08 113.483 1626.06 112.875 1626.07 112.268C1626.12 109.403 1625.93 109.144 1623.71 109.024L1620.72 108.862L1620.46 113.78L1615.21 113.495L1615.95 99.7739ZM1624.35 106.153C1624.86 106.245 1625.37 106.194 1625.85 106.007C1626.03 105.883 1626.18 105.716 1626.29 105.52C1626.39 105.325 1626.45 105.106 1626.45 104.884C1626.5 103.896 1626.05 103.541 1624.55 103.46L1621.03 103.269L1620.88 105.969L1624.35 106.153Z" fill="black"/>
<path d="M1638.81 101.014L1645.75 101.391L1650.5 115.414L1644.76 115.103L1644.25 113.816L1638.65 113.516L1638.07 114.744L1632.57 114.444L1638.81 101.014ZM1643.42 110.262L1641.92 105.124L1639.79 110.066L1643.42 110.262Z" fill="black"/>
<path d="M1652.44 101.754L1662.68 102.31C1665.32 102.453 1666.4 102.739 1667.35 103.51C1667.84 103.98 1668.22 104.56 1668.45 105.204C1668.68 105.848 1668.76 106.537 1668.67 107.215C1668.7 107.966 1668.53 108.711 1668.17 109.37C1667.81 110.03 1667.28 110.58 1666.63 110.963C1665.65 111.463 1664.8 111.563 1662.23 111.425L1657.19 111.152L1656.94 115.762L1651.69 115.477L1652.44 101.754ZM1660.66 108.02C1661.24 108.128 1661.84 108.09 1662.4 107.909C1662.6 107.787 1662.77 107.613 1662.89 107.406C1663.01 107.198 1663.07 106.964 1663.06 106.726C1663.12 105.718 1662.6 105.38 1660.83 105.284L1657.52 105.104L1657.37 107.841L1660.66 108.02Z" fill="black"/>
<path d="M1670.71 102.745L1675.96 103.03L1675.69 107.865L1681.83 108.198L1682.09 103.363L1687.33 103.647L1686.59 117.373L1681.34 117.088L1681.64 111.696L1675.5 111.364L1675.21 116.755L1669.96 116.47L1670.71 102.745Z" fill="black"/>
<path d="M1690.2 103.8L1695.44 104.084L1694.7 117.809L1689.45 117.525L1690.2 103.8Z" fill="black"/>
<path d="M1716 113.83C1715.95 114.655 1715.68 115.452 1715.23 116.14C1714.77 116.829 1714.14 117.385 1713.4 117.754C1711.61 118.754 1709.65 119.054 1706.24 118.872C1702.88 118.69 1700.94 118.072 1699.38 116.684C1698.6 115.972 1698 115.085 1697.63 114.097C1697.25 113.108 1697.12 112.045 1697.23 110.995C1697.23 109.967 1697.47 108.953 1697.93 108.037C1698.4 107.121 1699.08 106.331 1699.91 105.733C1701.71 104.552 1703.92 104.114 1707.15 104.289C1710.88 104.489 1713.35 105.369 1714.89 106.98C1715.74 107.948 1716.2 109.193 1716.19 110.48L1710.16 110.152C1709.81 108.545 1708.94 107.899 1706.99 107.793C1704.52 107.659 1703.15 108.843 1703.02 111.231C1702.89 113.741 1704.19 115.256 1706.58 115.386C1707.43 115.484 1708.29 115.29 1709.02 114.838C1709.43 114.472 1709.76 114.017 1709.98 113.507L1716 113.83Z" fill="black"/>
<path d="M1724.51 115.3C1724.94 116.088 1725.61 116.413 1726.9 116.483C1728.14 116.55 1728.79 116.276 1728.82 115.7C1728.84 115.309 1728.65 115.092 1728.22 114.945C1726.95 114.615 1725.66 114.386 1724.36 114.261C1722.9 114.053 1721.47 113.692 1720.08 113.183C1719.32 112.96 1718.67 112.482 1718.22 111.829C1717.77 111.177 1717.57 110.39 1717.64 109.603C1717.8 106.497 1720.92 105.034 1726.68 105.347C1729.6 105.506 1731.74 106.076 1733.09 107.057C1733.62 107.427 1734.06 107.905 1734.39 108.46C1734.72 109.016 1734.93 109.635 1735 110.277L1728.14 109.905C1727.86 109.023 1727.1 108.59 1725.74 108.516C1724.65 108.457 1723.96 108.77 1723.93 109.325C1723.89 110.004 1724.34 110.152 1728.55 110.815C1730.01 110.953 1731.45 111.309 1732.81 111.871C1733.55 112.148 1734.18 112.663 1734.6 113.335C1735.03 114.006 1735.22 114.799 1735.14 115.589C1734.97 118.861 1731.94 120.265 1725.79 119.931C1722.84 119.771 1720.64 119.26 1719.3 118.424C1718.66 118.095 1718.12 117.59 1717.75 116.967C1717.39 116.344 1717.2 115.628 1717.23 114.905L1724.51 115.3Z" fill="black"/>
<path d="M1791.98 114.8L1792.36 107.756L1785.31 107.374L1778.01 111.688L1778.27 106.988L1774.04 106.759L1773.79 111.459L1767 106.381L1759.95 105.999L1759.57 113.043L1763.8 113.272L1764.03 109.046L1772.17 115.14L1763.42 120.316L1763.64 116.09L1759.42 115.861L1759.04 122.905L1766.08 123.287L1773.38 118.973L1773.12 123.673L1777.35 123.902L1777.61 119.202L1784.4 124.28L1791.44 124.662L1791.9 116.209L1783.45 115.75L1787.52 118.797L1787.37 121.615L1779.22 115.521L1787.98 110.344L1787.75 114.57L1791.98 114.8Z" fill="black"/>
<path d="M1816.5 110.656L1821.75 110.941L1821.47 116.107L1827.1 111.231L1834.22 111.618L1828.25 116.206L1833.84 125.363L1827.2 125.003L1823.72 119.035L1821.19 121.189L1821 124.666L1815.75 124.382L1816.5 110.656Z" fill="black"/>
<path d="M1835.86 111.707L1851.4 112.55L1851.21 116.05L1840.92 115.492L1840.84 117.015L1849.35 117.477L1849.17 120.977L1840.65 120.514L1840.55 122.222L1851.48 122.815L1851.29 126.315L1835.12 125.437L1835.86 111.707Z" fill="black"/>
<path d="M1854.13 112.7L1862.76 113.168L1863.96 117.134C1864.29 118.242 1864.46 119.391 1864.46 120.546L1864.65 120.556C1864.79 119.411 1865.08 118.289 1865.51 117.217L1867.08 113.402L1875.64 113.867L1874.9 127.592L1869.65 127.307L1870.2 117.224H1870.11C1869.97 118.172 1869.72 119.1 1869.37 119.99L1866.34 127.131L1862.02 126.897L1859.73 119.468C1859.48 118.543 1859.32 117.593 1859.27 116.635H1859.19L1858.64 126.718L1853.39 126.433L1854.13 112.7Z" fill="black"/>
<path d="M1884.35 123.976C1884.79 124.764 1885.45 125.089 1886.75 125.159C1887.98 125.226 1888.63 124.952 1888.67 124.376C1888.69 123.985 1888.49 123.767 1888.07 123.621C1886.8 123.291 1885.51 123.062 1884.2 122.937C1882.74 122.729 1881.31 122.368 1879.93 121.859C1879.17 121.636 1878.51 121.157 1878.07 120.505C1877.62 119.853 1877.41 119.066 1877.48 118.279C1877.65 115.173 1880.76 113.71 1886.52 114.023C1889.45 114.182 1891.58 114.752 1892.93 115.733C1893.46 116.103 1893.9 116.581 1894.23 117.136C1894.56 117.692 1894.77 118.311 1894.84 118.953L1887.99 118.581C1887.71 117.699 1886.95 117.266 1885.59 117.192C1884.5 117.133 1883.8 117.446 1883.77 118.001C1883.73 118.68 1884.18 118.828 1888.39 119.49C1889.86 119.629 1891.29 119.985 1892.65 120.547C1893.39 120.824 1894.03 121.338 1894.45 122.01C1894.87 122.682 1895.06 123.475 1894.99 124.265C1894.81 127.537 1891.78 128.941 1885.63 128.607C1882.69 128.447 1880.49 127.936 1879.15 127.1C1878.51 126.771 1877.97 126.266 1877.6 125.642C1877.23 125.019 1877.05 124.304 1877.07 123.581L1884.35 123.976Z" fill="black"/>
<path d="M1914.75 129.712L1912.49 129.59L1911.87 128.07C1911.26 128.637 1910.52 129.044 1909.72 129.254C1908.23 129.639 1906.69 129.778 1905.16 129.666C1899.33 129.35 1896.22 126.581 1896.48 121.931C1896.49 120.856 1896.76 119.799 1897.26 118.85C1897.77 117.901 1898.49 117.086 1899.38 116.474C1901.46 115.321 1903.85 114.839 1906.22 115.092C1908.7 115.097 1911.13 115.846 1913.18 117.244C1913.77 117.659 1914.27 118.201 1914.62 118.831C1914.98 119.462 1915.18 120.163 1915.23 120.885L1909 120.546C1908.8 119.941 1908.41 119.42 1907.88 119.065C1907.36 118.711 1906.72 118.545 1906.09 118.593C1905.6 118.526 1905.1 118.568 1904.63 118.716C1904.16 118.863 1903.72 119.114 1903.36 119.449C1902.99 119.784 1902.7 120.195 1902.52 120.654C1902.33 121.112 1902.24 121.606 1902.27 122.101C1902.13 124.611 1903.54 126.091 1906.23 126.237C1908 126.337 1909.02 125.872 1909.47 124.803L1907.14 124.677L1907.31 121.692L1915.17 122.119L1914.75 129.712Z" fill="black"/>
<path d="M1917.9 116.159L1928.07 116.711C1931.19 116.88 1932.09 117.094 1932.9 117.819C1933.32 118.226 1933.64 118.724 1933.83 119.275C1934.03 119.826 1934.09 120.415 1934.02 120.996C1934.03 121.935 1933.7 122.845 1933.1 123.567C1932.56 124.049 1931.86 124.331 1931.14 124.367C1933.16 125.076 1933.37 125.499 1933.3 129.025C1933.2 129.622 1933.29 130.237 1933.58 130.773L1928.08 130.473C1928.02 129.868 1928 129.261 1928.02 128.653C1928.07 125.788 1927.88 125.529 1925.65 125.409L1922.67 125.247L1922.4 130.165L1917.16 129.88L1917.9 116.159ZM1926.3 122.539C1926.8 122.63 1927.32 122.58 1927.79 122.392C1927.98 122.269 1928.13 122.101 1928.23 121.906C1928.34 121.71 1928.39 121.491 1928.39 121.269C1928.45 120.281 1927.99 119.927 1926.49 119.845L1922.98 119.654L1922.83 122.354L1926.3 122.539Z" fill="black"/>
</svg>
