<svg width="47" height="47" viewBox="0 0 47 47" fill="none" xmlns="http://www.w3.org/2000/svg">
<g clip-path="url(#clip0_167_1166)">
<path d="M31.466 22.4991V22.4992L31.4785 22.4989C32.4184 22.4754 33.3394 22.2293 34.1658 21.7808C34.9899 21.3336 35.6965 20.6977 36.2279 19.9253C36.7901 19.1575 37.5532 18.5595 38.4332 18.1972C39.3152 17.834 40.2804 17.7217 41.2221 17.8726C42.3322 18.0558 43.3537 18.592 44.1349 19.4017C44.9162 20.2114 45.4156 21.2514 45.5589 22.3675C45.6993 23.5032 45.4604 24.6536 44.8793 25.6395C44.2981 26.6257 43.407 27.3921 42.345 27.8193C41.2829 28.2465 40.1094 28.3106 39.0072 28.0016C37.9074 27.6933 36.9402 27.0309 36.2552 26.1171C35.7081 25.3345 34.985 24.691 34.1442 24.2383C33.3008 23.7842 32.3624 23.5348 31.4049 23.5102L31.4049 23.5101H31.392H29.408C27.8586 23.5101 26.3727 24.1256 25.2771 25.2212C24.1815 26.3167 23.566 27.8027 23.566 29.3521V31.3361H23.5658L23.5662 31.3488C23.5906 32.3066 23.8399 33.2451 24.294 34.0887C24.7468 34.9301 25.3906 35.6534 26.1737 36.2008C26.8195 36.6809 27.3442 37.3054 27.7058 38.0244C28.0681 38.745 28.2566 39.5405 28.256 40.3471C28.2468 41.6482 27.7501 42.8986 26.8639 43.8514C25.9775 44.8046 24.7658 45.3906 23.4682 45.4938C22.1706 45.5969 20.8816 45.2097 19.8556 44.4085C18.8302 43.6077 18.1422 42.4516 17.9275 41.1684C17.7769 40.227 17.8895 39.2622 18.2526 38.3807C18.6151 37.5008 19.2133 36.7379 19.9812 36.176C20.7537 35.6444 21.3896 34.9376 21.8368 34.1133C22.2853 33.2867 22.5314 32.3656 22.5549 31.4256L22.555 31.4256V31.4131V29.3521C22.555 27.8027 21.9395 26.3167 20.8439 25.2212C19.7483 24.1256 18.2624 23.5101 16.713 23.5101H14.73V23.5099L14.7172 23.5102C13.7595 23.5348 12.821 23.7841 11.9774 24.2382C11.1362 24.6909 10.4129 25.3346 9.86555 26.1174C9.21193 26.9921 8.29948 27.6389 7.25753 27.9661C6.21319 28.2939 5.09203 28.2839 4.05374 27.9373C3.01545 27.5908 2.11299 26.9254 1.47491 26.0361C0.836836 25.1467 0.495679 24.0787 0.500041 22.9841C0.504404 21.8895 0.854064 20.8242 1.49921 19.9399C2.14436 19.0557 3.0521 18.3975 4.09311 18.0593C5.13413 17.721 6.25534 17.7199 7.29703 18.0561C8.33638 18.3915 9.24368 19.0456 9.8903 19.9256C10.4219 20.698 11.1286 21.3337 11.9528 21.7809C12.7794 22.2294 13.7005 22.4754 14.6405 22.4989L14.6405 22.4991H14.653H16.7129C16.7129 22.4991 16.713 22.4991 16.713 22.4991C17.4801 22.4992 18.2397 22.3482 18.9485 22.0548C19.6573 21.7613 20.3013 21.3311 20.8438 20.7887C21.3863 20.2463 21.8167 19.6023 22.1103 18.8936C22.4039 18.1848 22.555 17.4252 22.555 16.6581V14.6741H22.5552L22.5548 14.6613C22.5304 13.7036 22.2811 12.765 21.827 11.9214C21.3742 11.08 20.7303 10.3566 19.9472 9.80928C19.3016 9.329 18.7771 8.7045 18.4156 7.98555C18.0532 7.26496 17.8647 6.46952 17.865 5.66297C17.8743 4.36188 18.371 3.11151 19.2571 2.15871C20.1436 1.20555 21.3552 0.619508 22.6528 0.516362C23.9504 0.413216 25.2395 0.800468 26.2654 1.60162C27.2908 2.40242 27.9788 3.55855 28.1936 4.84177C28.3442 5.78313 28.2318 6.7478 27.8688 7.62934C27.5065 8.50918 26.9086 9.27203 26.1409 9.83406C25.3681 10.3655 24.7319 11.0722 24.2845 11.8965C23.8358 12.7231 23.5896 13.6444 23.5662 14.5846L23.566 14.5846V14.5971V16.6581V16.6582C23.5663 18.2068 24.1815 19.6919 25.2763 20.7872C26.3712 21.8825 27.8561 22.4982 29.4047 22.4991H29.405H31.466Z" stroke="#E4E4E5"/>
</g>
<defs>
<clipPath id="clip0_167_1166">
<rect width="47" height="47" fill="white"/>
</clipPath>
</defs>
</svg>
