<svg width="621" height="210" viewBox="0 0 621 210" fill="none" xmlns="http://www.w3.org/2000/svg">
<path d="M80.4059 9.5874C84.162 9.58798 87.8403 10.658 91.0109 12.6719C94.1815 14.6858 96.7133 17.5603 98.3103 20.96C99.9074 24.3596 100.504 28.1441 100.03 31.8701C99.5555 35.5962 98.0305 39.1101 95.633 42.0015L56.618 89.0283C54.7626 91.2707 52.4343 93.0754 49.8 94.3125C47.1656 95.5497 44.2903 96.1889 41.3799 96.1846C37.6227 96.1845 33.9432 95.1146 30.7717 93.1001C27.6001 91.0857 25.0677 88.2099 23.4705 84.8091C21.8733 81.4083 21.2773 77.6231 21.7524 73.896C22.2274 70.169 23.7537 66.6542 26.1529 63.7627L65.17 16.7363C67.0238 14.4954 69.3502 12.692 71.9827 11.4556C74.6152 10.2191 77.4885 9.58028 80.3969 9.58447H80.4059M80.4059 0.668457H80.3969C76.1784 0.668544 72.0119 1.59882 68.1938 3.39258C64.3757 5.18634 61 7.79941 58.3069 11.0464L19.2929 58.0733C3.77389 76.7733 17.0769 105.1 41.3799 105.1H41.3909C45.6092 105.099 49.7756 104.169 53.5937 102.376C57.4117 100.582 60.7875 97.9692 63.4809 94.7227L102.5 47.7017C118.012 28.9937 104.709 0.671387 80.4059 0.671387V0.668457ZM68.3539 114.016C72.1105 114.015 75.7897 115.084 78.9611 117.097C82.1325 119.111 84.6651 121.986 86.2624 125.386C87.8597 128.786 88.4557 132.57 87.9809 136.297C87.506 140.023 85.9799 143.537 83.581 146.428L44.5619 193.467C42.7078 195.709 40.3811 197.513 37.7483 198.75C35.1156 199.987 32.2419 200.628 29.3329 200.625C25.5761 200.624 21.897 199.553 18.726 197.539C15.555 195.524 13.023 192.649 11.426 189.248C9.8289 185.848 9.23286 182.062 9.70745 178.335C10.182 174.609 11.7076 171.094 14.1059 168.203L53.1269 121.168C54.9802 118.926 57.3065 117.122 59.9391 115.886C62.5717 114.649 65.4454 114.011 68.3539 114.016ZM68.3539 105.1C64.1358 105.099 59.9694 106.028 56.1513 107.821C52.3332 109.614 48.9574 112.227 46.264 115.474L7.24297 162.513C-8.27303 181.219 5.02993 209.54 29.3329 209.54C33.5514 209.54 37.718 208.609 41.5361 206.815C45.3542 205.022 48.7298 202.409 51.4229 199.162L90.4439 152.123C105.961 133.42 92.6579 105.102 68.3539 105.102V105.1ZM165.554 9.58447C169.311 9.58401 172.99 10.6532 176.162 12.667C179.333 14.6808 181.866 17.5562 183.464 20.9565C185.061 24.3569 185.657 28.1418 185.183 31.8687C184.708 35.5955 183.183 39.11 180.784 42.0015L141.767 89.0283C139.912 91.2706 137.584 93.0749 134.95 94.312C132.316 95.5492 129.441 96.1889 126.531 96.1846C122.774 96.1837 119.095 95.1133 115.924 93.0987C112.753 91.084 110.221 88.2082 108.624 84.8076C107.027 81.4071 106.431 77.6223 106.905 73.8955C107.38 70.1688 108.906 66.6544 111.304 63.7627L150.319 16.7363C152.173 14.4954 154.499 12.6925 157.132 11.4561C159.764 10.2196 162.638 9.58035 165.546 9.58447H165.557M165.557 0.668457H165.546C161.328 0.668958 157.161 1.59934 153.343 3.39307C149.525 5.1868 146.149 7.79973 143.456 11.0464L104.441 58.0733C88.925 76.7733 102.228 105.1 126.531 105.1H126.54C130.758 105.1 134.925 104.17 138.743 102.376C142.561 100.582 145.937 97.9695 148.63 94.7227L187.644 47.6953C203.163 28.9933 189.86 0.671387 165.557 0.671387V0.668457ZM153.5 114.019C157.257 114.018 160.936 115.087 164.107 117.1C167.279 119.114 169.811 121.988 171.409 125.388C173.006 128.788 173.603 132.573 173.128 136.299C172.653 140.026 171.128 143.541 168.729 146.432L129.708 193.471C127.854 195.712 125.527 197.516 122.894 198.753C120.262 199.991 117.388 200.631 114.479 200.627C110.722 200.627 107.043 199.557 103.871 197.543C100.7 195.528 98.1678 192.652 96.5707 189.252C94.9736 185.851 94.3775 182.066 94.8523 178.339C95.3271 174.612 96.8531 171.097 99.2519 168.206L138.273 121.17C140.126 118.929 142.453 117.126 145.085 115.889C147.718 114.653 150.591 114.014 153.5 114.019ZM153.5 105.103C149.282 105.102 145.116 106.032 141.298 107.825C137.481 109.618 134.105 112.231 131.412 115.477L92.3909 162.516C76.8749 181.222 90.1779 209.543 114.479 209.543C118.697 209.542 122.864 208.612 126.682 206.818C130.5 205.024 133.875 202.411 136.569 199.165L175.588 152.126C191.11 133.42 177.806 105.102 153.5 105.102V105.103ZM250.7 9.5874C254.456 9.58685 258.136 10.656 261.307 12.6694C264.479 14.6829 267.011 17.5576 268.609 20.9575C270.207 24.3574 270.804 28.1421 270.33 31.8687C269.856 35.5953 268.331 39.1097 265.933 42.0015L226.918 89.0283C225.063 91.2709 222.735 93.0754 220.1 94.3125C217.466 95.5497 214.59 96.1891 211.68 96.1846C207.923 96.1845 204.243 95.1146 201.072 93.1001C197.9 91.0857 195.368 88.2099 193.77 84.8091C192.173 81.4083 191.577 77.6231 192.052 73.896C192.527 70.169 194.054 66.6542 196.453 63.7627L235.468 16.7363C237.322 14.4955 239.648 12.6925 242.281 11.4561C244.913 10.2196 247.787 9.58049 250.695 9.58447H250.706M250.706 0.668457H250.695C246.477 0.668838 242.311 1.59883 238.493 3.39258C234.675 5.18633 231.3 7.79967 228.607 11.0464L189.592 58.0733C174.074 76.7733 187.377 105.1 211.68 105.1H211.691C215.909 105.099 220.075 104.169 223.893 102.376C227.711 100.582 231.086 97.9692 233.779 94.7227L272.8 47.7017C288.312 28.9937 275.011 0.671387 250.706 0.671387V0.668457ZM238.654 114.016C242.411 114.015 246.09 115.084 249.261 117.097C252.433 119.111 254.965 121.986 256.562 125.386C258.16 128.786 258.756 132.57 258.281 136.297C257.806 140.023 256.28 143.537 253.881 146.428L214.862 193.467C213.008 195.709 210.681 197.513 208.048 198.75C205.416 199.987 202.542 200.628 199.633 200.625C195.876 200.624 192.196 199.555 189.025 197.54C185.853 195.526 183.321 192.65 181.723 189.249C180.126 185.848 179.53 182.063 180.005 178.336C180.48 174.609 182.007 171.094 184.406 168.203L223.427 121.168C225.28 118.926 227.607 117.122 230.239 115.886C232.872 114.649 235.745 114.011 238.654 114.016ZM238.654 105.1C234.436 105.099 230.269 106.028 226.451 107.821C222.633 109.614 219.257 112.227 216.564 115.474L177.543 162.513C162.026 181.219 175.33 209.54 199.633 209.54C203.851 209.54 208.018 208.609 211.836 206.815C215.654 205.022 219.03 202.409 221.723 199.162L260.744 152.123C276.261 133.42 262.957 105.102 238.654 105.102V105.1ZM335.854 9.58447C339.611 9.58442 343.29 10.6541 346.461 12.668C349.632 14.6819 352.165 17.5569 353.762 20.957C355.36 24.3572 355.956 28.142 355.482 31.8687C355.008 35.5953 353.482 39.1098 351.084 42.0015L312.067 89.0283C310.212 91.2717 307.884 93.0768 305.25 94.314C302.615 95.5512 299.74 96.1902 296.829 96.1846C293.072 96.1841 289.393 95.1137 286.221 93.0991C283.05 91.0846 280.518 88.2093 278.921 84.8086C277.324 81.4079 276.728 77.6224 277.202 73.8955C277.677 70.1686 279.203 66.6543 281.602 63.7627L320.619 16.7363C322.473 14.4953 324.799 12.692 327.432 11.4556C330.064 10.2191 332.938 9.58021 335.846 9.58447H335.855M335.855 0.668457H335.846C331.627 0.668544 327.461 1.59882 323.643 3.39258C319.825 5.18634 316.449 7.79941 313.756 11.0464L274.741 58.0733C259.223 76.7733 272.526 105.1 296.829 105.1H296.842C301.06 105.099 305.226 104.169 309.044 102.376C312.862 100.582 316.237 97.9692 318.93 94.7227L357.944 47.6953C373.463 28.9933 360.16 0.671387 335.855 0.671387V0.668457ZM323.8 114.019C327.557 114.018 331.236 115.087 334.407 117.1C337.579 119.114 340.111 121.988 341.709 125.388C343.306 128.788 343.902 132.573 343.428 136.299C342.953 140.026 341.428 143.541 339.029 146.432L300.008 193.471C298.154 195.712 295.828 197.516 293.195 198.753C290.563 199.99 287.69 200.63 284.781 200.627C281.024 200.627 277.344 199.557 274.173 197.543C271.001 195.529 268.469 192.653 266.871 189.252C265.274 185.852 264.678 182.066 265.152 178.339C265.627 174.612 267.153 171.097 269.552 168.206L308.573 121.17C310.427 118.929 312.753 117.126 315.385 115.889C318.018 114.653 320.892 114.014 323.8 114.019ZM323.8 105.103C319.582 105.102 315.415 106.032 311.597 107.825C307.779 109.618 304.403 112.23 301.71 115.477L262.691 162.516C247.174 181.222 260.478 209.543 284.781 209.543C288.999 209.542 293.165 208.612 296.983 206.818C300.801 205.025 304.176 202.411 306.869 199.165L345.89 152.126C361.409 133.42 348.106 105.102 323.8 105.102V105.103ZM421 9.5874C424.757 9.58685 428.436 10.656 431.607 12.6694C434.779 14.6829 437.311 17.5576 438.909 20.9575C440.507 24.3574 441.104 28.1421 440.63 31.8687C440.156 35.5953 438.631 39.1097 436.233 42.0015L397.218 89.0283C395.362 91.2705 393.034 93.0749 390.4 94.312C387.766 95.5492 384.89 96.1887 381.98 96.1846C378.223 96.1845 374.543 95.1146 371.372 93.1001C368.2 91.0857 365.668 88.2099 364.07 84.8091C362.473 81.4083 361.877 77.6231 362.352 73.896C362.827 70.169 364.354 66.6542 366.753 63.7627L405.768 16.7363C407.622 14.4956 409.949 12.6925 412.581 11.4561C415.213 10.2196 418.087 9.58063 420.995 9.58447H421.006M421.006 0.668457H420.995C416.777 0.668838 412.611 1.59883 408.793 3.39258C404.975 5.18633 401.6 7.79967 398.907 11.0464L359.892 58.0733C344.374 76.7733 357.677 105.1 381.98 105.1H381.991C386.209 105.099 390.375 104.169 394.193 102.376C398.011 100.582 401.386 97.9692 404.079 94.7227L443.093 47.6953C458.612 28.9933 445.309 0.671387 421.006 0.671387V0.668457ZM408.954 114.016C412.71 114.016 416.389 115.085 419.56 117.099C422.731 119.112 425.263 121.987 426.86 125.387C428.457 128.787 429.053 132.571 428.579 136.297C428.105 140.023 426.579 143.537 424.181 146.428L385.162 193.467C383.308 195.709 380.981 197.513 378.348 198.75C375.715 199.987 372.842 200.627 369.933 200.625C366.176 200.624 362.496 199.554 359.325 197.54C356.154 195.525 353.621 192.65 352.024 189.249C350.426 185.848 349.83 182.064 350.304 178.336C350.779 174.609 352.304 171.095 354.703 168.203L393.725 121.168C395.579 118.926 397.905 117.122 400.538 115.886C403.171 114.649 406.045 114.011 408.954 114.016ZM408.954 105.1C404.736 105.099 400.569 106.028 396.751 107.821C392.933 109.614 389.557 112.227 386.864 115.474L347.843 162.513C332.326 181.219 345.629 209.54 369.933 209.54C374.151 209.539 378.318 208.609 382.136 206.815C385.954 205.021 389.33 202.408 392.023 199.162L431.044 152.123C446.558 133.42 433.257 105.102 408.954 105.102V105.1ZM506.154 9.58447C509.911 9.58442 513.59 10.6541 516.761 12.668C519.932 14.6819 522.465 17.5569 524.062 20.957C525.66 24.3572 526.256 28.142 525.782 31.8687C525.308 35.5953 523.782 39.1098 521.384 42.0015L482.367 89.0283C480.512 91.2706 478.184 93.0749 475.55 94.312C472.916 95.5492 470.041 96.1889 467.131 96.1846C463.374 96.1844 459.694 95.1145 456.523 93.1001C453.351 91.0857 450.819 88.2098 449.221 84.8091C447.624 81.4084 447.028 77.6231 447.502 73.896C447.977 70.1689 449.503 66.6544 451.902 63.7627L490.919 16.7363C492.772 14.4955 495.099 12.6925 497.731 11.4561C500.363 10.2196 503.236 9.58044 506.144 9.58447H506.157M506.157 0.668457H506.144C501.926 0.668838 497.76 1.59883 493.942 3.39258C490.124 5.18633 486.749 7.79967 484.056 11.0464L445.041 58.0733C429.522 76.7733 442.825 105.1 467.131 105.1H467.14C471.358 105.1 475.525 104.17 479.343 102.376C483.161 100.582 486.537 97.9695 489.23 94.7227L528.244 47.6953C543.763 28.9933 530.46 0.671387 506.157 0.671387V0.668457ZM494.1 114.019C497.857 114.018 501.536 115.087 504.707 117.1C507.879 119.114 510.411 121.989 512.008 125.389C513.606 128.789 514.202 132.573 513.727 136.3C513.252 140.026 511.726 143.541 509.327 146.432L470.308 193.471C468.454 195.712 466.127 197.516 463.494 198.753C460.862 199.991 457.988 200.631 455.079 200.627C451.322 200.627 447.643 199.557 444.472 197.542C441.301 195.527 438.768 192.652 437.171 189.252C435.574 185.851 434.978 182.066 435.452 178.339C435.927 174.612 437.453 171.097 439.851 168.206L478.873 121.17C480.726 118.929 483.053 117.125 485.685 115.889C488.318 114.652 491.191 114.013 494.1 114.019ZM494.1 105.103C489.882 105.102 485.715 106.032 481.897 107.825C478.079 109.618 474.703 112.23 472.01 115.477L432.991 162.516C417.472 181.222 430.775 209.543 455.079 209.543C459.297 209.542 463.464 208.612 467.282 206.818C471.099 205.025 474.475 202.411 477.168 199.165L516.19 152.126C531.709 133.42 518.406 105.102 494.1 105.102V105.103ZM591.3 9.5874C595.057 9.58685 598.736 10.656 601.907 12.6694C605.079 14.6829 607.611 17.5576 609.209 20.9575C610.807 24.3574 611.404 28.1421 610.93 31.8687C610.456 35.5953 608.931 39.1097 606.533 42.0015L567.518 89.0283C565.663 91.2714 563.335 93.0763 560.701 94.3135C558.066 95.5507 555.19 96.1898 552.28 96.1846C548.523 96.1845 544.843 95.1146 541.672 93.1001C538.5 91.0857 535.968 88.2099 534.371 84.8091C532.773 81.4083 532.177 77.6231 532.652 73.896C533.127 70.169 534.654 66.6542 537.053 63.7627L576.067 16.7363C577.921 14.4953 580.248 12.692 582.88 11.4556C585.513 10.2191 588.386 9.5802 591.295 9.58447H591.305M591.305 0.668457H591.295C587.077 0.668838 582.911 1.59883 579.093 3.39258C575.275 5.18633 571.9 7.79967 569.207 11.0464L530.19 58.0733C514.673 76.7733 527.974 105.1 552.28 105.1H552.291C556.509 105.099 560.675 104.169 564.492 102.376C568.31 100.582 571.685 97.9691 574.378 94.7227L613.393 47.6953C628.912 28.9933 615.609 0.671387 591.305 0.671387V0.668457ZM579.254 114.016C583.01 114.016 586.689 115.085 589.86 117.099C593.031 119.112 595.563 121.987 597.16 125.387C598.757 128.787 599.353 132.571 598.879 136.297C598.404 140.023 596.879 143.537 594.481 146.428L555.46 193.467C553.606 195.709 551.28 197.513 548.648 198.751C546.015 199.988 543.142 200.628 540.233 200.625C536.476 200.624 532.796 199.555 529.625 197.54C526.453 195.526 523.921 192.65 522.324 189.249C520.726 185.848 520.13 182.063 520.605 178.336C521.08 174.609 522.607 171.094 525.006 168.203L564.027 121.168C565.88 118.926 568.207 117.122 570.839 115.886C573.472 114.649 576.345 114.011 579.254 114.016ZM579.254 105.1C575.036 105.099 570.869 106.028 567.051 107.821C563.233 109.614 559.857 112.227 557.164 115.474L518.143 162.513C502.626 181.219 515.929 209.54 540.233 209.54C544.451 209.539 548.618 208.609 552.435 206.815C556.253 205.022 559.629 202.409 562.322 199.162L601.342 152.123C616.86 133.42 603.557 105.102 579.254 105.102V105.1Z" fill="#E4E4E5"/>
</svg>
