<svg width="1085" height="1755" viewBox="0 0 1085 1755" fill="none" xmlns="http://www.w3.org/2000/svg">
<path d="M206.939 898.577C218.556 898.577 227.974 889.16 227.974 877.542C227.974 865.925 218.556 856.507 206.939 856.507C195.322 856.507 185.904 865.925 185.904 877.542C185.904 889.16 195.322 898.577 206.939 898.577Z" stroke="#111111" stroke-width="4.207" stroke-miterlimit="10"/>
<path d="M206.938 931.341C236.651 931.341 260.738 907.254 260.738 877.541C260.738 847.828 236.651 823.741 206.938 823.741C177.225 823.741 153.138 847.828 153.138 877.541C153.138 907.254 177.225 931.341 206.938 931.341Z" stroke="#111111" stroke-width="4.207" stroke-miterlimit="10"/>
<path d="M206.938 964.108C254.747 964.108 293.504 925.351 293.504 877.542C293.504 829.733 254.747 790.976 206.938 790.976C159.129 790.976 120.372 829.733 120.372 877.542C120.372 925.351 159.129 964.108 206.938 964.108Z" stroke="#111111" stroke-width="4.207" stroke-miterlimit="10"/>
<path d="M206.938 996.873C272.843 996.873 326.269 943.447 326.269 877.542C326.269 811.638 272.843 758.211 206.938 758.211C141.033 758.211 87.607 811.638 87.607 877.542C87.607 943.447 141.033 996.873 206.938 996.873Z" stroke="#111111" stroke-width="4.207" stroke-miterlimit="10"/>
<path d="M206.938 1029.64C290.939 1029.64 359.035 961.543 359.035 877.542C359.035 793.541 290.939 725.445 206.938 725.445C122.937 725.445 54.841 793.541 54.841 877.542C54.841 961.543 122.937 1029.64 206.938 1029.64Z" stroke="#111111" stroke-width="4.207" stroke-miterlimit="10"/>
<path d="M206.938 1062.4C309.034 1062.4 391.8 979.638 391.8 877.541C391.8 775.445 309.034 692.679 206.938 692.679C104.842 692.679 22.076 775.445 22.076 877.541C22.076 979.638 104.842 1062.4 206.938 1062.4Z" stroke="#111111" stroke-width="4.207" stroke-miterlimit="10"/>
<path d="M206.938 1095.17C327.131 1095.17 424.566 997.735 424.566 877.542C424.566 757.349 327.131 659.914 206.938 659.914C86.7454 659.914 -10.69 757.349 -10.69 877.542C-10.69 997.735 86.7454 1095.17 206.938 1095.17Z" stroke="#111111" stroke-width="4.207" stroke-miterlimit="10"/>
<path d="M206.938 1127.94C345.226 1127.94 457.331 1015.83 457.331 877.542C457.331 739.254 345.226 627.149 206.938 627.149C68.6497 627.149 -43.455 739.254 -43.455 877.542C-43.455 1015.83 68.6497 1127.94 206.938 1127.94Z" stroke="#111111" stroke-width="4.207" stroke-miterlimit="10"/>
<path d="M206.938 1160.7C363.322 1160.7 490.097 1033.93 490.097 877.542C490.097 721.158 363.322 594.383 206.938 594.383C50.5536 594.383 -76.221 721.158 -76.221 877.542C-76.221 1033.93 50.5536 1160.7 206.938 1160.7Z" stroke="#111111" stroke-width="4.207" stroke-miterlimit="10"/>
<path d="M206.938 1193.47C381.418 1193.47 522.862 1052.02 522.862 877.541C522.862 703.061 381.418 561.617 206.938 561.617C32.458 561.617 -108.986 703.061 -108.986 877.541C-108.986 1052.02 32.458 1193.47 206.938 1193.47Z" stroke="#111111" stroke-width="4.207" stroke-miterlimit="10"/>
<path d="M206.938 1226.23C399.514 1226.23 555.628 1070.12 555.628 877.542C555.628 684.966 399.514 528.852 206.938 528.852C14.3618 528.852 -141.752 684.966 -141.752 877.542C-141.752 1070.12 14.3618 1226.23 206.938 1226.23Z" stroke="#111111" stroke-width="4.207" stroke-miterlimit="10"/>
<path d="M206.938 1259C417.61 1259 588.393 1088.21 588.393 877.542C588.393 666.871 417.61 496.087 206.938 496.087C-3.7338 496.087 -174.517 666.871 -174.517 877.542C-174.517 1088.21 -3.7338 1259 206.938 1259Z" stroke="#111111" stroke-width="4.207" stroke-miterlimit="10"/>
<path d="M206.938 1291.76C435.706 1291.76 621.159 1106.31 621.159 877.542C621.159 648.774 435.706 463.321 206.938 463.321C-21.83 463.321 -207.283 648.774 -207.283 877.542C-207.283 1106.31 -21.83 1291.76 206.938 1291.76Z" stroke="#111111" stroke-width="4.207" stroke-miterlimit="10"/>
<path d="M206.938 1324.53C453.802 1324.53 653.924 1124.4 653.924 877.541C653.924 630.678 453.802 430.555 206.938 430.555C-39.9256 430.555 -240.048 630.678 -240.048 877.541C-240.048 1124.4 -39.9256 1324.53 206.938 1324.53Z" stroke="#111111" stroke-width="4.207" stroke-miterlimit="10"/>
<path d="M206.938 1357.29C471.898 1357.29 686.69 1142.5 686.69 877.542C686.69 612.582 471.898 397.79 206.938 397.79C-58.0217 397.79 -272.814 612.582 -272.814 877.542C-272.814 1142.5 -58.0217 1357.29 206.938 1357.29Z" stroke="#111111" stroke-width="4.207" stroke-miterlimit="10"/>
<path d="M206.938 1390.06C489.993 1390.06 719.455 1160.6 719.455 877.542C719.455 594.487 489.993 365.025 206.938 365.025C-76.1173 365.025 -305.579 594.487 -305.579 877.542C-305.579 1160.6 -76.1173 1390.06 206.938 1390.06Z" stroke="#111111" stroke-width="4.207" stroke-miterlimit="10"/>
<path d="M206.938 1422.83C508.09 1422.83 752.221 1178.69 752.221 877.542C752.221 576.391 508.09 332.259 206.938 332.259C-94.2135 332.259 -338.345 576.391 -338.345 877.542C-338.345 1178.69 -94.2135 1422.83 206.938 1422.83Z" stroke="#111111" stroke-width="4.207" stroke-miterlimit="10"/>
<path d="M206.938 1455.59C526.185 1455.59 784.986 1196.79 784.986 877.541C784.986 558.294 526.185 299.493 206.938 299.493C-112.309 299.493 -371.11 558.294 -371.11 877.541C-371.11 1196.79 -112.309 1455.59 206.938 1455.59Z" stroke="#111111" stroke-width="4.207" stroke-miterlimit="10"/>
<path d="M206.938 1488.36C544.281 1488.36 817.752 1214.89 817.752 877.543C817.752 540.199 544.281 266.729 206.938 266.729C-130.405 266.729 -403.876 540.199 -403.876 877.543C-403.876 1214.89 -130.405 1488.36 206.938 1488.36Z" stroke="#111111" stroke-width="4.207" stroke-miterlimit="10"/>
<path d="M206.938 1521.12C562.377 1521.12 850.517 1232.98 850.517 877.541C850.517 522.103 562.377 233.962 206.938 233.962C-148.501 233.962 -436.641 522.103 -436.641 877.541C-436.641 1232.98 -148.501 1521.12 206.938 1521.12Z" stroke="#111111" stroke-width="4.207" stroke-miterlimit="10"/>
<path d="M206.938 1553.89C580.473 1553.89 883.283 1251.08 883.283 877.542C883.283 504.007 580.473 201.197 206.938 201.197C-166.597 201.197 -469.407 504.007 -469.407 877.542C-469.407 1251.08 -166.597 1553.89 206.938 1553.89Z" stroke="#111111" stroke-width="4.207" stroke-miterlimit="10"/>
<path d="M206.939 1586.65C598.57 1586.65 916.05 1269.17 916.05 877.542C916.05 485.911 598.57 168.431 206.939 168.431C-184.692 168.431 -502.172 485.911 -502.172 877.542C-502.172 1269.17 -184.692 1586.65 206.939 1586.65Z" stroke="#111111" stroke-width="4.207" stroke-miterlimit="10"/>
<path d="M206.938 1619.42C616.665 1619.42 948.814 1287.27 948.814 877.543C948.814 467.816 616.665 135.667 206.938 135.667C-202.789 135.667 -534.938 467.816 -534.938 877.543C-534.938 1287.27 -202.789 1619.42 206.938 1619.42Z" stroke="#111111" stroke-width="4.207" stroke-miterlimit="10"/>
<path d="M206.939 1652.18C634.762 1652.18 981.581 1305.37 981.581 877.543C981.581 449.72 634.762 102.9 206.939 102.9C-220.884 102.9 -567.703 449.72 -567.703 877.543C-567.703 1305.37 -220.884 1652.18 206.939 1652.18Z" stroke="#111111" stroke-width="4.207" stroke-miterlimit="10"/>
<path d="M206.938 1684.95C652.857 1684.95 1014.34 1323.46 1014.34 877.541C1014.34 431.623 652.857 70.1343 206.938 70.1343C-238.981 70.1343 -600.469 431.623 -600.469 877.541C-600.469 1323.46 -238.981 1684.95 206.938 1684.95Z" stroke="#111111" stroke-width="4.207" stroke-miterlimit="10"/>
<path d="M206.939 1717.72C670.954 1717.72 1047.11 1341.56 1047.11 877.542C1047.11 413.527 670.954 37.3691 206.939 37.3691C-257.076 37.3691 -633.234 413.527 -633.234 877.542C-633.234 1341.56 -257.076 1717.72 206.939 1717.72Z" stroke="#111111" stroke-width="4.207" stroke-miterlimit="10"/>
<path d="M206.938 1750.48C689.048 1750.48 1079.88 1359.65 1079.88 877.543C1079.88 395.432 689.048 4.60449 206.938 4.60449C-275.172 4.60449 -666 395.432 -666 877.543C-666 1359.65 -275.172 1750.48 206.938 1750.48Z" stroke="#111111" stroke-width="4.207" stroke-miterlimit="10"/>
<path d="M186.73 883.384C185.209 878.033 185.869 872.297 188.567 867.432C191.264 862.567 195.779 858.968 201.124 857.424C206.468 855.879 212.207 856.515 217.084 859.191C221.961 861.868 225.579 866.367 227.146 871.705" stroke="#111111" stroke-width="8.414" stroke-linecap="round" stroke-linejoin="round"/>
<path d="M255.537 854.454C261.66 867.342 262.413 882.135 257.629 895.578C252.846 909.021 242.918 920.013 230.03 926.136C217.142 932.259 202.349 933.012 188.906 928.229C175.463 923.445 164.471 913.517 158.348 900.629" stroke="#111111" stroke-width="8.414" stroke-linecap="round" stroke-linejoin="round"/>
<path d="M252.914 804.195C272.211 816.46 285.873 835.861 290.915 858.164C295.957 880.466 291.971 903.857 279.827 923.23C267.683 942.603 248.367 956.385 226.097 961.566C203.826 966.748 180.411 962.908 160.962 950.884" stroke="#111111" stroke-width="8.414" stroke-linecap="round" stroke-linejoin="round"/>
<path d="M228.124 760.106C243.546 762.889 258.269 768.681 271.452 777.153C284.635 785.625 296.021 796.611 304.958 809.483C313.896 822.355 320.211 836.862 323.542 852.174C326.873 867.487 327.156 883.306 324.374 898.728C321.591 914.149 315.799 928.872 307.327 942.056C298.855 955.239 287.869 966.624 274.997 975.562C262.124 984.5 247.618 990.814 232.305 994.146C216.993 997.477 201.174 997.759 185.752 994.977" stroke="#111111" stroke-width="8.414" stroke-linecap="round" stroke-linejoin="round"/>
<path d="M197.848 725.717C217.86 724.39 237.937 727.034 256.924 733.497C275.91 739.96 293.431 750.114 308.477 763.374C323.524 776.635 335.799 792.741 344.597 810.764C353.395 828.788 358.541 848.374 359.74 868.394C360.938 888.414 358.166 908.474 351.581 927.418C344.997 946.363 334.731 963.818 321.374 978.779C308.017 993.74 291.833 1005.91 273.753 1014.59C255.674 1023.28 236.056 1028.3 216.028 1029.37" stroke="#111111" stroke-width="8.414" stroke-linecap="round" stroke-linejoin="round"/>
<path d="M130.043 709.431C222.887 666.963 332.58 707.802 375.049 800.647C417.518 893.492 376.679 1003.18 283.834 1045.65" stroke="#111111" stroke-width="8.414" stroke-linecap="round" stroke-linejoin="round"/>
<path d="M60.975 716.121C150.125 635.508 287.745 642.428 368.359 731.579C448.973 820.73 442.052 958.349 352.902 1038.96" stroke="#111111" stroke-width="8.414" stroke-linecap="round" stroke-linejoin="round"/>
<path d="M-6.82501 747.15C65.189 629.091 219.275 591.765 337.33 663.779C455.385 735.793 492.715 889.879 420.701 1007.93" stroke="#111111" stroke-width="8.414" stroke-linecap="round" stroke-linejoin="round"/>
<path d="M-64.745 797.748C-20.676 647.701 136.685 561.791 286.732 605.859C436.779 649.927 522.69 807.29 478.622 957.337" stroke="#111111" stroke-width="8.414" stroke-linecap="round" stroke-linejoin="round"/>
<path d="M-108.714 864.443C-101.48 690.113 45.707 554.655 220.037 561.884C394.367 569.113 529.825 716.306 522.591 890.636" stroke="#111111" stroke-width="8.414" stroke-linecap="round" stroke-linejoin="round"/>
<path d="M-58.318 651.215C66.682 504.715 286.767 487.289 433.265 612.285C579.763 737.281 597.191 957.371 472.195 1103.87" stroke="#111111" stroke-width="8.414" stroke-linecap="round" stroke-linejoin="round"/>
<path d="M376.869 1219.06C188.256 1312.91 -40.726 1236.09 -134.576 1047.47C-228.426 858.861 -151.605 629.878 37.007 536.028" stroke="#111111" stroke-width="8.414" stroke-linecap="round" stroke-linejoin="round"/>
<path d="M303.585 1280.33C81.131 1333.71 -142.474 1196.64 -195.85 974.189C-249.226 751.735 -112.162 528.13 110.292 474.754" stroke="#111111" stroke-width="8.414" stroke-linecap="round" stroke-linejoin="round"/>
<path d="M-124.19 1177.79C-290.014 994.917 -276.19 712.238 -93.313 546.413C89.564 380.588 372.242 394.414 538.067 577.292" stroke="#111111" stroke-width="8.414" stroke-linecap="round" stroke-linejoin="round"/>
<path d="M366.906 1329.84C117.106 1418.19 -157.011 1287.31 -245.359 1037.51C-333.707 787.712 -202.826 513.593 46.971 425.245" stroke="#111111" stroke-width="8.414" stroke-linecap="round" stroke-linejoin="round"/>
<path d="M-301.751 940.065C-336.281 659.124 -136.526 403.382 144.416 368.852C425.358 334.322 681.098 534.079 715.628 815.021" stroke="#111111" stroke-width="8.414" stroke-linecap="round" stroke-linejoin="round"/>
<path d="M649.405 1196.22C473.405 1440.59 132.626 1496.01 -111.742 1320.01C-356.11 1144.01 -411.53 803.229 -235.528 558.862" stroke="#111111" stroke-width="8.414" stroke-linecap="round" stroke-linejoin="round"/>
<path d="M745.082 1088.59C628.524 1385.8 293.099 1532.24 -4.10999 1415.68C-301.319 1299.12 -447.763 963.703 -331.206 666.494" stroke="#111111" stroke-width="8.414" stroke-linecap="round" stroke-linejoin="round"/>
<path d="M579.204 1361.81C311.752 1567.41 -71.73 1517.26 -277.326 1249.81C-482.922 982.353 -432.779 598.873 -165.326 393.276" stroke="#111111" stroke-width="8.414" stroke-linecap="round" stroke-linejoin="round"/>
<path d="M850.518 877.542C850.518 1232.98 562.377 1521.12 206.938 1521.12C-148.501 1521.12 -436.641 1232.98 -436.641 877.542" stroke="#111111" stroke-width="8.414" stroke-linecap="round" stroke-linejoin="round"/>
<path d="M719.288 1319.06C475.443 1602.03 48.381 1633.74 -234.582 1389.89C-517.545 1146.05 -549.257 718.986 -305.412 436.022" stroke="#111111" stroke-width="8.414" stroke-linecap="round" stroke-linejoin="round"/>
<path d="M870.946 1126.4C733.506 1493.12 324.801 1678.99 -41.921 1541.55C-408.643 1404.11 -594.511 995.405 -457.07 628.683" stroke="#111111" stroke-width="8.414" stroke-linecap="round" stroke-linejoin="round"/>
<path d="M206.938 1619.42C616.665 1619.42 948.814 1287.27 948.814 877.543C948.814 467.816 616.665 135.667 206.938 135.667C-202.789 135.667 -534.938 467.816 -534.938 877.543C-534.938 1287.27 -202.789 1619.42 206.938 1619.42Z" stroke="#111111" stroke-width="8.414" stroke-linecap="round" stroke-linejoin="round"/>
<path d="M206.937 1652.18C-220.886 1652.18 -567.704 1305.37 -567.704 877.544C-567.704 449.721 -220.886 102.901 206.937 102.901" stroke="#111111" stroke-width="8.414" stroke-linecap="round" stroke-linejoin="round"/>
<path d="M206.938 1684.95C652.857 1684.95 1014.34 1323.46 1014.34 877.541C1014.34 431.623 652.857 70.1343 206.938 70.1343C-238.981 70.1343 -600.469 431.623 -600.469 877.541C-600.469 1323.46 -238.981 1684.95 206.938 1684.95Z" stroke="#111111" stroke-width="8.414" stroke-linecap="round" stroke-linejoin="round"/>
<path d="M206.939 1717.72C670.954 1717.72 1047.11 1341.56 1047.11 877.542C1047.11 413.527 670.954 37.3691 206.939 37.3691C-257.076 37.3691 -633.234 413.527 -633.234 877.542C-633.234 1341.56 -257.076 1717.72 206.939 1717.72Z" stroke="#111111" stroke-width="8.414" stroke-linecap="round" stroke-linejoin="round"/>
<path d="M206.938 1750.48C689.048 1750.48 1079.88 1359.65 1079.88 877.543C1079.88 395.432 689.048 4.60449 206.938 4.60449C-275.172 4.60449 -666 395.432 -666 877.543C-666 1359.65 -275.172 1750.48 206.938 1750.48Z" stroke="#111111" stroke-width="8.414" stroke-linecap="round" stroke-linejoin="round"/>
</svg>
