<svg width="113" height="113" viewBox="0 0 113 113" fill="none" xmlns="http://www.w3.org/2000/svg">
<path d="M103.183 67.9609C100.977 64.1406 98.5814 60.4337 96.0039 56.854C98.5811 53.2742 100.977 49.5673 103.182 45.747C109.154 35.292 112.571 25.6377 112.598 17.6567C112.629 15.3626 112.277 13.0795 111.558 10.9008C110.876 8.82963 109.718 6.9472 108.177 5.40523C106.635 3.86325 104.753 2.70486 102.682 2.0229C100.503 1.30343 98.22 0.951916 95.9259 0.982862C87.9449 1.00986 78.2909 4.42786 67.8359 10.3999C64.0153 12.6044 60.3083 15.0004 56.7288 17.5781C53.1492 15.0004 49.4421 12.6042 45.6218 10.3989C35.1668 4.42688 25.5128 1.00986 17.5318 0.982862C15.2373 0.951679 12.9536 1.30352 10.7749 2.02388C8.70414 2.70585 6.8223 3.86413 5.28072 5.40571C3.73914 6.9473 2.58085 8.82914 1.89888 10.8999C1.17916 13.0788 0.827636 15.3622 0.858843 17.6567C0.884843 25.6367 4.30286 35.291 10.2749 45.747C12.4799 49.567 14.8756 53.2736 17.4528 56.853C14.8755 60.4327 12.4799 64.1396 10.2749 67.9599C4.30286 78.4149 0.885843 88.0688 0.858843 96.0498C0.828071 98.3443 1.17991 100.628 1.89986 102.807C2.58109 104.878 3.73909 106.76 5.2806 108.301C6.8221 109.843 8.70402 111.001 10.7749 111.682C12.954 112.403 15.2379 112.754 17.5328 112.723C25.5138 112.696 35.1678 109.279 45.6218 103.307C49.4422 101.102 53.1492 98.7063 56.7288 96.1289C60.3083 98.7057 64.0149 101.101 67.8348 103.306C78.2898 109.278 87.9439 112.695 95.9249 112.722C98.219 112.753 100.502 112.402 102.681 111.682C104.748 110.99 106.63 109.834 108.181 108.302L106.3 106.421L108.181 108.301C109.712 106.751 110.869 104.872 111.562 102.806C112.281 100.628 112.633 98.3446 112.602 96.0508C112.571 88.0698 109.154 78.4159 103.183 67.9609ZM70.4829 15.0151C80.4239 9.29509 89.5068 6.27669 95.9268 6.30269C97.6294 6.27308 99.3251 6.52621 100.945 7.05171C102.254 7.47013 103.443 8.19572 104.415 9.16743C105.387 10.1391 106.112 11.3292 106.53 12.6381C107.055 14.2582 107.308 15.9538 107.279 17.6567C107.305 24.0767 104.288 33.157 98.5668 43.101C96.8379 46.119 94.8618 49.2212 92.6668 52.3662C83.5294 40.6194 72.9656 30.0553 61.2188 20.9179C64.3618 18.7209 67.4639 16.7451 70.4819 15.0151H70.4829ZM89.3999 56.854C80.0158 69.1521 69.0286 80.1394 56.7308 89.5239C44.4315 80.1398 33.4433 69.152 24.0588 56.853C33.4439 44.5552 44.4317 33.5678 56.7298 24.1831C69.0283 33.5675 80.0158 44.5552 89.3999 56.854ZM14.8898 43.101C9.16985 33.161 6.15179 24.0772 6.17879 17.6582C6.14914 15.9553 6.40194 14.2593 6.92684 12.6391C7.34573 11.3303 8.07134 10.1401 9.04317 9.16841C10.015 8.19676 11.2049 7.47134 12.5139 7.05269C14.1336 6.52718 15.8292 6.27454 17.5318 6.30415C23.9518 6.27815 33.0318 9.29507 42.9758 15.0161C45.9938 16.7461 49.0959 18.721 52.2429 20.916C40.4955 30.0533 29.9309 40.6169 20.7928 52.3637C18.5998 49.2207 16.6198 46.118 14.8898 43.101ZM42.9758 98.6919C33.0358 104.413 23.9528 107.43 17.5328 107.404C15.8299 107.434 14.1338 107.181 12.5139 106.655C11.2048 106.237 10.0148 105.512 9.04305 104.541C8.0713 103.569 7.34601 102.379 6.92781 101.07C6.40233 99.4497 6.1492 97.7537 6.17879 96.0508C6.15279 89.6308 9.16982 80.5509 14.8908 70.6079C16.6198 67.5899 18.5908 64.4868 20.7908 61.3408C29.9279 73.0888 40.4925 83.6534 52.2408 92.79C49.0998 94.986 45.9938 96.9619 42.9758 98.6909V98.6919ZM106.529 101.069C106.111 102.378 105.387 103.568 104.415 104.54C103.443 105.512 102.253 106.236 100.944 106.654C99.3239 107.18 97.6278 107.433 95.9249 107.403C89.5049 107.43 80.4249 104.412 70.4819 98.6919C67.4639 96.9619 64.3619 94.987 61.2169 92.792C72.9636 83.6549 83.527 73.0907 92.6638 61.3437C94.8638 64.4897 96.8368 67.5928 98.5638 70.6108C104.284 80.5508 107.302 89.6342 107.275 96.0542C107.305 97.7553 107.053 99.4492 106.529 101.068V101.069Z" fill="black"/>
</svg>
