<svg width="331" height="331" viewBox="0 0 331 331" fill="none" xmlns="http://www.w3.org/2000/svg">
<path d="M308.088 248.208C311.327 242.656 314.237 236.918 316.805 231.025L223.25 319.782C234.721 315.489 245.677 309.929 255.914 303.203L308.088 248.208Z" fill="#E4E4E5"/>
<path d="M327 199.015C327.43 196.948 327.819 194.869 328.169 192.779L184.962 329.045C192.483 328.161 199.934 326.758 207.262 324.846L327 199.015Z" fill="#E4E4E5"/>
<path d="M330.485 165.161C330.485 164.461 330.467 163.761 330.458 163.055L155.633 329.901C158.88 330.092 162.15 330.202 165.446 330.202C168.379 330.202 171.294 330.125 174.189 329.971L330.472 166.213C330.474 165.86 330.485 165.512 330.485 165.161Z" fill="#E4E4E5"/>
<path d="M328.455 139.25C328.368 138.7 328.274 138.149 328.182 137.605L130.793 326.543C136.009 327.657 141.311 328.521 146.7 329.133L328.455 139.25Z" fill="#E4E4E5"/>
<path d="M323.015 115.927C322.93 115.656 322.838 115.389 322.752 115.118L109.026 320.301C113.493 321.927 118.047 323.359 122.689 324.597L323.015 115.927Z" fill="#E4E4E5"/>
<path d="M315.011 95.3232C314.955 95.2042 314.9 95.0843 314.843 94.9653L89.6519 311.796C93.4519 313.764 97.3358 315.589 101.304 317.271L315.011 95.3232Z" fill="#E4E4E5"/>
<path d="M304.926 76.9126C304.9 76.8726 304.876 76.8315 304.85 76.7915L72.2769 301.392C75.4769 303.584 78.7553 305.663 82.1119 307.631L304.926 76.9126Z" fill="#E4E4E5"/>
<path d="M56.6849 289.285C59.3289 291.603 62.0469 293.836 64.8389 295.984L293 60.4282L292.984 60.4087L56.6849 289.285Z" fill="#E4E4E5"/>
<path d="M48.7639 281.878C48.9639 282.078 49.1639 282.269 49.3639 282.467L279.347 45.7295L42.7699 275.557C44.7032 277.702 46.6882 279.797 48.7249 281.842L48.7639 281.878Z" fill="#E4E4E5"/>
<path d="M264.006 32.7734L263.969 32.7466L30.5159 260.21C32.1752 262.56 33.8919 264.866 35.6659 267.126L264.006 32.7734Z" fill="#E4E4E5"/>
<path d="M246.91 21.6015L246.786 21.5322L19.9858 243.173C21.2085 245.45 22.4833 247.693 23.8099 249.902L246.91 21.6015Z" fill="#E4E4E5"/>
<path d="M227.906 12.3623L227.646 12.2563L11.3239 224.281C12.1499 226.434 13.0195 228.564 13.9329 230.672L227.906 12.3623Z" fill="#E4E4E5"/>
<path d="M206.71 5.32123C206.562 5.28323 206.41 5.25034 206.264 5.21234L4.82788 203.232C5.29455 205.217 5.79987 207.188 6.34387 209.145L206.71 5.32123Z" fill="#E4E4E5"/>
<path d="M182.768 1.02435L182.1 0.953552L1.03186 179.478C1.18519 181.26 1.36616 183.034 1.57483 184.799L182.768 1.02435Z" fill="#E4E4E5"/>
<path d="M155.083 0.45459C154.766 0.47459 154.449 0.493648 154.133 0.514648L0.927856 152.015C0.805856 153.555 0.700826 155.099 0.621826 156.65L155.083 0.45459Z" fill="#E4E4E5"/>
<path d="M121.1 6.15622C120.643 6.28422 120.186 6.41047 119.731 6.54147L7.22083 118.129C6.82883 119.451 6.45321 120.778 6.09387 122.112L121.1 6.15622Z" fill="#E4E4E5"/>
<path d="M40.8839 56.8926C38.7759 59.3152 36.7405 61.8006 34.7778 64.3486L63.9779 34.9995C61.8879 36.6301 59.8385 38.3105 57.8298 40.0405L40.8839 56.8926Z" fill="#E4E4E5"/>
</svg>
