<svg width="141" height="271" viewBox="0 0 141 271" fill="none" xmlns="http://www.w3.org/2000/svg">
<path d="M91.6821 60.1598C92.7406 60.3938 93.8212 60.5139 94.9053 60.5178C95.8897 60.5222 96.8716 60.4246 97.8359 60.2268C96.3932 57.4673 95.8361 54.3301 96.2407 51.2426C96.6453 48.1551 97.9921 45.2674 100.097 42.9728C105.579 36.9078 112.517 29.9258 120.975 21.4668C120.975 21.4668 120.416 20.9078 120.17 20.6838C119.924 20.4158 119.387 19.8838 119.387 19.8838C110.928 28.3198 103.946 35.2838 97.8809 40.7628C95.3504 43.0692 92.1161 44.4543 88.7007 44.6938C85.2852 44.9334 81.8887 44.0134 79.061 42.0828C80.806 53.3788 84.3871 57.6998 91.6821 60.1598Z" fill="#E4E4E5"/>
<path d="M43.6143 60.2269C44.5782 60.4271 45.5604 60.5246 46.5449 60.5179C47.6289 60.5127 48.7094 60.3927 49.7681 60.1599C57.0631 57.6979 60.6442 53.3789 62.3892 42.0779C59.5635 44.0139 56.1659 44.9371 52.749 44.6974C49.3321 44.4578 46.0971 43.0693 43.5693 40.7579C37.5043 35.2969 30.522 28.3379 22.063 19.8789L21.2632 20.6789L20.479 21.4619C28.916 29.9209 35.8789 36.9259 41.3579 42.9679C43.4579 45.2664 44.8011 48.1549 45.2046 51.2421C45.6081 54.3292 45.0529 57.4658 43.6143 60.2269V60.2269Z" fill="#E4E4E5"/>
<path d="M97.814 80.0539C96.8572 79.8549 95.8825 79.7573 94.9053 79.7629C93.822 79.7592 92.7413 79.8718 91.6821 80.0989C85.6631 82.1349 82.4402 85.425 80.4712 91.78C81.3837 93.228 82.1126 94.7839 82.6411 96.4119C85.2221 95.4921 88.005 95.2937 90.6904 95.838C93.3758 96.3823 95.8617 97.6487 97.8809 99.5009C103.923 104.983 110.928 111.943 119.387 120.38L120.17 119.596L120.975 118.796C112.517 110.337 105.557 103.355 100.097 97.2899C97.9981 94.9961 96.6534 92.1133 96.2451 89.0309C95.8368 85.9486 96.3845 82.8151 97.814 80.0539V80.0539Z" fill="#E4E4E5"/>
<path d="M49.7681 80.1C48.7087 79.874 47.6281 79.7614 46.5449 79.764C45.5604 79.7573 44.5782 79.8548 43.6143 80.055C45.0479 82.8143 45.5979 85.9479 45.1895 89.0305C44.781 92.113 43.4338 94.9953 41.3311 97.286C35.8711 103.351 28.9111 110.355 20.4741 118.792C20.4741 118.792 21.0343 119.351 21.2583 119.592C21.5263 119.839 22.0581 120.376 22.0581 120.376C30.5171 111.939 37.499 104.976 43.564 99.497C45.5826 97.644 48.0688 96.3769 50.7544 95.8326C53.44 95.2883 56.2233 95.4872 58.8042 96.408C59.3327 94.7801 60.0616 93.2241 60.9741 91.776C59.0101 85.425 55.7871 82.135 49.7681 80.1Z" fill="#E4E4E5"/>
<path d="M119.475 68.8609C102.361 68.2129 104.824 62.8708 104.824 62.8708C102.064 65.6308 95.8241 66.9329 90.1431 65.5389C72.1971 59.6319 71.8433 43.6279 71.8433 0.192871H69.5889C69.5889 43.6279 69.2351 59.6319 51.2891 65.5389C45.6061 66.9329 39.3679 65.6308 36.6079 62.8708C36.6079 62.8708 39.071 68.2129 21.958 68.8609C15.735 68.9889 8.73332 69.0049 0.77832 69.0049V71.2589C8.73532 71.2589 15.7389 71.2749 21.9619 71.4029C39.0709 72.0509 36.6079 77.3919 36.6079 77.3919C39.3679 74.6319 45.608 73.3299 51.29 74.7239C60.129 77.6339 64.709 83.0109 67.064 92.8959C64.086 96.3799 60.9241 103.434 64.6001 116.64C67.4511 126.878 66.248 142.303 63.457 145.095C63.457 145.095 69.5903 142.824 69.5903 163.83V270.277H71.8442V163.83C71.8442 142.824 77.978 145.095 77.978 145.095C75.186 142.303 73.984 126.878 76.834 116.64C80.51 103.434 77.3481 96.3799 74.3701 92.8959C76.7261 83.0109 81.305 77.6339 90.144 74.7239C95.828 73.3299 102.066 74.6319 104.826 77.3919C104.826 77.3919 102.363 72.0509 119.472 71.4029C125.696 71.2749 132.699 71.2589 140.656 71.2589V69.0049C132.704 69.0049 125.702 68.9889 119.475 68.8609Z" fill="#E4E4E5"/>
</svg>
