<svg width="218" height="107" viewBox="0 0 218 107" fill="none" xmlns="http://www.w3.org/2000/svg">
<path d="M87.8284 0H103.537V21.9551C103.536 25.2446 102.889 28.5019 101.63 31.541C100.371 34.5801 98.5254 37.3415 96.1993 39.6675C93.8731 41.9934 91.1116 43.8382 88.0724 45.0969C85.0333 46.3556 81.7759 47.0033 78.4864 47.0031H56.5323V31.2962C56.5327 22.996 59.8301 15.036 65.6992 9.16698C71.5683 3.29791 79.5283 0.000395002 87.8284 0Z" fill="white"/>
<path d="M87.8284 106.829H103.537V84.8737C103.536 78.2302 100.897 71.8588 96.1997 67.1611C91.5021 62.4634 85.1309 59.8242 78.4874 59.824H56.5323V75.5312C56.5322 83.8316 59.8294 91.7919 65.6985 97.6614C71.5677 103.531 79.528 106.828 87.8284 106.829Z" fill="white"/>
<path d="M15.7081 106.829H0V84.8737C0.000131677 78.2301 2.63938 71.8586 7.33718 67.1609C12.035 62.4631 18.4065 59.824 25.0501 59.824H47.0047V75.5312C47.0047 79.6412 46.1952 83.7108 44.6225 87.5079C43.0497 91.3051 40.7444 94.7553 37.8383 97.6616C34.9321 100.568 31.482 102.873 27.6849 104.446C23.8878 106.019 19.8181 106.829 15.7081 106.829Z" fill="white"/>
<path d="M15.7081 0H0V21.9551C-1.03397e-08 25.2447 0.647914 28.5019 1.90683 31.541C3.16574 34.5801 5.01097 37.3415 7.33712 39.6675C9.66327 41.9934 12.4248 43.8385 15.464 45.0972C18.5032 46.3558 21.7606 47.0034 25.0501 47.0031H47.0047V31.2962C47.0044 22.9959 43.707 15.0356 37.8378 9.16649C31.9686 3.29738 24.0083 0.00013167 15.7081 0Z" fill="white"/>
<path d="M202.292 3.94392e-09H218V21.9551C218 25.2446 217.352 28.5019 216.093 31.541C214.834 34.5801 212.989 37.3413 210.663 39.6672C208.337 41.9932 205.576 43.8382 202.537 45.0969C199.498 46.3556 196.24 47.0033 192.951 47.0031H170.995V31.2962C170.995 22.9957 174.293 15.0354 180.162 9.16625C186.031 3.29711 193.992 -0.000131678 202.292 3.94392e-09ZM202.292 106.829H218V84.874C218 78.2305 215.361 71.8591 210.663 67.1614C205.966 62.4637 199.594 59.8244 192.951 59.8243H170.995V75.5315C170.995 79.6416 171.804 83.7112 173.377 87.5085C174.95 91.3057 177.255 94.7559 180.161 97.6621C183.068 100.568 186.518 102.874 190.315 104.447C194.112 106.02 198.182 106.829 202.292 106.829ZM161.468 75.5315V59.8243H139.513C132.869 59.8243 126.498 62.4634 121.8 67.1611C117.103 71.8589 114.463 78.2304 114.463 84.874V106.829H130.171C134.281 106.829 138.351 106.019 142.148 104.447C145.946 102.874 149.396 100.568 152.302 97.6621C155.208 94.7559 157.513 91.3056 159.086 87.5085C160.659 83.7113 161.468 79.6415 161.468 75.5315ZM130.171 3.94392e-09H114.463V21.9551C114.463 25.2446 115.111 28.5019 116.37 31.541C117.629 34.5801 119.474 37.3413 121.8 39.6672C124.126 41.9932 126.888 43.8382 129.927 45.0969C132.966 46.3556 136.224 47.0033 139.513 47.0031H161.468V31.2962C161.468 22.9959 158.17 15.0356 152.301 9.16649C146.432 3.29738 138.472 0.000131674 130.171 3.94392e-09Z" fill="white"/>
</svg>
