<svg width="164" height="122" viewBox="0 0 164 122" fill="none" xmlns="http://www.w3.org/2000/svg">
<path d="M102.673 0.000159136C95.6212 -0.00605409 88.6215 1.19895 81.9823 3.56232C72.7261 0.270102 62.8098 -0.761018 53.069 0.555863C43.3282 1.87274 34.0485 5.49918 26.0117 11.1293C17.975 16.7594 11.4169 24.2281 6.88996 32.9065C2.36304 41.5848 0 51.2183 0 60.995C0 70.7716 2.36304 80.405 6.88996 89.0833C11.4169 97.7616 17.975 105.23 26.0117 110.86C34.0485 116.491 43.3282 120.117 53.069 121.434C62.8098 122.751 72.7261 121.72 81.9823 118.427C90.4014 121.426 99.378 122.558 108.283 121.744C117.188 120.929 125.807 118.187 133.534 113.711C141.262 109.235 147.912 103.132 153.018 95.8305C158.124 88.529 161.564 80.2055 163.095 71.4428C164.625 62.6802 164.211 53.6905 161.881 45.1039C159.55 36.5172 155.36 28.5412 149.604 21.7348C143.847 14.9284 136.664 9.45629 128.557 5.70179C120.45 1.94728 111.616 0.00132507 102.673 0.000159136ZM61.2925 117.007C53.3239 117 45.4474 115.312 38.1835 112.054C30.9195 108.795 24.4336 104.041 19.1541 98.1046C13.8747 92.1685 9.92191 85.1856 7.55707 77.6175C5.19222 70.0495 4.4691 62.0684 5.43552 54.2019C6.40193 46.3353 9.03586 38.7623 13.1633 31.9831C17.2907 25.2039 22.8176 19.3731 29.3788 14.8757C35.94 10.3783 43.3862 7.31673 51.2252 5.89348C59.0643 4.47024 67.1178 4.71768 74.8537 6.61932C63.2033 12.535 53.7493 21.9859 47.8612 33.6029C53.4426 27.3757 60.7947 22.9821 68.9434 21.0042C77.0922 19.0263 85.6528 19.5576 93.4911 22.5276C101.329 25.4977 108.075 30.7663 112.835 37.6353C117.595 44.5043 120.143 52.6494 120.143 60.9915C120.143 69.3336 117.595 77.4787 112.835 84.3477C108.075 91.2167 101.329 96.4854 93.4911 99.4554C85.6528 102.425 77.0922 102.957 68.9434 100.979C60.7947 99.001 53.4426 94.6073 47.8612 88.3801C53.7493 99.9977 63.2036 109.449 74.8544 115.365C70.4172 116.456 65.8633 117.007 61.2925 117.007ZM53.9303 60.9957C53.9301 56.116 55.3849 51.3458 58.1107 47.2884C60.8365 43.2311 64.7109 40.0686 69.2438 38.2011C73.7768 36.3337 78.7648 35.845 83.577 36.7969C88.3892 37.7488 92.8096 40.0985 96.279 43.5489C99.7485 46.9993 102.111 51.3954 103.068 56.1813C104.026 60.9672 103.535 65.9281 101.657 70.4363C99.7793 74.9445 96.5997 78.7977 92.5201 81.5087C88.4405 84.2197 83.6442 85.6668 78.7377 85.6668C72.1585 85.6668 65.8488 83.0676 61.1965 78.4408C56.5442 73.8141 53.9305 67.5389 53.9303 60.9957Z" fill="white"/>
</svg>
