<svg width="55" height="55" viewBox="0 0 55 55" fill="none" xmlns="http://www.w3.org/2000/svg">
<path d="M50.7983 47.3936C50.5856 47.1808 50.4164 46.9284 50.3013 46.6504C50.1861 46.3724 50.1269 46.0745 50.127 45.7737V34.3105C50.127 33.7031 49.886 33.1205 49.4565 32.6909C49.0271 32.2613 48.4444 32.0198 47.8369 32.0195H36.375C35.7676 32.0195 35.1849 31.7786 34.7549 31.3496L32.4453 29.0386C32.2325 28.8261 32.0634 28.5737 31.9482 28.2959C31.8331 28.0181 31.7739 27.7204 31.7739 27.4197C31.7739 27.1189 31.8331 26.821 31.9482 26.5432C32.0634 26.2654 32.2325 26.013 32.4453 25.8005L34.7559 23.4885C35.1854 23.0595 35.7679 22.8186 36.375 22.8186H47.8379C48.1387 22.8186 48.4369 22.7594 48.7148 22.6443C48.9927 22.5291 49.2449 22.3602 49.4575 22.1475C49.6702 21.9347 49.8391 21.6822 49.9541 21.4043C50.0691 21.1263 50.1281 20.8284 50.1279 20.5276V9.06372C50.128 8.76293 50.1874 8.46506 50.3027 8.18726C50.418 7.90945 50.5874 7.65702 50.8003 7.44458L53.7861 4.45752C54.2157 4.028 54.457 3.44556 54.457 2.83813C54.457 2.2307 54.2157 1.64827 53.7861 1.21875C53.3566 0.789232 52.7739 0.547852 52.1665 0.547852C51.5591 0.547851 50.9764 0.789232 50.5469 1.21875L47.561 4.20557C47.3483 4.41826 47.0958 4.58694 46.8179 4.7019C46.5399 4.81687 46.2417 4.87603 45.9409 4.87573H34.4751C33.8677 4.876 33.2854 5.1175 32.856 5.54712C32.4265 5.97674 32.1851 6.55931 32.1851 7.16675V18.6287C32.185 19.2363 31.9437 19.8188 31.5142 20.2485L29.2031 22.5586C28.9905 22.7714 28.7378 22.9402 28.46 23.0554C28.1821 23.1706 27.8843 23.23 27.5835 23.23C27.2827 23.23 26.9849 23.1706 26.707 23.0554C26.4291 22.9402 26.1765 22.7714 25.9639 22.5586L23.6543 20.2485C23.4413 20.0359 23.272 19.7836 23.1567 19.5056C23.0414 19.2276 22.982 18.9296 22.9819 18.6287V7.1687C22.9821 6.86789 22.9231 6.56994 22.8081 6.29199C22.6931 6.01404 22.5242 5.76158 22.3115 5.54883C22.0989 5.33608 21.8467 5.16715 21.5688 5.052C21.2909 4.93686 20.9927 4.87769 20.6919 4.87769H9.229C8.62186 4.87781 8.03937 4.63664 7.60986 4.20752L4.62305 1.21973C4.41037 1.00705 4.15776 0.838244 3.87988 0.723145C3.60201 0.608045 3.30419 0.548828 3.00342 0.548828C2.70265 0.548828 2.40483 0.608045 2.12695 0.723145C1.84908 0.838244 1.59695 1.00705 1.38428 1.21973C1.1716 1.4324 1.00279 1.68477 0.887695 1.96265C0.772596 2.24052 0.713379 2.53834 0.713379 2.83911C0.713379 3.13988 0.772596 3.4377 0.887695 3.71558C1.00279 3.99345 1.1716 4.24606 1.38428 4.45874L4.37109 7.44556C4.58392 7.65823 4.75254 7.91075 4.86768 8.18872C4.98281 8.4667 5.04211 8.7648 5.04199 9.06567V20.5276C5.04199 21.135 5.28346 21.7176 5.71289 22.1472C6.14232 22.5768 6.72459 22.8183 7.33203 22.8186H18.7949C19.4024 22.8184 19.9852 23.0593 20.415 23.4885L22.7261 25.8005C23.1554 26.23 23.3965 26.8125 23.3965 27.4197C23.3965 28.0269 23.1554 28.6091 22.7261 29.0386L20.415 31.3496C20.2024 31.5625 19.9499 31.7312 19.6719 31.8462C19.3939 31.9612 19.0958 32.0201 18.7949 32.0195H7.33203C6.72459 32.0198 6.14232 32.2613 5.71289 32.6909C5.28346 33.1205 5.04199 33.7031 5.04199 34.3105V45.7747C5.04185 46.3819 4.80059 46.9642 4.37109 47.3936L1.38428 50.3796C0.966555 50.8116 0.735246 51.3903 0.740234 51.9912C0.745222 52.5921 0.985809 53.1671 1.41064 53.592C1.83548 54.017 2.41035 54.258 3.01123 54.2632C3.61211 54.2684 4.19096 54.0372 4.62305 53.6196L7.60889 50.6316C8.03883 50.2025 8.62158 49.9616 9.229 49.9617H20.6929C20.9937 49.9617 21.2919 49.9023 21.5698 49.7871C21.8477 49.672 22.0998 49.5033 22.3125 49.2905C22.5252 49.0778 22.6941 48.8253 22.8091 48.5474C22.9241 48.2694 22.983 47.9715 22.9829 47.6707V36.2075C22.983 35.9067 23.0424 35.6091 23.1577 35.3313C23.273 35.0535 23.4423 34.8011 23.6553 34.5886L25.9653 32.2776C26.1779 32.0648 26.4301 31.896 26.708 31.7808C26.9859 31.6656 27.2837 31.6062 27.5845 31.6062C27.8853 31.6062 28.1831 31.6656 28.4609 31.7808C28.7388 31.896 28.9915 32.0648 29.2041 32.2776L31.5151 34.5876C31.9443 35.0175 32.1852 35.6001 32.1851 36.2075V47.6707C32.1851 48.2777 32.4262 48.86 32.8555 49.2893C33.2847 49.7186 33.867 49.9597 34.4741 49.9597H44.8311H45.938C46.5451 49.9599 47.1274 50.2008 47.5571 50.6296L50.5439 53.6177C50.7554 53.8363 51.0081 54.0105 51.2876 54.1304C51.5671 54.2503 51.8678 54.3134 52.1719 54.3159C52.476 54.3184 52.7776 54.2605 53.0591 54.1453C53.3405 54.03 53.596 53.8599 53.811 53.6448C54.026 53.4297 54.1964 53.1741 54.3115 52.8926C54.4267 52.6111 54.4846 52.3095 54.4819 52.0054C54.4793 51.7013 54.4164 51.4005 54.2964 51.1211C54.1764 50.8416 54.0019 50.589 53.7832 50.3777L50.7983 47.3936Z" fill="white"/>
</svg>
