<svg width="530" height="523" viewBox="0 0 530 523" fill="none" xmlns="http://www.w3.org/2000/svg">
<path d="M515.911 507.581C523.289 500.202 527.504 492.455 525.326 490.277C523.148 488.099 515.401 492.314 508.022 499.692C500.644 507.07 496.429 514.817 498.607 516.996C500.786 519.174 508.533 514.959 515.911 507.581Z" fill="#E4E4E5"/>
<path d="M516.231 458.32C522.132 450.334 525.003 442.448 522.646 440.706C520.288 438.964 513.593 444.026 507.693 452.012C501.792 459.999 498.92 467.885 501.278 469.627C503.636 471.369 510.331 466.307 516.231 458.32Z" fill="#E4E4E5"/>
<path d="M516.57 409.06C521 400.46 522.534 392.428 519.995 391.12C517.456 389.812 511.806 395.723 507.376 404.323C502.946 412.922 501.412 420.954 503.951 422.262C506.49 423.57 512.14 417.659 516.57 409.06Z" fill="#E4E4E5"/>
<path d="M516.892 359.79C519.843 350.578 520.031 342.404 517.311 341.533C514.591 340.661 509.994 347.423 507.043 356.635C504.091 365.847 503.904 374.021 506.623 374.892C509.343 375.764 513.94 369.002 516.892 359.79Z" fill="#E4E4E5"/>
<path d="M517.227 310.53C518.707 300.706 517.556 292.387 514.655 291.95C511.755 291.514 508.204 299.123 506.724 308.947C505.244 318.772 506.395 327.09 509.296 327.527C512.196 327.964 515.747 320.354 517.227 310.53Z" fill="#E4E4E5"/>
<path d="M511.967 280.158C515.048 280.158 517.545 271.699 517.545 261.265C517.545 250.831 515.048 242.372 511.967 242.372C508.886 242.372 506.389 250.831 506.389 261.265C506.389 271.699 508.886 280.158 511.967 280.158Z" fill="#E4E4E5"/>
<path d="M514.655 230.577C517.556 230.14 518.707 221.822 517.227 211.998C515.747 202.173 512.196 194.564 509.296 195.001C506.395 195.438 505.244 203.756 506.724 213.58C508.204 223.404 511.755 231.014 514.655 230.577Z" fill="#E4E4E5"/>
<path d="M517.311 180.996C520.031 180.124 519.843 171.95 516.892 162.738C513.94 153.526 509.343 146.765 506.623 147.636C503.904 148.507 504.091 156.681 507.043 165.894C509.994 175.106 514.591 181.867 517.311 180.996Z" fill="#E4E4E5"/>
<path d="M519.995 131.408C522.534 130.1 521 122.068 516.57 113.469C512.14 104.869 506.49 98.9582 503.951 100.266C501.412 101.574 502.946 109.606 507.376 118.205C511.806 126.805 517.456 132.716 519.995 131.408Z" fill="#E4E4E5"/>
<path d="M522.646 81.8242C525.003 80.0822 522.132 72.1957 516.231 64.2093C510.331 56.2228 503.636 51.1607 501.278 52.9027C498.92 54.6447 501.792 62.5311 507.693 70.5176C513.593 78.504 520.288 83.5662 522.646 81.8242Z" fill="#E4E4E5"/>
<path d="M525.326 32.2522C527.504 30.0738 523.289 22.3267 515.911 14.9485C508.533 7.57037 500.786 3.35507 498.607 5.53342C496.429 7.71176 500.644 15.4589 508.022 22.837C515.401 30.2152 523.148 34.4305 525.326 32.2522Z" fill="#E4E4E5"/>
<path d="M473.515 506.629C479.666 498.738 482.763 490.869 480.434 489.054C478.104 487.238 471.23 492.162 465.079 500.053C458.929 507.944 455.831 515.812 458.161 517.628C460.491 519.444 467.365 514.519 473.515 506.629Z" fill="#E4E4E5"/>
<path d="M473.781 457.5C478.7 449.103 480.677 441.119 478.199 439.667C475.72 438.215 469.722 443.845 464.803 452.242C459.885 460.639 457.907 468.623 460.386 470.076C462.865 471.528 468.862 465.898 473.781 457.5Z" fill="#E4E4E5"/>
<path d="M474.052 408.369C477.741 399.462 478.601 391.36 475.971 390.27C473.342 389.181 468.22 395.519 464.531 404.425C460.842 413.331 459.982 421.434 462.612 422.523C465.241 423.612 470.363 417.275 474.052 408.369Z" fill="#E4E4E5"/>
<path d="M474.335 359.231C476.797 349.811 476.539 341.585 473.758 340.858C470.977 340.131 466.726 347.179 464.264 356.599C461.802 366.019 462.061 374.245 464.842 374.972C467.623 375.699 471.873 368.652 474.335 359.231Z" fill="#E4E4E5"/>
<path d="M474.597 310.105C475.827 300.18 474.449 291.84 471.519 291.477C468.588 291.114 465.216 298.866 463.987 308.791C462.757 318.715 464.135 327.055 467.065 327.418C469.996 327.781 473.368 320.03 474.597 310.105Z" fill="#E4E4E5"/>
<path d="M469.292 279.867C472.373 279.867 474.87 271.409 474.87 260.974C474.87 250.54 472.373 242.081 469.292 242.081C466.211 242.081 463.714 250.54 463.714 260.974C463.714 271.409 466.211 279.867 469.292 279.867Z" fill="#E4E4E5"/>
<path d="M471.519 230.47C474.449 230.107 475.827 221.767 474.597 211.842C473.368 201.917 469.996 194.166 467.065 194.529C464.135 194.892 462.757 203.232 463.987 213.157C465.216 223.082 468.588 230.833 471.519 230.47Z" fill="#E4E4E5"/>
<path d="M473.758 181.089C476.539 180.363 476.797 172.137 474.335 162.716C471.873 153.296 467.623 146.248 464.842 146.975C462.061 147.702 461.802 155.928 464.264 165.348C466.726 174.769 470.977 181.816 473.758 181.089Z" fill="#E4E4E5"/>
<path d="M475.971 131.678C478.601 130.589 477.741 122.486 474.052 113.58C470.363 104.673 465.241 98.3362 462.612 99.4252C459.982 100.514 460.842 108.617 464.531 117.524C468.22 126.43 473.342 132.767 475.971 131.678Z" fill="#E4E4E5"/>
<path d="M478.199 82.2807C480.677 80.8286 478.7 72.8441 473.781 64.447C468.862 56.0498 462.865 50.4197 460.386 51.8719C457.907 53.324 459.885 61.3085 464.803 69.7056C469.722 78.1028 475.72 83.7329 478.199 82.2807Z" fill="#E4E4E5"/>
<path d="M480.434 32.8938C482.763 31.078 479.666 23.2094 473.515 15.3188C467.365 7.4282 460.491 2.50359 458.161 4.31939C455.831 6.13518 458.929 14.0038 465.079 21.8944C471.23 29.785 478.104 34.7096 480.434 32.8938Z" fill="#E4E4E5"/>
<path d="M432.559 505.974C437.478 497.577 439.456 489.593 436.977 488.141C434.498 486.689 428.5 492.319 423.581 500.716C418.663 509.113 416.685 517.097 419.164 518.55C421.643 520.002 427.64 514.372 432.559 505.974Z" fill="#E4E4E5"/>
<path d="M432.777 456.974C436.712 448.17 437.795 440.09 435.196 438.929C432.597 437.767 427.299 443.963 423.364 452.767C419.429 461.572 418.346 469.651 420.945 470.813C423.545 471.975 428.842 465.779 432.777 456.974Z" fill="#E4E4E5"/>
<path d="M432.995 407.975C435.946 398.763 436.134 390.588 433.414 389.717C430.694 388.846 426.097 395.607 423.146 404.819C420.194 414.031 420.007 422.206 422.726 423.077C425.446 423.948 430.043 417.187 432.995 407.975Z" fill="#E4E4E5"/>
<path d="M433.214 358.975C435.181 349.355 434.474 341.086 431.634 340.506C428.794 339.925 424.896 347.252 422.929 356.871C420.961 366.49 421.668 374.759 424.509 375.34C427.349 375.921 431.246 368.594 433.214 358.975Z" fill="#E4E4E5"/>
<path d="M433.435 309.982C434.422 299.958 432.823 291.595 429.864 291.304C426.904 291.012 423.704 298.902 422.717 308.927C421.729 318.951 423.328 327.314 426.288 327.605C429.248 327.897 432.448 320.007 433.435 309.982Z" fill="#E4E4E5"/>
<path d="M428.07 279.867C431.151 279.867 433.648 271.409 433.648 260.974C433.648 250.54 431.151 242.081 428.07 242.081C424.989 242.081 422.492 250.54 422.492 260.974C422.492 271.409 424.989 279.867 428.07 279.867Z" fill="#E4E4E5"/>
<path d="M429.864 230.644C432.823 230.353 434.422 221.99 433.435 211.966C432.448 201.941 429.248 194.051 426.288 194.343C423.328 194.634 421.729 202.997 422.717 213.021C423.704 223.046 426.904 230.936 429.864 230.644Z" fill="#E4E4E5"/>
<path d="M431.633 181.442C434.473 180.861 435.18 172.592 433.213 162.973C431.245 153.354 427.348 146.027 424.508 146.608C421.667 147.188 420.96 155.457 422.928 165.077C424.895 174.696 428.793 182.023 431.633 181.442Z" fill="#E4E4E5"/>
<path d="M433.414 132.23C436.134 131.359 435.946 123.185 432.995 113.973C430.043 104.761 425.446 97.999 422.726 98.8703C420.007 99.7417 420.194 107.916 423.146 117.128C426.097 126.34 430.694 133.101 433.414 132.23Z" fill="#E4E4E5"/>
<path d="M435.195 83.0189C437.794 81.8572 436.711 73.7779 432.776 64.9733C428.841 56.1687 423.544 49.9729 420.944 51.1346C418.345 52.2963 419.428 60.3756 423.363 69.1802C427.298 77.9848 432.596 84.1806 435.195 83.0189Z" fill="#E4E4E5"/>
<path d="M436.977 33.8066C439.456 32.3545 437.478 24.37 432.559 15.9729C427.64 7.57568 421.643 1.94563 419.164 3.39777C416.685 4.84991 418.663 12.8344 423.581 21.2315C428.5 29.6287 434.498 35.2588 436.977 33.8066Z" fill="#E4E4E5"/>
<path d="M311.159 504.302C312.389 494.382 311.012 486.045 308.083 485.682C305.154 485.318 301.782 493.066 300.552 502.987C299.322 512.908 300.699 521.245 303.628 521.608C306.557 521.971 309.929 514.223 311.159 504.302Z" fill="#E4E4E5"/>
<path d="M311.222 455.697C312.209 445.673 310.61 437.31 307.651 437.018C304.691 436.727 301.491 444.617 300.504 454.641C299.516 464.666 301.115 473.028 304.075 473.32C307.035 473.611 310.235 465.721 311.222 455.697Z" fill="#E4E4E5"/>
<path d="M311.275 407.093C312.016 396.968 310.194 388.582 307.204 388.364C304.215 388.145 301.191 396.175 300.449 406.3C299.708 416.425 301.53 424.81 304.52 425.029C307.509 425.248 310.533 417.218 311.275 407.093Z" fill="#E4E4E5"/>
<path d="M311.326 358.477C311.818 348.246 309.768 339.834 306.748 339.689C303.728 339.544 300.881 347.72 300.389 357.951C299.897 368.181 301.946 376.593 304.967 376.738C307.987 376.883 310.834 368.707 311.326 358.477Z" fill="#E4E4E5"/>
<path d="M311.381 309.87C311.627 299.538 309.354 291.103 306.303 291.03C303.253 290.958 300.58 299.275 300.334 309.607C300.088 319.94 302.362 328.375 305.412 328.448C308.463 328.52 311.135 320.203 311.381 309.87Z" fill="#E4E4E5"/>
<path d="M305.857 280.158C308.938 280.158 311.435 271.699 311.435 261.265C311.435 250.831 308.938 242.372 305.857 242.372C302.776 242.372 300.279 250.831 300.279 261.265C300.279 271.699 302.776 280.158 305.857 280.158Z" fill="#E4E4E5"/>
<path d="M306.303 231.499C309.354 231.426 311.627 222.991 311.381 212.659C311.135 202.326 308.463 194.009 305.412 194.081C302.362 194.154 300.088 202.589 300.334 212.922C300.58 223.254 303.253 231.572 306.303 231.499Z" fill="#E4E4E5"/>
<path d="M306.748 182.841C309.768 182.696 311.818 174.285 311.326 164.054C310.834 153.823 307.987 145.647 304.967 145.792C301.946 145.938 299.897 154.349 300.389 164.58C300.881 174.811 303.728 182.987 306.748 182.841Z" fill="#E4E4E5"/>
<path d="M307.204 134.165C310.194 133.947 312.016 125.561 311.275 115.436C310.533 105.311 307.509 97.2809 304.52 97.4997C301.53 97.7186 299.708 106.104 300.449 116.229C301.191 126.354 304.215 134.384 307.204 134.165Z" fill="#E4E4E5"/>
<path d="M307.651 85.5116C310.61 85.2201 312.209 76.8574 311.222 66.833C310.235 56.8086 307.035 48.9185 304.075 49.21C301.115 49.5015 299.516 57.8642 300.504 67.8886C301.491 77.9131 304.691 85.8031 307.651 85.5116Z" fill="#E4E4E5"/>
<path d="M308.083 36.8488C311.012 36.4856 312.389 28.1489 311.159 18.2281C309.929 8.30733 306.557 0.559361 303.628 0.92252C300.699 1.28568 299.322 9.62245 300.552 19.5432C301.782 29.464 305.154 37.212 308.083 36.8488Z" fill="#E4E4E5"/>
<path d="M350.669 504.655C353.131 495.234 352.873 487.008 350.092 486.281C347.311 485.554 343.06 492.602 340.598 502.022C338.136 511.443 338.395 519.669 341.176 520.396C343.957 521.122 348.207 514.075 350.669 504.655Z" fill="#E4E4E5"/>
<path d="M350.77 455.924C352.737 446.304 352.03 438.035 349.19 437.454C346.35 436.873 342.452 444.2 340.485 453.82C338.517 463.439 339.224 471.708 342.065 472.289C344.905 472.87 348.802 465.543 350.77 455.924Z" fill="#E4E4E5"/>
<path d="M350.886 407.189C352.366 397.364 351.215 389.046 348.314 388.609C345.414 388.172 341.863 395.782 340.383 405.606C338.903 415.43 340.054 423.749 342.955 424.186C345.855 424.623 349.406 417.013 350.886 407.189Z" fill="#E4E4E5"/>
<path d="M350.991 358.457C351.978 348.433 350.379 340.07 347.419 339.778C344.46 339.487 341.26 347.377 340.273 357.401C339.285 367.426 340.884 375.788 343.844 376.08C346.804 376.371 350.004 368.481 350.991 358.457Z" fill="#E4E4E5"/>
<path d="M351.095 309.711C351.587 299.48 349.538 291.068 346.517 290.923C343.497 290.778 340.65 298.954 340.158 309.185C339.666 319.416 341.715 327.827 344.736 327.972C347.756 328.117 350.603 319.941 351.095 309.711Z" fill="#E4E4E5"/>
<path d="M345.626 279.867C348.707 279.867 351.204 271.409 351.204 260.974C351.204 250.54 348.707 242.081 345.626 242.081C342.545 242.081 340.048 250.54 340.048 260.974C340.048 271.409 342.545 279.867 345.626 279.867Z" fill="#E4E4E5"/>
<path d="M346.517 231.024C349.538 230.879 351.587 222.468 351.095 212.237C350.603 202.006 347.756 193.83 344.736 193.975C341.715 194.12 339.666 202.532 340.158 212.763C340.65 222.994 343.497 231.17 346.517 231.024Z" fill="#E4E4E5"/>
<path d="M347.419 182.17C350.379 181.878 351.978 173.516 350.991 163.491C350.004 153.467 346.804 145.577 343.844 145.868C340.884 146.16 339.285 154.523 340.273 164.547C341.26 174.571 344.46 182.462 347.419 182.17Z" fill="#E4E4E5"/>
<path d="M348.314 133.338C351.215 132.901 352.366 124.583 350.886 114.759C349.406 104.935 345.855 97.3248 342.955 97.7618C340.054 98.1988 338.903 106.517 340.383 116.341C341.863 126.165 345.414 133.775 348.314 133.338Z" fill="#E4E4E5"/>
<path d="M349.189 84.4931C352.029 83.9122 352.736 75.6432 350.769 66.0239C348.801 56.4045 344.904 49.0774 342.064 49.6583C339.223 50.2393 338.516 58.5082 340.484 68.1276C342.451 77.7469 346.349 85.074 349.189 84.4931Z" fill="#E4E4E5"/>
<path d="M350.091 35.6666C352.872 34.9397 353.13 26.7137 350.668 17.2933C348.206 7.87293 343.956 0.825437 341.175 1.5523C338.393 2.27917 338.135 10.5051 340.597 19.9255C343.059 29.3459 347.31 36.3934 350.091 35.6666Z" fill="#E4E4E5"/>
<path d="M391.608 505.318C395.297 496.412 396.157 488.309 393.527 487.22C390.898 486.131 385.776 492.468 382.087 501.374C378.398 510.281 377.538 518.383 380.168 519.473C382.797 520.562 387.919 514.224 391.608 505.318Z" fill="#E4E4E5"/>
<path d="M391.773 456.449C394.724 447.237 394.912 439.063 392.192 438.192C389.472 437.32 384.875 444.082 381.924 453.294C378.973 462.506 378.785 470.68 381.504 471.551C384.224 472.423 388.821 465.661 391.773 456.449Z" fill="#E4E4E5"/>
<path d="M391.937 407.581C394.151 398.063 393.667 389.818 390.857 389.164C388.047 388.511 383.974 395.697 381.761 405.214C379.547 414.732 380.031 422.977 382.841 423.631C385.651 424.284 389.724 417.098 391.937 407.581Z" fill="#E4E4E5"/>
<path d="M392.108 358.715C393.588 348.891 392.437 340.572 389.536 340.135C386.636 339.698 383.085 347.308 381.605 357.132C380.125 366.956 381.276 375.275 384.177 375.712C387.077 376.149 390.628 368.539 392.108 358.715Z" fill="#E4E4E5"/>
<path d="M392.266 309.854C393.007 299.729 391.185 291.344 388.195 291.125C385.206 290.906 382.182 298.937 381.44 309.062C380.699 319.187 382.521 327.572 385.511 327.791C388.5 328.01 391.524 319.979 392.266 309.854Z" fill="#E4E4E5"/>
<path d="M386.848 279.868C389.929 279.868 392.426 271.409 392.426 260.975C392.426 250.54 389.929 242.082 386.848 242.082C383.767 242.082 381.27 250.54 381.27 260.975C381.27 271.409 383.767 279.868 386.848 279.868Z" fill="#E4E4E5"/>
<path d="M388.195 230.824C391.185 230.605 393.007 222.22 392.266 212.095C391.524 201.97 388.5 193.939 385.511 194.158C382.521 194.377 380.699 202.763 381.44 212.888C382.182 223.012 385.206 231.043 388.195 230.824Z" fill="#E4E4E5"/>
<path d="M389.536 181.812C392.437 181.376 393.588 173.057 392.108 163.233C390.628 153.409 387.077 145.799 384.177 146.236C381.276 146.673 380.125 154.991 381.605 164.816C383.085 174.64 386.636 182.249 389.536 181.812Z" fill="#E4E4E5"/>
<path d="M390.856 132.784C393.666 132.131 394.15 123.886 391.936 114.368C389.723 104.85 385.65 97.6646 382.84 98.3181C380.03 98.9717 379.546 107.217 381.76 116.735C383.973 126.252 388.046 133.438 390.856 132.784Z" fill="#E4E4E5"/>
<path d="M392.192 83.7568C394.912 82.8855 394.724 74.7113 391.773 65.4992C388.821 56.2871 384.224 49.5256 381.504 50.397C378.785 51.2683 378.973 59.4425 381.924 68.6545C384.875 77.8666 389.472 84.6281 392.192 83.7568Z" fill="#E4E4E5"/>
<path d="M393.527 34.7289C396.157 33.6398 395.297 25.5369 391.608 16.6306C387.919 7.72431 382.797 1.38719 380.168 2.47627C377.538 3.56536 378.398 11.6682 382.087 20.5746C385.776 29.4809 390.898 35.818 393.527 34.7289Z" fill="#E4E4E5"/>
<path d="M264.635 37.786C267.716 37.786 270.213 29.3273 270.213 18.893C270.213 8.45869 267.716 0 264.635 0C261.554 0 259.057 8.45869 259.057 18.893C259.057 29.3273 261.554 37.786 264.635 37.786Z" fill="#E4E4E5"/>
<path d="M264.635 86.26C267.716 86.26 270.213 77.8013 270.213 67.367C270.213 56.9327 267.716 48.474 264.635 48.474C261.554 48.474 259.057 56.9327 259.057 67.367C259.057 77.8013 261.554 86.26 264.635 86.26Z" fill="#E4E4E5"/>
<path d="M264.635 134.734C267.716 134.734 270.213 126.275 270.213 115.841C270.213 105.406 267.716 96.9476 264.635 96.9476C261.554 96.9476 259.057 105.406 259.057 115.841C259.057 126.275 261.554 134.734 264.635 134.734Z" fill="#E4E4E5"/>
<path d="M264.635 183.209C267.716 183.209 270.213 174.75 270.213 164.316C270.213 153.881 267.716 145.423 264.635 145.423C261.554 145.423 259.057 153.881 259.057 164.316C259.057 174.75 261.554 183.209 264.635 183.209Z" fill="#E4E4E5"/>
<path d="M264.635 231.683C267.716 231.683 270.213 223.224 270.213 212.79C270.213 202.356 267.716 193.897 264.635 193.897C261.554 193.897 259.057 202.356 259.057 212.79C259.057 223.224 261.554 231.683 264.635 231.683Z" fill="#E4E4E5"/>
<path d="M264.636 280.158C267.717 280.158 270.214 271.699 270.214 261.265C270.214 250.831 267.717 242.372 264.636 242.372C261.555 242.372 259.058 250.831 259.058 261.265C259.058 271.699 261.555 280.158 264.636 280.158Z" fill="#E4E4E5"/>
<path d="M264.636 328.632C267.717 328.632 270.214 320.173 270.214 309.739C270.214 299.305 267.717 290.846 264.636 290.846C261.555 290.846 259.058 299.305 259.058 309.739C259.058 320.173 261.555 328.632 264.636 328.632Z" fill="#E4E4E5"/>
<path d="M264.636 377.106C267.717 377.106 270.214 368.647 270.214 358.213C270.214 347.778 267.717 339.32 264.636 339.32C261.555 339.32 259.058 347.778 259.058 358.213C259.058 368.647 261.555 377.106 264.636 377.106Z" fill="#E4E4E5"/>
<path d="M264.636 425.58C267.717 425.58 270.214 417.121 270.214 406.687C270.214 396.253 267.717 387.794 264.636 387.794C261.555 387.794 259.058 396.253 259.058 406.687C259.058 417.121 261.555 425.58 264.636 425.58Z" fill="#E4E4E5"/>
<path d="M264.636 474.055C267.717 474.055 270.214 465.596 270.214 455.162C270.214 444.728 267.717 436.269 264.636 436.269C261.555 436.269 259.058 444.728 259.058 455.162C259.058 465.596 261.555 474.055 264.636 474.055Z" fill="#E4E4E5"/>
<path d="M264.636 522.529C267.717 522.529 270.214 514.07 270.214 503.636C270.214 493.202 267.717 484.743 264.636 484.743C261.555 484.743 259.058 493.202 259.058 503.636C259.058 514.07 261.555 522.529 264.636 522.529Z" fill="#E4E4E5"/>
<path d="M228.715 19.5579C229.945 9.63714 228.568 1.30037 225.639 0.937213C222.71 0.574054 219.338 8.32203 218.108 18.2428C216.878 28.1636 218.255 36.5003 221.184 36.8635C224.113 37.2267 227.485 29.4787 228.715 19.5579Z" fill="#E4E4E5"/>
<path d="M228.778 67.9018C229.765 57.8774 228.166 49.5147 225.206 49.2232C222.247 48.9317 219.047 56.8218 218.06 66.8462C217.072 76.8706 218.671 85.2333 221.631 85.5248C224.591 85.8163 227.791 77.9262 228.778 67.9018Z" fill="#E4E4E5"/>
<path d="M228.831 116.247C229.572 106.122 227.75 97.7365 224.76 97.5176C221.771 97.2987 218.747 105.329 218.005 115.454C217.264 125.579 219.086 133.964 222.076 134.183C225.065 134.402 228.089 126.372 228.831 116.247Z" fill="#E4E4E5"/>
<path d="M228.881 164.578C229.373 154.348 227.323 145.936 224.303 145.791C221.283 145.646 218.436 153.822 217.944 164.052C217.452 174.283 219.501 182.695 222.522 182.84C225.542 182.985 228.389 174.809 228.881 164.578Z" fill="#E4E4E5"/>
<path d="M228.937 212.922C229.183 202.59 226.91 194.155 223.859 194.082C220.809 194.01 218.136 202.327 217.89 212.659C217.644 222.992 219.918 231.427 222.968 231.5C226.019 231.572 228.691 223.255 228.937 212.922Z" fill="#E4E4E5"/>
<path d="M223.414 280.158C226.495 280.158 228.992 271.699 228.992 261.265C228.992 250.831 226.495 242.372 223.414 242.372C220.333 242.372 217.836 250.831 217.836 261.265C217.836 271.699 220.333 280.158 223.414 280.158Z" fill="#E4E4E5"/>
<path d="M223.859 328.448C226.91 328.375 229.183 319.94 228.937 309.608C228.691 299.275 226.019 290.958 222.968 291.031C219.918 291.103 217.644 299.538 217.89 309.871C218.136 320.203 220.809 328.521 223.859 328.448Z" fill="#E4E4E5"/>
<path d="M224.304 376.738C227.324 376.593 229.374 368.182 228.882 357.951C228.39 347.72 225.543 339.544 222.523 339.689C219.502 339.834 217.453 348.246 217.945 358.477C218.437 368.708 221.284 376.884 224.304 376.738Z" fill="#E4E4E5"/>
<path d="M224.76 425.011C227.75 424.793 229.572 416.407 228.831 406.282C228.089 396.157 225.065 388.127 222.076 388.346C219.086 388.565 217.264 396.95 218.005 407.075C218.747 417.2 221.771 425.23 224.76 425.011Z" fill="#E4E4E5"/>
<path d="M225.206 473.307C228.166 473.015 229.765 464.653 228.778 454.628C227.791 444.604 224.591 436.714 221.631 437.005C218.671 437.297 217.072 445.66 218.06 455.684C219.047 465.708 222.247 473.598 225.206 473.307Z" fill="#E4E4E5"/>
<path d="M225.639 521.591C228.568 521.228 229.945 512.891 228.715 502.971C227.485 493.05 224.113 485.302 221.184 485.665C218.255 486.028 216.878 494.365 218.108 504.286C219.338 514.207 222.71 521.955 225.639 521.591Z" fill="#E4E4E5"/>
<path d="M187.233 20.2009C189.695 10.7805 189.437 2.55457 186.656 1.8277C183.875 1.10084 179.624 8.14833 177.162 17.5687C174.7 26.9891 174.958 35.2151 177.74 35.942C180.521 36.6688 184.771 29.6213 187.233 20.2009Z" fill="#E4E4E5"/>
<path d="M187.334 68.4191C189.301 58.7998 188.594 50.5308 185.754 49.9499C182.914 49.369 179.016 56.696 177.049 66.3154C175.081 75.9348 175.788 84.2037 178.629 84.7847C181.469 85.3656 185.366 78.0385 187.334 68.4191Z" fill="#E4E4E5"/>
<path d="M187.451 116.633C188.931 106.809 187.78 98.4906 184.879 98.0536C181.979 97.6167 178.428 105.226 176.948 115.051C175.468 124.875 176.619 133.193 179.52 133.63C182.42 134.067 185.971 126.457 187.451 116.633Z" fill="#E4E4E5"/>
<path d="M187.556 164.85C188.543 154.825 186.944 146.462 183.984 146.171C181.025 145.879 177.825 153.77 176.838 163.794C175.85 173.818 177.449 182.181 180.409 182.473C183.369 182.764 186.569 174.874 187.556 164.85Z" fill="#E4E4E5"/>
<path d="M187.66 213.053C188.152 202.822 186.102 194.411 183.082 194.265C180.062 194.12 177.215 202.296 176.723 212.527C176.231 222.758 178.28 231.169 181.301 231.315C184.321 231.46 187.168 223.284 187.66 213.053Z" fill="#E4E4E5"/>
<path d="M182.192 280.158C185.273 280.158 187.77 271.699 187.77 261.265C187.77 250.831 185.273 242.372 182.192 242.372C179.111 242.372 176.614 250.831 176.614 261.265C176.614 271.699 179.111 280.158 182.192 280.158Z" fill="#E4E4E5"/>
<path d="M183.082 328.264C186.102 328.119 188.152 319.707 187.66 309.477C187.168 299.246 184.321 291.07 181.301 291.215C178.28 291.36 176.231 299.772 176.723 310.003C177.215 320.233 180.062 328.409 183.082 328.264Z" fill="#E4E4E5"/>
<path d="M183.984 376.358C186.944 376.066 188.543 367.703 187.556 357.679C186.569 347.655 183.369 339.765 180.409 340.056C177.449 340.348 175.85 348.71 176.838 358.735C177.825 368.759 181.025 376.649 183.984 376.358Z" fill="#E4E4E5"/>
<path d="M184.879 424.475C187.78 424.038 188.931 415.72 187.451 405.896C185.971 396.072 182.42 388.462 179.52 388.899C176.619 389.336 175.468 397.654 176.948 407.478C178.428 417.302 181.979 424.912 184.879 424.475Z" fill="#E4E4E5"/>
<path d="M185.755 472.58C188.595 471.999 189.302 463.73 187.335 454.111C185.367 444.491 181.47 437.164 178.63 437.745C175.789 438.326 175.082 446.595 177.05 456.214C179.017 465.834 182.915 473.161 185.755 472.58Z" fill="#E4E4E5"/>
<path d="M186.657 520.701C189.438 519.974 189.696 511.748 187.234 502.328C184.772 492.907 180.522 485.86 177.741 486.587C174.96 487.314 174.701 495.54 177.163 504.96C179.625 514.38 183.876 521.428 186.657 520.701Z" fill="#E4E4E5"/>
<path d="M145.729 20.8646C149.418 11.9582 150.278 3.85535 147.648 2.76626C145.019 1.67718 139.897 8.01429 136.208 16.9206C132.519 25.8269 131.659 33.9298 134.289 35.0189C136.918 36.108 142.04 29.7709 145.729 20.8646Z" fill="#E4E4E5"/>
<path d="M145.894 68.9442C148.845 59.7322 149.033 51.558 146.313 50.6866C143.593 49.8153 138.996 56.5768 136.045 65.7889C133.093 75.001 132.906 83.1752 135.625 84.0465C138.345 84.9178 142.942 78.1563 145.894 68.9442Z" fill="#E4E4E5"/>
<path d="M146.057 117.025C148.271 107.507 147.787 99.2618 144.977 98.6083C142.167 97.9548 138.094 105.141 135.881 114.658C133.667 124.176 134.151 132.421 136.961 133.075C139.771 133.728 143.844 126.542 146.057 117.025Z" fill="#E4E4E5"/>
<path d="M146.229 165.107C147.709 155.283 146.558 146.965 143.657 146.528C140.757 146.091 137.206 153.701 135.726 163.525C134.246 173.349 135.397 181.667 138.298 182.104C141.198 182.541 144.749 174.931 146.229 165.107Z" fill="#E4E4E5"/>
<path d="M146.387 213.196C147.128 203.071 145.306 194.685 142.316 194.467C139.327 194.248 136.303 202.278 135.561 212.403C134.82 222.528 136.642 230.913 139.632 231.132C142.621 231.351 145.645 223.321 146.387 213.196Z" fill="#E4E4E5"/>
<path d="M140.97 280.158C144.051 280.158 146.548 271.7 146.548 261.265C146.548 250.831 144.051 242.372 140.97 242.372C137.889 242.372 135.392 250.831 135.392 261.265C135.392 271.7 137.889 280.158 140.97 280.158Z" fill="#E4E4E5"/>
<path d="M142.316 328.062C145.306 327.844 147.128 319.458 146.387 309.333C145.645 299.208 142.621 291.178 139.632 291.397C136.642 291.616 134.82 300.001 135.561 310.126C136.303 320.251 139.327 328.281 142.316 328.062Z" fill="#E4E4E5"/>
<path d="M143.657 376.001C146.558 375.564 147.709 367.246 146.229 357.422C144.749 347.598 141.198 339.988 138.298 340.425C135.397 340.862 134.246 349.18 135.726 359.004C137.206 368.828 140.757 376.438 143.657 376.001Z" fill="#E4E4E5"/>
<path d="M144.978 423.921C147.788 423.268 148.272 415.022 146.058 405.505C143.845 395.987 139.772 388.801 136.962 389.455C134.152 390.109 133.668 398.354 135.882 407.871C138.095 417.389 142.168 424.575 144.978 423.921Z" fill="#E4E4E5"/>
<path d="M146.313 471.842C149.033 470.971 148.845 462.797 145.894 453.585C142.942 444.373 138.345 437.611 135.625 438.483C132.906 439.354 133.093 447.528 136.045 456.74C138.996 465.952 143.593 472.714 146.313 471.842Z" fill="#E4E4E5"/>
<path d="M147.649 519.763C150.279 518.674 149.419 510.571 145.73 501.664C142.041 492.758 136.919 486.421 134.29 487.51C131.66 488.599 132.52 496.702 136.209 505.608C139.898 514.515 145.02 520.852 147.649 519.763Z" fill="#E4E4E5"/>
<path d="M104.236 21.521C109.155 13.1239 111.133 5.13943 108.654 3.68729C106.175 2.23515 100.177 7.8652 95.2585 16.2624C90.3396 24.6595 88.3616 32.644 90.8406 34.0961C93.3196 35.5483 99.3167 29.9182 104.236 21.521Z" fill="#E4E4E5"/>
<path d="M104.454 69.4708C108.389 60.6662 109.472 52.5869 106.873 51.4252C104.274 50.2635 98.9764 56.4593 95.0413 65.2639C91.1061 74.0685 90.0231 82.1478 92.6223 83.3095C95.2216 84.4712 100.519 78.2754 104.454 69.4708Z" fill="#E4E4E5"/>
<path d="M104.672 117.418C107.623 108.206 107.811 100.032 105.091 99.1608C102.371 98.2895 97.7741 105.051 94.8228 114.263C91.8715 123.475 91.6838 131.649 94.4035 132.521C97.1232 133.392 101.72 126.63 104.672 117.418Z" fill="#E4E4E5"/>
<path d="M104.89 165.369C106.857 155.749 106.15 147.48 103.31 146.899C100.47 146.318 96.5722 153.645 94.6046 163.265C92.637 172.884 93.3444 181.153 96.1845 181.734C99.0247 182.315 102.922 174.988 104.89 165.369Z" fill="#E4E4E5"/>
<path d="M105.112 213.324C106.099 203.299 104.5 194.937 101.541 194.645C98.5808 194.354 95.3811 202.244 94.3937 212.268C93.4064 222.293 95.0054 230.655 97.9651 230.947C100.925 231.238 104.125 223.348 105.112 213.324Z" fill="#E4E4E5"/>
<path d="M99.747 280.158C102.828 280.158 105.325 271.699 105.325 261.265C105.325 250.831 102.828 242.372 99.747 242.372C96.6664 242.372 94.169 250.831 94.169 261.265C94.169 271.699 96.6664 280.158 99.747 280.158Z" fill="#E4E4E5"/>
<path d="M101.541 327.884C104.5 327.592 106.099 319.23 105.112 309.205C104.125 299.181 100.925 291.291 97.9651 291.582C95.0054 291.874 93.4064 300.236 94.3937 310.261C95.3811 320.285 98.5808 328.175 101.541 327.884Z" fill="#E4E4E5"/>
<path d="M103.311 375.631C106.151 375.05 106.858 366.781 104.891 357.162C102.923 347.543 99.0257 340.215 96.1855 340.796C93.3454 341.377 92.638 349.646 94.6056 359.266C96.5732 368.885 100.471 376.212 103.311 375.631Z" fill="#E4E4E5"/>
<path d="M105.091 423.367C107.811 422.496 107.623 414.322 104.672 405.11C101.72 395.898 97.1232 389.136 94.4035 390.007C91.6838 390.879 91.8715 399.053 94.8228 408.265C97.7741 417.477 102.371 424.239 105.091 423.367Z" fill="#E4E4E5"/>
<path d="M106.873 471.105C109.472 469.943 108.389 461.864 104.454 453.06C100.519 444.255 95.2216 438.059 92.6223 439.221C90.0231 440.383 91.1061 448.462 95.0413 457.266C98.9764 466.071 104.274 472.267 106.873 471.105Z" fill="#E4E4E5"/>
<path d="M108.654 518.842C111.133 517.39 109.155 509.405 104.236 501.008C99.3167 492.611 93.3196 486.981 90.8406 488.433C88.3616 489.885 90.3396 497.869 95.2585 506.267C100.177 514.664 106.175 520.294 108.654 518.842Z" fill="#E4E4E5"/>
<path d="M62.7484 22.1767C68.8989 14.2861 71.9964 6.41746 69.6668 4.60167C67.3373 2.78587 60.4629 7.71048 54.3124 15.6011C48.1619 23.4917 45.0645 31.3603 47.394 33.1761C49.7235 34.9919 56.5979 30.0673 62.7484 22.1767Z" fill="#E4E4E5"/>
<path d="M63.0137 69.9963C67.9326 61.5991 69.9105 53.6146 67.4315 52.1625C64.9526 50.7104 58.9554 56.3404 54.0365 64.7376C49.1176 73.1348 47.1396 81.1192 49.6186 82.5714C52.0976 84.0235 58.0947 78.3934 63.0137 69.9963Z" fill="#E4E4E5"/>
<path d="M63.2853 117.814C66.9744 108.908 67.8335 100.805 65.2042 99.7155C62.575 98.6265 57.4529 104.964 53.7638 113.87C50.0746 122.776 49.2155 130.879 51.8448 131.968C54.4741 133.057 59.5961 126.72 63.2853 117.814Z" fill="#E4E4E5"/>
<path d="M63.5682 165.625C66.0303 156.205 65.7718 147.979 62.9908 147.252C60.2097 146.525 55.9593 153.572 53.4971 162.993C51.035 172.413 51.2935 180.639 54.0745 181.366C56.8556 182.093 61.106 175.045 63.5682 165.625Z" fill="#E4E4E5"/>
<path d="M63.8304 213.448C65.0601 203.523 63.6817 195.183 60.7516 194.82C57.8215 194.457 54.4493 202.209 53.2196 212.134C51.9899 222.058 53.3683 230.398 56.2984 230.761C59.2286 231.125 62.6007 223.373 63.8304 213.448Z" fill="#E4E4E5"/>
<path d="M58.525 280.158C61.6056 280.158 64.103 271.7 64.103 261.265C64.103 250.831 61.6056 242.372 58.525 242.372C55.4443 242.372 52.947 250.831 52.947 261.265C52.947 271.7 55.4443 280.158 58.525 280.158Z" fill="#E4E4E5"/>
<path d="M60.7516 327.71C63.6817 327.347 65.0601 319.007 63.8304 309.082C62.6007 299.157 59.2286 291.406 56.2984 291.769C53.3683 292.132 51.9899 300.472 53.2196 310.396C54.4493 320.321 57.8215 328.073 60.7516 327.71Z" fill="#E4E4E5"/>
<path d="M62.9908 375.278C65.7718 374.551 66.0303 366.325 63.5682 356.905C61.106 347.485 56.8556 340.437 54.0745 341.164C51.2935 341.891 51.035 350.117 53.4971 359.537C55.9593 368.958 60.2097 376.005 62.9908 375.278Z" fill="#E4E4E5"/>
<path d="M65.2052 422.815C67.8345 421.726 66.9754 413.623 63.2862 404.717C59.5971 395.81 54.475 389.473 51.8457 390.562C49.2165 391.651 50.0756 399.754 53.7647 408.661C57.4538 417.567 62.5759 423.904 65.2052 422.815Z" fill="#E4E4E5"/>
<path d="M67.4315 470.367C69.9105 468.914 67.9326 460.93 63.0137 452.533C58.0947 444.136 52.0976 438.506 49.6186 439.958C47.1396 441.41 49.1176 449.394 54.0365 457.792C58.9554 466.189 64.9526 471.819 67.4315 470.367Z" fill="#E4E4E5"/>
<path d="M69.6668 517.929C71.9964 516.113 68.8989 508.245 62.7484 500.354C56.5979 492.463 49.7235 487.539 47.394 489.354C45.0645 491.17 48.1619 499.039 54.3124 506.929C60.4629 514.82 67.3373 519.745 69.6668 517.929Z" fill="#E4E4E5"/>
<path d="M21.2479 22.8371C28.626 15.4589 32.8413 7.71183 30.663 5.53348C28.4846 3.35514 20.7375 7.57044 13.3594 14.9486C5.98119 22.3268 1.7659 30.0739 3.94424 32.2522C6.12259 34.4306 13.8697 30.2153 21.2479 22.8371Z" fill="#E4E4E5"/>
<path d="M21.5672 70.5256C27.4676 62.5392 30.3394 54.6527 27.9816 52.9108C25.6238 51.1688 18.9291 56.2309 13.0287 64.2174C7.12825 72.2038 4.25641 80.0903 6.61424 81.8322C8.97208 83.5742 15.6667 78.5121 21.5672 70.5256Z" fill="#E4E4E5"/>
<path d="M21.9059 118.214C26.3363 109.614 27.8696 101.582 25.3308 100.274C22.7919 98.9664 17.1422 104.877 12.7119 113.477C8.28152 122.076 6.74816 130.108 9.28702 131.416C11.8259 132.724 17.4756 126.813 21.9059 118.214Z" fill="#E4E4E5"/>
<path d="M22.2277 165.893C25.179 156.681 25.3667 148.507 22.647 147.636C19.9273 146.764 15.3301 153.526 12.3788 162.738C9.42749 171.95 9.23976 180.124 11.9595 180.996C14.6792 181.867 19.2764 175.105 22.2277 165.893Z" fill="#E4E4E5"/>
<path d="M22.5631 213.582C24.0432 203.758 22.8918 195.44 19.9914 195.003C17.091 194.566 13.54 202.176 12.0599 212C10.5798 221.824 11.7312 230.142 14.6316 230.579C17.532 231.016 21.083 223.406 22.5631 213.582Z" fill="#E4E4E5"/>
<path d="M17.303 280.158C20.3837 280.158 22.881 271.699 22.881 261.265C22.881 250.831 20.3837 242.372 17.303 242.372C14.2224 242.372 11.725 250.831 11.725 261.265C11.725 271.699 14.2224 280.158 17.303 280.158Z" fill="#E4E4E5"/>
<path d="M19.9914 327.526C22.8918 327.089 24.0432 318.771 22.5631 308.947C21.083 299.123 17.532 291.513 14.6316 291.95C11.7312 292.387 10.5798 300.705 12.0599 310.529C13.54 320.353 17.091 327.963 19.9914 327.526Z" fill="#E4E4E5"/>
<path d="M22.647 374.893C25.3667 374.022 25.179 365.847 22.2277 356.635C19.2764 347.423 14.6792 340.662 11.9595 341.533C9.23976 342.404 9.42749 350.579 12.3788 359.791C15.3301 369.003 19.9273 375.764 22.647 374.893Z" fill="#E4E4E5"/>
<path d="M25.3308 422.254C27.8696 420.946 26.3363 412.915 21.9059 404.315C17.4756 395.716 11.8259 389.805 9.28702 391.113C6.74816 392.421 8.28152 400.452 12.7119 409.052C17.1422 417.651 22.7919 423.562 25.3308 422.254Z" fill="#E4E4E5"/>
<path d="M27.9816 469.619C30.3394 467.877 27.4676 459.991 21.5672 452.004C15.6667 444.018 8.97208 438.956 6.61424 440.698C4.25641 442.44 7.12825 450.326 13.0287 458.313C18.9291 466.299 25.6238 471.361 27.9816 469.619Z" fill="#E4E4E5"/>
<path d="M30.663 516.996C32.8413 514.817 28.626 507.07 21.2479 499.692C13.8697 492.314 6.12259 488.099 3.94424 490.277C1.7659 492.455 5.98119 500.202 13.3594 507.581C20.7375 514.959 28.4846 519.174 30.663 516.996Z" fill="#E4E4E5"/>
</svg>
