<svg width="151" height="149" viewBox="0 0 151 149" fill="none" xmlns="http://www.w3.org/2000/svg">
<path d="M80.3106 49.5576C86.3711 48.2805 91.7435 44.8035 95.3906 39.7977C99.0377 34.7918 100.701 28.6121 100.059 22.4519C99.4168 16.2917 96.5152 10.5876 91.9143 6.44129C87.3134 2.29497 81.3395 0.000488281 75.1459 0.000488281C68.9524 0.000488281 62.9784 2.29497 58.3775 6.44129C53.7766 10.5876 50.8751 16.2917 50.2331 22.4519C49.5911 28.6121 51.2542 34.7918 54.9013 39.7977C58.5484 44.8035 63.9208 48.2805 69.9813 49.5576C64.3581 50.7431 59.3135 53.826 55.6932 58.2891C52.0729 62.7522 50.0972 68.3244 50.0972 74.0712C50.0972 79.818 52.0729 85.3898 55.6932 89.8529C59.3135 94.316 64.3581 97.3988 69.9813 98.5844C63.921 99.8615 58.5488 103.339 54.9018 108.344C51.2549 113.35 49.5919 119.53 50.2339 125.69C50.8759 131.85 53.7773 137.553 58.3781 141.699C62.9788 145.845 68.9526 148.14 75.1459 148.14C81.3393 148.14 87.313 145.845 91.9138 141.699C96.5145 137.553 99.416 131.85 100.058 125.69C100.7 119.53 99.037 113.35 95.39 108.344C91.7431 103.339 86.3709 99.8615 80.3106 98.5844C85.9332 97.3981 90.977 94.3152 94.5967 89.8522C98.2164 85.3891 100.192 79.8175 100.192 74.0712C100.192 68.3248 98.2164 62.7528 94.5967 58.2898C90.977 53.8268 85.9332 50.7439 80.3106 49.5576Z" fill="white"/>
<path d="M130.405 49.5575C136.466 48.2805 141.838 44.8034 145.486 39.7975C149.133 34.7917 150.796 28.6121 150.154 22.4518C149.512 16.2916 146.61 10.5875 142.01 6.44117C137.409 2.29481 131.435 0 125.241 0C119.047 0 113.074 2.29481 108.473 6.44117C103.872 10.5875 100.97 16.2916 100.328 22.4518C99.6863 28.6121 101.349 34.7917 104.997 39.7975C108.644 44.8034 114.016 48.2805 120.077 49.5575C114.016 50.8345 108.643 54.3118 104.996 59.3178C101.349 64.3238 99.6855 70.5034 100.327 76.6639C100.969 82.8243 103.871 88.5284 108.472 92.6749C113.073 96.8214 119.047 99.1164 125.241 99.1164C131.435 99.1164 137.409 96.8214 142.01 92.6749C146.611 88.5284 149.513 82.8243 150.155 76.6639C150.797 70.5034 149.133 64.3238 145.486 59.3178C141.839 54.3118 136.466 50.8345 130.405 49.5575Z" fill="white"/>
<path d="M30.2121 98.5842C36.2726 97.3072 41.6451 93.8301 45.2923 88.8243C48.9394 83.8184 50.6026 77.6388 49.9606 71.4786C49.3187 65.3183 46.4172 59.6143 41.8163 55.4679C37.2154 51.3215 31.2414 49.0271 25.0478 49.0271C18.8542 49.0271 12.8802 51.3215 8.27935 55.4679C3.67845 59.6143 0.776908 65.3183 0.134961 71.4786C-0.506987 77.6388 1.15619 83.8184 4.80335 88.8243C8.45051 93.8301 13.823 97.3072 19.8835 98.5842C13.823 99.8612 8.45051 103.338 4.80335 108.344C1.15619 113.35 -0.506987 119.53 0.134961 125.69C0.776908 131.85 3.67845 137.554 8.27935 141.701C12.8802 145.847 18.8542 148.142 25.0478 148.142C31.2414 148.142 37.2154 145.847 41.8163 141.701C46.4172 137.554 49.3187 131.85 49.9606 125.69C50.6026 119.53 48.9394 113.35 45.2923 108.344C41.6451 103.338 36.2726 99.8612 30.2121 98.5842Z" fill="white"/>
</svg>
