<svg width="1004" height="43" viewBox="0 0 1004 43" fill="none" xmlns="http://www.w3.org/2000/svg">
<path d="M36.3 35.2568C31.4423 39.99 24.9284 42.639 18.146 42.6397H0.200012L33.914 8.92481C39.603 3.23677 47.3183 0.0413898 55.363 0.0410156H72.432L36.3 35.2568ZM118.974 0.0410156H101.9C93.8552 0.0413898 86.14 3.23677 80.451 8.92481L46.737 42.6397H64.683C71.4651 42.6391 77.9788 39.9901 82.836 35.2568L118.974 0.0410156ZM165.513 0.0410156H148.443C140.398 0.0412156 132.684 3.23664 126.995 8.92481L93.28 42.6397H111.225C118.007 42.6391 124.521 39.9901 129.378 35.2568L165.513 0.0410156ZM212.053 0.0410156H194.983C186.938 0.0413898 179.223 3.23677 173.534 8.92481L139.821 42.6397H157.766C164.548 42.639 171.062 39.99 175.92 35.2568L212.053 0.0410156ZM258.593 0.0410156H241.523C233.479 0.0414353 225.764 3.23683 220.075 8.92481L186.361 42.6397H204.3C211.082 42.6391 217.596 39.9901 222.453 35.2568L258.593 0.0410156ZM305.132 0.0410156H288.06C280.016 0.041371 272.301 3.23679 266.613 8.92481L232.9 42.6397H250.845C257.628 42.6397 264.142 39.9906 269 35.2568L305.132 0.0410156ZM351.673 0.0410156H334.6C326.555 0.0413898 318.84 3.23677 313.151 8.92481L279.438 42.6397H297.383C304.165 42.6388 310.679 39.9899 315.537 35.2568L351.673 0.0410156ZM398.213 0.0410156H381.143C373.098 0.0413898 365.383 3.23677 359.694 8.92481L325.98 42.6397H343.926C350.708 42.639 357.222 39.99 362.079 35.2568L398.213 0.0410156ZM444.753 0.0410156H427.68C419.635 0.0412156 411.921 3.23664 406.232 8.92481L372.519 42.6397H390.464C397.246 42.6391 403.76 39.9901 408.617 35.2568L444.753 0.0410156ZM491.292 0.0410156H474.22C466.176 0.0414353 458.461 3.23683 452.772 8.92481L419.059 42.6397H437C443.782 42.6392 450.296 39.9902 455.154 35.2568L491.292 0.0410156ZM537.832 0.0410156H520.76C512.716 0.0415451 505.001 3.23692 499.312 8.92481L465.6 42.6397H483.545C490.327 42.639 496.841 39.99 501.699 35.2568L537.832 0.0410156ZM584.373 0.0410156H567.3C559.255 0.0413898 551.54 3.23677 545.851 8.92481L512.137 42.6397H530.082C536.864 42.6392 543.378 39.9902 548.235 35.2568L584.373 0.0410156ZM630.912 0.0410156H613.84C605.796 0.0412156 598.081 3.23664 592.392 8.92481L558.678 42.6397H576.624C583.406 42.6391 589.92 39.9901 594.777 35.2568L630.912 0.0410156ZM677.452 0.0410156H660.38C652.335 0.0413898 644.62 3.23677 638.931 8.92481L605.218 42.6397H623.163C629.945 42.639 636.459 39.99 641.317 35.2568L677.452 0.0410156ZM723.992 0.0410156H706.92C698.875 0.0414353 691.161 3.23683 685.472 8.92481L651.758 42.6397H669.7C676.482 42.6391 682.996 39.9901 687.853 35.2568L723.992 0.0410156ZM770.531 0.0410156H753.461C745.417 0.041371 737.702 3.23679 732.014 8.92481L698.3 42.6397H716.245C723.027 42.6391 729.541 39.9901 734.398 35.2568L770.531 0.0410156ZM817.072 0.0410156H800C791.955 0.0413898 784.24 3.23677 778.551 8.92481L744.838 42.6397H762.782C769.564 42.6392 776.078 39.9902 780.936 35.2568L817.072 0.0410156ZM863.612 0.0410156H846.542C838.497 0.0413898 830.782 3.23677 825.093 8.92481L791.379 42.6397H809.325C816.107 42.6388 822.621 39.9899 827.479 35.2568L863.612 0.0410156ZM910.152 0.0410156H893.082C885.037 0.0413898 877.322 3.23677 871.633 8.92481L837.92 42.6397H855.865C862.647 42.6391 869.161 39.9901 874.018 35.2568L910.152 0.0410156ZM956.691 0.0410156H939.621C935.638 0.0410284 931.694 0.825288 928.014 2.34961C924.334 3.87393 920.99 6.10825 918.174 8.92481L884.46 42.6397H902.4C909.182 42.6391 915.696 39.9901 920.553 35.2568L956.691 0.0410156ZM1003.23 0.0410156H986.161C978.117 0.0414353 970.402 3.23683 964.713 8.92481L931 42.6397H948.945C955.727 42.639 962.241 39.99 967.099 35.2568L1003.23 0.0410156Z" fill="#E4E4E5"/>
</svg>
