<svg width="478" height="29" viewBox="0 0 478 29" fill="none" xmlns="http://www.w3.org/2000/svg">
<path d="M476.463 13.4752C464.973 13.4752 463.814 12.3152 463.814 0.826233C463.814 0.727347 463.795 0.629444 463.757 0.538086C463.719 0.446728 463.663 0.363685 463.594 0.293762C463.524 0.22384 463.44 0.168396 463.349 0.130554C463.258 0.0927124 463.16 0.0732422 463.061 0.0732422C462.962 0.0732422 462.864 0.0927124 462.773 0.130554C462.682 0.168396 462.598 0.22384 462.529 0.293762C462.459 0.363685 462.403 0.446728 462.365 0.538086C462.328 0.629444 462.308 0.727347 462.308 0.826233C462.308 12.3152 461.149 13.4752 449.66 13.4752H28.3391C16.8501 13.4752 15.6912 12.3152 15.6912 0.826233C15.6912 0.626525 15.6117 0.435038 15.4705 0.293823C15.3292 0.152608 15.1377 0.0732422 14.938 0.0732422C14.7383 0.0732422 14.5467 0.152608 14.4055 0.293823C14.2643 0.435038 14.1851 0.626525 14.1851 0.826233C14.1851 12.3152 13.0261 13.4752 1.53613 13.4752C1.33642 13.4752 1.14488 13.5546 1.00366 13.6958C0.862447 13.837 0.782959 14.0286 0.782959 14.2283C0.782959 14.428 0.862447 14.6195 1.00366 14.7607C1.14488 14.9019 1.33642 14.9813 1.53613 14.9813C13.0261 14.9813 14.1851 16.1403 14.1851 27.6293C14.1851 27.829 14.2643 28.0205 14.4055 28.1617C14.5467 28.3029 14.7383 28.3823 14.938 28.3823C15.1377 28.3823 15.3292 28.3029 15.4705 28.1617C15.6117 28.0205 15.6912 27.829 15.6912 27.6293C15.6912 16.1403 16.8501 14.9813 28.3391 14.9813H449.66C461.149 14.9813 462.308 16.1403 462.308 27.6293C462.308 27.7282 462.328 27.8261 462.365 27.9174C462.403 28.0088 462.459 28.0918 462.529 28.1617C462.598 28.2316 462.682 28.2871 462.773 28.325C462.864 28.3628 462.962 28.3823 463.061 28.3823C463.16 28.3823 463.258 28.3628 463.349 28.325C463.44 28.2871 463.524 28.2316 463.594 28.1617C463.663 28.0918 463.719 28.0088 463.757 27.9174C463.795 27.8261 463.814 27.7282 463.814 27.6293C463.814 16.1403 464.973 14.9813 476.463 14.9813C476.663 14.9813 476.854 14.9019 476.996 14.7607C477.137 14.6195 477.216 14.428 477.216 14.2283C477.216 14.0286 477.137 13.837 476.996 13.6958C476.854 13.5546 476.663 13.4752 476.463 13.4752Z" fill="#E4E4E5"/>
</svg>
