<svg width="1292" height="1756" viewBox="0 0 1292 1756" fill="none" xmlns="http://www.w3.org/2000/svg">
<path d="M877.944 898.974C889.561 898.974 898.979 889.557 898.979 877.939C898.979 866.322 889.561 856.904 877.944 856.904C866.327 856.904 856.909 866.322 856.909 877.939C856.909 889.557 866.327 898.974 877.944 898.974Z" stroke="#111111" stroke-width="4.207" stroke-miterlimit="10"/>
<path d="M877.943 931.738C907.656 931.738 931.743 907.651 931.743 877.938C931.743 848.225 907.656 824.138 877.943 824.138C848.23 824.138 824.143 848.225 824.143 877.938C824.143 907.651 848.23 931.738 877.943 931.738Z" stroke="#111111" stroke-width="4.207" stroke-miterlimit="10"/>
<path d="M877.944 964.505C925.753 964.505 964.51 925.748 964.51 877.939C964.51 830.13 925.753 791.373 877.944 791.373C830.135 791.373 791.378 830.13 791.378 877.939C791.378 925.748 830.135 964.505 877.944 964.505Z" stroke="#111111" stroke-width="4.207" stroke-miterlimit="10"/>
<path d="M877.943 997.269C943.848 997.269 997.274 943.843 997.274 877.938C997.274 812.034 943.848 758.607 877.943 758.607C812.038 758.607 758.612 812.034 758.612 877.938C758.612 943.843 812.038 997.269 877.943 997.269Z" stroke="#111111" stroke-width="4.207" stroke-miterlimit="10"/>
<path d="M877.944 1030.04C961.945 1030.04 1030.04 961.94 1030.04 877.939C1030.04 793.938 961.945 725.842 877.944 725.842C793.943 725.842 725.847 793.938 725.847 877.939C725.847 961.94 793.943 1030.04 877.944 1030.04Z" stroke="#111111" stroke-width="4.207" stroke-miterlimit="10"/>
<path d="M877.943 1062.8C980.04 1062.8 1062.81 980.035 1062.81 877.938C1062.81 775.842 980.04 693.076 877.943 693.076C775.847 693.076 693.081 775.842 693.081 877.938C693.081 980.035 775.847 1062.8 877.943 1062.8Z" stroke="#111111" stroke-width="4.207" stroke-miterlimit="10"/>
<path d="M877.944 1095.57C998.137 1095.57 1095.57 998.132 1095.57 877.939C1095.57 757.746 998.137 660.311 877.944 660.311C757.751 660.311 660.316 757.746 660.316 877.939C660.316 998.132 757.751 1095.57 877.944 1095.57Z" stroke="#111111" stroke-width="4.207" stroke-miterlimit="10"/>
<path d="M877.943 1128.33C1016.23 1128.33 1128.34 1016.23 1128.34 877.938C1128.34 739.65 1016.23 627.545 877.943 627.545C739.655 627.545 627.55 739.65 627.55 877.938C627.55 1016.23 739.655 1128.33 877.943 1128.33Z" stroke="#111111" stroke-width="4.207" stroke-miterlimit="10"/>
<path d="M877.944 1161.1C1034.33 1161.1 1161.1 1034.32 1161.1 877.939C1161.1 721.555 1034.33 594.78 877.944 594.78C721.56 594.78 594.785 721.555 594.785 877.939C594.785 1034.32 721.56 1161.1 877.944 1161.1Z" stroke="#111111" stroke-width="4.207" stroke-miterlimit="10"/>
<path d="M877.943 1193.86C1052.42 1193.86 1193.87 1052.42 1193.87 877.938C1193.87 703.458 1052.42 562.014 877.943 562.014C703.463 562.014 562.019 703.458 562.019 877.938C562.019 1052.42 703.463 1193.86 877.943 1193.86Z" stroke="#111111" stroke-width="4.207" stroke-miterlimit="10"/>
<path d="M877.944 1226.63C1070.52 1226.63 1226.63 1070.52 1226.63 877.939C1226.63 685.363 1070.52 529.249 877.944 529.249C685.368 529.249 529.254 685.363 529.254 877.939C529.254 1070.52 685.368 1226.63 877.944 1226.63Z" stroke="#111111" stroke-width="4.207" stroke-miterlimit="10"/>
<path d="M877.943 1259.39C1088.61 1259.39 1259.4 1088.61 1259.4 877.938C1259.4 667.266 1088.61 496.483 877.943 496.483C667.271 496.483 496.488 667.266 496.488 877.938C496.488 1088.61 667.271 1259.39 877.943 1259.39Z" stroke="#111111" stroke-width="4.207" stroke-miterlimit="10"/>
<path d="M877.944 1292.16C1106.71 1292.16 1292.16 1106.71 1292.16 877.938C1292.16 649.17 1106.71 463.717 877.944 463.717C649.176 463.717 463.723 649.17 463.723 877.938C463.723 1106.71 649.176 1292.16 877.944 1292.16Z" stroke="#111111" stroke-width="4.207" stroke-miterlimit="10"/>
<path d="M877.943 1324.92C1124.81 1324.92 1324.93 1124.8 1324.93 877.938C1324.93 631.075 1124.81 430.952 877.943 430.952C631.079 430.952 430.957 631.075 430.957 877.938C430.957 1124.8 631.079 1324.92 877.943 1324.92Z" stroke="#111111" stroke-width="4.207" stroke-miterlimit="10"/>
<path d="M877.944 1357.69C1142.9 1357.69 1357.7 1142.9 1357.7 877.938C1357.7 612.978 1142.9 398.186 877.944 398.186C612.984 398.186 398.192 612.978 398.192 877.938C398.192 1142.9 612.984 1357.69 877.944 1357.69Z" stroke="#111111" stroke-width="4.207" stroke-miterlimit="10"/>
<path d="M877.943 1390.46C1161 1390.46 1390.46 1160.99 1390.46 877.938C1390.46 594.883 1161 365.421 877.943 365.421C594.888 365.421 365.426 594.883 365.426 877.938C365.426 1160.99 594.888 1390.46 877.943 1390.46Z" stroke="#111111" stroke-width="4.207" stroke-miterlimit="10"/>
<path d="M877.944 1423.22C1179.1 1423.22 1423.23 1179.09 1423.23 877.938C1423.23 576.786 1179.1 332.655 877.944 332.655C576.793 332.655 332.661 576.786 332.661 877.938C332.661 1179.09 576.793 1423.22 877.944 1423.22Z" stroke="#111111" stroke-width="4.207" stroke-miterlimit="10"/>
<path d="M877.943 1455.99C1197.19 1455.99 1455.99 1197.19 1455.99 877.938C1455.99 558.691 1197.19 299.89 877.943 299.89C558.696 299.89 299.895 558.691 299.895 877.938C299.895 1197.19 558.696 1455.99 877.943 1455.99Z" stroke="#111111" stroke-width="4.207" stroke-miterlimit="10"/>
<path d="M877.944 1488.75C1215.29 1488.75 1488.76 1215.28 1488.76 877.938C1488.76 540.595 1215.29 267.124 877.944 267.124C540.601 267.124 267.13 540.595 267.13 877.938C267.13 1215.28 540.601 1488.75 877.944 1488.75Z" stroke="#111111" stroke-width="4.207" stroke-miterlimit="10"/>
<path d="M877.943 1521.52C1233.38 1521.52 1521.52 1233.38 1521.52 877.938C1521.52 522.499 1233.38 234.359 877.943 234.359C522.504 234.359 234.364 522.499 234.364 877.938C234.364 1233.38 522.504 1521.52 877.943 1521.52Z" stroke="#111111" stroke-width="4.207" stroke-miterlimit="10"/>
<path d="M877.944 1554.28C1251.48 1554.28 1554.29 1251.47 1554.29 877.938C1554.29 504.403 1251.48 201.593 877.944 201.593C504.409 201.593 201.599 504.403 201.599 877.938C201.599 1251.47 504.409 1554.28 877.944 1554.28Z" stroke="#111111" stroke-width="4.207" stroke-miterlimit="10"/>
<path d="M877.944 1587.05C1269.58 1587.05 1587.06 1269.57 1587.06 877.939C1587.06 486.308 1269.58 168.828 877.944 168.828C486.313 168.828 168.833 486.308 168.833 877.939C168.833 1269.57 486.313 1587.05 877.944 1587.05Z" stroke="#111111" stroke-width="4.207" stroke-miterlimit="10"/>
<path d="M877.944 1619.81C1287.67 1619.81 1619.82 1287.66 1619.82 877.938C1619.82 468.211 1287.67 136.062 877.944 136.062C468.217 136.062 136.068 468.211 136.068 877.938C136.068 1287.66 468.217 1619.81 877.944 1619.81Z" stroke="#111111" stroke-width="4.207" stroke-miterlimit="10"/>
<path d="M877.944 1652.58C1305.77 1652.58 1652.59 1305.76 1652.59 877.939C1652.59 450.116 1305.77 103.297 877.944 103.297C450.121 103.297 103.302 450.116 103.302 877.939C103.302 1305.76 450.121 1652.58 877.944 1652.58Z" stroke="#111111" stroke-width="4.207" stroke-miterlimit="10"/>
<path d="M877.943 1685.35C1323.86 1685.35 1685.35 1323.86 1685.35 877.938C1685.35 432.019 1323.86 70.5308 877.943 70.5308C432.024 70.5308 70.536 432.019 70.536 877.938C70.536 1323.86 432.024 1685.35 877.943 1685.35Z" stroke="#111111" stroke-width="4.207" stroke-miterlimit="10"/>
<path d="M877.944 1718.11C1341.96 1718.11 1718.12 1341.95 1718.12 877.939C1718.12 413.924 1341.96 37.7661 877.944 37.7661C413.929 37.7661 37.771 413.924 37.771 877.939C37.771 1341.95 413.929 1718.11 877.944 1718.11Z" stroke="#111111" stroke-width="4.207" stroke-miterlimit="10"/>
<path d="M877.943 1750.88C1360.05 1750.88 1750.88 1360.05 1750.88 877.938C1750.88 395.828 1360.05 5 877.943 5C395.833 5 5.005 395.828 5.005 877.938C5.005 1360.05 395.833 1750.88 877.943 1750.88Z" stroke="#111111" stroke-width="4.207" stroke-miterlimit="10"/>
<path d="M857.737 883.778C856.188 878.419 856.832 872.664 859.526 867.779C862.221 862.894 866.746 859.28 872.105 857.731C877.464 856.182 883.219 856.826 888.104 859.521C892.989 862.215 896.603 866.739 898.152 872.099" stroke="#111111" stroke-width="8.414" stroke-linecap="round" stroke-linejoin="round"/>
<path d="M926.537 854.851C932.66 867.739 933.413 882.532 928.629 895.975C923.846 909.418 913.918 920.41 901.03 926.533C888.142 932.656 873.349 933.409 859.906 928.626C846.463 923.842 835.471 913.914 829.348 901.026" stroke="#111111" stroke-width="8.414" stroke-linecap="round" stroke-linejoin="round"/>
<path d="M923.92 804.591C943.271 816.832 956.985 836.241 962.058 858.569C967.132 880.897 963.153 904.326 950.991 923.727C938.83 943.128 919.478 956.921 897.17 962.085C874.863 967.25 851.418 963.366 831.967 951.284" stroke="#111111" stroke-width="8.414" stroke-linecap="round" stroke-linejoin="round"/>
<path d="M899.13 760.503C930.276 766.122 957.914 783.884 975.964 809.88C994.014 835.877 1001 867.98 995.379 899.126C989.76 930.271 971.998 957.909 946.002 975.96C920.005 994.01 887.903 1000.99 856.757 995.375" stroke="#111111" stroke-width="8.414" stroke-linecap="round" stroke-linejoin="round"/>
<path d="M868.854 726.114C888.872 724.776 908.957 727.412 927.952 733.869C946.948 740.327 964.477 750.479 979.532 763.74C994.588 777.001 1006.87 793.11 1015.67 811.138C1024.48 829.167 1029.63 848.759 1030.82 868.786C1032.02 888.813 1029.25 908.879 1022.66 927.829C1016.07 946.779 1005.8 964.238 992.432 979.201C979.066 994.164 962.873 1006.33 944.784 1015.01C926.695 1023.69 907.068 1028.7 887.033 1029.76" stroke="#111111" stroke-width="8.414" stroke-linecap="round" stroke-linejoin="round"/>
<path d="M801.048 709.828C893.893 667.36 1003.59 708.198 1046.05 801.043C1088.52 893.888 1047.68 1003.58 954.839 1046.05" stroke="#111111" stroke-width="8.414" stroke-linecap="round" stroke-linejoin="round"/>
<path d="M731.98 716.518C821.13 635.905 958.751 642.825 1039.36 731.975C1119.98 821.125 1113.06 958.746 1023.91 1039.36" stroke="#111111" stroke-width="8.414" stroke-linecap="round" stroke-linejoin="round"/>
<path d="M664.18 747.546C736.194 629.488 890.28 592.162 1008.34 664.175C1126.39 736.188 1163.72 890.275 1091.71 1008.33" stroke="#111111" stroke-width="8.414" stroke-linecap="round" stroke-linejoin="round"/>
<path d="M606.26 798.146C650.329 648.099 807.691 562.186 957.737 606.255C1107.78 650.324 1193.7 807.686 1149.63 957.732" stroke="#111111" stroke-width="8.414" stroke-linecap="round" stroke-linejoin="round"/>
<path d="M562.291 864.84C569.525 690.509 716.712 555.052 891.042 562.286C1065.37 569.52 1200.83 716.707 1193.6 891.037" stroke="#111111" stroke-width="8.414" stroke-linecap="round" stroke-linejoin="round"/>
<path d="M612.687 651.612C737.687 505.112 957.773 487.685 1104.27 612.682C1250.77 737.679 1268.2 957.768 1143.2 1104.26" stroke="#111111" stroke-width="8.414" stroke-linecap="round" stroke-linejoin="round"/>
<path d="M1047.87 1219.45C859.261 1313.3 630.28 1236.48 536.43 1047.87C442.58 859.256 519.4 630.275 708.013 536.425" stroke="#111111" stroke-width="8.414" stroke-linecap="round" stroke-linejoin="round"/>
<path d="M974.59 1280.73C752.136 1334.1 528.532 1197.04 475.155 974.585C421.778 752.131 558.843 528.527 781.297 475.15" stroke="#111111" stroke-width="8.414" stroke-linecap="round" stroke-linejoin="round"/>
<path d="M546.815 1178.19C380.991 995.312 394.815 712.634 577.692 546.81C760.569 380.986 1043.25 394.81 1209.07 577.687" stroke="#111111" stroke-width="8.414" stroke-linecap="round" stroke-linejoin="round"/>
<path d="M1037.91 1330.24C788.111 1418.58 513.994 1287.7 425.647 1037.91C337.3 788.109 468.179 513.989 717.976 425.642" stroke="#111111" stroke-width="8.414" stroke-linecap="round" stroke-linejoin="round"/>
<path d="M369.254 940.461C334.724 659.519 534.48 403.779 815.421 369.249C1096.36 334.719 1352.1 534.475 1386.63 815.416" stroke="#111111" stroke-width="8.414" stroke-linecap="round" stroke-linejoin="round"/>
<path d="M1320.41 1196.62C1144.41 1440.99 803.631 1496.41 559.264 1320.4C314.897 1144.4 259.475 803.626 435.477 559.258" stroke="#111111" stroke-width="8.414" stroke-linecap="round" stroke-linejoin="round"/>
<path d="M1416.09 1088.98C1299.53 1386.19 964.105 1532.64 666.896 1416.08C369.687 1299.53 223.237 964.099 339.8 666.891" stroke="#111111" stroke-width="8.414" stroke-linecap="round" stroke-linejoin="round"/>
<path d="M1250.21 1362.2C982.757 1567.8 599.276 1517.66 393.679 1250.2C188.082 982.75 238.226 599.269 505.679 393.673" stroke="#111111" stroke-width="8.414" stroke-linecap="round" stroke-linejoin="round"/>
<path d="M1521.52 877.938C1521.52 1233.38 1233.38 1521.52 877.944 1521.52C522.505 1521.52 234.364 1233.38 234.364 877.938" stroke="#111111" stroke-width="8.414" stroke-linecap="round" stroke-linejoin="round"/>
<path d="M1390.29 1319.46C1146.45 1602.42 719.387 1634.13 436.423 1390.29C153.459 1146.44 121.749 719.382 365.593 436.418" stroke="#111111" stroke-width="8.414" stroke-linecap="round" stroke-linejoin="round"/>
<path d="M1541.95 1126.8C1404.51 1493.52 995.806 1679.39 629.085 1541.95C262.364 1404.51 76.494 995.801 213.937 629.084" stroke="#111111" stroke-width="8.414" stroke-linecap="round" stroke-linejoin="round"/>
<path d="M877.944 1619.81C1287.67 1619.81 1619.82 1287.66 1619.82 877.938C1619.82 468.211 1287.67 136.062 877.944 136.062C468.217 136.062 136.068 468.211 136.068 877.938C136.068 1287.66 468.217 1619.81 877.944 1619.81Z" stroke="#111111" stroke-width="8.414" stroke-linecap="round" stroke-linejoin="round"/>
<path d="M877.944 1652.58C450.121 1652.58 103.302 1305.77 103.302 877.942C103.302 450.119 450.121 103.301 877.944 103.301" stroke="#111111" stroke-width="8.414" stroke-linecap="round" stroke-linejoin="round"/>
<path d="M877.943 1685.35C1323.86 1685.35 1685.35 1323.86 1685.35 877.938C1685.35 432.019 1323.86 70.5308 877.943 70.5308C432.024 70.5308 70.536 432.019 70.536 877.938C70.536 1323.86 432.024 1685.35 877.943 1685.35Z" stroke="#111111" stroke-width="8.414" stroke-linecap="round" stroke-linejoin="round"/>
<path d="M877.944 1718.11C1341.96 1718.11 1718.12 1341.95 1718.12 877.939C1718.12 413.924 1341.96 37.7661 877.944 37.7661C413.929 37.7661 37.771 413.924 37.771 877.939C37.771 1341.95 413.929 1718.11 877.944 1718.11Z" stroke="#111111" stroke-width="8.414" stroke-linecap="round" stroke-linejoin="round"/>
<path d="M877.943 1750.88C1360.05 1750.88 1750.88 1360.05 1750.88 877.938C1750.88 395.828 1360.05 5 877.943 5C395.833 5 5.005 395.828 5.005 877.938C5.005 1360.05 395.833 1750.88 877.943 1750.88Z" stroke="#111111" stroke-width="8.414" stroke-linecap="round" stroke-linejoin="round"/>
</svg>
