<svg width="207" height="93" viewBox="0 0 207 93" fill="none" xmlns="http://www.w3.org/2000/svg">
<path d="M0.229004 47.1072H31.0923C31.2813 51.9747 33.2984 56.592 36.7412 60.0381L63.3159 86.6111C66.9683 90.2541 71.9166 92.3 77.0752 92.3C82.2338 92.3 87.1816 90.2541 90.834 86.6111L103.534 73.9111L116.234 86.6111C119.886 90.2544 124.834 92.3004 129.993 92.3004C135.152 92.3004 140.1 90.2544 143.752 86.6111L170.326 60.0381C173.769 56.5918 175.786 51.9747 175.976 47.1072H206.838V45.4491H175.975C175.785 40.5816 173.768 35.9644 170.325 32.5181L143.751 5.94617C141.944 4.13893 139.799 2.70527 137.438 1.72717C135.078 0.749072 132.548 0.245605 129.992 0.245605C127.437 0.245605 124.906 0.749072 122.545 1.72717C120.185 2.70527 118.04 4.13893 116.233 5.94617L103.533 18.6461L90.833 5.94617C89.0263 4.13905 86.8813 2.70544 84.5205 1.72742C82.1597 0.749391 79.6296 0.246094 77.0742 0.246094C74.5189 0.246094 71.9882 0.749391 69.6274 1.72742C67.2666 2.70544 65.1217 4.13905 63.3149 5.94617L36.7402 32.5181C33.2974 35.9642 31.2804 40.5816 31.0913 45.4491H0.228027L0.229004 47.1072ZM89.6621 85.4391C86.3212 88.7724 81.7946 90.6444 77.0752 90.6444C72.3558 90.6444 67.8292 88.7724 64.4883 85.4391L37.9131 58.8661C34.7814 55.7303 32.9385 51.5349 32.748 47.1072H84.0122C84.2016 51.9748 86.219 56.5921 89.6621 60.0381L102.362 72.7382L89.6621 85.4391ZM121.401 47.1072C121.211 51.5349 119.368 55.7305 116.236 58.8661L103.536 71.5662L90.8359 58.8661C87.7035 55.7307 85.8603 51.5351 85.6699 47.1072H121.401ZM85.668 45.4491C85.8584 41.0212 87.7017 36.8255 90.834 33.6901L103.534 20.9901L116.234 33.6901C119.366 36.8257 121.209 41.0213 121.399 45.4491H85.668ZM169.156 58.8661L142.582 85.4391C139.241 88.7724 134.715 90.6444 129.995 90.6444C125.276 90.6444 120.749 88.7724 117.408 85.4391L104.708 72.7391L117.408 60.0391C120.851 56.5927 122.868 51.9757 123.058 47.1082H174.321C174.131 51.5355 172.288 55.7306 169.156 58.8661ZM117.408 7.11816C119.061 5.46513 121.023 4.15378 123.183 3.25916C125.343 2.36453 127.657 1.90417 129.995 1.90417C132.333 1.90417 134.647 2.36453 136.807 3.25916C138.967 4.15378 140.929 5.46513 142.582 7.11816L169.156 33.6901C172.288 36.8258 174.131 41.0214 174.321 45.4491H123.058C122.868 40.5816 120.851 35.9645 117.408 32.5181L104.708 19.8181L117.408 7.11816ZM37.9082 33.6901L64.4829 7.11816C66.1358 5.46513 68.0981 4.15378 70.2578 3.25916C72.4175 2.36453 74.7327 1.90417 77.0703 1.90417C79.408 1.90417 81.7226 2.36453 83.8823 3.25916C86.042 4.15378 88.0043 5.46513 89.6572 7.11816L102.357 19.8181L89.6572 32.5181C86.2141 35.9641 84.1967 40.5814 84.0073 45.4491H32.7432C32.935 41.0207 34.7795 36.8251 37.9131 33.6901H37.9082Z" fill="black"/>
</svg>
