<svg width="164" height="86" viewBox="0 0 164 86" fill="none" xmlns="http://www.w3.org/2000/svg">
<path d="M38.983 32.9512C38.7829 33.4144 38.4724 33.8214 38.0786 34.1367C37.6847 34.4521 37.2195 34.6657 36.7238 34.7598C36.2281 34.8538 35.7169 34.825 35.2349 34.6758C34.7529 34.5265 34.3149 34.262 33.959 33.9043L25.993 25.9365L25.0291 26.9023L32.9951 34.8682C33.3528 35.2238 33.6179 35.6617 33.7673 36.1436C33.9166 36.6254 33.9456 37.1362 33.8516 37.6318C33.7577 38.1275 33.5437 38.5925 33.2285 38.9863C32.9132 39.3801 32.5062 39.6905 32.0431 39.8906C25.9971 42.4546 16.1351 42.5381 0.0290527 42.5381V43.9014C16.1351 43.9014 25.9971 43.9839 32.0431 46.5469C32.5062 46.7471 32.9131 47.0583 33.2284 47.4522C33.5437 47.8461 33.7576 48.3109 33.8516 48.8067C33.9455 49.3024 33.9165 49.813 33.7672 50.2949C33.6179 50.7769 33.3528 51.2155 32.9951 51.5713L25.0291 59.5371L25.993 60.501L33.959 52.5352C34.3148 52.1772 34.7528 51.9121 35.2349 51.7627C35.7169 51.6133 36.2282 51.5837 36.724 51.6777C37.2198 51.7718 37.685 51.9862 38.0788 52.3018C38.4726 52.6173 38.7831 53.0249 38.983 53.4883C41.547 59.5343 41.6301 69.394 41.6301 85.501H42.9931C42.9931 69.395 43.0761 59.5333 45.6401 53.4883C45.8401 53.0249 46.1507 52.6173 46.5446 52.3018C46.9385 51.9863 47.4039 51.7718 47.8997 51.6777C48.3956 51.5837 48.9069 51.6133 49.389 51.7627C49.8711 51.9121 50.3093 52.1772 50.6651 52.5352L58.6301 60.501L59.5941 59.5371L51.6281 51.5713C51.2704 51.2155 51.0053 50.7769 50.856 50.2949C50.7068 49.813 50.6779 49.3024 50.7719 48.8067C50.8659 48.3109 51.0801 47.845 51.3954 47.4512C51.7108 47.0573 52.1179 46.747 52.5811 46.5469C58.6271 43.9839 68.4881 43.9014 84.5941 43.9014H163.312V42.5381H84.5941C68.4881 42.5381 58.6271 42.4546 52.5811 39.8906C52.118 39.6906 51.7108 39.3801 51.3954 38.9863C51.0801 38.5926 50.866 38.1275 50.7719 37.6318C50.6779 37.1362 50.7068 36.6255 50.856 36.1436C51.0053 35.6617 51.2704 35.2239 51.6281 34.8682L59.5941 26.9023L58.6301 25.9365L50.6651 33.9043C50.3092 34.262 49.871 34.5266 49.389 34.6758C48.9069 34.825 48.3956 34.8538 47.8998 34.7598C47.4041 34.6657 46.9389 34.4521 46.545 34.1367C46.151 33.8214 45.8403 33.4144 45.6401 32.9512C43.0761 26.9052 42.9931 17.0435 42.9931 0.936523H41.6301C41.6301 17.0435 41.547 26.9022 38.983 32.9512Z" fill="#E4E4E5"/>
</svg>
