<svg width="122" height="64" viewBox="0 0 122 64" fill="none" xmlns="http://www.w3.org/2000/svg">
<path d="M121.546 32.6836V31.6768C91.146 31.6768 90.796 31.3228 90.796 0.926758H89.7889C89.7889 31.3268 89.435 31.6768 59.04 31.6768H0.855957V32.6836H59.04C89.434 32.6836 89.7889 33.0376 89.7889 63.4326H90.796C90.8 33.0386 91.15 32.6836 121.546 32.6836ZM84.109 32.1836C84.109 30.5436 84.7605 28.9712 85.9202 27.8115C87.0798 26.6519 88.6525 26 90.2925 26C91.9324 26 93.5053 26.6519 94.6649 27.8115C95.8245 28.9712 96.476 30.5436 96.476 32.1836C96.476 33.8236 95.8245 35.397 94.6649 36.5566C93.5053 37.7163 91.9324 38.3672 90.2925 38.3672C88.6525 38.3672 87.0798 37.7163 85.9202 36.5566C84.7605 35.397 84.109 33.8236 84.109 32.1836Z" fill="#E4E4E5"/>
</svg>
